<?xml version="1.0" encoding="utf-8"?>
<!-- Generator: Adobe Illustrator 17.1.0, SVG Export Plug-In . SVG Version: 6.00 Build 0)  -->
<!DOCTYPE svg PUBLIC "-//W3C//DTD SVG 1.1//EN" "http://www.w3.org/Graphics/SVG/1.1/DTD/svg11.dtd">
<svg version="1.1" id="Layer_1" xmlns="http://www.w3.org/2000/svg" xmlns:xlink="http://www.w3.org/1999/xlink" x="0px" y="0px"
	 viewBox="0 0 600 350" enable-background="new 0 0 600 350" xml:space="preserve">
<path d="M66.5,209.7l0.4,1.3c0.1,0,0.2-0.1,0.3-0.1c0.1,0,0.1,0,0.2-0.1c0.2-0.1,0.4-0.2,0.5-0.2c0.1,0,0.1,0,0.2,0
	c0.1,0,0.2,0,0.3,0h0.8c0.1,0,0.2,0,0.3,0c0.1,0,0.1,0,0.1,0c0.1,0,0.1,0,0.2,0c0.1,0,0.2,0,0.3,0c0.2,0,0.2,0,0.3,0.1
	c0.1,0,0.1,0,0.2,0c0,0,1.1,0,3.3,0c0.1,0,0.2,0,0.3,0c0.1,0,0.1,0,0.2,0c0.1,0,0.2,0,0.4,0c0.2,0,0.2,0,0.3,0l0.2,0l0.2,0
	c0.2,0,0.2,0,0.3,0l0.3,0c0.1,0,0.3,0,0.4,0.1c0.1,0,0.2,0,0.3,0c0.1,0,0.3,0,0.4,0.1c0.1,0,0.2,0,0.4,0.1c0.1,0,0.2,0,0.4,0
	c0.2,0,0.2,0,0.4,0c0.2,0,0.2,0,0.4,0c0.1,0,0.3,0,0.4,0c0.2,0,0.2,0,0.4,0c0.1,0,0.3,0,0.4,0h2.8c0.2,0,0.4,0,0.5,0
	c0.2,0,0.3,0,0.5,0c0.2,0,0.4,0,0.6,0c0.2,0,0.4,0,0.5,0c0.2,0,0.4,0,0.6,0c0.2,0,0.4,0,0.5,0c0.2,0,0.4,0,0.6,0.1
	c0.3,0,0.3,0,0.5,0.1c0.2,0,0.4,0,0.5,0.1c0.2,0,0.4,0,0.6,0.1c0.2,0,0.3,0,0.5,0.1c0.2,0,0.4,0,0.5,0c0.2,0,0.4,0,0.6,0h3.1
	c0.2,0,0.4,0,0.6,0c0.2,0,0.4,0,0.7,0c0.2,0,0.4,0,0.6,0c0.3,0,0.3,0,0.6,0c0.3,0,0.3,0,0.7,0c0.3,0,0.3,0,0.6,0c0.2,0,0.4,0,0.6,0
	c0.3,0,0.5,0,0.7,0c0.3,0,0.3,0,0.6,0c0.3,0,0.3,0,0.6,0c0.2,0,0.4,0,0.6,0c0.3,0,0.3,0,0.6,0c0.3,0,0.3,0,0.6,0c0.2,0,0.4,0,0.5,0
	c0.2,0,0.4,0,0.6-0.1c0.2,0,0.4,0,0.5,0c0.2,0,0.4,0,0.6,0c0.2,0,0.4,0,0.6,0c0.2,0,0.4,0,0.6,0h5.1c0.2,0,0.3,0,0.4,0
	c0.1,0,0.2,0,0.4,0c0.2,0,0.3,0,0.5,0c0.1,0,0.2,0,0.3,0c0.2,0,0.2,0,0.4,0c0.1,0,0.3,0,0.4,0c0.2,0,0.2,0,0.3,0c0.2,0,0.2,0,0.3,0
	c0.1,0,0.2,0,0.4,0c0.1,0,0.2,0,0.2,0c0.2,0,0.2,0,0.3,0c0.2,0,0.2,0,0.3,0c0.1,0,0.1,0,0.2,0c0.1,0,0.2,0,0.3,0c0.1,0,0.1,0,0.2,0
	h0.8v-0.4c0-0.3,0-0.3,0-0.4c0-0.1,0-0.1,0-0.2c0-0.1,0-0.1,0-0.3c0-0.1,0-0.1,0-0.3c0-0.1,0-0.1,0-0.3c0-0.2,0-0.2,0-0.3
	c0-0.1,0-0.2,0-0.3c0-0.1,0-0.3,0-0.4c0-0.1,0-0.2,0-0.3c0-0.2,0-0.2,0-0.4c0-0.1,0-0.3,0-0.4c0-0.2,0-0.3-0.1-0.5
	c0-0.1,0-0.3,0-0.4c0-0.2,0-0.3-0.1-0.5c0-0.2,0-0.2-0.1-0.5l-0.1-0.5c0-0.3,0-0.3-0.1-0.6c0-0.2,0-0.4-0.1-0.6
	c0-0.2-0.1-0.4-0.1-0.6c0-0.2,0-0.4-0.1-0.6c0-0.2,0-0.4-0.1-0.7c0-0.2-0.1-0.4-0.1-0.6c0-0.3,0-0.3-0.1-0.7
	c-0.1-0.4-0.1-0.4-0.1-0.8c0-0.3,0-0.3-0.1-0.7c0-0.2-0.1-0.4-0.1-0.7c0-0.2-0.1-0.5-0.1-0.8c-0.1-0.4-0.1-0.4-0.1-0.7
	c0-0.2-0.1-0.4-0.1-0.7c0-0.3,0-0.3-0.1-0.7c0-0.2-0.1-0.4-0.1-0.7c0-0.2-0.1-0.5-0.1-0.7c0-0.2-0.1-0.5-0.1-0.7
	c0-0.2-0.1-0.5-0.1-0.6c0-0.2-0.1-0.4-0.1-0.7c0-0.4,0-0.4-0.1-0.7c0-0.3,0-0.3-0.1-0.7c0-0.2-0.1-0.4-0.1-0.6c0-0.3,0-0.3-0.1-0.7
	c-0.1-0.4-0.1-0.4-0.1-0.7c0-0.3,0-0.3-0.1-0.7c-0.1-0.4-0.1-0.4-0.1-0.7c0-0.3-0.1-0.5-0.1-0.8c0-0.3-0.1-0.5-0.1-0.8
	c-0.1-0.4-0.1-0.4-0.1-0.8c0-0.3-0.1-0.5-0.1-0.8c0-0.3-0.1-0.5-0.1-0.8c0-0.3-0.1-0.5-0.1-0.8c0-0.3-0.1-0.5-0.1-0.8
	c0-0.3-0.1-0.6-0.1-0.8c0-0.3-0.1-0.5-0.1-0.8c-0.1-0.3-0.1-0.6-0.1-0.8c0-0.3-0.1-0.5-0.1-0.8c0-0.3-0.1-0.5-0.1-0.8
	c0-0.3-0.1-0.5-0.1-0.8c0-0.3-0.1-0.5-0.1-0.8c0-0.2-0.1-0.5-0.1-0.8c-0.1-0.4-0.1-0.4-0.1-0.8c0-0.3-0.1-0.5-0.1-0.9
	c0-0.3-0.1-0.6-0.1-0.9c0-0.3-0.1-0.5-0.1-0.8c-0.1-0.3-0.1-0.5-0.2-0.8c-0.1-0.4-0.1-0.4-0.2-0.8c-0.1-0.3-0.1-0.5-0.2-0.7
	c-0.1-0.3-0.1-0.3-0.2-0.7c-0.1-0.2-0.1-0.5-0.2-0.7c-0.1-0.2-0.1-0.5-0.2-0.7c-0.1-0.2-0.1-0.4-0.2-0.6c0-0.2-0.1-0.4-0.2-0.6
	c-0.1-0.4-0.1-0.4-0.2-0.6c-0.1-0.2-0.1-0.4-0.2-0.7c-0.1-0.2-0.1-0.4-0.2-0.6c-0.1-0.2-0.1-0.4-0.2-0.6c-0.1-0.2-0.1-0.4-0.2-0.6
	c-0.1-0.2-0.1-0.4-0.2-0.6c-0.1-0.2-0.1-0.4-0.2-0.6c-0.1-0.2-0.1-0.4-0.2-0.6c-0.1-0.2-0.2-0.4-0.2-0.6c-0.1-0.2-0.2-0.4-0.2-0.6
	c-0.1-0.3-0.1-0.3-0.3-0.6c-0.1-0.2-0.2-0.4-0.3-0.6c-0.1-0.2-0.2-0.3-0.3-0.5c-0.1-0.3-0.1-0.3-0.3-0.6c-0.1-0.2-0.2-0.4-0.3-0.5
	c-0.1-0.2-0.2-0.3-0.3-0.5c-0.1-0.2-0.2-0.3-0.3-0.5c-0.1-0.1-0.2-0.3-0.3-0.4c-0.1-0.2-0.3-0.3-0.4-0.5c-0.1-0.1-0.2-0.3-0.3-0.4
	c-0.1-0.1-0.2-0.3-0.4-0.4c-0.2-0.2-0.2-0.2-0.4-0.4c-0.1-0.1-0.3-0.3-0.4-0.4c-0.2-0.2-0.2-0.2-0.4-0.4c-0.1-0.1-0.3-0.3-0.4-0.4
	c-0.1-0.1-0.3-0.3-0.4-0.4c-0.2-0.2-0.2-0.2-0.4-0.4c-0.1-0.1-0.3-0.2-0.4-0.4c-0.1-0.1-0.3-0.2-0.4-0.4c-0.1-0.1-0.3-0.2-0.4-0.4
	c-0.1-0.1-0.3-0.2-0.4-0.3c-0.1-0.1-0.3-0.2-0.4-0.3c-0.1-0.1-0.3-0.2-0.4-0.3c-0.1-0.1-0.2-0.2-0.4-0.3c-0.2-0.1-0.3-0.2-0.4-0.3
	c-0.1-0.1-0.2-0.1-0.4-0.2c-0.1-0.1-0.3-0.2-0.4-0.2c-0.1-0.1-0.2-0.1-0.4-0.2c-0.2-0.1-0.3-0.1-0.4-0.2c-0.2-0.1-0.2-0.1-0.4-0.2
	c-0.1-0.1-0.2-0.1-0.3-0.1c-0.1,0-0.2-0.1-0.4-0.1c-0.1,0-0.2,0-0.3-0.1c-0.1,0-0.2,0-0.4,0h-1.2c-0.1,0-0.2,0-0.4,0
	c-0.2,0-0.2,0-0.4,0c-0.2,0-0.2,0-0.4,0c-0.1,0-0.2,0-0.3,0c-0.2,0-0.2,0-0.4,0c-0.1,0-0.2,0-0.4,0c-0.1,0-0.2,0-0.3,0.1
	c-0.1,0-0.3,0.1-0.4,0.1c-0.1,0-0.2,0-0.3,0.1c-0.1,0-0.2,0.1-0.3,0.1c-0.2,0.1-0.2,0.1-0.4,0.1c-0.1,0-0.3,0.1-0.4,0.1
	c-0.1,0-0.2,0.1-0.3,0.1c-0.2,0.1-0.2,0.1-0.4,0.1c-0.1,0-0.2,0.1-0.3,0.1c-0.1,0.1-0.2,0.1-0.3,0.2c-0.1,0.1-0.2,0.1-0.3,0.2
	c-0.2,0.1-0.2,0.1-0.4,0.2c-0.1,0.1-0.2,0.1-0.4,0.2c-0.1,0.1-0.3,0.2-0.4,0.3c-0.1,0.1-0.2,0.2-0.3,0.3c-0.1,0.1-0.3,0.2-0.4,0.4
	c-0.1,0.1-0.3,0.2-0.4,0.3c-0.2,0.2-0.2,0.2-0.4,0.4c-0.1,0.1-0.3,0.3-0.4,0.4c-0.2,0.2-0.3,0.3-0.4,0.4c-0.1,0.1-0.3,0.3-0.4,0.5
	c-0.2,0.2-0.3,0.4-0.4,0.5c-0.1,0.2-0.3,0.3-0.4,0.5c-0.2,0.3-0.2,0.3-0.4,0.5c-0.1,0.1-0.3,0.3-0.4,0.5c-0.2,0.3-0.2,0.3-0.4,0.5
	c-0.1,0.1-0.2,0.3-0.4,0.5c-0.2,0.2-0.3,0.4-0.5,0.6c-0.1,0.2-0.3,0.4-0.4,0.5c-0.1,0.2-0.3,0.4-0.4,0.5c-0.1,0.2-0.2,0.3-0.4,0.5
	c-0.1,0.2-0.3,0.4-0.4,0.6c-0.1,0.2-0.3,0.4-0.4,0.6c-0.1,0.2-0.3,0.4-0.4,0.6c-0.1,0.2-0.3,0.4-0.4,0.6c-0.1,0.2-0.2,0.4-0.3,0.6
	c-0.1,0.2-0.2,0.4-0.4,0.6c-0.1,0.2-0.2,0.4-0.3,0.6c-0.2,0.3-0.2,0.3-0.3,0.7l-0.2,0.4l-0.2,0.4c-0.1,0.2-0.2,0.5-0.3,0.7
	c-0.1,0.2-0.2,0.4-0.3,0.7c-0.1,0.2-0.2,0.4-0.3,0.7c-0.2,0.4-0.2,0.4-0.3,0.8c-0.2,0.4-0.2,0.4-0.3,0.8c-0.1,0.3-0.2,0.5-0.3,0.8
	s-0.2,0.6-0.3,0.9c-0.1,0.3-0.2,0.6-0.3,0.9c-0.1,0.3-0.2,0.6-0.4,0.9c-0.1,0.4-0.2,0.7-0.3,1c-0.1,0.3-0.2,0.6-0.3,0.9
	c-0.1,0.4-0.2,0.7-0.4,1c-0.1,0.3-0.2,0.6-0.3,0.9c-0.1,0.3-0.2,0.6-0.3,0.9c-0.1,0.3-0.2,0.6-0.3,0.9c-0.1,0.4-0.2,0.7-0.3,1
	c-0.1,0.3-0.2,0.6-0.3,0.9c-0.2,0.5-0.2,0.5-0.3,1c-0.1,0.4-0.2,0.7-0.3,1c-0.1,0.5-0.1,0.5-0.3,1c-0.1,0.4-0.2,0.7-0.3,1.1
	c-0.1,0.4-0.2,0.7-0.3,1c-0.1,0.5-0.1,0.5-0.3,1.1c-0.1,0.4-0.2,0.7-0.3,1.1c-0.1,0.5-0.1,0.5-0.3,1.1c-0.1,0.4-0.2,0.8-0.3,1.1
	c-0.1,0.3-0.2,0.7-0.3,1.1c-0.1,0.4-0.2,0.8-0.3,1.2c-0.1,0.6-0.1,0.6-0.2,1.2c-0.1,0.4-0.1,0.8-0.2,1.2c-0.1,0.4-0.1,0.8-0.2,1.3
	c-0.1,0.4-0.1,0.8-0.2,1.2c-0.1,0.4-0.1,0.8-0.2,1.2c-0.1,0.4-0.1,0.8-0.1,1.1c0,0.3-0.1,0.7-0.1,1.1c0,0.4-0.1,0.7-0.1,1.1
	c0,0.3-0.1,0.6-0.1,0.9c0,0.3-0.1,0.6-0.1,0.9c0,0.4,0,0.4-0.1,0.8c0,0.3,0,0.5-0.1,0.8c0,0.3,0,0.5,0,0.7l0,0.7c0,0.2,0,0.4,0,0.7
	c0,0.2,0,0.4,0,0.6v3.3c0,0.1,0,0.2,0,0.2C65.9,209.2,66.4,209.3,66.5,209.7L66.5,209.7z M65.7,210.2
	C65.7,210.2,65.7,210.2,65.7,210.2L65.7,210.2L65.7,210.2z M65.3,209.7c-0.1,0.1-0.1,0.1-0.1,0.1c0,0,0,0,0,0.1h0c0,0,0,0,0,0
	c0,0,0,0,0,0l0,0c0,0,0,0,0,0C65.3,209.8,65.3,209.7,65.3,209.7z"/>
<path d="M94,141.4c-0.1,0.1-0.1,0.1-0.3,0.1c-0.1,0.1-0.3,0.1-0.4,0.2c-0.2,0.1-0.3,0.1-0.5,0.1c-0.2,0-0.3,0.1-0.5,0.1
	c-0.2,0-0.3,0-0.5,0h-0.9c-0.2,0-0.4,0-0.7-0.1c-0.2,0-0.3-0.1-0.4-0.1c-0.1,0-0.3-0.1-0.4-0.1c-0.2-0.1-0.3-0.1-0.5-0.2
	c-0.2-0.1-0.2-0.1-0.4-0.2c-0.2-0.1-0.2-0.1-0.4-0.2c-0.2-0.1-0.2-0.1-0.4-0.2c-0.2-0.1-0.2-0.1-0.4-0.2c-0.2-0.1-0.2-0.1-0.5-0.2
	c-0.2-0.1-0.3-0.1-0.5-0.2c-0.2-0.1-0.3-0.2-0.5-0.2c-0.2-0.1-0.3-0.2-0.5-0.3c-0.2-0.1-0.3-0.2-0.5-0.3c-0.2-0.1-0.3-0.2-0.5-0.3
	c-0.2-0.1-0.3-0.2-0.5-0.4c-0.2-0.1-0.4-0.3-0.6-0.5c-0.2-0.2-0.3-0.3-0.5-0.5c-0.2-0.2-0.4-0.3-0.5-0.5c-0.2-0.2-0.4-0.4-0.5-0.5
	c-0.2-0.2-0.3-0.4-0.5-0.5c-0.1-0.2-0.3-0.3-0.5-0.5c-0.2-0.2-0.3-0.4-0.5-0.7c-0.2-0.2-0.3-0.4-0.5-0.6c-0.1-0.2-0.3-0.4-0.4-0.6
	c-0.2-0.3-0.2-0.3-0.4-0.6c-0.2-0.3-0.3-0.5-0.4-0.7c-0.1-0.2-0.2-0.4-0.3-0.6c-0.1-0.2-0.3-0.5-0.4-0.7c-0.1-0.2-0.2-0.5-0.4-0.7
	c-0.1-0.2-0.2-0.5-0.4-0.8l-0.3-0.7c-0.1-0.3-0.2-0.5-0.3-0.7c-0.1-0.3-0.2-0.5-0.3-0.8c-0.1-0.2-0.2-0.5-0.2-0.8
	c-0.1-0.3-0.2-0.5-0.2-0.8c-0.1-0.3-0.1-0.5-0.2-0.7c-0.1-0.3-0.1-0.3-0.2-0.7c-0.1-0.3-0.1-0.6-0.2-0.8c-0.1-0.3-0.1-0.3-0.1-0.7
	c0-0.2-0.1-0.5-0.1-0.8c0-0.3-0.1-0.5-0.1-0.8c0-0.3-0.1-0.6-0.1-0.9c0-0.3,0-0.6-0.1-0.9c0-0.3,0-0.6,0-0.8c0-0.3,0-0.5,0-0.8v-1.6
	c0-0.3,0-0.5,0-0.7c0-0.3,0-0.6,0.1-0.9c0-0.3,0.1-0.6,0.1-0.8c0.1-0.3,0.1-0.3,0.1-0.7c0-0.3,0.1-0.5,0.2-0.8
	c0.1-0.4,0.1-0.4,0.2-0.7c0.1-0.2,0.1-0.5,0.2-0.7c0.1-0.2,0.2-0.5,0.2-0.7c0.1-0.3,0.2-0.5,0.3-0.7c0.1-0.3,0.1-0.3,0.3-0.6
	c0.1-0.2,0.2-0.4,0.3-0.6c0.1-0.3,0.2-0.5,0.4-0.8c0.1-0.2,0.2-0.4,0.3-0.5c0.1-0.2,0.2-0.5,0.4-0.7c0.1-0.2,0.3-0.4,0.4-0.6
	c0.2-0.3,0.2-0.3,0.4-0.6c0.1-0.2,0.3-0.5,0.5-0.7c0.1-0.2,0.3-0.4,0.4-0.6c0.2-0.2,0.3-0.4,0.5-0.6c0.2-0.3,0.2-0.3,0.5-0.5
	c0.2-0.2,0.3-0.4,0.5-0.5c0.1-0.2,0.3-0.3,0.5-0.5c0.2-0.2,0.3-0.3,0.5-0.5c0.2-0.2,0.4-0.3,0.6-0.5c0.2-0.2,0.4-0.3,0.5-0.5
	c0.2-0.1,0.4-0.3,0.6-0.5c0.2-0.2,0.5-0.3,0.7-0.5c0.2-0.1,0.4-0.3,0.6-0.4c0.2-0.1,0.4-0.2,0.6-0.4c0.2-0.2,0.5-0.3,0.7-0.4
	c0.2-0.1,0.4-0.2,0.6-0.3c0.2-0.1,0.4-0.2,0.6-0.3c0.3-0.1,0.3-0.1,0.6-0.3c0.2-0.1,0.4-0.2,0.7-0.3c0.2-0.1,0.4-0.2,0.6-0.2
	c0.2-0.1,0.5-0.2,0.7-0.2c0.2-0.1,0.4-0.1,0.6-0.2c0.2,0,0.4-0.1,0.7-0.2c0.3-0.1,0.5-0.1,0.7-0.1c0.2,0,0.4,0,0.6-0.1
	c0.2,0,0.4,0,0.7-0.1c0.2,0,0.4,0,0.6,0c0.2,0,0.4,0,0.6,0h1.1c0.2,0,0.4,0,0.6,0c0.3,0,0.5,0,0.7,0.1c0.2,0,0.4,0.1,0.6,0.1
	c0.2,0,0.4,0.1,0.6,0.1c0.2,0,0.4,0.1,0.7,0.2c0.2,0.1,0.4,0.1,0.6,0.2c0.2,0.1,0.4,0.1,0.6,0.2c0.3,0.1,0.3,0.1,0.6,0.2
	c0.3,0.1,0.3,0.1,0.6,0.2c0.2,0.1,0.4,0.1,0.6,0.2c0.2,0.1,0.4,0.1,0.6,0.2c0.2,0.1,0.4,0.2,0.6,0.2c0.3,0.1,0.3,0.1,0.5,0.2
	c0.2,0.1,0.4,0.2,0.5,0.2c0.2,0.1,0.4,0.2,0.5,0.3c0.2,0.1,0.4,0.2,0.6,0.3c0.1,0.1,0.3,0.2,0.5,0.3c0.3,0.1,0.3,0.1,0.5,0.3
	c0.2,0.1,0.4,0.2,0.5,0.3c0.2,0.2,0.2,0.2,0.5,0.3c0.2,0.1,0.3,0.2,0.5,0.3c0.2,0.1,0.3,0.2,0.5,0.4c0.1,0.1,0.3,0.2,0.4,0.4
	c0.2,0.1,0.3,0.3,0.4,0.4c0.1,0.2,0.1,0.2,0.3,0.3c0.1,0.1,0.3,0.3,0.4,0.4c0.1,0.2,0.3,0.3,0.4,0.5c0.2,0.2,0.2,0.2,0.3,0.4
	c0.1,0.1,0.2,0.3,0.3,0.4c0.1,0.2,0.2,0.3,0.3,0.5c0.1,0.1,0.2,0.3,0.3,0.4c0.1,0.1,0.1,0.2,0.2,0.4c0.1,0.1,0.2,0.3,0.3,0.5
	c0.1,0.2,0.2,0.4,0.3,0.5c0.1,0.2,0.1,0.2,0.2,0.4c0.1,0.2,0.1,0.2,0.2,0.4c0.1,0.2,0.1,0.2,0.2,0.4c0.1,0.2,0.2,0.4,0.2,0.5
	c0.1,0.2,0.1,0.3,0.2,0.5c0.1,0.2,0.1,0.2,0.2,0.4c0,0.1,0.1,0.3,0.2,0.5c0.1,0.2,0.1,0.2,0.1,0.4c0,0.1,0.1,0.3,0.1,0.5
	c0.1,0.2,0.1,0.2,0.1,0.5c0,0.2,0.1,0.3,0.1,0.5c0,0.1,0,0.2,0.1,0.3c0,0.2,0.1,0.4,0.1,0.6c0,0.2,0,0.2,0,0.4c0,0.2,0,0.3,0,0.5
	c0,0.1,0,0.3,0,0.4c0,0.2,0,0.4,0,0.6c0,0.2,0,0.3,0,0.4c0,0.2,0,0.2,0,0.5c0,0.2,0,0.3,0,0.4c0,0.2,0,0.3,0,0.5v2.9
	c0,0.2,0,0.4,0,0.6c0,0.2,0,0.2,0,0.4c0,0.1,0,0.3-0.1,0.5c0,0.1,0,0.3-0.1,0.4c0,0.2,0,0.3-0.1,0.5c0,0.1,0,0.2,0,0.3
	c0,0.2,0,0.3-0.1,0.5c0,0.2,0,0.2-0.1,0.4c0,0.1,0,0.2-0.1,0.3c0,0.1-0.1,0.3-0.1,0.4c0,0.2,0,0.2-0.1,0.3c0,0.2-0.1,0.3-0.1,0.5
	c0,0.1,0,0.2-0.1,0.3c0,0.2-0.1,0.3-0.1,0.5c0,0.1,0,0.1-0.1,0.3c0,0.1-0.1,0.3-0.1,0.4c0,0.1-0.1,0.2-0.1,0.3
	c0,0.2-0.1,0.3-0.2,0.5c-0.1,0.2-0.1,0.2-0.1,0.4c-0.1,0.1-0.1,0.3-0.2,0.4c0,0.1-0.1,0.2-0.1,0.3c-0.1,0.1-0.1,0.3-0.2,0.4
	c-0.1,0.2-0.1,0.2-0.2,0.4c-0.1,0.2-0.1,0.2-0.2,0.4c-0.1,0.2-0.1,0.2-0.2,0.3c0,0.1-0.1,0.2-0.1,0.3c-0.1,0.1-0.1,0.3-0.2,0.5
	c-0.1,0.1-0.1,0.3-0.2,0.4c-0.1,0.2-0.1,0.2-0.2,0.3c-0.1,0.1-0.1,0.3-0.2,0.4c0,0.1-0.1,0.2-0.1,0.3c-0.1,0.1-0.1,0.3-0.2,0.4
	c-0.1,0.1-0.2,0.3-0.2,0.4c-0.1,0.1-0.1,0.1-0.2,0.2c-0.1,0.1-0.1,0.2-0.2,0.3c0,0.1-0.1,0.1-0.1,0.2c-0.1,0.1-0.2,0.3-0.3,0.4
	l-0.2,0.2c-0.1,0.1-0.1,0.1-0.2,0.2c-0.1,0.1-0.2,0.2-0.3,0.4c0,0-0.1,0.1-0.1,0.1c-0.1,0.1-0.1,0.2-0.2,0.3
	c-0.1,0.1-0.2,0.2-0.3,0.3c-0.1,0.1-0.1,0.1-0.2,0.2c-0.1,0.1-0.2,0.2-0.3,0.3c-0.1,0.1-0.1,0.1-0.3,0.3c-0.1,0.1-0.2,0.3-0.3,0.3
	c-0.1,0.1-0.1,0.1-0.2,0.2c-0.1,0.1-0.2,0.2-0.3,0.3c-0.1,0.1-0.3,0.3-0.4,0.4c-0.1,0.1-0.3,0.2-0.4,0.3c-0.1,0.1-0.2,0.2-0.4,0.3
	c-0.1,0.1-0.2,0.2-0.3,0.3c-0.1,0.1-0.2,0.2-0.3,0.3c-0.1,0.1-0.3,0.2-0.4,0.3c-0.1,0.1-0.2,0.2-0.3,0.3c-0.2,0.1-0.2,0.1-0.4,0.3
	c-0.2,0.2-0.2,0.2-0.4,0.3c-0.1,0.1-0.3,0.2-0.4,0.3c-0.1,0.1-0.3,0.2-0.4,0.3c-0.2,0.1-0.2,0.1-0.4,0.2c-0.1,0.1-0.3,0.2-0.4,0.2
	c-0.1,0.1-0.3,0.1-0.4,0.2c-0.1,0.1-0.3,0.1-0.4,0.2c-0.1,0.1-0.1,0.1-0.3,0.1c-0.1,0.1-0.3,0.1-0.4,0.2c-0.2,0.1-0.2,0.1-0.3,0.1
	c-0.2,0.1-0.2,0.1-0.3,0.1c-0.1,0-0.2,0.1-0.3,0.1c-0.2,0.1-0.2,0.1-0.3,0.1c-0.1,0-0.2,0.1-0.2,0.1c-0.2,0.1-0.2,0.1-0.4,0.2
	c-0.1,0-0.2,0.1-0.3,0.1c-0.1,0.1-0.2,0.1-0.3,0.2c-0.1,0.1-0.1,0.1-0.2,0.1c-0.1,0.1-0.3,0.1-0.4,0.2c-0.2,0.1-0.4,0.1-0.5,0.2
	c-0.2,0-0.2,0-0.4,0.1c-0.2,0-0.2,0-0.4,0.1c-0.2,0-0.2,0-0.4,0.1c-0.2,0-0.2,0-0.3,0c-0.1,0-0.1,0-0.3,0
	C94.2,141.3,94.1,141.4,94,141.4L94,141.4z M93,138.8c0.4-0.5,1.1-0.6,1.6-0.3c0.1,0,0.1,0,0.2,0c0.1,0,0.1,0,0.3-0.1
	c0.2,0,0.2,0,0.3-0.1c0.1,0,0.1,0,0.2-0.1c0.1,0,0.1-0.1,0.2-0.1c0.1-0.1,0.1-0.1,0.3-0.1c0.1,0,0.2-0.1,0.2-0.1
	c0.1-0.1,0.2-0.1,0.4-0.2c0.1-0.1,0.1-0.1,0.3-0.1c0.1-0.1,0.3-0.1,0.4-0.2c0.2-0.1,0.2-0.1,0.3-0.1c0.1-0.1,0.3-0.1,0.4-0.1
	c0.2,0,0.2,0,0.3-0.1c0.2-0.1,0.2-0.1,0.3-0.1c0.1,0,0.1-0.1,0.2-0.1c0.2-0.1,0.2-0.1,0.3-0.1c0.1,0,0.2-0.1,0.3-0.1
	c0.1,0,0.2-0.1,0.2-0.1c0.1,0,0.2-0.1,0.2-0.1c0.2-0.1,0.2-0.1,0.3-0.2c0.1-0.1,0.2-0.1,0.3-0.2c0.1-0.1,0.2-0.2,0.3-0.2
	c0.2-0.1,0.2-0.1,0.4-0.3c0.2-0.2,0.2-0.2,0.4-0.3c0.1-0.1,0.3-0.2,0.4-0.3c0.1-0.1,0.2-0.2,0.3-0.2c0.1-0.1,0.3-0.2,0.4-0.3
	c0.1-0.1,0.2-0.2,0.4-0.3c0.1-0.1,0.2-0.2,0.3-0.2c0.1-0.1,0.2-0.2,0.3-0.2c0.1-0.1,0.2-0.2,0.3-0.2c0.1-0.1,0.2-0.2,0.2-0.2
	c0.1-0.1,0.1-0.1,0.2-0.2c0.1-0.1,0.1-0.1,0.2-0.3c0.2-0.2,0.2-0.2,0.3-0.3c0.1-0.1,0.1-0.1,0.2-0.2c0.1-0.1,0.2-0.2,0.3-0.3
	c0.1-0.1,0.1-0.1,0.2-0.2c0.1-0.1,0.1-0.1,0.1-0.2c0.1-0.1,0.2-0.2,0.3-0.4c0,0,0.1-0.1,0.1-0.1c0.1-0.1,0.2-0.2,0.2-0.3l0.1-0.1
	c0-0.1,0-0.1,0.1-0.1c0,0,0.1-0.1,0.1-0.1c0.1-0.1,0.1-0.2,0.2-0.3c0-0.1,0.1-0.1,0.1-0.2c0.1-0.1,0.1-0.1,0.2-0.3
	c0-0.1,0.1-0.1,0.1-0.2c0-0.1,0.1-0.2,0.1-0.3c0.1-0.1,0.1-0.3,0.2-0.4c0-0.1,0.1-0.2,0.2-0.3c0.1-0.2,0.1-0.2,0.2-0.3
	c0.1-0.1,0.1-0.2,0.2-0.3c0.1-0.1,0.1-0.2,0.1-0.3c0.1-0.1,0.1-0.3,0.2-0.4c0.1-0.2,0.1-0.2,0.2-0.4c0.1-0.2,0.1-0.2,0.2-0.3
	c0.1-0.2,0.1-0.2,0.2-0.3c0-0.1,0.1-0.2,0.1-0.3c0.1-0.1,0.1-0.3,0.2-0.4c0-0.1,0.1-0.2,0.1-0.3c0.1-0.2,0.1-0.2,0.1-0.4
	c0-0.1,0.1-0.1,0.1-0.2c0-0.2,0.1-0.3,0.1-0.5c0-0.1,0.1-0.2,0.1-0.3c0.1-0.2,0.1-0.2,0.1-0.3c0-0.1,0-0.2,0.1-0.2
	c0-0.2,0.1-0.3,0.1-0.5c0-0.1,0-0.2,0.1-0.3c0-0.2,0-0.2,0.1-0.4c0-0.1,0-0.2,0.1-0.3c0-0.2,0.1-0.3,0.1-0.4c0-0.2,0-0.2,0.1-0.4
	c0-0.1,0-0.2,0-0.3c0-0.2,0-0.3,0.1-0.5c0-0.1,0-0.2,0-0.3c0-0.1,0-0.3,0.1-0.5c0-0.1,0-0.3,0-0.4c0-0.2,0-0.2,0-0.4
	c0-0.1,0-0.2,0-0.3v-2.9c0-0.1,0-0.2,0-0.3c0-0.1,0-0.3,0-0.5c0-0.2,0-0.2,0-0.4c0-0.1,0-0.3,0-0.4c0-0.1,0-0.3,0-0.4
	c0-0.1,0-0.3-0.1-0.5c0-0.1,0-0.3,0-0.4c0-0.2,0-0.2,0-0.4c0-0.1,0-0.2,0-0.3c0-0.2-0.1-0.3-0.1-0.5c0-0.1,0-0.2-0.1-0.3
	c0-0.2,0-0.2-0.1-0.4c0-0.1-0.1-0.2-0.1-0.3c-0.1-0.2-0.1-0.2-0.1-0.4c0-0.1-0.1-0.3-0.1-0.4c-0.1-0.2-0.1-0.2-0.1-0.4
	c-0.1-0.1-0.1-0.3-0.2-0.4c0-0.1-0.1-0.2-0.1-0.3c-0.1-0.2-0.1-0.2-0.2-0.4c-0.1-0.2-0.1-0.2-0.2-0.4c-0.1-0.2-0.1-0.2-0.2-0.4
	c-0.1-0.1-0.1-0.2-0.2-0.4c-0.1-0.1-0.2-0.3-0.2-0.4c-0.1-0.1-0.2-0.3-0.3-0.4c-0.1-0.1-0.1-0.2-0.2-0.4c-0.1-0.1-0.2-0.3-0.3-0.4
	c-0.1-0.1-0.2-0.3-0.2-0.3c-0.1-0.2-0.1-0.2-0.3-0.4c-0.1-0.1-0.2-0.2-0.3-0.3c-0.1-0.1-0.2-0.2-0.3-0.4c-0.2-0.2-0.2-0.2-0.3-0.3
	c-0.1-0.1-0.2-0.2-0.3-0.3c-0.1-0.1-0.2-0.2-0.4-0.3c-0.1-0.1-0.2-0.2-0.4-0.3c-0.1-0.1-0.2-0.2-0.4-0.3c-0.2-0.1-0.2-0.1-0.4-0.3
	c-0.1-0.1-0.3-0.2-0.4-0.2c-0.2-0.1-0.2-0.1-0.5-0.3c-0.2-0.1-0.3-0.2-0.5-0.3c-0.1-0.1-0.3-0.1-0.4-0.2c-0.2-0.1-0.3-0.2-0.5-0.2
	c-0.2-0.1-0.3-0.1-0.5-0.2c-0.3-0.1-0.3-0.1-0.5-0.2c-0.2-0.1-0.3-0.1-0.5-0.2c-0.2-0.1-0.3-0.1-0.5-0.2c-0.2-0.1-0.3-0.1-0.5-0.2
	c-0.3-0.1-0.3-0.1-0.6-0.2c-0.3-0.1-0.3-0.1-0.6-0.2c-0.2-0.1-0.4-0.1-0.5-0.2c-0.2,0-0.4-0.1-0.5-0.1c-0.2-0.1-0.4-0.1-0.5-0.1
	c-0.2,0-0.4-0.1-0.6-0.1c-0.2,0-0.3-0.1-0.5-0.1c-0.1,0-0.3,0-0.4,0c-0.2,0-0.4,0-0.5,0H94c-0.2,0-0.3,0-0.5,0c-0.2,0-0.4,0-0.6,0
	c-0.2,0-0.4,0-0.6,0.1c-0.2,0-0.4,0-0.5,0.1c-0.1,0-0.3,0.1-0.5,0.1c-0.2,0-0.4,0.1-0.5,0.1c-0.2,0-0.4,0.1-0.6,0.2
	c-0.2,0.1-0.4,0.1-0.5,0.2c-0.2,0.1-0.4,0.1-0.6,0.2c-0.2,0.1-0.3,0.1-0.5,0.2c-0.3,0.1-0.3,0.1-0.6,0.3c-0.2,0.1-0.4,0.2-0.5,0.3
	c-0.2,0.1-0.4,0.2-0.5,0.3c-0.2,0.1-0.3,0.2-0.5,0.3c-0.2,0.1-0.4,0.3-0.6,0.4c-0.2,0.1-0.3,0.2-0.5,0.3c-0.2,0.1-0.4,0.2-0.5,0.4
	c-0.2,0.2-0.4,0.3-0.5,0.4c-0.1,0.1-0.3,0.3-0.5,0.4c-0.2,0.2-0.3,0.3-0.5,0.4c-0.2,0.1-0.3,0.3-0.5,0.5c-0.1,0.1-0.3,0.3-0.4,0.4
	c-0.1,0.1-0.2,0.3-0.4,0.4c-0.2,0.3-0.2,0.3-0.5,0.5c-0.1,0.1-0.2,0.3-0.4,0.5c-0.1,0.2-0.3,0.4-0.4,0.6c-0.1,0.2-0.2,0.4-0.4,0.5
	c-0.2,0.3-0.2,0.3-0.4,0.6c-0.1,0.2-0.2,0.4-0.4,0.6c-0.1,0.2-0.2,0.4-0.3,0.5c-0.1,0.2-0.2,0.4-0.4,0.7c-0.1,0.2-0.2,0.4-0.3,0.5
	c-0.1,0.2-0.2,0.4-0.3,0.6c-0.1,0.3-0.1,0.3-0.3,0.6c-0.1,0.2-0.1,0.3-0.2,0.5c-0.1,0.2-0.2,0.5-0.2,0.7c-0.1,0.2-0.1,0.4-0.2,0.6
	c-0.1,0.3-0.1,0.3-0.2,0.7c-0.1,0.2-0.1,0.4-0.1,0.6c-0.1,0.3-0.1,0.3-0.1,0.7c0,0.2-0.1,0.5-0.1,0.7c0,0.2-0.1,0.4-0.1,0.6
	c0,0.2,0,0.4,0,0.6v1.6c0,0.2,0,0.5,0,0.7c0,0.3,0,0.5,0,0.8c0,0.3,0,0.5,0.1,0.8c0,0.2,0,0.5,0.1,0.7c0,0.3,0.1,0.5,0.1,0.8
	c0,0.2,0.1,0.5,0.1,0.6c0.1,0.3,0.1,0.3,0.1,0.7c0,0.2,0.1,0.4,0.1,0.7c0.1,0.4,0.1,0.4,0.2,0.7c0,0.2,0.1,0.4,0.2,0.6
	c0.1,0.2,0.1,0.5,0.2,0.7c0.1,0.3,0.2,0.5,0.2,0.7c0.1,0.2,0.1,0.4,0.2,0.6c0.1,0.2,0.2,0.4,0.3,0.7c0.2,0.4,0.2,0.4,0.3,0.7
	c0.1,0.2,0.2,0.4,0.3,0.6c0.1,0.2,0.2,0.4,0.3,0.6c0.1,0.2,0.2,0.4,0.3,0.6c0.1,0.2,0.2,0.4,0.3,0.6c0.1,0.2,0.2,0.3,0.4,0.5
	c0.2,0.3,0.2,0.3,0.4,0.6c0.1,0.2,0.2,0.3,0.4,0.5c0.1,0.2,0.3,0.4,0.5,0.6c0.1,0.2,0.3,0.4,0.4,0.6c0.2,0.2,0.3,0.4,0.4,0.5
	s0.3,0.3,0.4,0.5c0.2,0.2,0.3,0.3,0.5,0.5c0.2,0.2,0.3,0.3,0.4,0.4c0.2,0.1,0.3,0.3,0.5,0.4c0.1,0.1,0.3,0.2,0.4,0.3
	c0.2,0.1,0.3,0.2,0.4,0.3c0.1,0.1,0.3,0.2,0.4,0.3c0.1,0.1,0.3,0.2,0.4,0.2c0.1,0.1,0.3,0.1,0.4,0.2c0.1,0.1,0.3,0.1,0.4,0.2
	c0.2,0.1,0.3,0.1,0.4,0.2c0.2,0.1,0.2,0.1,0.4,0.2c0.2,0.1,0.2,0.1,0.4,0.2c0.2,0.1,0.2,0.1,0.4,0.2c0.2,0.1,0.2,0.1,0.4,0.2
	c0.2,0.1,0.2,0.1,0.4,0.2c0.1,0,0.2,0.1,0.4,0.1c0.1,0,0.2,0.1,0.3,0.1c0.1,0,0.2,0.1,0.3,0.1c0,0,0.3,0,0.9,0c0,0,0.1,0,0.2,0
	c0.1,0,0.2,0,0.3,0c0.1,0,0.2,0,0.2-0.1C92.7,139,92.8,138.9,93,138.8L93,138.8z M93,138.9C93,138.9,93,138.9,93,138.9
	C93,138.9,93,138.9,93,138.9z"/>
<path d="M142.6,245L142.6,245L142.6,245L142.6,245z M138.4,212.3C138.4,212.3,138.4,212.3,138.4,212.3
	C138.4,212.3,138.4,212.3,138.4,212.3z M114.3,208.5c0.2,0.1,0.3,0.3,0.4,0.4h4.8c0.2,0,0.5,0,0.7,0c0.2,0,0.5,0,0.7,0
	c0.2,0,0.4,0,0.6-0.1c0.2,0,0.5-0.1,0.8-0.1c0.4,0,0.4,0,0.8-0.1c0.4,0,0.4,0,0.8-0.1c0.3,0,0.6-0.1,0.8-0.1c0.3,0,0.5,0,0.8-0.1
	c0.3,0,0.5,0,0.8-0.1c0.3,0,0.6,0,0.8-0.1c0.4,0,0.4,0,0.7,0c0.3,0,0.3,0,0.6,0c0.2,0,0.5,0,0.7,0c0.2,0,0.4,0,0.6,0
	c0.2,0,0.5,0,0.6,0c0.2,0,0.4,0,0.6,0c0.2,0,0.4,0,0.5,0c0.3,0,0.3,0,0.6,0c0.2,0,0.4,0,0.6,0h2.3c0.2,0,0.4,0,0.6,0
	c0.2,0,0.3,0,0.5,0.1c0.1,0,0.3,0.1,0.4,0.1c0.1,0,0.3,0.1,0.4,0.1c0.2,0.1,0.3,0.1,0.5,0.2c0.1,0.1,0.1,0.1,0.3,0.1
	c0.1,0,0.2,0.1,0.3,0.2c0.1,0.1,0.2,0.1,0.4,0.2c0.2,0.1,0.2,0.1,0.4,0.2c0.2,0.1,0.4,0.2,0.5,0.3c0.1,0.1,0.1,0.1,0.3,0.2
	c0.2,0.1,0.3,0.3,0.5,0.4c0.1,0.1,0.2,0.2,0.3,0.3c0.2,0.2,0.3,0.4,0.4,0.6c0.1,0.2,0.1,0.4,0.2,0.5c0,0.2,0,0.2,0.1,0.4
	c0,0.1,0,0.3,0,0.4c0,0.2,0,0.2,0,0.3c0,0.1,0,0.2,0,0.3c0,0.2,0,0.2,0,0.4c0,0.2,0,0.2,0,0.4c0,0.2,0,0.2,0,0.4
	c0,0.2,0,0.4,0.1,0.5c0,0.2,0,0.3,0,0.5c0,0.1,0,0.3,0,0.4c0,0.2,0,0.4,0,0.7c0,0.2,0,0.4,0,0.6c0,0.3,0,0.5,0,0.8
	c0,0.3,0,0.5,0,0.8c0,0.4,0,0.4,0,0.9c0,0.5,0,0.5,0,1.1c0,0.4,0,0.7,0,1.1c0,0.4,0,0.7,0,1.1c0,0.4,0,0.7,0,1.2c0,0.4,0,0.8,0,1.2
	c0,0.4,0,0.8,0,1.3c0,0.4,0,0.8,0.1,1.2c0,0.4,0.1,0.8,0.1,1.3c0,0.5,0.1,0.9,0.1,1.3c0,0.4,0.1,0.7,0.1,1.2c0,0.4,0.1,0.8,0.1,1.1
	c0,0.3,0,0.7,0,1c0,0.4,0,0.7,0,1c0,0.3,0,0.7,0,1c0,0.3,0,0.6,0,0.8c0,0.3,0,0.5,0,0.8c0,0.4,0,0.4,0,0.7c0,0.2,0,0.4,0,0.6
	c0,0.2,0,0.5,0,0.7c0,0.3,0,0.3,0,0.6c0,0.3,0,0.3,0,0.6c0,0.2,0,0.4,0,0.6c0,0.2,0,0.3,0,0.4c0,0.2,0,0.4,0,0.6c0,0.1,0,0.3,0,0.4
	c0,0.2,0,0.4,0,0.5v0.4c0,0.1,0,0.2,0,0.3c0,0.2,0,0.3,0,0.4v0.2c0.1,0,0.2,0,0.3,0c0.1,0,0.3,0,0.4,0c0.2,0,0.2-0.1,0.3-0.1
	l0.1-0.1c0.7-0.3,1.5,0,1.8,0.7c0.3,0.7,0,1.5-0.7,1.8l-0.1,0.1c-0.2,0.1-0.3,0.1-0.5,0.2c-0.3,0.1-0.6,0.1-0.9,0.1
	c-0.2,0-0.4,0-0.5,0c-0.2,0-0.4,0-0.5-0.1c-0.2,0-0.4-0.1-0.5-0.1c-0.2,0-0.3-0.1-0.4-0.1l-0.3-0.1c-0.6-0.2-1.1-0.8-1.1-1.5
	c0-0.1,0-0.1,0-0.2c0-0.1,0-0.3,0-0.5V244c0-0.1,0-0.2,0-0.3c0-0.2,0-0.3,0-0.5v-0.4c0-0.1,0-0.2,0-0.4c0-0.2,0-0.4,0-0.6
	c0-0.2,0-0.3,0-0.4c0-0.2,0-0.4,0-0.6c0-0.2,0-0.4,0-0.5c0-0.3,0-0.3,0-0.6c0-0.3,0-0.3,0-0.6c0-0.2,0-0.4,0-0.6c0-0.2,0-0.5,0-0.7
	c0-0.3,0-0.3,0-0.7c0-0.3,0-0.5,0-0.8c0-0.3,0-0.6,0-0.9c0-0.3,0-0.6,0-0.9c0-0.3,0-0.7,0-1c0-0.4,0-0.7,0-1c0-0.3,0-0.6-0.1-1
	c0-0.4-0.1-0.8-0.1-1.1c0-0.4-0.1-0.8-0.1-1.3c0-0.5-0.1-1-0.1-1.4c0-0.4,0-0.8-0.1-1.3c0-0.4,0-0.8,0-1.2c0-0.4,0-0.8,0-1.3
	c0-0.4,0-0.8,0-1.2c0-0.4,0-0.7,0-1.1c0-0.4,0-0.7,0-1.1c0-0.5,0-0.5,0-1.1c0-0.5,0-0.5,0-0.9c0-0.3,0-0.5,0-0.8c0-0.3,0-0.5,0-0.7
	c0-0.3,0-0.5,0-0.7c0-0.2,0-0.4,0-0.5c0-0.2,0-0.4,0-0.5c0-0.1,0-0.2,0-0.3c0-0.1,0-0.3-0.1-0.5c0-0.3,0-0.3,0-0.5
	c0-0.2,0-0.2,0-0.4c0-0.2,0-0.2,0-0.4c0-0.1,0-0.3,0-0.4c0-0.2,0-0.2,0-0.3c0-0.1,0-0.1,0-0.2c0-0.1,0-0.1,0-0.2
	c0,0-0.1-0.1-0.1-0.2c0,0-0.1-0.1-0.1-0.1c-0.1-0.1-0.1-0.1-0.3-0.2c-0.1,0-0.1-0.1-0.2-0.1c-0.2-0.1-0.2-0.1-0.4-0.2
	c-0.1-0.1-0.2-0.1-0.3-0.2c-0.1,0-0.1-0.1-0.2-0.1c-0.1-0.1-0.1-0.1-0.3-0.1c-0.1,0-0.1-0.1-0.2-0.1c-0.1,0-0.2-0.1-0.3-0.1
	c-0.1,0-0.2-0.1-0.3-0.1c-0.1,0-0.2,0-0.3,0c-0.1,0-0.1,0-0.2,0H133c-0.2,0-0.3,0-0.5,0c-0.3,0-0.3,0-0.5,0c-0.2,0-0.4,0-0.7,0
	c-0.2,0-0.4,0-0.5,0c-0.2,0-0.4,0-0.6,0c-0.2,0-0.5,0-0.7,0c-0.2,0-0.4,0-0.6,0c-0.3,0-0.3,0-0.7,0.1c-0.3,0-0.3,0-0.7,0
	c-0.2,0-0.5,0-0.7,0c-0.3,0-0.5,0.1-0.8,0.1c-0.3,0-0.5,0-0.8,0.1c-0.3,0-0.5,0.1-0.8,0.1c-0.4,0-0.4,0-0.8,0.1
	c-0.4,0-0.4,0-0.8,0.1c-0.3,0-0.5,0.1-0.8,0.1c-0.3,0-0.6,0.1-0.8,0.1c-0.3,0-0.5,0-0.8,0c-0.3,0-0.5,0-0.8,0h-5c-0.2,0-0.3,0-0.5,0
	c-0.2,0-0.2,0-0.5,0c-0.4,0-0.7-0.1-1.1-0.3c-0.8-0.5-1.1-1.7-0.2-2.4C112.8,208.2,113.7,208,114.3,208.5L114.3,208.5z"/>
<path d="M100.8,249.3C100.8,249.3,100.8,249.3,100.8,249.3C100.8,249.3,100.8,249.3,100.8,249.3L100.8,249.3z M98.6,232.3
	C98.6,232.3,98.6,232.3,98.6,232.3C98.6,232.3,98.6,232.3,98.6,232.3z M98.5,232.4C98.5,232.4,98.5,232.4,98.5,232.4
	C98.5,232.4,98.5,232.4,98.5,232.4z M65.3,210c0.6-0.5,1.5-0.4,1.9,0.2c0.2,0.3,0.3,0.7,0.3,1c0.1,0.1,0.2,0.1,0.3,0.2
	c0.1,0.1,0.3,0.2,0.4,0.3c0.2,0.2,0.2,0.2,0.5,0.4c0.2,0.1,0.4,0.3,0.6,0.4c0.2,0.2,0.4,0.3,0.6,0.5c0.2,0.1,0.4,0.3,0.7,0.5
	c0.3,0.2,0.6,0.4,0.8,0.6s0.5,0.4,0.9,0.6c0.3,0.2,0.6,0.5,1,0.7c0.3,0.2,0.6,0.4,1,0.6c0.3,0.2,0.7,0.4,1,0.7
	c0.4,0.2,0.7,0.5,1.2,0.7c0.4,0.3,0.8,0.5,1.2,0.7c0.4,0.2,0.8,0.4,1.2,0.7c0.5,0.2,0.9,0.5,1.4,0.8c0.5,0.3,0.9,0.5,1.3,0.7
	s0.8,0.5,1.2,0.7c0.4,0.2,0.8,0.4,1.3,0.7c0.5,0.3,0.9,0.5,1.3,0.7c0.4,0.2,0.7,0.4,1.1,0.6c0.4,0.2,0.8,0.4,1.2,0.6
	c0.4,0.2,0.7,0.4,1.1,0.5c0.3,0.2,0.6,0.3,1,0.4c0.5,0.2,0.5,0.2,1,0.4c0.3,0.1,0.6,0.3,0.9,0.4c0.3,0.1,0.5,0.2,0.8,0.4
	c0.3,0.1,0.6,0.3,0.9,0.4c0.3,0.1,0.5,0.2,0.8,0.3c0.3,0.1,0.5,0.2,0.7,0.3c0.2,0.1,0.4,0.2,0.6,0.3c0.3,0.1,0.3,0.1,0.6,0.2
	c0.2,0.1,0.4,0.1,0.5,0.2c0.1,0.1,0.3,0.1,0.5,0.2c0.2,0.1,0.3,0.1,0.5,0.2c0.2,0.1,0.2,0.1,0.4,0.2c0.2,0.1,0.3,0.1,0.4,0.2
	c0.1,0.1,0.3,0.1,0.4,0.2c0.1,0.1,0.3,0.1,0.4,0.2c0.1,0.1,0.3,0.2,0.4,0.2c0.1,0.1,0.3,0.2,0.4,0.3c0.1,0.1,0.3,0.2,0.4,0.4
	c0.2,0.2,0.3,0.3,0.4,0.5c0.1,0.2,0.2,0.4,0.3,0.5c0.1,0.2,0.2,0.4,0.2,0.6c0,0.2,0,0.2,0.1,0.3c0,0.2,0.1,0.4,0.1,0.6
	c0,0.1,0,0.3,0,0.4c0,0.3-0.1,0.5-0.2,0.8c0,0.1-0.1,0.2-0.1,0.2c-0.1,0.1-0.1,0.1-0.1,0.3c0,0.1,0,0.1-0.1,0.2c0,0.1,0,0.1-0.1,0.2
	c0,0.1,0,0.2-0.1,0.3c0,0.1,0,0.2,0,0.4c0,0.2,0,0.3-0.1,0.5c0,0.1,0,0.1,0,0.2c0,0.2,0,0.2,0,0.4c0,0.2,0,0.2,0,0.5
	c0,0.1,0,0.2,0,0.4c0,0.3,0,0.3,0,0.5c0,0.2,0,0.3,0,0.5c0,0.3,0,0.3,0,0.6c0,0.2,0,0.4,0,0.6c0,0.2,0,0.4,0,0.7c0,0.2,0,0.4,0,0.6
	v0.6c0,0.2,0,0.5,0,0.7c0,0.2,0,0.3,0,0.5v4.4c0,0.1,0,0.2,0,0.2c0,0.2,0,0.2,0,0.4c0,0.1,0,0.2,0,0.3c0,0.2,0.1,0.3,0.1,0.4
	c0,0,0,0.1,0,0.2c0.2,0.1,0.3,0.1,0.4,0c0.2,0,0.3,0,0.5-0.1c0.2,0,0.2,0,0.4,0c0.1,0,0.3,0,0.4,0h0.8c0.2,0,0.4,0,0.6,0
	c0.3,0,0.5,0.1,0.7,0.1c0.1,0,0.3,0.1,0.4,0.1c0.2,0.1,0.3,0.1,0.4,0.1c0.2,0.1,0.3,0.1,0.5,0.1c0.2,0,0.3,0.1,0.5,0.2
	c0.1,0,0.3,0.1,0.4,0.1c0.2,0.1,0.2,0.1,0.4,0.1c0.2,0.1,0.2,0.1,0.4,0.1c0.1,0,0.2,0,0.3,0.1c0.1,0,0.2,0,0.3,0.1
	c0.2,0,0.2,0,0.3,0.1c0.1,0,0.1,0,0.2,0l0.2,0c0.8,0,1.3,0.7,1.3,1.4c-0.1,0.8-0.7,1.3-1.5,1.3l-0.2,0c-0.2,0-0.3,0-0.5,0
	c-0.2,0-0.2,0-0.3-0.1c-0.1,0-0.3,0-0.4-0.1c-0.2,0-0.3-0.1-0.5-0.1c-0.2-0.1-0.2-0.1-0.5-0.1c-0.2-0.1-0.2-0.1-0.4-0.1
	c-0.1,0-0.3-0.1-0.5-0.1c-0.1,0-0.3-0.1-0.4-0.1c-0.2,0-0.2-0.1-0.4-0.1c-0.1,0-0.3-0.1-0.5-0.1c-0.2-0.1-0.4-0.1-0.5-0.1
	c0,0-0.1,0-0.2,0c-0.1,0-0.2,0-0.3,0h-0.8c-0.1,0-0.2,0-0.3,0c-0.2,0-0.2,0-0.4,0c-0.1,0-0.1,0-0.2,0c-0.1,0-0.2,0-0.3,0.1
	c-0.2,0-0.4,0.1-0.5,0.1c-0.2,0-0.4,0.1-0.6,0.1h-0.3c-0.6,0-1.1-0.3-1.4-0.8c-0.2-0.3-0.2-0.6-0.2-0.9c0,0,0-0.1,0-0.1
	c0-0.1-0.1-0.2-0.1-0.3c-0.1-0.2-0.1-0.3-0.1-0.5c0-0.1,0-0.2-0.1-0.3c0-0.2-0.1-0.4-0.1-0.6c0-0.2,0-0.2,0-0.4c0-0.1,0-0.3,0-0.4
	v-4.4c0-0.2,0-0.4,0-0.6c0-0.2,0-0.3,0-0.5v-0.6c0-0.2,0-0.4,0-0.7c0-0.2,0-0.4,0-0.6c0-0.2,0-0.4,0-0.7c0-0.3,0-0.3,0-0.6
	c0-0.2,0-0.4,0-0.6c0-0.3,0-0.3,0-0.5c0-0.2,0-0.4,0-0.5c0-0.2,0-0.2,0-0.4c0-0.2,0-0.2,0-0.4c0-0.2,0-0.3,0-0.4c0-0.1,0-0.2,0-0.4
	c0-0.2,0-0.4,0.1-0.6c0-0.2,0-0.3,0.1-0.4c0-0.1,0-0.3,0.1-0.4c0-0.2,0.1-0.3,0.1-0.5c0.1-0.2,0.1-0.2,0.1-0.3
	c0-0.1,0.1-0.2,0.1-0.3c0-0.3,0-0.3-0.1-0.4c-0.1-0.1-0.2-0.2-0.2-0.3c-0.1-0.1-0.1-0.1-0.2-0.2c0,0-0.1-0.1-0.2-0.1
	c-0.1-0.1-0.1-0.1-0.2-0.2c-0.1-0.1-0.2-0.1-0.3-0.2c-0.1-0.1-0.2-0.1-0.3-0.2c-0.1-0.1-0.2-0.1-0.3-0.1c-0.2-0.1-0.2-0.1-0.4-0.2
	c-0.1-0.1-0.3-0.1-0.4-0.2c-0.2-0.1-0.4-0.1-0.6-0.2c-0.2-0.1-0.3-0.1-0.5-0.2c-0.3-0.1-0.3-0.1-0.6-0.3c-0.3-0.1-0.5-0.2-0.7-0.3
	c-0.2-0.1-0.4-0.2-0.7-0.3c-0.3-0.1-0.5-0.2-0.8-0.3c-0.3-0.1-0.5-0.2-0.8-0.4c-0.3-0.1-0.6-0.3-0.9-0.4c-0.3-0.1-0.5-0.2-0.9-0.4
	c-0.5-0.2-0.5-0.2-1-0.4c-0.3-0.2-0.7-0.3-1-0.5c-0.3-0.2-0.7-0.3-1.1-0.5c-0.4-0.2-0.8-0.4-1.2-0.6c-0.4-0.2-0.8-0.4-1.2-0.6
	c-0.4-0.2-0.8-0.4-1.3-0.7c-0.5-0.3-0.9-0.5-1.3-0.7c-0.4-0.2-0.8-0.4-1.2-0.7c-0.4-0.2-0.9-0.5-1.4-0.8c-0.5-0.3-0.9-0.5-1.4-0.8
	c-0.5-0.2-0.9-0.5-1.2-0.7c-0.4-0.2-0.8-0.4-1.2-0.7c-0.5-0.3-0.9-0.5-1.2-0.8c-0.4-0.2-0.7-0.5-1.1-0.7c-0.3-0.2-0.7-0.5-1-0.7
	c-0.4-0.2-0.7-0.5-1-0.7c-0.3-0.2-0.6-0.4-0.9-0.6c-0.3-0.2-0.6-0.4-0.9-0.6c-0.3-0.2-0.6-0.4-0.8-0.6c-0.2-0.2-0.4-0.3-0.6-0.5
	c-0.2-0.2-0.4-0.3-0.6-0.4c-0.2-0.2-0.2-0.2-0.5-0.4c-0.2-0.1-0.3-0.2-0.4-0.3c-0.1-0.1-0.2-0.1-0.3-0.2c-0.1-0.1-0.2-0.2-0.4-0.2
	c-0.1,0-0.1-0.1-0.2-0.2c-0.4-0.2-0.6-0.5-0.8-0.9c-0.3-0.7-0.1-1.6,0.7-2C65.2,210.1,65.2,210.1,65.3,210L65.3,210z"/>
<path d="M130.2,175.8c0.7-0.2,1.5,0.2,1.7,0.9l0.1,0.2c0.3,0.8,0,1.7-1.1,1.9c-0.2,0-0.3,0.1-0.4,0.1c-0.2,0.1-0.3,0.1-0.4,0.2
	c-0.1,0-0.1,0-0.3,0.1c-0.2,0.1-0.2,0.1-0.4,0.2c-0.1,0-0.2,0.1-0.3,0.1c-0.1,0.1-0.3,0.1-0.5,0.2c-0.1,0.1-0.3,0.1-0.5,0.2
	c-0.2,0.1-0.4,0.2-0.6,0.3c-0.2,0.1-0.4,0.2-0.6,0.3c-0.3,0.1-0.3,0.1-0.7,0.3c-0.2,0.1-0.5,0.2-0.7,0.3c-0.2,0.1-0.5,0.2-0.8,0.3
	c-0.3,0.1-0.6,0.2-0.9,0.3c-0.3,0.1-0.6,0.2-0.9,0.3c-0.3,0.1-0.7,0.2-1,0.3c-0.4,0.1-0.8,0.2-1.2,0.3c-0.4,0.1-0.8,0.2-1.2,0.3
	c-0.4,0.1-0.8,0.2-1.3,0.2c-0.4,0.1-0.9,0.2-1.3,0.2c-0.5,0.1-0.9,0.1-1.4,0.2c-0.5,0.1-0.9,0.1-1.5,0.2c-0.8,0.1-0.8,0.1-1.5,0.2
	c-0.5,0.1-1,0.1-1.5,0.2c-0.5,0.1-1.1,0.1-1.6,0.2c-0.6,0.1-1.1,0.2-1.6,0.2c-0.5,0.1-1.1,0.2-1.7,0.2c-0.6,0.1-1.2,0.2-1.7,0.3
	c-0.6,0.1-1.2,0.2-1.8,0.3c-0.6,0.1-1.2,0.2-1.7,0.2c-0.5,0.1-1.1,0.1-1.8,0.2c-0.7,0.1-1.4,0.1-1.9,0.2c-0.6,0.1-1.2,0.1-1.8,0.1
	c-0.6,0-1.2,0-1.8,0c-0.6,0-1.2,0-1.9,0c-0.6,0-1.2,0-1.7,0c-0.6,0-1.2,0-1.8-0.1c-0.6,0-1.2-0.1-1.7-0.1c-0.5,0-1.1-0.1-1.6-0.2
	c-0.6-0.1-1.1-0.1-1.7-0.2c-0.6-0.1-1.1-0.2-1.6-0.3c-0.5-0.1-1-0.2-1.4-0.3c-0.4-0.1-0.9-0.2-1.4-0.3c-0.6-0.1-1.1-0.3-1.5-0.4
	c-0.5-0.1-0.9-0.3-1.3-0.4c-0.4-0.1-0.9-0.3-1.3-0.5c-0.5-0.2-0.9-0.4-1.3-0.6c-0.4-0.2-0.8-0.4-1.1-0.5c-0.4-0.2-0.7-0.4-1.2-0.6
	c-0.4-0.3-0.8-0.5-1.1-0.7c-0.3-0.2-0.7-0.5-1-0.7s-0.6-0.5-0.9-0.8c-0.3-0.3-0.6-0.6-0.9-0.9c-0.3-0.3-0.5-0.6-0.7-0.8
	c-0.2-0.2-0.4-0.5-0.6-0.8c-0.2-0.3-0.4-0.6-0.6-0.9c-0.2-0.3-0.3-0.6-0.4-0.8c-0.1-0.3-0.2-0.6-0.4-0.9c-0.1-0.4-0.2-0.7-0.3-1
	c0-0.3-0.1-0.6-0.1-0.9v-0.8c0-0.3,0-0.6,0-0.8c0-0.2,0-0.5,0.1-0.8c0-0.3,0.1-0.6,0.1-0.8c0.1-0.3,0.1-0.5,0.2-0.8
	c0.1-0.3,0.2-0.6,0.3-0.9c0.1-0.3,0.2-0.6,0.4-0.9c0.1-0.3,0.3-0.6,0.4-0.8c0.1-0.3,0.3-0.5,0.4-0.8c0.2-0.3,0.3-0.6,0.5-0.9
	c0.2-0.3,0.4-0.6,0.6-0.8c0.2-0.3,0.4-0.5,0.6-0.8c0.2-0.3,0.4-0.6,0.7-0.9c0.3-0.3,0.5-0.6,0.7-0.9c0.2-0.3,0.5-0.6,0.8-0.9
	c0.3-0.3,0.5-0.6,0.8-0.9c0.3-0.3,0.6-0.6,0.8-0.8c0.3-0.3,0.5-0.5,0.8-0.7c0.2-0.2,0.5-0.4,0.7-0.6c0.3-0.3,0.6-0.5,0.8-0.7
	c0.4-0.3,0.4-0.3,0.7-0.5c0.3-0.2,0.5-0.4,0.8-0.6c0.3-0.2,0.6-0.4,0.8-0.5c0.3-0.2,0.5-0.3,0.8-0.4c0.2-0.1,0.5-0.3,0.8-0.4
	c0.3-0.2,0.6-0.3,0.8-0.4c0.2-0.1,0.5-0.2,0.7-0.4c0.3-0.1,0.5-0.3,0.7-0.4c0.2-0.1,0.4-0.2,0.6-0.3c0.3-0.2,0.5-0.3,0.7-0.4
	c0.2-0.1,0.3-0.2,0.6-0.3c0.2-0.1,0.5-0.3,0.7-0.4c0.3-0.2,0.3-0.2,0.6-0.3c0.3-0.1,0.3-0.1,0.6-0.3c0.2-0.1,0.4-0.2,0.5-0.3
	c0.2-0.1,0.4-0.2,0.5-0.3c0.2-0.1,0.3-0.2,0.5-0.2c0.2-0.1,0.3-0.2,0.5-0.2c0.1-0.1,0.3-0.1,0.4-0.2c0.2-0.1,0.4-0.1,0.7-0.2
	c0.1,0,0.3,0,0.5,0c0.2,0,0.4,0,0.6,0c0.2,0,0.5,0.1,0.7,0.2c0.7,0.2,1.1,1,0.9,1.7c-0.2,0.7-1,1.1-1.7,0.9c-0.1,0-0.2,0-0.2-0.1
	c-0.1,0-0.2,0-0.2,0c-0.2,0-0.3,0.1-0.4,0.1c-0.1,0-0.2,0.1-0.4,0.2c-0.2,0.1-0.3,0.1-0.4,0.2c-0.1,0.1-0.3,0.2-0.4,0.2
	c-0.2,0.1-0.4,0.2-0.6,0.3c-0.3,0.2-0.3,0.2-0.5,0.3c-0.3,0.2-0.3,0.2-0.6,0.3c-0.2,0.1-0.4,0.2-0.6,0.3c-0.3,0.1-0.5,0.3-0.7,0.4
	c-0.2,0.1-0.4,0.2-0.6,0.3c-0.3,0.2-0.5,0.3-0.8,0.4c-0.2,0.1-0.5,0.2-0.7,0.3c-0.2,0.1-0.5,0.3-0.7,0.4c-0.2,0.1-0.5,0.3-0.7,0.4
	c-0.3,0.2-0.5,0.3-0.8,0.4c-0.2,0.1-0.4,0.3-0.7,0.4c-0.2,0.1-0.5,0.3-0.7,0.5c-0.2,0.2-0.5,0.3-0.7,0.5c-0.4,0.3-0.4,0.3-0.7,0.5
	c-0.2,0.2-0.5,0.3-0.7,0.6c-0.3,0.2-0.5,0.4-0.7,0.6c-0.2,0.2-0.4,0.4-0.6,0.6c-0.3,0.3-0.5,0.5-0.8,0.8c-0.3,0.3-0.5,0.5-0.8,0.8
	c-0.2,0.3-0.5,0.5-0.7,0.8c-0.2,0.3-0.5,0.6-0.7,0.9c-0.2,0.3-0.5,0.6-0.6,0.8c-0.2,0.3-0.4,0.5-0.6,0.8c-0.2,0.3-0.4,0.5-0.5,0.8
	c-0.2,0.3-0.3,0.5-0.5,0.7c-0.1,0.2-0.3,0.5-0.4,0.7c-0.1,0.2-0.2,0.5-0.3,0.7c-0.1,0.2-0.2,0.5-0.3,0.7c-0.1,0.2-0.1,0.4-0.2,0.7
	c-0.1,0.2-0.1,0.5-0.2,0.7c0,0.2-0.1,0.4-0.1,0.7c0,0.2-0.1,0.4-0.1,0.6c0,0.2,0,0.4,0,0.6v0.8c0,0.2,0,0.3,0,0.5
	c0,0.1,0.1,0.3,0.1,0.5c0.1,0.3,0.2,0.5,0.3,0.7c0.1,0.2,0.2,0.4,0.3,0.6c0.1,0.2,0.3,0.4,0.4,0.7c0.2,0.3,0.4,0.5,0.5,0.7
	c0.1,0.2,0.3,0.4,0.5,0.6c0.2,0.2,0.5,0.5,0.7,0.7c0.3,0.2,0.5,0.5,0.8,0.7c0.3,0.2,0.5,0.4,0.8,0.6c0.3,0.2,0.6,0.4,1,0.6
	c0.4,0.2,0.7,0.4,1,0.6c0.3,0.2,0.7,0.3,1,0.5c0.4,0.2,0.7,0.3,1.1,0.5c0.4,0.2,0.8,0.3,1.2,0.4c0.4,0.1,0.8,0.3,1.2,0.4
	c0.4,0.1,0.9,0.2,1.4,0.4c0.5,0.1,1,0.2,1.4,0.3c0.4,0.1,0.8,0.2,1.3,0.3c0.5,0.1,1,0.2,1.5,0.3c0.5,0.1,1,0.1,1.6,0.2
	c0.5,0.1,1,0.1,1.5,0.2c0.5,0,1,0.1,1.6,0.1c0.6,0,1.1,0.1,1.7,0.1c0.5,0,1.1,0,1.7,0c0.6,0,1.2,0,1.8,0c0.6,0,1.2,0,1.8,0
	c0.5,0,1.1,0,1.6-0.1c0.6,0,1.2-0.1,1.9-0.2c0.7-0.1,1.3-0.1,1.8-0.2s1-0.1,1.6-0.2c0.6-0.1,1.2-0.2,1.8-0.3
	c0.6-0.1,1.2-0.2,1.7-0.3c0.6-0.1,1.2-0.2,1.7-0.2c0.5-0.1,1.1-0.2,1.7-0.2c0.6-0.1,1.1-0.2,1.6-0.2c0.5-0.1,1-0.1,1.5-0.2
	c0.7-0.1,0.7-0.1,1.5-0.2c0.5-0.1,1-0.1,1.4-0.2c0.5-0.1,0.9-0.1,1.3-0.2c0.4-0.1,0.9-0.1,1.3-0.2c0.4-0.1,0.8-0.2,1.2-0.2
	c0.4-0.1,0.8-0.2,1.1-0.2c0.4-0.1,0.7-0.2,1.1-0.3c0.3-0.1,0.7-0.2,1-0.3c0.3-0.1,0.6-0.2,0.9-0.3c0.2-0.1,0.5-0.2,0.8-0.3
	c0.3-0.1,0.5-0.2,0.8-0.3c0.2-0.1,0.5-0.2,0.6-0.3c0.3-0.1,0.3-0.1,0.7-0.3c0.2-0.1,0.5-0.2,0.6-0.3c0.2-0.1,0.3-0.1,0.5-0.2
	c0.2-0.1,0.4-0.2,0.5-0.3c0.2-0.1,0.3-0.1,0.4-0.2c0.1-0.1,0.3-0.1,0.5-0.2c0.2-0.1,0.2-0.1,0.3-0.1c0.2-0.1,0.2-0.1,0.3-0.1
	c0,0,0.1,0,0.2-0.1C129.5,176.2,129.8,175.9,130.2,175.8L130.2,175.8z M130.2,176.2c0.1,0,0.1,0,0.2,0
	C130.3,176.2,130.3,176.2,130.2,176.2L130.2,176.2z"/>
<path d="M95.4,153.4C95.4,153.5,95.5,153.5,95.4,153.4C95.5,153.5,95.5,153.5,95.4,153.4L95.4,153.4z M139.7,168.4
	C139.7,168.4,139.7,168.4,139.7,168.4C139.7,168.4,139.7,168.4,139.7,168.4L139.7,168.4z M137.9,168.7
	C137.9,168.7,137.9,168.7,137.9,168.7C137.8,168.7,137.9,168.7,137.9,168.7z M137.3,169.5L137.3,169.5L137.3,169.5z M98,152.5
	c0.2,0.7-0.2,1.5-0.9,1.7c-0.7,0.2-1.5-0.1-1.7-0.9c-0.1-0.1-0.3-0.4-0.4-0.6c-0.1-0.3-0.1-0.5-0.1-0.8v-0.4c0-0.4,0.1-0.7,0.3-1
	c0.1-0.2,0.3-0.4,0.5-0.6c0.2-0.2,0.4-0.4,0.6-0.5c0.2-0.1,0.4-0.3,0.7-0.3c0.1,0,0.3-0.1,0.4-0.1c0.2,0,0.3-0.1,0.5-0.1
	c0.2,0,0.4-0.1,0.6-0.1c0.2,0,0.4,0,0.6,0h0.6c0.3,0,0.6,0,0.8,0c0.3,0,0.6,0.1,1,0.2c0.3,0.1,0.6,0.2,0.9,0.3
	c0.3,0.1,0.7,0.2,1,0.4c0.4,0.1,0.7,0.3,1,0.4c0.3,0.1,0.7,0.3,1.1,0.5c0.4,0.2,0.8,0.3,1.2,0.5c0.4,0.2,0.8,0.3,1.2,0.5
	c0.5,0.2,0.9,0.4,1.4,0.6c0.5,0.2,0.9,0.4,1.4,0.6c0.5,0.2,1,0.4,1.4,0.6c0.5,0.2,1,0.4,1.5,0.6c0.5,0.2,1,0.4,1.5,0.6
	c0.5,0.2,1,0.4,1.5,0.6c0.5,0.2,1,0.4,1.5,0.6c0.5,0.2,1,0.4,1.5,0.6c0.7,0.3,0.7,0.3,1.4,0.6c0.5,0.2,0.9,0.4,1.4,0.6
	c0.5,0.2,0.9,0.4,1.3,0.5c0.4,0.2,0.8,0.3,1.2,0.5c0.4,0.2,0.8,0.4,1.2,0.6c0.4,0.2,0.8,0.4,1.1,0.5c0.3,0.2,0.7,0.3,1,0.5
	c0.3,0.2,0.7,0.4,1,0.6c0.3,0.2,0.6,0.4,0.9,0.5c0.2,0.2,0.5,0.3,0.8,0.5c0.3,0.2,0.6,0.4,0.9,0.6c0.3,0.2,0.5,0.4,0.8,0.6
	c0.2,0.2,0.5,0.4,0.7,0.5c0.2,0.2,0.5,0.4,0.7,0.5c0.2,0.2,0.4,0.3,0.6,0.4c0.3,0.2,0.3,0.2,0.5,0.4c0.2,0.1,0.3,0.2,0.5,0.3
	c0.2,0.1,0.3,0.2,0.5,0.3c0.2,0.1,0.3,0.2,0.5,0.3c0.1,0.1,0.2,0.1,0.3,0.2c0.2,0.1,0.2,0.1,0.3,0.2c0.1,0.1,0.2,0.1,0.4,0.2
	c0.2,0.1,0.2,0.1,0.4,0.2c0.2,0.1,0.2,0.1,0.4,0.2c0.1,0,0.1,0.1,0.2,0.1c0.2-0.1,0.4-0.2,0.7-0.2c0.8,0,1.4,0.6,1.4,1.4v0.2
	c0,0.2,0,0.3,0,0.4c0,0.2,0,0.3-0.1,0.5c-0.1,0.2-0.2,0.5-0.3,0.7c-0.4,0.6-1.2,0.9-1.9,0.6c-0.3-0.1-0.6-0.4-0.8-0.6
	c-0.1-0.1-0.2-0.2-0.2-0.4c0-0.1-0.1-0.1-0.1-0.2c0,0-0.1,0-0.1-0.1c0,0-0.1-0.1-0.2-0.1c-0.2-0.1-0.2-0.1-0.4-0.3
	c-0.2-0.1-0.2-0.1-0.4-0.2c-0.1-0.1-0.2-0.1-0.2-0.2c-0.2-0.1-0.2-0.1-0.4-0.2c-0.2-0.1-0.3-0.2-0.5-0.3c-0.1-0.1-0.2-0.2-0.4-0.3
	c-0.1-0.1-0.3-0.2-0.5-0.3c-0.2-0.1-0.4-0.3-0.6-0.4c-0.3-0.2-0.3-0.2-0.5-0.4c-0.2-0.1-0.4-0.3-0.7-0.5c-0.2-0.2-0.4-0.3-0.6-0.5
	c-0.2-0.2-0.5-0.4-0.7-0.5c-0.2-0.2-0.5-0.4-0.7-0.5c-0.2-0.2-0.5-0.3-0.7-0.5c-0.3-0.2-0.6-0.4-0.8-0.5c-0.2-0.1-0.5-0.3-0.8-0.5
	c-0.3-0.2-0.6-0.3-0.9-0.5c-0.3-0.2-0.6-0.3-1-0.5c-0.3-0.2-0.7-0.3-1.1-0.5c-0.4-0.2-0.8-0.4-1.2-0.5c-0.4-0.2-0.8-0.4-1.1-0.5
	c-0.4-0.2-0.8-0.3-1.3-0.5c-0.5-0.2-0.9-0.4-1.4-0.6c-0.7-0.3-0.7-0.3-1.4-0.6c-0.5-0.2-1-0.4-1.5-0.6c-0.5-0.2-1-0.4-1.5-0.6
	c-0.5-0.2-1-0.4-1.5-0.6c-0.5-0.2-1-0.4-1.5-0.6c-0.5-0.2-1-0.4-1.5-0.6c-0.5-0.2-1-0.4-1.5-0.6c-0.5-0.2-1-0.4-1.5-0.6
	c-0.5-0.2-0.9-0.4-1.3-0.6c-0.4-0.2-0.8-0.4-1.2-0.5c-0.4-0.1-0.8-0.3-1.2-0.5c-0.4-0.2-0.8-0.3-1.1-0.4c-0.3-0.1-0.6-0.2-1-0.4
	c-0.3-0.1-0.6-0.2-0.9-0.3c-0.3-0.1-0.5-0.2-0.8-0.2c-0.2-0.1-0.4-0.1-0.6-0.1c-0.2,0-0.4,0-0.6,0H99c-0.2,0-0.3,0-0.5,0
	c-0.1,0-0.2,0-0.3,0c-0.1,0-0.2,0-0.3,0.1c-0.1,0-0.2,0-0.2,0.1c0,0,0,0-0.1,0.1c0,0-0.1,0.1-0.1,0.1C97.7,152,97.9,152.2,98,152.5
	L98,152.5z"/>
<path d="M140.5,185.5C140.5,185.5,140.5,185.5,140.5,185.5C140.5,185.5,140.5,185.5,140.5,185.5z M140.6,181.4c-0.1,0-0.1,0-0.2-0.1
	c-0.1,0-0.1,0-0.2,0c-0.1,0-0.1,0-0.2,0c-0.1,0-0.1,0-0.2,0h-0.3c0,0-0.1,0-0.1,0c0,0-0.1,0-0.1,0.1c-0.1,0-0.2,0.1-0.2,0.1
	c-0.1,0-0.1,0.1-0.2,0.1c0,0,0,0,0,0c0,0.1,0,0.3,0,0.4c0,0,0,0.1,0,0.1c0,0,0,0.1,0.1,0.2c0,0.1,0,0.1,0.1,0.3c0,0.1,0,0.1,0.1,0.2
	c0,0.1,0,0.1,0.1,0.2c0,0.1,0.1,0.1,0.1,0.2c0,0.1,0.1,0.1,0.1,0.2c0,0.1,0.1,0.1,0.2,0.2c0.1,0.1,0.2,0.3,0.3,0.4
	c0.1,0.1,0.1,0.2,0.1,0.2c0-0.1,0.1-0.2,0.1-0.3c0-0.1,0.1-0.3,0.1-0.4c0.1-0.3,0.1-0.3,0.1-0.5c0-0.2,0.1-0.3,0.1-0.5
	c0.1-0.3,0.1-0.3,0.1-0.6c0-0.1,0.1-0.2,0.1-0.3C140.7,181.5,140.7,181.4,140.6,181.4z M137.2,179.5c-0.3-0.2-0.5-0.5-0.7-0.9
	c-0.1-0.2-0.2-0.4-0.2-0.7c0-0.2-0.1-0.4-0.1-0.5c0-0.2,0-0.2-0.1-0.4c0-0.2,0-0.2-0.1-0.5c0-0.3,0-0.3-0.1-0.5
	c0-0.2-0.1-0.4-0.1-0.6c0-0.3,0-0.3-0.1-0.6c0-0.2-0.1-0.5-0.1-0.8c0-0.3,0-0.5-0.1-0.8c0-0.4,0-0.4-0.1-0.9c0-0.4,0-0.7-0.1-1.1
	c0-0.3,0-0.7,0-1.1c0-0.4,0-0.8,0-1.2c0-0.4,0-0.8,0-1.3c0-0.5,0-0.9,0-1.2v-6.9c0-0.3,0-0.6,0-1c0-0.3,0-0.6,0-0.9v-2.4
	c0-0.3,0-0.5,0-0.7c0-0.3,0-0.5,0.1-0.8c0-0.2,0.1-0.4,0.1-0.6c0-0.2,0.1-0.4,0.1-0.6c0.1-0.2,0.1-0.3,0.1-0.5
	c0.1-0.2,0.1-0.4,0.2-0.5c0.1-0.2,0.2-0.4,0.4-0.5c0.2-0.3,0.5-0.5,0.9-0.6c0.2-0.1,0.5-0.1,0.7-0.1c0.4,0,0.8,0.2,1.1,0.5
	c0.2,0.2,0.3,0.3,0.5,0.5c0.1,0.1,0.2,0.3,0.3,0.4c0.1,0.2,0.2,0.3,0.3,0.5c0.1,0.2,0.1,0.4,0.2,0.6c0.1,0.2,0.1,0.4,0.2,0.7
	c0,0.2,0.1,0.4,0.1,0.7c0,0.3,0.1,0.5,0.1,0.7c0,0.2,0.1,0.5,0.1,0.8c0,0.3,0.1,0.6,0.1,0.9c0,0.3,0,0.6,0,0.9c0,0.4,0,0.4,0,0.8
	c0,0.4,0,0.4,0,0.9c0,0.5,0,0.5,0,0.9c0,0.3,0,0.6,0,0.9c0,0.3,0,0.7,0.1,1c0,0.3,0,0.7,0.1,1.1c0,0.4,0.1,0.7,0.1,1
	c0,0.3,0.1,0.7,0.1,1.1c0,0.4,0.1,0.7,0.1,1c0,0.3,0.1,0.7,0.1,1c0,0.4,0.1,0.7,0.1,1c0,0.3,0.1,0.7,0.1,1c0.1,0.5,0.1,0.5,0.1,0.9
	c0,0.2,0.1,0.5,0.1,0.8c0,0.3,0.1,0.5,0.1,0.8c0,0.2,0.1,0.5,0.1,0.7c0,0.2,0.1,0.3,0.1,0.7c0,0.2,0.1,0.4,0.1,0.6
	c0.1,0.3,0.1,0.3,0.1,0.6c0,0.2,0.1,0.4,0.1,0.6c0,0.2,0.1,0.3,0.1,0.4c0,0.2,0,0.2,0.1,0.4c0,0.2,0,0.2,0.1,0.4
	c0,0.2,0,0.2,0.1,0.4c0.3,0.2,0.5,0.7,0.5,1.1v0.1c0,0.1,0,0.3,0,0.4c0,0.2,0,0.4,0,0.5l0,0.3c0,0.2,0,0.2-0.1,0.4
	c0,0.1,0,0.3-0.1,0.4c0,0.1-0.1,0.3-0.1,0.5c-0.1,0.2-0.1,0.2-0.1,0.5c0,0.2-0.1,0.4-0.1,0.5c0,0.2-0.1,0.4-0.1,0.6
	c0,0.2-0.1,0.3-0.1,0.5c-0.1,0.3-0.1,0.3-0.1,0.6c0,0.2-0.1,0.4-0.2,0.6c-0.1,0.3-0.1,0.3-0.2,0.5c-0.1,0.2-0.1,0.4-0.2,0.5
	c-0.1,0.2-0.1,0.3-0.2,0.5c0,0.1-0.1,0.3-0.1,0.4c-0.1,0.2-0.1,0.3-0.2,0.4c-0.1,0.1-0.1,0.3-0.2,0.4c-0.1,0.2-0.3,0.4-0.4,0.5
	c-0.2,0.2-0.4,0.4-0.6,0.5c-0.3,0.2-0.6,0.2-0.9,0.2c-0.2,0-0.4,0-0.6-0.1c-0.3-0.1-0.6-0.3-0.9-0.6c-0.2-0.2-0.3-0.5-0.4-0.8
	c0-0.1-0.1-0.3-0.1-0.4c0-0.1,0-0.2-0.1-0.2c0,0,0,0,0-0.1c0,0,0-0.1-0.1-0.1c-0.1-0.1-0.2-0.2-0.3-0.3s-0.2-0.2-0.3-0.4
	c-0.1-0.1-0.2-0.3-0.3-0.4c-0.1-0.1-0.1-0.3-0.2-0.4c-0.1-0.1-0.1-0.3-0.2-0.4c0-0.2,0-0.2-0.1-0.3c0-0.1,0-0.1-0.1-0.3
	c-0.1-0.3-0.2-0.7-0.1-1.1c0-0.1,0-0.1,0-0.2c0-0.1,0-0.1,0-0.2c0-0.2,0-0.3,0.1-0.5c0-0.2,0.1-0.4,0.2-0.6c0.1-0.2,0.2-0.4,0.4-0.5
	C137.1,179.7,137.2,179.6,137.2,179.5C137.3,179.5,137.3,179.5,137.2,179.5L137.2,179.5z M140.7,179.2L140.7,179.2
	C140.7,179.2,140.7,179.2,140.7,179.2z M139.3,178.6c0.1,0,0.1,0,0.2,0h0.3c0.1,0,0.3,0,0.4,0c0.2,0,0.2,0,0.3,0
	c0.1,0,0.3,0,0.4,0.1c0,0,0,0,0,0v-0.2c0-0.1,0-0.2,0-0.3c0-0.2,0-0.2,0-0.4c0-0.1,0-0.2,0-0.3c0-0.2,0-0.2,0-0.3c0-0.1,0-0.1,0-0.3
	c0-0.2,0-0.2-0.1-0.4c0-0.2,0-0.2-0.1-0.4c0-0.2,0-0.2-0.1-0.4c0-0.1-0.1-0.3-0.1-0.5c0-0.2-0.1-0.3-0.1-0.5
	c-0.1-0.3-0.1-0.3-0.1-0.5c0-0.2-0.1-0.4-0.1-0.7c-0.1-0.3-0.1-0.4-0.1-0.7c0-0.2-0.1-0.5-0.1-0.7c0-0.3-0.1-0.5-0.1-0.8
	c0-0.3-0.1-0.6-0.1-0.8c-0.1-0.4-0.1-0.4-0.1-0.9c0-0.3-0.1-0.7-0.1-1c0-0.3-0.1-0.7-0.1-1.1c-0.1-0.4-0.1-0.7-0.1-1.1
	c0-0.3-0.1-0.7-0.1-1.1c0-0.4-0.1-0.7-0.1-1.1c0-0.4-0.1-0.7-0.1-1.1c0-0.4-0.1-0.7-0.1-1.1c0-0.4,0-0.7-0.1-1c0-0.3,0-0.7,0-0.9
	c0-0.4,0-0.4,0-0.9c0-0.5,0-0.5,0-1c0-0.4,0-0.4,0-0.9c0-0.3,0-0.5,0-0.8c0-0.2,0-0.5-0.1-0.8c0-0.3-0.1-0.5-0.1-0.6
	c0-0.2-0.1-0.3-0.1-0.5c0-0.2-0.1-0.4-0.1-0.6c0-0.1,0-0.2-0.1-0.2c0,0.1,0,0.1,0,0.2c0,0.2,0,0.3,0,0.4c0,0.2,0,0.4,0,0.6v2.4
	c0,0.3,0,0.5,0,0.9c0,0.3,0,0.7,0,1v6.9c0,0.3,0,0.7,0,1.2c0,0.5,0,0.9,0,1.3c0,0.4,0,0.8,0,1.2c0,0.4,0,0.7,0,1.1c0,0.3,0,0.6,0,1
	c0,0.5,0,0.5,0.1,0.9c0,0.3,0,0.5,0.1,0.8c0,0.2,0,0.5,0.1,0.7c0,0.3,0,0.3,0.1,0.6c0,0.2,0,0.4,0.1,0.5c0,0.2,0,0.2,0.1,0.5
	c0,0.2,0,0.2,0.1,0.4c0,0.2,0,0.2,0.1,0.4c0,0.1,0,0.2,0.1,0.4c0,0,0,0.1,0,0.1C139.2,177.7,139.4,178.1,139.3,178.6L139.3,178.6z
	 M138.9,177.4C138.9,177.5,138.9,177.5,138.9,177.4L138.9,177.4L138.9,177.4z"/>
<path d="M133.4,175C133.4,175,133.4,175,133.4,175C133.4,175,133.4,175,133.4,175z M129.5,185C129.5,185,129.5,185,129.5,185
	C129.5,185,129.5,185,129.5,185z M137,186.7L137,186.7L137,186.7z M133.3,175.2c0,0.1-0.1,0.1-0.1,0.2c-0.1,0.1-0.1,0.1-0.1,0.2
	c-0.1,0.2-0.1,0.2-0.1,0.4c-0.1,0.1-0.1,0.3-0.2,0.4c-0.1,0.3-0.1,0.3-0.2,0.5c-0.1,0.2-0.1,0.4-0.2,0.6c-0.1,0.2-0.1,0.4-0.2,0.6
	c-0.1,0.3-0.1,0.3-0.2,0.6c-0.1,0.2-0.1,0.4-0.2,0.7c-0.1,0.2-0.2,0.5-0.2,0.6c-0.1,0.3-0.1,0.3-0.2,0.6c-0.1,0.2-0.2,0.4-0.2,0.6
	c-0.1,0.2-0.1,0.4-0.2,0.6c-0.1,0.2-0.1,0.4-0.2,0.6c-0.1,0.2-0.1,0.2-0.2,0.5c-0.1,0.2-0.1,0.2-0.2,0.4c0,0.1,0,0.1-0.1,0.1
	c0.1,0,0.2,0.1,0.4,0.1c0.2,0.1,0.2,0.1,0.3,0.1c0.2,0.1,0.3,0.1,0.5,0.2c0.1,0.1,0.2,0.1,0.3,0.2c0.1,0.1,0.3,0.1,0.5,0.2
	c0.2,0.1,0.2,0.1,0.4,0.3c0.1,0.1,0.3,0.2,0.4,0.2c0.2,0.1,0.3,0.2,0.4,0.2c0.1,0.1,0.2,0.1,0.4,0.2c0.2,0.1,0.3,0.2,0.5,0.3
	c0.1,0.1,0.2,0.1,0.3,0.2c0.2,0.1,0.2,0.1,0.4,0.2c0.1,0.1,0.3,0.1,0.4,0.2c0.1,0,0.1,0.1,0.2,0.1c0.1,0.1,0.3,0.1,0.4,0.2
	c0.2,0.1,0.2,0.1,0.4,0.2c0,0,0,0,0,0c0-0.1,0.1-0.2,0.1-0.2c0.1-0.2,0.1-0.2,0.1-0.4c0.1-0.2,0.1-0.2,0.1-0.4
	c0-0.1,0.1-0.2,0.1-0.3c0-0.2,0.1-0.3,0.1-0.5c0.1-0.2,0.1-0.2,0.1-0.4c0.1-0.2,0.1-0.2,0.1-0.4c0.1-0.2,0.1-0.2,0.1-0.4
	c0-0.1,0.1-0.3,0.1-0.5c0-0.2,0.1-0.3,0.1-0.5c0-0.2,0.1-0.3,0.1-0.5c0-0.1,0.1-0.3,0.1-0.5c0.1-0.3,0.1-0.3,0.1-0.5
	c0.1-0.3,0.1-0.3,0.1-0.5c0.1-0.3,0.1-0.3,0.1-0.5c0-0.2,0.1-0.3,0.1-0.5c0.1-0.3,0.1-0.3,0.1-0.5c0.1-0.3,0.1-0.3,0.1-0.5
	c0-0.2,0.1-0.4,0.2-0.5c0.1-0.3,0.1-0.3,0.1-0.5c0-0.1,0.1-0.2,0.1-0.4c0.1-0.2,0.1-0.2,0.1-0.4c0.1-0.2,0.1-0.2,0.1-0.3
	c0,0,0-0.1,0-0.2c0-0.2,0-0.2,0.1-0.4c0-0.1,0-0.2,0-0.2v0c-0.1,0-0.1,0-0.2-0.1c-0.2,0-0.3-0.1-0.4-0.1c-0.1,0-0.2,0-0.3,0
	c-0.1,0-0.2,0-0.3,0c-0.2,0-0.2,0-0.3,0c-0.1,0-0.2,0-0.3,0c-0.1,0-0.2,0-0.3,0H136c-0.1,0-0.2,0-0.2,0c0,0-0.1,0-0.1,0
	c-0.1,0-0.2,0-0.3,0.1c-0.1,0-0.2,0.1-0.3,0.1l-0.2,0.1c-0.5,0.1-1,0-1.3-0.4C133.4,175.1,133.4,175.1,133.3,175.2L133.3,175.2z
	 M129.2,185.9c-0.1,0-0.1,0-0.2,0c-0.3,0.1-0.6,0-0.9,0c-0.9-0.2-1.4-1.2-1-2.1c0.1-0.1,0.1-0.1,0.2-0.3c0.1-0.2,0.1-0.2,0.2-0.4
	c0-0.1,0.1-0.1,0.1-0.2c0.1-0.1,0.1-0.1,0.2-0.3c0.1-0.2,0.1-0.2,0.2-0.4c0.1-0.2,0.1-0.2,0.2-0.4c0.1-0.2,0.1-0.2,0.2-0.5
	c0.1-0.1,0.1-0.3,0.2-0.5c0.1-0.2,0.1-0.4,0.2-0.6c0.1-0.2,0.1-0.4,0.2-0.6c0.1-0.3,0.1-0.3,0.2-0.6c0.1-0.2,0.1-0.4,0.2-0.6
	s0.1-0.4,0.2-0.6c0.1-0.3,0.1-0.3,0.2-0.6c0.1-0.2,0.1-0.4,0.2-0.6c0.1-0.2,0.1-0.4,0.2-0.6c0.1-0.3,0.1-0.3,0.2-0.5
	c0.1-0.2,0.1-0.3,0.2-0.5c0.1-0.2,0.1-0.2,0.2-0.4c0.1-0.2,0.1-0.2,0.1-0.3c0.1-0.1,0.1-0.3,0.2-0.5c0.1-0.2,0.2-0.4,0.4-0.5
	c0.2-0.2,0.4-0.4,0.6-0.5c0.3-0.2,0.7-0.2,1.1-0.2c0.4,0,0.7,0.2,1,0.5l0.1,0c0.1,0,0.3-0.1,0.5-0.1c0.2,0,0.3-0.1,0.4-0.1
	c0.2,0,0.3,0,0.4-0.1c0.1,0,0.2,0,0.4,0h1.4c0.1,0,0.3,0,0.4,0c0.1,0,0.3,0,0.4,0c0.2,0,0.2,0,0.4,0c0.1,0,0.3,0,0.4,0
	c0.1,0,0.3,0,0.4,0c0.1,0,0.3,0.1,0.5,0.1c0.3,0.1,0.5,0.1,0.7,0.2c0.2,0.1,0.4,0.2,0.6,0.3c0.2,0.2,0.4,0.3,0.6,0.5
	c0.2,0.3,0.4,0.6,0.4,1c0,0.2,0,0.4,0,0.6c0,0.2,0,0.3,0,0.5c0,0.2-0.1,0.4-0.1,0.6c-0.1,0.2-0.1,0.2-0.1,0.3c0,0.1-0.1,0.3-0.1,0.4
	c-0.1,0.1-0.1,0.1-0.1,0.3c-0.1,0.2-0.1,0.2-0.1,0.3c0,0.2-0.1,0.3-0.1,0.5c-0.1,0.2-0.1,0.2-0.1,0.4c0,0.2-0.1,0.3-0.1,0.4
	c-0.1,0.2-0.1,0.2-0.1,0.5c-0.1,0.3-0.1,0.3-0.1,0.5c-0.1,0.2-0.1,0.4-0.2,0.5c-0.1,0.3-0.1,0.3-0.1,0.5c-0.1,0.3-0.1,0.3-0.1,0.5
	c-0.1,0.3-0.1,0.3-0.1,0.5c-0.1,0.2-0.1,0.4-0.1,0.5c0,0.1-0.1,0.3-0.1,0.4c0,0.2-0.1,0.3-0.1,0.5c0,0.2-0.1,0.3-0.1,0.5
	c-0.1,0.2-0.1,0.2-0.1,0.4c-0.1,0.2-0.1,0.2-0.1,0.5c-0.1,0.2-0.1,0.2-0.1,0.4c0,0.1-0.1,0.2-0.1,0.4c0,0.2-0.1,0.4-0.1,0.5
	c-0.1,0.2-0.1,0.2-0.1,0.4c-0.1,0.2-0.1,0.2-0.1,0.4c-0.1,0.2-0.1,0.3-0.2,0.5c-0.1,0.2-0.2,0.5-0.3,0.6c-0.2,0.3-0.3,0.5-0.6,0.7
	c-0.3,0.2-0.7,0.4-1.1,0.4c-0.2,0-0.3,0-0.5,0c-0.2,0-0.4-0.1-0.6-0.1c-0.2-0.1-0.3-0.1-0.5-0.2c-0.2-0.1-0.2-0.1-0.4-0.2
	c-0.1,0-0.2-0.1-0.3-0.1c-0.1-0.1-0.3-0.1-0.4-0.2c-0.1-0.1-0.2-0.1-0.3-0.2c-0.2-0.1-0.2-0.1-0.4-0.2c-0.1-0.1-0.3-0.2-0.5-0.2
	c-0.1-0.1-0.3-0.2-0.4-0.2c-0.2-0.1-0.3-0.2-0.5-0.3c-0.1-0.1-0.2-0.1-0.4-0.2c-0.2-0.1-0.3-0.2-0.5-0.3c-0.2-0.1-0.2-0.1-0.4-0.3
	c-0.1-0.1-0.2-0.1-0.3-0.2c-0.1-0.1-0.3-0.1-0.4-0.2c-0.1-0.1-0.2-0.1-0.3-0.1c-0.2-0.1-0.2-0.1-0.3-0.1c-0.1,0-0.1-0.1-0.2-0.1
	H129.2L129.2,185.9z"/>
<path d="M165.8,166.7C165.8,166.7,165.8,166.7,165.8,166.7C165.8,166.7,165.8,166.7,165.8,166.7z M165.5,168.2
	C165.5,168.2,165.5,168.2,165.5,168.2C165.5,168.2,165.5,168.2,165.5,168.2z M166.9,169.2c-0.1,0.2-0.1,0.2-0.2,0.4
	c0,0.1-0.1,0.1-0.1,0.3c-0.1,0.2-0.1,0.2-0.2,0.4c0,0.1-0.1,0.2-0.1,0.3c0,0.1-0.1,0.3-0.2,0.4c-0.1,0.2-0.1,0.3-0.2,0.4
	c-0.1,0.2-0.1,0.3-0.2,0.5c-0.1,0.2-0.1,0.3-0.1,0.4c-0.1,0.2-0.1,0.2-0.2,0.5c-0.1,0.2-0.1,0.3-0.2,0.5c-0.1,0.2-0.1,0.2-0.2,0.4
	c-0.1,0.2-0.1,0.2-0.1,0.3c-0.1,0.2-0.1,0.2-0.1,0.4c0,0.1-0.1,0.2-0.1,0.3c-0.1,0.2-0.1,0.2-0.1,0.4c-0.1,0.2-0.1,0.3-0.1,0.5
	c0,0.1,0,0.2-0.1,0.3c0,0.1,0,0.2,0,0.4c0,0.2,0,0.3-0.1,0.5c0,0.2-0.1,0.4-0.1,0.5c-0.1,0.2-0.2,0.4-0.3,0.6
	c-0.1,0.2-0.3,0.4-0.5,0.5c-0.2,0.1-0.3,0.3-0.5,0.3c-0.1,0.1-0.1,0.1-0.3,0.1c-0.1,0.1-0.3,0.1-0.4,0.2c-0.1,0-0.3,0.1-0.4,0.1
	c-0.2,0-0.3,0.1-0.5,0.1c-0.2,0-0.4,0.1-0.6,0.1c-0.2,0-0.3,0-0.5,0h-0.4c-0.1,0-0.3,0-0.5,0c-0.2,0-0.4,0-0.5,0
	c-0.2,0-0.2,0-0.4-0.1c-0.2,0-0.4,0-0.6-0.1c-0.2,0-0.4-0.1-0.6-0.1c-0.2,0-0.4-0.1-0.5-0.1c-0.2,0-0.4-0.1-0.5-0.2
	c-0.2-0.1-0.4-0.1-0.5-0.2c-0.2-0.1-0.2-0.1-0.5-0.2c-0.2-0.1-0.3-0.1-0.5-0.2c-0.2-0.1-0.2-0.1-0.4-0.2c-0.2-0.1-0.2-0.1-0.3-0.1
	l-0.3-0.1c-0.1,0-0.1,0-0.2-0.1c-0.1,0-0.2,0-0.4,0c-0.1,0-0.2,0-0.3,0c-0.1,0-0.1,0-0.2,0.1c-0.2,0.1-0.5,0.2-0.8,0.2
	c-0.7,0-1.4-0.6-1.4-1.3c0-0.1,0-0.3,0-0.5c0-0.1,0-0.3,0.1-0.4c0-0.2,0.1-0.3,0.1-0.5c0-0.1,0-0.1,0.1-0.2c0-0.1,0.1-0.3,0.1-0.4
	c0-0.2,0-0.2,0.1-0.3c0-0.2,0-0.2,0.1-0.4c0-0.1,0.1-0.3,0.1-0.4c0-0.1,0.1-0.3,0.1-0.4c0-0.2,0.1-0.3,0.1-0.5
	c0-0.2,0.1-0.4,0.1-0.6c0.1-0.3,0.1-0.3,0.1-0.6c0-0.2,0.1-0.4,0.1-0.6c0.1-0.3,0.1-0.3,0.1-0.6c0-0.2,0.1-0.3,0.1-0.6
	c0-0.2,0.1-0.4,0.1-0.5c0-0.2,0.1-0.4,0.1-0.5c0-0.2,0.1-0.3,0.1-0.5c0-0.2,0-0.2,0.1-0.4c0-0.1,0.1-0.3,0.1-0.4
	c0-0.2,0.1-0.3,0.1-0.4c0.1-0.3,0.3-0.5,0.5-0.7c0.2-0.2,0.4-0.3,0.7-0.5c0.6-0.4,1.3-0.3,1.7,0.3c0.4,0.6,0.2,1.4-0.3,1.8
	c-0.1,0.1-0.2,0.2-0.3,0.2c0,0.1,0,0.2-0.1,0.3c0,0.2,0,0.2-0.1,0.4c0,0.1,0,0.2-0.1,0.4c0,0.1,0,0.3-0.1,0.4c0,0.2-0.1,0.4-0.1,0.6
	c0,0.2-0.1,0.4-0.1,0.6c-0.1,0.3-0.1,0.3-0.1,0.6c0,0.2-0.1,0.5-0.1,0.6c-0.1,0.3-0.1,0.3-0.1,0.6c0,0.2-0.1,0.4-0.1,0.6
	c0,0.2-0.1,0.4-0.1,0.6c0,0.2-0.1,0.3-0.1,0.5c0,0.1-0.1,0.3-0.1,0.5c-0.1,0.2-0.1,0.2-0.1,0.4c0,0.1,0,0.2-0.1,0.2h0.3
	c0.2,0,0.4,0,0.5,0.1c0.1,0,0.3,0.1,0.4,0.1c0.2,0.1,0.2,0.1,0.4,0.1c0.2,0.1,0.2,0.1,0.4,0.2c0.2,0.1,0.2,0.1,0.4,0.2
	c0.1,0.1,0.3,0.1,0.4,0.2c0.2,0.1,0.2,0.1,0.4,0.2c0.1,0.1,0.3,0.1,0.4,0.2c0.1,0,0.3,0.1,0.4,0.1c0.1,0,0.3,0.1,0.5,0.1
	c0.2,0,0.3,0.1,0.4,0.1c0.1,0,0.3,0,0.4,0.1c0.2,0,0.2,0,0.4,0c0.1,0,0.2,0,0.4,0c0.2,0,0.3,0,0.4,0h0.4c0.1,0,0.3,0,0.4,0
	c0.1,0,0.1,0,0.2,0c0.1,0,0.1,0,0.2-0.1c0.1,0,0.2,0,0.2-0.1c0.1,0,0.1,0,0.2-0.1c0.1,0,0.1,0,0.2-0.1c0,0,0,0,0.1-0.1
	c0,0,0,0,0-0.1c0-0.1,0-0.2,0-0.3c0-0.2,0-0.3,0.1-0.5c0-0.2,0.1-0.4,0.1-0.6c0-0.2,0.1-0.4,0.2-0.6c0.1-0.3,0.1-0.3,0.1-0.4
	c0-0.1,0.1-0.2,0.1-0.4c0.1-0.2,0.1-0.2,0.1-0.3c0.1-0.2,0.1-0.2,0.1-0.4c0.1-0.2,0.1-0.2,0.2-0.4c0-0.1,0.1-0.3,0.1-0.4
	c0.1-0.2,0.1-0.2,0.1-0.4c0.1-0.2,0.1-0.3,0.2-0.5c0.1-0.2,0.1-0.3,0.2-0.5c0.1-0.2,0.1-0.2,0.2-0.5c0.1-0.1,0.1-0.3,0.1-0.4
	c0-0.1,0.1-0.3,0.2-0.4c0.1-0.2,0.1-0.2,0.1-0.4c0.1-0.1,0.1-0.3,0.1-0.4c0.1-0.2,0.1-0.2,0.2-0.4c0.1-0.1,0.1-0.3,0.2-0.4
	c-0.1,0-0.1,0-0.2-0.1c-0.1,0-0.1-0.1-0.2-0.1c-0.1-0.1-0.3-0.1-0.4-0.2c-0.2-0.1-0.2-0.1-0.3-0.1c-0.1,0-0.2-0.1-0.3-0.1
	c-0.1,0-0.2-0.1-0.3-0.1c-0.1,0-0.3-0.1-0.4-0.1c-0.1,0-0.2-0.1-0.4-0.1c-0.1,0-0.3-0.1-0.4-0.1c-0.1,0-0.2-0.1-0.4-0.1
	c-0.1,0-0.3-0.1-0.4-0.1c-0.1,0-0.2,0-0.3,0c-0.1,0-0.2,0-0.4,0c-0.2,0-0.2,0-0.4,0c-0.2,0-0.2,0-0.4,0c-0.1,0-0.2,0-0.2,0
	c-0.1,0-0.1,0-0.2,0h-1.5c-0.7,0-1.3-0.6-1.3-1.3c0-0.7,0.6-1.3,1.3-1.3h1.5c0.1,0,0.2,0,0.3,0c0.1,0,0.3,0,0.4,0c0.2,0,0.2,0,0.3,0
	c0.2,0,0.2,0,0.4,0c0.1,0,0.3,0,0.4,0c0.2,0,0.3,0,0.5,0.1c0.2,0,0.3,0,0.5,0.1c0.2,0,0.3,0.1,0.5,0.1c0.1,0,0.3,0.1,0.5,0.1
	c0.2,0,0.3,0.1,0.5,0.1c0.1,0,0.2,0.1,0.4,0.1c0.2,0,0.3,0.1,0.5,0.2c0.1,0.1,0.3,0.1,0.4,0.2c0.2,0.1,0.2,0.1,0.4,0.2
	c0.1,0,0.2,0.1,0.3,0.1c0.1,0.1,0.3,0.1,0.4,0.2c0.1,0,0.1,0.1,0.2,0.1c0.2,0.1,0.2,0.1,0.3,0.1c0.1,0,0.2,0.1,0.4,0.2
	c0.2,0.1,0.4,0.2,0.5,0.4c0.3,0.2,0.5,0.6,0.6,0.9c0.1,0.4,0.1,0.8-0.1,1.2c-0.1,0.3-0.3,0.5-0.5,0.6
	C166.9,169,166.9,169.1,166.9,169.2L166.9,169.2z M167,168.8C167.1,168.8,167.1,168.8,167,168.8C167.1,168.8,167.1,168.8,167,168.8z
	"/>
<path d="M158.1,197L158.1,197L158.1,197L158.1,197z M153.3,185.6c-0.2,0.2-0.3,0.3-0.3,0.3c0,0.1-0.1,0.1-0.1,0.2
	c0,0.1-0.1,0.1-0.1,0.2c-0.1,0.2-0.1,0.2-0.2,0.4c0,0.1-0.1,0.2-0.1,0.3c-0.1,0.2-0.1,0.3-0.2,0.5c-0.1,0.1-0.1,0.3-0.1,0.4
	c-0.1,0.2-0.1,0.2-0.2,0.5c-0.1,0.3-0.1,0.3-0.2,0.6c-0.1,0.2-0.1,0.4-0.2,0.6c-0.1,0.2-0.1,0.4-0.2,0.5c-0.1,0.2-0.1,0.4-0.2,0.5
	c-0.1,0.2-0.1,0.2-0.2,0.5c-0.1,0.2-0.1,0.2-0.2,0.5c-0.1,0.2-0.1,0.3-0.1,0.4c-0.1,0.2-0.1,0.2-0.1,0.4c0,0.1-0.1,0.3-0.1,0.4
	c-0.1,0.2-0.1,0.2-0.1,0.4c0,0.2-0.1,0.3-0.1,0.4c0,0.2,0,0.2-0.1,0.4c0,0.2,0,0.2-0.1,0.4c0,0.1,0,0.1,0,0.1c0.2,0,0.3,0,0.5,0h0.7
	c0.2,0,0.4,0,0.7,0.1c0.2,0,0.3,0.1,0.5,0.1c0.2,0.1,0.3,0.1,0.5,0.2c0.2,0.1,0.2,0.1,0.4,0.2c0.2,0.1,0.3,0.1,0.5,0.2
	c0.2,0.1,0.2,0.1,0.4,0.2c0.1,0.1,0.3,0.1,0.4,0.2c0.2,0.1,0.2,0.1,0.5,0.2c0.1,0.1,0.3,0.1,0.4,0.2c0.2,0.1,0.2,0.1,0.4,0.2
	c0.1,0.1,0.2,0.1,0.3,0.2c0.2,0.1,0.2,0.1,0.3,0.1l0.3,0.1c0.1,0,0.1,0,0.2,0.1c0.1,0,0.1,0,0.2,0.1c0,0,0.1,0,0.2,0
	c0,0,0.1,0,0.1,0c0.1-0.1,0.1-0.3,0.2-0.4c0.1-0.2,0.1-0.2,0.2-0.3c0.1-0.1,0.1-0.1,0.2-0.3c0.1-0.1,0.1-0.2,0.1-0.3
	c0.1-0.1,0.1-0.3,0.2-0.4c0.1-0.1,0.1-0.2,0.2-0.3c0.1-0.2,0.2-0.3,0.2-0.5c0.1-0.1,0.1-0.2,0.2-0.4c0.1-0.2,0.1-0.2,0.2-0.5
	c0.1-0.2,0.1-0.2,0.3-0.5c0.1-0.2,0.2-0.4,0.2-0.5c0.1-0.1,0.1-0.3,0.2-0.5c0.1-0.3,0.1-0.3,0.2-0.5c0.1-0.2,0.1-0.3,0.2-0.5
	c0.1-0.2,0.2-0.4,0.2-0.5c0.1-0.2,0.1-0.3,0.2-0.5c0.1-0.2,0.1-0.3,0.2-0.5c0.1-0.2,0.1-0.2,0.2-0.5c0.1-0.1,0.1-0.3,0.1-0.4
	c0-0.1,0.1-0.2,0.1-0.3c0.1-0.2,0.1-0.2,0.1-0.3c0-0.1,0-0.1,0-0.2c0-0.1,0-0.1,0-0.3c0,0,0-0.1,0-0.1v-0.1c-0.1,0-0.2-0.1-0.3-0.1
	c-0.2-0.1-0.2-0.1-0.3-0.1c-0.1,0-0.1,0-0.3-0.1c-0.2,0-0.2,0-0.3-0.1c-0.1,0-0.2-0.1-0.3-0.1c-0.2,0-0.2,0-0.4-0.1
	c-0.1,0-0.3-0.1-0.4-0.1c-0.2,0-0.2,0-0.4-0.1c-0.2,0-0.2,0-0.5-0.1c-0.2,0-0.3,0-0.5-0.1c-0.2,0-0.4-0.1-0.5-0.1
	c-0.1,0-0.3,0-0.4-0.1c-0.2,0-0.3,0-0.4,0c-0.2,0-0.3,0-0.5-0.1c-0.2,0-0.2,0-0.4-0.1c-0.2,0-0.2,0-0.4-0.1c-0.2,0-0.3-0.1-0.4-0.1
	c-0.1,0-0.3-0.1-0.4-0.1c-0.1,0-0.3-0.1-0.4-0.1l-0.3-0.1c-0.2-0.1-0.3-0.1-0.5-0.2c0,0,0,0,0,0
	C153.4,185.6,153.4,185.6,153.3,185.6z M154.9,183.4c0.1,0,0.1,0,0.1,0c0.1,0,0.1,0,0.2,0.1c0.1,0,0.2,0,0.3,0.1
	c0.1,0,0.2,0,0.3,0.1c0.2,0,0.2,0,0.4,0.1c0.2,0,0.2,0,0.5,0.1c0.1,0,0.3,0,0.4,0c0.1,0,0.3,0,0.5,0c0.2,0,0.4,0,0.5,0.1
	c0.1,0,0.3,0,0.5,0.1c0.2,0,0.4,0.1,0.5,0.1c0.2,0,0.2,0,0.5,0.1c0.2,0,0.2,0,0.4,0.1c0.2,0,0.3,0.1,0.5,0.1
	c0.2,0.1,0.2,0.1,0.4,0.1c0.1,0,0.3,0.1,0.4,0.1c0.2,0.1,0.2,0.1,0.4,0.1c0.2,0.1,0.2,0.1,0.3,0.1c0.2,0.1,0.2,0.1,0.4,0.1
	c0.1,0,0.3,0.1,0.4,0.1c0.2,0.1,0.3,0.1,0.5,0.2c0.2,0.1,0.4,0.3,0.6,0.5c0.3,0.3,0.4,0.7,0.4,1.1v0.4c0,0.2,0,0.2,0,0.3
	c0,0.1,0,0.3,0,0.4c0,0.1,0,0.1,0,0.3c0,0.1-0.1,0.3-0.1,0.5c-0.1,0.2-0.1,0.2-0.1,0.4c0,0.1-0.1,0.3-0.1,0.4c0,0.1-0.1,0.3-0.1,0.4
	c-0.1,0.2-0.1,0.2-0.2,0.5c-0.1,0.2-0.1,0.4-0.2,0.5c-0.1,0.2-0.1,0.4-0.2,0.5c-0.1,0.2-0.1,0.3-0.2,0.5c-0.1,0.2-0.2,0.4-0.3,0.6
	c-0.1,0.3-0.1,0.3-0.2,0.5c-0.1,0.2-0.2,0.4-0.2,0.5c-0.1,0.2-0.2,0.3-0.3,0.5c-0.1,0.3-0.1,0.3-0.2,0.5c-0.1,0.2-0.1,0.2-0.2,0.5
	c-0.1,0.2-0.2,0.3-0.3,0.5c-0.1,0.1-0.1,0.2-0.2,0.4c-0.1,0.2-0.2,0.3-0.2,0.4c-0.1,0.1-0.1,0.2-0.1,0.3c-0.1,0.1-0.1,0.2-0.2,0.3
	c-0.1,0.2-0.1,0.2-0.1,0.3c-0.1,0.2-0.1,0.2-0.2,0.4c-0.1,0.1-0.1,0.3-0.2,0.4c-0.1,0.1-0.1,0.3-0.2,0.4c-0.1,0.2-0.3,0.4-0.5,0.6
	c-0.3,0.3-0.7,0.4-1.1,0.4c-0.2,0-0.2,0-0.4,0c-0.1,0-0.3,0-0.5,0c-0.2,0-0.4-0.1-0.5-0.1c-0.1,0-0.1,0-0.3-0.1
	c-0.1,0-0.3-0.1-0.4-0.1c-0.2-0.1-0.2-0.1-0.4-0.2c-0.2-0.1-0.2-0.1-0.4-0.1c-0.1-0.1-0.3-0.1-0.4-0.2c-0.2-0.1-0.2-0.1-0.5-0.2
	c-0.2-0.1-0.3-0.2-0.5-0.2c-0.2-0.1-0.2-0.1-0.4-0.2c-0.2-0.1-0.3-0.2-0.5-0.3c-0.2-0.1-0.2-0.1-0.4-0.2c-0.1-0.1-0.2-0.1-0.4-0.2
	c-0.2-0.1-0.2-0.1-0.4-0.2c-0.1,0-0.2-0.1-0.2-0.1c-0.1,0-0.2,0-0.3-0.1c-0.1,0-0.1,0-0.1,0h-0.7c-0.1,0-0.2,0-0.3,0
	c-0.2,0-0.3,0-0.5,0.1c-0.2,0-0.4,0-0.6,0c-0.2,0-0.3,0-0.5,0c-0.6-0.1-1.2-0.5-1.3-1.3c0-0.2,0-0.3,0-0.5c0-0.2,0-0.3,0.1-0.5
	c0-0.2,0.1-0.3,0.1-0.4c0-0.1,0-0.2,0-0.2c0-0.1,0-0.2,0.1-0.4c0-0.2,0-0.2,0.1-0.4c0.1-0.2,0.1-0.2,0.1-0.4c0-0.1,0.1-0.3,0.1-0.5
	c0.1-0.2,0.1-0.2,0.1-0.5c0-0.2,0.1-0.3,0.1-0.5c0.1-0.2,0.1-0.2,0.1-0.4c0-0.1,0.1-0.3,0.2-0.5l0.3-1c0.1-0.2,0.1-0.3,0.2-0.5
	c0.1-0.2,0.1-0.4,0.2-0.6c0.1-0.2,0.1-0.4,0.2-0.5c0.1-0.3,0.1-0.3,0.2-0.6c0.1-0.3,0.1-0.3,0.2-0.5c0.1-0.2,0.1-0.3,0.2-0.5
	c0.1-0.1,0.1-0.3,0.2-0.4c0.1-0.2,0.1-0.3,0.2-0.5c0.1-0.2,0.1-0.2,0.2-0.4c0.1-0.1,0.1-0.3,0.2-0.4c0.1-0.1,0.2-0.3,0.2-0.4
	c0.1-0.2,0.4-0.4,0.7-0.8c0.2-0.2,0.5-0.3,0.8-0.3c0.1-0.4,0.5-0.7,0.9-0.8c0.6-0.1,1.2,0.2,1.4,0.7L154.9,183.4z"/>
<path d="M154.5,167.7c-0.1,0.2-0.3,0.5-0.5,0.7c-0.4,0.4-0.9,0.6-1.5,0.7c-0.9,0.1-1.7-0.6-1.8-1.5c-0.1-0.7,0.3-1.4,1-1.7
	c0-0.1,0.1-0.1,0.1-0.3c0.1-0.3,0.3-0.6,0.5-0.8c0.3-0.3,0.6-0.5,1-0.7c0.3-0.1,0.6-0.1,0.9-0.1c0.2,0,0.4,0,0.6,0
	c0.2,0,0.5,0.1,0.7,0.2c0.2,0.1,0.3,0.1,0.5,0.2c0.2,0.1,0.2,0.1,0.4,0.2l0.2,0.1c0.8,0.4,1.1,1.4,0.6,2.2s-1.4,1.1-2.2,0.6
	l-0.2-0.1c-0.1-0.1-0.2-0.1-0.2-0.1C154.6,167.5,154.6,167.6,154.5,167.7L154.5,167.7z"/>
<path d="M153.3,144.4c-0.1-0.1-0.1-0.1-0.3-0.3c-0.3-0.4-0.3-0.4-0.2-1.4c0.6-0.6,0.6-0.6,1-0.7c0.2,0,0.2,0,0.4,0
	c0.1,0,0.3,0,0.4,0c0.2,0,0.3,0,0.5,0c0.2,0,0.4,0,0.5,0c0.1,0,0.1,0,0.3,0c0.2,0,0.2,0,0.4,0c0.2,0,0.2,0,0.4,0c0.2,0,0.2,0,0.5,0
	c0.2,0,0.2,0,0.4,0c0.1,0,0.3,0,0.5,0c0.3,0,0.3,0,0.6,0c0.2,0,0.3,0,0.5,0c0.2,0,0.4,0,0.5,0h4.2h0.6c0.2,0,0.3,0,0.5,0
	c0.2,0,0.2,0,0.5,0c0.1,0,0.3,0,0.5,0.1c0.2,0,0.4,0.1,0.6,0.1c0.3,0.1,0.3,0.1,0.5,0.1c0.2,0,0.4,0.1,0.5,0.1
	c0.2,0.1,0.2,0.1,0.4,0.1c0.1,0,0.3,0.1,0.4,0.1c0.5,0.2,0.9,0.5,1,1c0.1,0.3,0.1,0.6,0,1c0,0.2-0.1,0.3-0.2,0.5
	c-0.1,0.2-0.1,0.3-0.2,0.4c0,0.1,0,0.1-0.1,0.3c-0.1,0.1-0.1,0.1-0.1,0.3c-0.1,0.2-0.1,0.2-0.1,0.3c-0.1,0.1-0.1,0.2-0.2,0.4
	c-0.1,0.1-0.1,0.3-0.2,0.4c-0.1,0.2-0.1,0.2-0.2,0.4c-0.1,0.1-0.1,0.3-0.2,0.5c-0.1,0.3-0.1,0.3-0.2,0.5c-0.1,0.2-0.1,0.4-0.2,0.5
	c-0.1,0.2-0.1,0.4-0.2,0.6c-0.1,0.2-0.1,0.3-0.2,0.5c0,0.1-0.1,0.3-0.1,0.4c-0.1,0.2-0.1,0.4-0.2,0.5c-0.1,0.2-0.1,0.2-0.1,0.5
	c-0.1,0.2-0.1,0.2-0.1,0.4c-0.1,0.2-0.1,0.2-0.1,0.4c0,0.1-0.1,0.3-0.1,0.4c-0.1,0.2-0.1,0.2-0.1,0.3c-0.1,0.2-0.1,0.2-0.1,0.3
	c-0.1,0.1-0.1,0.3-0.2,0.5c-0.1,0.2-0.2,0.4-0.3,0.6c-0.1,0.2-0.2,0.4-0.3,0.5c-0.1,0.2-0.2,0.3-0.3,0.5c-0.1,0.1-0.2,0.2-0.2,0.3
	c-0.1,0.2-0.2,0.3-0.3,0.4c-0.1,0.2-0.1,0.2-0.2,0.3c-0.1,0.1-0.1,0.1-0.1,0.2c0,0-0.1,0.1-0.1,0.2c-0.1,0.3-0.3,0.5-0.6,0.7
	c-0.2,0.1-0.3,0.2-0.5,0.3c-0.2,0.1-0.4,0.2-0.6,0.2c-0.2,0.1-0.4,0.1-0.5,0.1c-0.1,0-0.3,0.1-0.4,0.1c-0.1,0-0.3,0-0.4,0.1
	c-0.2,0-0.2,0-0.4,0c-0.2,0-0.2,0-0.4,0.1c-0.2,0-0.3,0-0.5,0c-0.2,0-0.4,0-0.6,0c-0.3,0-0.3,0-0.6,0c-0.3,0-0.3,0-0.6,0
	c-0.2,0-0.4,0-0.7,0c-0.2,0-0.5,0-0.7,0h-3.1c-0.2,0-0.5,0-0.6,0c-0.3,0-0.3,0-0.5,0c-0.2,0-0.4,0-0.5,0c-0.2,0-0.4,0-0.6-0.1
	c-0.3,0-0.5-0.1-0.7-0.1c-0.7-0.2-1.3-0.7-1.2-1.5c0-0.4,0.2-0.8,0.5-1.1c0,0,0-0.1,0.1-0.1c0,0,0,0,0.1-0.1c0,0,0-0.1,0-0.1
	c0-0.1,0-0.2,0.1-0.3c0-0.1,0-0.2,0-0.3c0-0.1,0-0.1,0-0.2c0-0.2,0-0.2,0-0.4c0-0.2,0-0.2,0-0.3c0-0.2,0-0.2,0-0.4
	c0-0.2,0-0.3,0-0.5c0-0.2,0-0.2,0-0.5c0-0.2,0-0.3,0.1-0.5c0-0.2,0-0.4,0.1-0.6c0-0.2,0.1-0.4,0.1-0.6c0-0.2,0.1-0.4,0.1-0.6
	c0.1-0.3,0.1-0.3,0.1-0.5c0-0.2,0.1-0.4,0.1-0.6c0.1-0.3,0.1-0.3,0.1-0.6c0.1-0.3,0.1-0.3,0.1-0.6c0-0.2,0.1-0.4,0.1-0.6
	c0-0.2,0.1-0.3,0.1-0.5l0.1-0.5c0-0.2,0-0.2,0.1-0.4c0-0.2,0-0.2,0.1-0.4c0.1-0.5,0.4-1,0.9-1.3c0.4-0.2,0.8-0.3,1.2-0.2
	C153.4,144.4,153.4,144.4,153.3,144.4L153.3,144.4z M151.6,157.8L151.6,157.8L151.6,157.8z M167.3,145.3
	C167.3,145.3,167.3,145.3,167.3,145.3C167.3,145.3,167.3,145.3,167.3,145.3z M154.1,145c0.4,0.5,0.3,1.2-0.2,1.6c0,0,0,0.1,0,0.1
	c0,0.2,0,0.2-0.1,0.4c0,0.2,0,0.2-0.1,0.5c0,0.2-0.1,0.4-0.1,0.6c0,0.2-0.1,0.4-0.1,0.6c-0.1,0.3-0.1,0.3-0.1,0.6
	c-0.1,0.3-0.1,0.3-0.1,0.7c-0.1,0.2-0.1,0.4-0.1,0.6c-0.1,0.3-0.1,0.3-0.1,0.5c0,0.2-0.1,0.4-0.1,0.5c0,0.2-0.1,0.3-0.1,0.5
	c0,0.2-0.1,0.3-0.1,0.5c0,0.2,0,0.3,0,0.4c0,0.2,0,0.2,0,0.5c0,0.1,0,0.3,0,0.4c0,0.2,0,0.2,0,0.4c0,0.2,0,0.2,0,0.4
	c0,0.2,0,0.2,0,0.3c0,0.1,0,0.3,0,0.4c0,0.1,0,0.3-0.1,0.4c0,0.1,0,0.3-0.1,0.4c0.1,0,0.1,0,0.3,0c0.2,0,0.3,0,0.5,0h3.1
	c0.2,0,0.4,0,0.6,0c0.2,0,0.4,0,0.6,0c0.3,0,0.3,0,0.6,0c0.3,0,0.3,0,0.6,0c0.2,0,0.4,0,0.5,0c0.2,0,0.3,0,0.4,0c0.2,0,0.2,0,0.4,0
	c0.2,0,0.2,0,0.4,0c0.1,0,0.2,0,0.3,0c0.1,0,0.2,0,0.3-0.1c0,0,0.1,0,0.3-0.1c0.1,0,0.1,0,0.2-0.1c0-0.1,0.1-0.2,0.1-0.2
	c0.1-0.1,0.1-0.1,0.2-0.3c0.1-0.2,0.1-0.2,0.3-0.4c0.1-0.1,0.1-0.2,0.2-0.3c0.1-0.1,0.2-0.3,0.3-0.4c0.1-0.1,0.2-0.2,0.3-0.4
	c0.1-0.1,0.2-0.3,0.2-0.4c0.1-0.1,0.2-0.3,0.2-0.4c0.1-0.1,0.1-0.2,0.1-0.3c0.1-0.1,0.1-0.1,0.1-0.3c0.1-0.2,0.1-0.2,0.1-0.3
	c0-0.1,0.1-0.2,0.1-0.3c0.1-0.2,0.1-0.2,0.1-0.3c0.1-0.2,0.1-0.2,0.1-0.4c0.1-0.2,0.1-0.2,0.1-0.4c0-0.1,0.1-0.3,0.1-0.5
	c0.1-0.2,0.1-0.3,0.2-0.5c0-0.2,0.1-0.3,0.2-0.5c0.1-0.2,0.1-0.3,0.2-0.5c0.1-0.2,0.1-0.4,0.2-0.6l0.2-0.6c0.1-0.2,0.1-0.4,0.2-0.5
	c0.1-0.2,0.1-0.2,0.2-0.4c0.1-0.1,0.1-0.3,0.2-0.4c0.1-0.2,0.1-0.3,0.2-0.4c0.1-0.2,0.1-0.2,0.1-0.3c0.1-0.2,0.1-0.2,0.1-0.3
	c-0.1,0-0.2,0-0.3-0.1c-0.2,0-0.3-0.1-0.5-0.1c-0.2,0-0.3,0-0.4-0.1c-0.2,0-0.2,0-0.4,0c-0.1,0-0.3,0-0.4,0h-0.5h-4.2
	c-0.2,0-0.4,0-0.6,0c-0.2,0-0.5,0-0.7,0c-0.3,0-0.3,0-0.5,0c-0.2,0-0.3,0-0.5,0c-0.2,0-0.2,0-0.5,0c-0.2,0-0.2,0-0.4,0
	c-0.2,0-0.2,0-0.4,0c-0.2,0-0.2,0-0.4,0c-0.2,0-0.2,0-0.4,0c-0.1,0-0.2,0-0.4,0c0,0,0,0-0.1,0c-0.3,0.2-0.7,0.2-1.1,0.1
	C153.9,144.7,154,144.8,154.1,145L154.1,145z M153.8,144.6c-0.1,0-0.2-0.1-0.4-0.2C153.5,144.5,153.7,144.5,153.8,144.6z"/>
<path d="M181.7,167.4c0.2,0,0.3,0,0.5,0h1.6c0.2,0,0.4,0,0.6,0c0.2,0,0.4,0,0.5,0c0.2,0,0.4,0,0.5,0c0.2,0,0.4,0,0.6,0.1
	c0.2,0,0.4,0.1,0.6,0.1c0.2,0,0.3,0,0.5,0.1c0.2,0,0.4,0.1,0.6,0.1c0.3,0.1,0.3,0.1,0.6,0.1c0.3,0.1,0.3,0.1,0.6,0.1
	c0.3,0,0.3,0,0.6,0.1c0.2,0,0.4,0.1,0.6,0.1c0.3,0.1,0.3,0.1,0.5,0.1c0.2,0.1,0.4,0.1,0.6,0.2c0.2,0,0.3,0.1,0.5,0.2
	c0.2,0.1,0.2,0.1,0.4,0.2c0.2,0.1,0.4,0.2,0.6,0.3c0.3,0.1,0.4,0.2,0.6,0.3c0.1,0.1,0.3,0.2,0.4,0.3c0.2,0.2,0.3,0.3,0.5,0.5
	c0.2,0.3,0.4,0.6,0.5,1c0,0.2,0,0.4,0,0.7c0,0.3-0.1,0.5-0.1,0.7c-0.1,0.2-0.1,0.4-0.2,0.5c-0.1,0.1-0.2,0.3-0.2,0.4
	c-0.1,0.1-0.1,0.2-0.2,0.3c0,0.1-0.1,0.1-0.1,0.2c-0.1,0.1-0.1,0.3-0.2,0.4c-0.1,0.1-0.1,0.2-0.2,0.3c-0.1,0.1-0.1,0.3-0.2,0.4
	c-0.1,0.2-0.1,0.2-0.2,0.5c-0.1,0.2-0.2,0.3-0.2,0.5c-0.1,0.2-0.2,0.3-0.2,0.5c-0.1,0.2-0.2,0.4-0.3,0.6c-0.1,0.2-0.2,0.4-0.3,0.6
	c-0.1,0.2-0.2,0.4-0.3,0.7c-0.1,0.2-0.2,0.4-0.3,0.6c-0.1,0.2-0.2,0.4-0.3,0.7c-0.1,0.2-0.2,0.5-0.3,0.6c-0.1,0.3-0.1,0.3-0.3,0.6
	c-0.1,0.2-0.2,0.5-0.3,0.6c-0.1,0.3-0.1,0.3-0.3,0.6c-0.1,0.2-0.2,0.4-0.2,0.5c-0.1,0.2-0.2,0.4-0.3,0.6c-0.1,0.2-0.1,0.3-0.2,0.4
	c-0.1,0.1-0.1,0.3-0.2,0.4c-0.1,0.2-0.1,0.2-0.2,0.4c0,0.1-0.1,0.3-0.2,0.5c-0.1,0.2-0.1,0.4-0.2,0.5c0,0.1-0.1,0.2-0.1,0.3
	c-0.1,0.4-0.2,0.7-0.4,1c-0.4,0.5-1.1,0.7-1.7,0.6c-0.2,0-0.3-0.1-0.5-0.1c-0.2-0.1-0.2-0.1-0.4-0.1c-0.2,0-0.3-0.1-0.4-0.1
	c-0.1,0-0.2-0.1-0.4-0.1c-0.1-0.1-0.3-0.1-0.4-0.2c-0.2-0.1-0.3-0.1-0.5-0.2c-0.2-0.1-0.2-0.1-0.5-0.2c-0.2-0.1-0.4-0.2-0.6-0.3
	c-0.2-0.1-0.3-0.2-0.5-0.3c-0.2-0.1-0.4-0.2-0.5-0.3c-0.2-0.1-0.3-0.2-0.5-0.3c-0.2-0.1-0.4-0.2-0.6-0.3c-0.2-0.1-0.3-0.2-0.5-0.2
	c-0.2-0.1-0.3-0.1-0.5-0.2c-0.2-0.1-0.3-0.1-0.5-0.1c-0.2-0.1-0.3-0.1-0.5-0.1c-0.1,0-0.3-0.1-0.4-0.1c-0.2,0-0.3,0-0.4-0.1
	c-0.1,0-0.2,0-0.3,0c-0.2,0-0.2,0-0.3,0h-0.8c-0.3,0-0.5,0-0.8-0.1c-0.7-0.2-1.2-0.8-1.2-1.6c0-0.2,0-0.3,0-0.5c0-0.2,0-0.3,0.1-0.5
	c0-0.2,0-0.2,0.1-0.4c0-0.1,0.1-0.3,0.1-0.4c0-0.2,0-0.2,0.1-0.3c0-0.2,0.1-0.3,0.2-0.6c0.1-0.2,0.1-0.4,0.2-0.6
	c0.1-0.3,0.1-0.3,0.2-0.6c0.1-0.2,0.1-0.4,0.2-0.7c0.1-0.3,0.1-0.3,0.2-0.7c0.1-0.2,0.2-0.5,0.3-0.7c0.1-0.3,0.2-0.5,0.3-0.8
	c0.1-0.3,0.2-0.5,0.3-0.8c0.1-0.3,0.2-0.6,0.3-0.8c0.1-0.3,0.2-0.5,0.3-0.8c0.1-0.3,0.2-0.6,0.3-0.9c0.1-0.3,0.2-0.5,0.3-0.7
	c0.1-0.2,0.2-0.5,0.3-0.8c0.1-0.3,0.2-0.5,0.3-0.7c0.1-0.3,0.1-0.3,0.2-0.5c0.1-0.2,0.1-0.2,0.2-0.5c0.1-0.1,0.1-0.3,0.2-0.4
	c0.1-0.2,0.2-0.4,0.3-0.5c0.3-0.4,0.6-0.6,1-0.9c0.3-0.1,0.6-0.2,0.8-0.2C181.5,167.4,181.6,167.4,181.7,167.4L181.7,167.4z
	 M177.4,182.6L177.4,182.6L177.4,182.6L177.4,182.6z M186.9,184.8C187,184.8,187,184.8,186.9,184.8L186.9,184.8L186.9,184.8z
	 M185.7,185.6C185.7,185.6,185.7,185.6,185.7,185.6C185.7,185.6,185.7,185.6,185.7,185.6L185.7,185.6z M191.9,171.7
	C191.9,171.7,191.9,171.7,191.9,171.7C191.9,171.7,191.9,171.7,191.9,171.7z M192.1,172.1C192.1,172.1,192.1,172.1,192.1,172.1
	C192.1,172.1,192.1,172.1,192.1,172.1L192.1,172.1z M182.1,170.2L182.1,170.2L182.1,170.2z M181.7,170.5c-0.1,0.2-0.1,0.2-0.2,0.4
	c-0.1,0.2-0.1,0.2-0.2,0.5c-0.1,0.2-0.2,0.4-0.3,0.6c-0.1,0.3-0.2,0.5-0.3,0.7c-0.1,0.3-0.2,0.5-0.3,0.8c-0.1,0.3-0.2,0.5-0.3,0.8
	c-0.1,0.3-0.2,0.6-0.3,0.8c-0.1,0.2-0.2,0.5-0.3,0.8c-0.1,0.3-0.2,0.6-0.3,0.8c-0.1,0.3-0.2,0.5-0.3,0.8c-0.1,0.2-0.2,0.5-0.2,0.7
	c-0.1,0.3-0.1,0.3-0.2,0.7c-0.1,0.2-0.2,0.4-0.2,0.7c-0.1,0.3-0.1,0.3-0.2,0.5c0,0.1-0.1,0.3-0.2,0.5c0,0.2-0.1,0.3-0.1,0.4
	c-0.1,0.2-0.1,0.2-0.1,0.4c0,0,0.1,0,0.2,0c0.2,0,0.3,0,0.5,0c0.2,0,0.3,0,0.5,0.1c0.2,0,0.4,0.1,0.6,0.1c0.2,0,0.4,0.1,0.6,0.2
	c0.2,0.1,0.4,0.1,0.7,0.2c0.2,0.1,0.4,0.2,0.6,0.2c0.2,0.1,0.4,0.2,0.6,0.3c0.2,0.1,0.4,0.2,0.6,0.3c0.2,0.1,0.4,0.2,0.6,0.3
	c0.2,0.1,0.4,0.2,0.6,0.3c0.2,0.1,0.4,0.2,0.6,0.3c0.1,0.1,0.3,0.2,0.4,0.2c0.2,0.1,0.2,0.1,0.5,0.2c0.1,0.1,0.2,0.1,0.3,0.2
	c0.1,0.1,0.3,0.1,0.4,0.2c0,0,0.1,0,0.1,0c0-0.1,0.1-0.2,0.1-0.3c0.1-0.2,0.2-0.4,0.2-0.6c0.1-0.2,0.1-0.2,0.2-0.4
	c0.1-0.2,0.1-0.3,0.2-0.5c0.1-0.2,0.1-0.3,0.2-0.5c0.1-0.2,0.2-0.4,0.2-0.5c0.1-0.2,0.2-0.4,0.3-0.6c0.1-0.3,0.1-0.3,0.3-0.6
	c0.1-0.2,0.2-0.4,0.3-0.7c0.2-0.3,0.2-0.3,0.3-0.6c0.1-0.2,0.2-0.4,0.3-0.7c0.1-0.2,0.2-0.4,0.3-0.6c0.1-0.2,0.2-0.4,0.3-0.6
	c0.1-0.2,0.2-0.4,0.3-0.6c0.1-0.2,0.2-0.4,0.3-0.7c0.1-0.2,0.2-0.4,0.2-0.5c0.1-0.2,0.2-0.4,0.3-0.6c0.1-0.2,0.2-0.4,0.3-0.5
	c0.1-0.2,0.1-0.2,0.2-0.4c0.1-0.1,0.1-0.3,0.2-0.4c0.1-0.2,0.2-0.3,0.2-0.5c0.1-0.1,0.1-0.2,0.1-0.3c0.1-0.1,0.1-0.2,0.2-0.4
	c0.1-0.1,0.1-0.3,0.2-0.4c0.1-0.1,0.1-0.2,0.2-0.3c-0.1,0-0.1-0.1-0.1-0.1c0,0-0.1-0.1-0.3-0.2c-0.2-0.1-0.3-0.1-0.3-0.2
	c-0.2-0.1-0.2-0.1-0.4-0.1c-0.1,0-0.2-0.1-0.3-0.1c-0.1,0-0.2-0.1-0.4-0.1c-0.3-0.1-0.3-0.1-0.5-0.1c-0.1,0-0.3-0.1-0.5-0.1
	c-0.3,0-0.3,0-0.5-0.1c-0.3,0-0.3,0-0.6-0.1c-0.3-0.1-0.3-0.1-0.6-0.1c-0.2,0-0.3-0.1-0.5-0.1c-0.2,0-0.4-0.1-0.6-0.1
	c-0.2,0-0.3-0.1-0.5-0.1c-0.2,0-0.3,0-0.5-0.1c-0.2,0-0.3,0-0.5,0c-0.2,0-0.3,0-0.5,0c-0.1,0-0.3,0-0.5,0h-1.6c-0.1,0-0.2,0-0.3,0
	l-0.1,0c0,0-0.1,0-0.1,0.1C181.7,170.4,181.7,170.5,181.7,170.5L181.7,170.5z"/>
<path d="M169.8,195.7C169.8,195.7,169.8,195.7,169.8,195.7C169.8,195.7,169.8,195.7,169.8,195.7z M167,206.5L167,206.5L167,206.5z
	 M182.3,197.5C182.3,197.5,182.3,197.5,182.3,197.5C182.3,197.5,182.3,197.5,182.3,197.5z M170.1,195.5c-0.1,0-0.2,0.1-0.2,0.1
	c-0.1,0.1-0.1,0.1-0.1,0c0,0.1-0.1,0.1-0.1,0.2c0,0.1-0.1,0.2-0.1,0.4c0,0.1-0.1,0.3-0.1,0.5c0,0.2-0.1,0.4-0.1,0.5
	c-0.1,0.3-0.1,0.3-0.2,0.7c-0.1,0.2-0.1,0.5-0.2,0.7c-0.1,0.3-0.1,0.3-0.2,0.8c-0.1,0.3-0.2,0.6-0.2,0.9c-0.1,0.3-0.1,0.6-0.2,0.8
	c-0.1,0.2-0.1,0.5-0.2,0.7c-0.1,0.3-0.1,0.3-0.2,0.7c-0.1,0.3-0.1,0.5-0.2,0.7c-0.1,0.3-0.1,0.3-0.1,0.5c-0.1,0.3-0.1,0.3-0.2,0.6
	c-0.1,0.3-0.1,0.3-0.2,0.5c-0.1,0.2-0.1,0.2-0.1,0.4c0,0.1,0,0.1-0.1,0.2c0.2,0,0.3,0,0.4,0c0.2,0,0.2,0,0.4,0c0.1,0,0.3,0,0.5,0
	h0.5c0.2,0,0.4,0,0.6,0c0.2,0,0.5,0.1,0.7,0.1c0.2,0,0.4,0.1,0.6,0.1c0.2,0,0.4,0.1,0.6,0.2c0.2,0.1,0.4,0.1,0.6,0.2
	c0.2,0.1,0.5,0.2,0.7,0.2c0.2,0.1,0.4,0.2,0.6,0.2c0.2,0.1,0.4,0.2,0.6,0.2c0.2,0.1,0.4,0.2,0.6,0.2c0.2,0.1,0.4,0.2,0.6,0.2
	c0.2,0.1,0.3,0.2,0.5,0.2c0.2,0.1,0.2,0.1,0.4,0.2c0.2,0.1,0.2,0.1,0.4,0.2c0.2,0.1,0.2,0.1,0.3,0.2c0.2,0.1,0.2,0.1,0.3,0.2
	c0.1,0,0.1,0.1,0.2,0.1c0,0,0-0.1,0-0.1c0.1-0.2,0.1-0.3,0.2-0.5l0.1-0.4c0.1-0.2,0.1-0.2,0.2-0.4c0.1-0.2,0.1-0.2,0.2-0.5
	c0.1-0.3,0.1-0.3,0.2-0.6c0.1-0.3,0.1-0.3,0.2-0.6c0.1-0.3,0.1-0.3,0.3-0.7c0.1-0.4,0.1-0.4,0.3-0.7c0.1-0.2,0.2-0.4,0.2-0.6
	c0.1-0.2,0.2-0.5,0.3-0.7c0.1-0.2,0.2-0.4,0.3-0.6c0.1-0.3,0.1-0.3,0.3-0.6c0.1-0.2,0.2-0.4,0.3-0.6c0.1-0.3,0.1-0.3,0.3-0.5
	c0.1-0.3,0.1-0.3,0.2-0.5c0.1-0.1,0.1-0.3,0.2-0.4c0.1-0.2,0.2-0.4,0.2-0.5c0.1-0.2,0.1-0.2,0.2-0.4c0-0.1,0.1-0.2,0.1-0.3
	c0.1-0.2,0.1-0.2,0.1-0.3c0.1-0.2,0.1-0.2,0.1-0.3c-0.1-0.1-0.1-0.1-0.3-0.2c-0.1-0.1-0.2-0.2-0.4-0.3c-0.2-0.1-0.2-0.1-0.3-0.2
	c-0.1-0.1-0.1-0.1-0.4-0.3c-0.2-0.1-0.3-0.2-0.3-0.2c-0.1-0.1-0.2-0.1-0.3-0.2c-0.2-0.1-0.2-0.1-0.4-0.2c-0.1-0.1-0.2-0.1-0.4-0.2
	c-0.1-0.1-0.3-0.1-0.4-0.2c-0.1-0.1-0.3-0.1-0.5-0.2c-0.3-0.1-0.3-0.1-0.6-0.2c-0.2-0.1-0.4-0.1-0.6-0.2c-0.2,0-0.4-0.1-0.5-0.1
	c-0.2,0-0.4-0.1-0.6-0.1c-0.2,0-0.4-0.1-0.5-0.1c-0.3-0.1-0.3-0.1-0.6-0.1c-0.2,0-0.4-0.1-0.5-0.1c-0.3,0-0.3,0-0.5-0.1
	c-0.2,0-0.4,0-0.5-0.1c-0.1,0-0.3,0-0.4,0c-0.2,0-0.2,0-0.5,0c-0.1,0-0.3,0-0.4,0h-1C170.9,194.7,170.6,195.3,170.1,195.5
	L170.1,195.5z M168.2,192.6c0-0.8,0.6-1.5,1.4-1.5h2.3c0.2,0,0.3,0,0.5,0c0.2,0,0.2,0,0.5,0c0.2,0,0.4,0,0.6,0c0.2,0,0.4,0,0.5,0.1
	c0.3,0,0.3,0,0.6,0.1c0.2,0,0.4,0.1,0.7,0.1c0.3,0.1,0.3,0.1,0.6,0.1c0.2,0,0.4,0.1,0.6,0.1c0.2,0,0.4,0.1,0.6,0.1
	c0.2,0,0.5,0.1,0.7,0.2c0.2,0.1,0.4,0.1,0.6,0.2c0.3,0.1,0.3,0.1,0.6,0.2c0.2,0.1,0.4,0.1,0.6,0.2c0.2,0.1,0.4,0.1,0.6,0.2
	c0.2,0.1,0.4,0.2,0.6,0.3c0.2,0.1,0.2,0.1,0.4,0.2c0.1,0.1,0.3,0.1,0.4,0.2c0.1,0.1,0.3,0.2,0.5,0.3c0.3,0.2,0.3,0.2,0.4,0.3
	l0.3,0.2c0.1,0.1,0.2,0.2,0.3,0.2c0.1,0.1,0.1,0.1,0.3,0.2c0.1,0.1,0.1,0.1,0.3,0.2c0.2,0.1,0.3,0.2,0.5,0.4
	c0.4,0.3,0.6,0.8,0.6,1.3c0,0.2,0,0.4,0,0.6c0,0.2-0.1,0.4-0.1,0.6c0,0.2-0.1,0.3-0.1,0.5c-0.1,0.1-0.1,0.1-0.1,0.3
	c-0.1,0.2-0.1,0.2-0.1,0.3c-0.1,0.2-0.1,0.3-0.2,0.5c-0.1,0.2-0.1,0.2-0.2,0.5c-0.1,0.1-0.1,0.3-0.2,0.4c-0.1,0.2-0.2,0.4-0.2,0.5
	c-0.1,0.2-0.1,0.2-0.2,0.5c-0.1,0.3-0.1,0.3-0.2,0.5c-0.1,0.2-0.2,0.4-0.3,0.6c-0.1,0.3-0.1,0.3-0.3,0.6c-0.1,0.2-0.2,0.4-0.3,0.7
	c-0.1,0.2-0.2,0.4-0.3,0.6c-0.1,0.2-0.2,0.5-0.3,0.7c-0.1,0.3-0.1,0.3-0.3,0.7c-0.1,0.4-0.1,0.4-0.3,0.6c-0.1,0.3-0.1,0.3-0.2,0.6
	s-0.1,0.3-0.2,0.5c-0.1,0.3-0.1,0.3-0.2,0.5c-0.1,0.2-0.1,0.2-0.2,0.4c-0.1,0.2-0.1,0.2-0.1,0.4c0,0.1-0.1,0.3-0.2,0.4
	c-0.1,0.1-0.1,0.3-0.1,0.4c-0.1,0.2-0.1,0.2-0.1,0.4c-0.1,0.3-0.2,0.6-0.4,0.8c-0.3,0.5-0.8,0.7-1.4,0.7c-0.2,0-0.4,0-0.6-0.1
	c-0.2-0.1-0.4-0.1-0.5-0.2c-0.1-0.1-0.3-0.1-0.5-0.2l-0.4-0.2c-0.1-0.1-0.1-0.1-0.3-0.1c-0.1-0.1-0.1-0.1-0.3-0.1
	c-0.2-0.1-0.2-0.1-0.4-0.2c-0.2-0.1-0.2-0.1-0.4-0.2c-0.1-0.1-0.3-0.1-0.4-0.2c-0.2-0.1-0.3-0.1-0.5-0.2c-0.2-0.1-0.4-0.2-0.6-0.2
	c-0.2-0.1-0.4-0.1-0.5-0.2c-0.2-0.1-0.4-0.1-0.6-0.2c-0.2-0.1-0.4-0.1-0.6-0.2c-0.2-0.1-0.4-0.1-0.6-0.2c-0.2-0.1-0.3-0.1-0.5-0.1
	c-0.2,0-0.4-0.1-0.5-0.1c-0.1,0-0.3,0-0.4-0.1c-0.2,0-0.3,0-0.4,0h-0.5c-0.1,0-0.3,0-0.4,0c-0.2,0-0.2,0-0.4,0c-0.1,0-0.2,0-0.4,0
	c-0.2,0-0.4,0.1-0.6,0.1h-0.3c-0.2,0-0.3,0-0.4,0c-0.5,0-0.9-0.2-1.2-0.6c-0.3-0.4-0.5-0.8-0.5-1.3c0-0.2,0-0.3,0-0.5
	c0-0.2,0.1-0.4,0.1-0.7c0-0.2,0.1-0.4,0.1-0.6c0-0.1,0.1-0.3,0.1-0.4c0.1-0.2,0.1-0.2,0.1-0.4c0.1-0.2,0.1-0.2,0.1-0.5
	c0.1-0.3,0.1-0.3,0.1-0.5c0.1-0.3,0.1-0.3,0.2-0.5c0-0.2,0.1-0.4,0.2-0.7c0.1-0.4,0.1-0.4,0.2-0.7c0.1-0.2,0.1-0.4,0.2-0.6
	c0.1-0.2,0.1-0.5,0.2-0.8c0.1-0.3,0.1-0.6,0.2-0.9c0.1-0.4,0.1-0.4,0.2-0.8c0.1-0.2,0.1-0.5,0.2-0.7c0.1-0.4,0.1-0.4,0.2-0.6
	c0.1-0.2,0.1-0.4,0.2-0.6c0.1-0.2,0.1-0.4,0.2-0.6c0.1-0.2,0.1-0.4,0.2-0.5c0.1-0.2,0.1-0.4,0.2-0.5c0.1-0.3,0.3-0.5,0.5-0.7
	c0.1-0.1,0.2-0.2,0.3-0.3C168.2,193.1,168.2,192.8,168.2,192.6L168.2,192.6z"/>
<path d="M173.9,157.9L173.9,157.9L173.9,157.9L173.9,157.9z M191.4,149.2C191.4,149.2,191.4,149.2,191.4,149.2L191.4,149.2
	L191.4,149.2z M179.4,145.2c-0.1,0.1-0.1,0.2-0.2,0.4c-0.1,0.1-0.2,0.3-0.3,0.5c-0.1,0.2-0.2,0.4-0.3,0.6c-0.1,0.2-0.2,0.4-0.3,0.6
	c-0.1,0.2-0.2,0.5-0.4,0.7c-0.1,0.3-0.3,0.5-0.4,0.8c-0.2,0.4-0.2,0.4-0.4,0.7c-0.1,0.3-0.2,0.5-0.4,0.8c-0.2,0.4-0.2,0.4-0.4,0.8
	c-0.2,0.4-0.2,0.4-0.4,0.8c-0.1,0.3-0.2,0.5-0.3,0.7c-0.2,0.4-0.2,0.4-0.3,0.8c-0.1,0.2-0.2,0.4-0.3,0.6c-0.1,0.3-0.1,0.3-0.3,0.7
	c-0.1,0.4-0.1,0.4-0.2,0.6c-0.1,0.2-0.1,0.3-0.2,0.5c-0.1,0.1-0.1,0.3-0.2,0.4c0,0,0,0.1,0,0.1c0.2,0,0.3-0.1,0.5-0.1
	c0.2,0,0.3-0.1,0.5-0.1c0.2,0,0.3,0,0.6-0.1c0.3,0,0.3,0,0.5,0c0.2,0,0.4,0,0.6,0h0.6c0.2,0,0.4,0,0.7,0c0.3,0,0.5,0,0.8,0.1
	c0.2,0,0.5,0.1,0.8,0.2c0.2,0.1,0.5,0.1,0.7,0.2c0.2,0.1,0.4,0.1,0.6,0.2c0.2,0.1,0.5,0.2,0.7,0.3c0.2,0.1,0.4,0.2,0.6,0.3
	c0.2,0.1,0.4,0.2,0.6,0.3c0.3,0.1,0.3,0.1,0.6,0.3c0.2,0.1,0.4,0.2,0.6,0.3c0.2,0.1,0.2,0.1,0.4,0.2c0.2,0.1,0.3,0.2,0.5,0.3
	c0.1,0.1,0.3,0.1,0.4,0.2c0.2,0.1,0.2,0.1,0.4,0.2c0.1,0.1,0.2,0.1,0.3,0.2c0.2,0.1,0.2,0.1,0.3,0.2c0,0,0,0,0.1,0
	c0-0.1,0-0.1,0.1-0.3c0.1-0.2,0.1-0.2,0.1-0.4c0.1-0.2,0.1-0.3,0.2-0.5c0.1-0.2,0.1-0.2,0.2-0.5c0.1-0.2,0.1-0.4,0.2-0.6
	c0.1-0.2,0.1-0.3,0.2-0.5c0.1-0.2,0.1-0.4,0.2-0.6c0.1-0.3,0.1-0.3,0.2-0.7c0.1-0.4,0.1-0.4,0.3-0.7c0.1-0.3,0.1-0.3,0.2-0.7
	c0.1-0.2,0.2-0.5,0.3-0.7c0.1-0.2,0.2-0.5,0.3-0.7c0.1-0.3,0.2-0.5,0.3-0.8c0.1-0.2,0.2-0.5,0.3-0.7c0.1-0.2,0.2-0.4,0.2-0.6
	c0.1-0.2,0.1-0.3,0.2-0.4c0.1-0.2,0.1-0.2,0.2-0.5c0-0.1,0.1-0.2,0.1-0.3c-0.1,0-0.1-0.1-0.2-0.1c-0.2-0.1-0.4-0.1-0.5-0.2
	c-0.2-0.1-0.2-0.1-0.3-0.2c-0.1,0-0.2-0.1-0.4-0.2c-0.2-0.1-0.2-0.1-0.3-0.2c-0.2-0.1-0.2-0.1-0.3-0.2c-0.2-0.1-0.2-0.1-0.4-0.2
	c-0.2-0.1-0.2-0.1-0.4-0.2c-0.2-0.1-0.2-0.1-0.4-0.2c-0.2-0.1-0.2-0.1-0.5-0.2c-0.2-0.1-0.3-0.1-0.4-0.2c-0.2-0.1-0.3-0.1-0.5-0.2
	c-0.2-0.1-0.2-0.1-0.5-0.2c-0.2-0.1-0.4-0.2-0.6-0.3c-0.1-0.1-0.3-0.1-0.4-0.2c-0.1-0.1-0.3-0.1-0.4-0.2c-0.2-0.1-0.4-0.1-0.5-0.2
	c-0.1,0-0.3-0.1-0.4-0.1c-0.2,0-0.4-0.1-0.5-0.1c-0.2,0-0.3-0.1-0.5-0.1c-0.1,0-0.3-0.1-0.4-0.1c-0.2,0-0.2,0-0.5-0.1
	c-0.2,0-0.3,0-0.4,0c-0.2,0-0.3,0-0.5,0c-0.1,0-0.2,0-0.3,0C179.5,145.2,179.5,145.2,179.4,145.2
	C179.4,145.2,179.4,145.2,179.4,145.2L179.4,145.2z M176.8,143.4c0.1-0.8,0.8-1.3,1.6-1.2l0.1,0c0.5-0.4,1.3-0.3,1.8,0.2
	c0.1,0.1,0.2,0.1,0.3,0.1c0.1,0,0.3,0,0.5,0c0.3,0,0.3,0,0.5,0.1c0.2,0,0.4,0.1,0.6,0.1c0.2,0,0.4,0.1,0.6,0.1
	c0.2,0,0.4,0.1,0.6,0.1c0.2,0.1,0.4,0.1,0.6,0.2c0.2,0.1,0.3,0.1,0.5,0.2c0.2,0.1,0.4,0.1,0.6,0.2c0.2,0.1,0.4,0.2,0.6,0.3
	c0.2,0.1,0.3,0.2,0.5,0.2c0.2,0.1,0.2,0.1,0.5,0.2c0.1,0.1,0.3,0.1,0.4,0.2c0.2,0.1,0.4,0.2,0.5,0.2c0.2,0.1,0.2,0.1,0.4,0.2
	c0.2,0.1,0.2,0.1,0.4,0.2c0.2,0.1,0.2,0.1,0.4,0.2c0.2,0.1,0.2,0.1,0.4,0.2c0.2,0.1,0.2,0.1,0.4,0.2c0.1,0.1,0.1,0.1,0.3,0.2
	c0.1,0,0.2,0.1,0.3,0.1c0.2,0.1,0.2,0.1,0.4,0.2c0.1,0.1,0.2,0.1,0.3,0.1c0.1,0,0.2,0.1,0.4,0.1c0.1,0,0.2,0,0.2,0
	c0.5,0,0.9,0.2,1.3,0.6c0.4,0.4,0.5,0.9,0.4,1.5c0,0.2,0,0.2-0.1,0.4c0,0.1-0.1,0.3-0.1,0.5c-0.1,0.2-0.1,0.2-0.1,0.4
	c0,0.2-0.1,0.3-0.1,0.5c-0.1,0.2-0.1,0.2-0.2,0.4c-0.1,0.2-0.1,0.3-0.2,0.5c-0.1,0.2-0.1,0.4-0.2,0.6c-0.1,0.2-0.2,0.4-0.2,0.7
	c-0.1,0.2-0.2,0.5-0.3,0.7c-0.1,0.3-0.2,0.5-0.3,0.8c-0.1,0.3-0.2,0.5-0.3,0.7c-0.1,0.3-0.1,0.3-0.2,0.7c-0.1,0.3-0.1,0.3-0.3,0.7
	c-0.1,0.4-0.1,0.4-0.2,0.7c-0.1,0.2-0.1,0.4-0.2,0.6c-0.1,0.2-0.1,0.4-0.2,0.6c-0.1,0.2-0.1,0.3-0.2,0.5c-0.1,0.3-0.1,0.3-0.2,0.5
	c0,0.1-0.1,0.2-0.1,0.4c-0.1,0.2-0.1,0.2-0.1,0.4c-0.1,0.2-0.1,0.2-0.1,0.3c0,0.2,0,0.2-0.1,0.3c0,0.1-0.1,0.3-0.2,0.4
	c-0.1,0.2-0.2,0.5-0.3,0.7c-0.3,0.5-0.9,0.8-1.5,0.7c-0.2,0-0.4,0-0.5-0.1c-0.2,0-0.4-0.1-0.6-0.2c-0.2-0.1-0.3-0.1-0.4-0.2
	c-0.2-0.1-0.2-0.1-0.3-0.1c-0.1-0.1-0.1-0.1-0.3-0.1c-0.1-0.1-0.3-0.1-0.4-0.2c-0.2-0.1-0.2-0.1-0.4-0.2c-0.1-0.1-0.3-0.2-0.4-0.2
	c-0.1-0.1-0.2-0.1-0.4-0.2c-0.2-0.1-0.2-0.1-0.5-0.2c-0.1-0.1-0.3-0.1-0.5-0.2c-0.3-0.1-0.3-0.1-0.6-0.3c-0.2-0.1-0.4-0.2-0.5-0.2
	c-0.2-0.1-0.4-0.2-0.6-0.2c-0.2-0.1-0.4-0.1-0.6-0.2c-0.2-0.1-0.4-0.1-0.5-0.2c-0.2,0-0.4-0.1-0.6-0.2c-0.2,0-0.4-0.1-0.5-0.1
	c-0.2,0-0.3,0-0.5,0c-0.2,0-0.4,0-0.5,0H177c-0.2,0-0.3,0-0.4,0c-0.2,0-0.2,0-0.5,0c-0.2,0-0.3,0-0.4,0c-0.1,0-0.2,0-0.4,0.1
	c-0.1,0-0.2,0-0.3,0.1c-0.2,0-0.2,0-0.3,0.1c-0.1,0-0.1,0-0.2,0.1c-0.1,0-0.1,0-0.2,0.1c-0.1,0.1-0.3,0.1-0.4,0.2
	c-0.2,0.1-0.5,0.1-0.7,0.2c-0.3,0-0.6,0-0.8-0.1c-0.7-0.2-1.2-0.8-1.2-1.6c0-0.1,0-0.3,0-0.5c0-0.2,0.1-0.4,0.1-0.6
	c0-0.2,0.1-0.3,0.1-0.5c0.1-0.2,0.1-0.2,0.1-0.3c0.1-0.2,0.1-0.2,0.1-0.4c0.1-0.2,0.1-0.2,0.2-0.4c0.1-0.2,0.1-0.3,0.2-0.5
	c0.1-0.2,0.1-0.3,0.2-0.5c0.1-0.3,0.1-0.3,0.2-0.6c0.1-0.4,0.1-0.4,0.3-0.6c0.1-0.2,0.2-0.4,0.3-0.7c0.2-0.4,0.2-0.4,0.3-0.7
	c0.1-0.3,0.2-0.5,0.4-0.8c0.2-0.4,0.2-0.4,0.4-0.8c0.2-0.4,0.2-0.4,0.4-0.8c0.1-0.3,0.3-0.5,0.4-0.8c0.2-0.4,0.2-0.4,0.4-0.8
	c0.1-0.2,0.2-0.5,0.4-0.8c0.1-0.3,0.3-0.5,0.4-0.8c0.1-0.2,0.2-0.5,0.4-0.7c0.1-0.2,0.2-0.4,0.3-0.6c0.1-0.2,0.2-0.4,0.3-0.6
	c0,0,0-0.1,0.1-0.1C176.8,143.8,176.8,143.6,176.8,143.4L176.8,143.4z"/>
<path d="M178.6,232.9c0.7-0.5,1.6-0.8,2.5-0.9c1.4,0,2.8,0.7,3.6,1.8c0,0,0,0.1,0,0.1l3.4,21.1c-1.4-1.2-3.2-1.9-5.1-1.7
	c-1.9,0.2-3.6,1.1-4.7,2.5c0-5.7-0.5-15.1-1.8-20.7C177,234.3,177.7,233.5,178.6,232.9L178.6,232.9z M182.1,254.8
	c0.5-0.1,1-0.2,1.5-0.2c2.5,0,4.6,1.6,5.1,3.8c-0.4,2.1-2.9,3.5-5.1,3.7L182.1,254.8z M196.4,234.1c-2.1,1.3-4.1,2.6-4.2,2.7
	c-0.2,0.2-0.3,0.4-0.2,0.7c0,0.2,0.2,0.4,0.5,0.5c0.3,0,6.3,1.1,8.8,1.1h0.3c0.2,0,0.3,0,0.5-0.1h0.2l24.8-5h13.8l7.5,25.8
	l-31.1,5.5h-30.6c-4.8,0-7.7-2.8-8.3-5.6c0-0.3,0-0.6,0-0.9c0,0,0,0,0-0.1c0.4-1.5,1.3-2.7,2.7-3.4l1.5,7.5c0.1,0.3,0.3,0.5,0.6,0.5
	c2.9,0,6.3-1.8,6.8-4.7c0-0.1,0-0.3,0-0.4l-3.8-23.9L196.4,234.1z M200.5,233.2c0.5-0.2,1.1-0.1,1.6,0.2c0.6,0.4,1,1,1.2,1.7
	c0.1,0.7,0,1.4-0.5,2c-0.3,0.5-0.8,0.8-1.4,0.8c-1.6,0.1-5.3-0.5-7.4-0.9C195.8,235.8,199.1,233.8,200.5,233.2L200.5,233.2z
	 M232.3,226.9c1.2-0.2,2.4,0.5,2.6,1.7l0.1,0.3c0.1,0.6,0,1.2-0.3,1.7c-0.3,0.5-0.8,0.8-1.4,1l-29.3,5.9c0.3-0.6,0.5-1.2,0.5-1.9
	l21.5-4.3c0.3-0.1,0.5-0.4,0.5-0.7s-0.4-0.5-0.7-0.5l-21.4,4.3c-0.2-0.6-0.6-1.2-1.1-1.6L232.3,226.9z M250.1,267l-58,10.3l-1.4-6.1
	l3.4-0.6l0.7,3.3c0.1,0.3,0.3,0.5,0.6,0.5h0.1c0.3-0.1,0.5-0.4,0.5-0.7l-0.7-3.2l3.5-0.6l0.7,3.3c0.1,0.3,0.3,0.5,0.6,0.5h0.1
	c0.3-0.1,0.5-0.4,0.5-0.7l-0.7-3.2l3.5-0.6l0.7,3.3c0.1,0.3,0.3,0.5,0.6,0.5h0.1c0.3-0.1,0.5-0.4,0.5-0.7l-0.8-3.3l3.5-0.6l0.7,3.3
	c0.1,0.3,0.3,0.5,0.6,0.5h0.1c0.2,0,0.3-0.1,0.4-0.3c0.1-0.2,0.1-0.3,0-0.5l-0.7-3.2l3.5-0.6l0.7,3.3c0.1,0.3,0.3,0.5,0.6,0.5h0.1
	c0.3-0.1,0.5-0.4,0.5-0.7l-0.7-3.2l3.5-0.6l0.7,3.3c0.1,0.3,0.3,0.5,0.6,0.5h0.1c0.3-0.1,0.5-0.4,0.5-0.7l-0.7-3.2l3.5-0.6l0.7,3.3
	c0.1,0.3,0.3,0.5,0.6,0.5h0.1c0.3-0.1,0.5-0.4,0.5-0.7l-0.7-3.2l3.5-0.6l0.7,3.3c0.1,0.3,0.3,0.5,0.6,0.5h0.1
	c0.3-0.1,0.5-0.4,0.5-0.7l-0.8-3.4l3.5-0.6l0.7,3.3c0.1,0.3,0.3,0.5,0.6,0.5h0.1c0.3-0.1,0.5-0.4,0.5-0.7l-0.7-3.3l3.5-0.6l0.7,3.3
	c0.1,0.3,0.3,0.5,0.6,0.5h0.1c0.3-0.1,0.5-0.4,0.5-0.7l-0.7-3.2l3.5-0.6l0.7,3.2c0.1,0.3,0.3,0.5,0.6,0.5h0.1
	c0.3-0.1,0.5-0.4,0.5-0.7l-0.7-3.2l3.9-0.7l0.7,3.2c0.1,0.3,0.3,0.5,0.6,0.5h0.1c0.3-0.1,0.5-0.4,0.5-0.7l-0.7-3.1l1.9-0.3
	L250.1,267z M177.1,257.9c0,0,0,0.1,0,0.1c-0.1,0.6-0.1,1.3,0,1.9c0.8,3.3,4.1,6.5,9.5,6.5h23.9l-20.6,3.7c-0.2,0-0.3,0.1-0.4,0.3
	c-0.1,0.1-0.1,0.3-0.1,0.5l1.6,7.2c0.1,0.3,0.3,0.5,0.6,0.5h0.1l59.2-10.5c0.2,0,0.3-0.1,0.4-0.3c0.1-0.1,0.1-0.3,0.1-0.5l-1.6-7.3
	c0-0.1-0.1-0.2-0.2-0.3v-0.1l-7.7-26.5c-0.1-0.3-0.3-0.4-0.6-0.4h-8.3l0.6-0.1c0.9-0.2,1.7-0.7,2.2-1.4c0.5-0.8,0.7-1.7,0.5-2.6
	l-0.1-0.3c-0.4-1.8-2.2-3-4-2.7l-30.8,6.2c-0.4,0-0.8,0-1.1,0.2c-0.5,0.2-1.1,0.5-1.6,0.8l-12.9,0.2c-1.1-1.4-2.8-2.2-4.5-2.1
	c-1.2,0-2.3,0.4-3.2,1.1c-1.4,1-2.6,2.7-2.6,3.2c0,0,0,0.1,0,0.1C176.8,241.5,177.2,252.7,177.1,257.9L177.1,257.9z"/>
<path d="M202.8,248h1.7c0.8,0,1.7-0.8,2.6-1.6c0.3-0.3,0.4-0.7,0.4-1.1c-0.1-0.5-0.4-0.9-0.9-1.1l-1.3-0.7l-0.1,0l0.1,0l0.6-0.3
	c0.5-0.2,1-0.2,1.5,0l1.3,0.7c0.8,0.4,1.7,0.5,2.6,0.3l1.7-0.4c1-0.2,1.7-1,1.7-2v-0.2c0-0.3,0.3-0.6,0.6-0.6h1.4
	c0.2,0,0.3,0.1,0.4,0.2c0.1,0.1,0.2,0.3,0.2,0.4v0.2c0,1,0.7,1.8,1.6,2l1.7,0.4c0.9,0.2,1.8,0.1,2.6-0.3l1.3-0.7
	c0.5-0.2,1-0.2,1.5,0l0.6,0.3l0.1,0l-0.1,0l-1.3,0.7c-0.3,0.1-0.4,0.4-0.5,0.6c-0.2,0.8,0.3,1.8,0.5,2.1c0.5,0.7,1.3,1,2.1,1h2.2
	c0.4,0,0.6,0.2,0.6,0.4c0,0.2-0.2,0.4-0.6,0.4h-2.2c-0.8,0-1.7,0.8-2.6,1.6c-0.3,0.3-0.4,0.7-0.4,1.1c0.1,0.5,0.4,0.9,0.9,1.1
	l1.3,0.7l0.1,0l-0.1,0l-0.6,0.3c-0.5,0.2-1,0.2-1.5,0l-1.3-0.7c-0.8-0.4-1.7-0.5-2.6-0.3l-1.7,0.4c-1,0.2-1.7,1-1.7,2v0.2
	c0,0.2-0.1,0.3-0.2,0.4c-0.1,0.1-0.3,0.2-0.4,0.2h-1.4c-0.3,0-0.6-0.3-0.6-0.6V255c0-1-0.7-1.8-1.6-2l-1.7-0.4
	c-0.3-0.1-0.6-0.1-0.9-0.1c-0.6,0-1.2,0.1-1.7,0.4l-1.3,0.7c-0.5,0.2-1,0.2-1.5,0l-0.6-0.3l-0.1-0.1l0.1,0l1.3-0.7
	c0.3-0.1,0.4-0.4,0.5-0.6c0.2-0.8-0.3-1.8-0.5-2.1c-0.5-0.7-1.3-1.1-2.1-1.1h-1.7c-0.4,0-0.6-0.2-0.6-0.4
	C202.2,248.2,202.4,247.9,202.8,248L202.8,248z M202.8,250h1.7c0.4,0,0.8,0.2,1.1,0.5c0.2,0.4,0.4,0.8,0.4,1.2l-1.2,0.6
	c-0.4,0.2-0.7,0.6-0.7,1.1c0,0.5,0.3,0.9,0.7,1.1l0.6,0.3c0.8,0.4,1.8,0.4,2.7,0l1.3-0.7c0.6-0.2,1.2-0.3,1.8-0.2l1.8,0.4
	c0.4,0.1,0.7,0.4,0.7,0.8v0.2c0,1,0.8,1.8,1.8,1.8h1.4c1,0,1.8-0.8,1.8-1.8V255c0-0.4,0.3-0.7,0.7-0.8l1.8-0.4
	c0.6-0.1,1.2-0.1,1.7,0.2l1.3,0.7c0.8,0.4,1.8,0.4,2.7,0l0.6-0.3c0.4-0.2,0.7-0.6,0.7-1.1c0-0.5-0.3-0.9-0.7-1.1l-1.3-0.7
	c-0.2-0.1-0.2-0.2-0.2-0.2s0,0,0-0.1c1.3-1.2,1.7-1.3,1.7-1.3h2.2c0.5,0.1,0.9-0.1,1.3-0.4c0.3-0.3,0.5-0.7,0.5-1.2
	c0-0.5-0.2-0.9-0.5-1.2c-0.3-0.3-0.8-0.4-1.3-0.4h-2.2c-0.4,0-0.8-0.2-1.1-0.5c-0.2-0.4-0.4-0.8-0.4-1.2l1.2-0.6
	c0.4-0.2,0.7-0.6,0.7-1.1c0-0.5-0.3-0.9-0.7-1.1l-0.6-0.3c-0.8-0.4-1.8-0.4-2.7,0l-1.2,0.7c-0.6,0.2-1.2,0.3-1.8,0.2l-1.8-0.4
	c-0.4-0.1-0.7-0.4-0.7-0.8v-0.2c0-1-0.8-1.8-1.8-1.8h-1.4c-1,0-1.8,0.8-1.8,1.8v0.2c0,0.4-0.3,0.7-0.7,0.8l-1.8,0.4
	c-0.6,0.1-1.2,0.1-1.7-0.2L208,242c-0.8-0.4-1.8-0.4-2.7,0l-0.6,0.3c-0.4,0.2-0.7,0.6-0.7,1.1c0,0.5,0.3,0.9,0.7,1.1l1.3,0.7
	c0.2,0.1,0.2,0.2,0.2,0.2c0,0,0,0,0,0.1c-1.3,1.2-1.7,1.3-1.7,1.3h-1.7c-0.5-0.1-0.9,0.1-1.3,0.4c-0.3,0.3-0.5,0.7-0.5,1.2
	c0,0.5,0.2,0.9,0.5,1.2C201.9,249.9,202.3,250,202.8,250L202.8,250z"/>
<path d="M216.2,246.6c2.1,0,3.6,0.9,3.6,1.7s-1.5,1.7-3.6,1.7c-2.1,0-3.6-0.9-3.6-1.7S214.1,246.6,216.2,246.6z M216.2,251.3
	c2.7,0,4.8-1.3,4.8-2.9s-2.1-2.9-4.8-2.9c-2.7,0-4.8,1.3-4.8,2.9S213.5,251.3,216.2,251.3z"/>
<path fill-rule="evenodd" clip-rule="evenodd" d="M285.7,133c0.1,0.7,0.3,0.8,1.2,0.8c0.8,0,1.7-0.5,1.7-1.2c0-0.7-1.2-0.8-1.8-0.7
	C286.2,132,285.6,132.4,285.7,133L285.7,133z M284.5,141.4c-1.7,0-3.3,1.3-4,2.8c0,0-0.2,0.4-0.2,0.4c0.1,0.1,0.5,0,0.5,0
	c2.6-0.3,5.1-0.7,7.7-1.1c0.1,0,0.2-0.1,0.2-0.1c0-0.1-0.1-0.2-0.1-0.3C287.6,141.9,286.2,141.3,284.5,141.4L284.5,141.4z
	 M280.8,145.2c-1.3,0.5-1-0.2-0.7-0.9c0.6-2,2.1-2.9,3.9-3.4c0.2-0.1,0.5-0.3,0.6-0.5c0.6-1.5,2-4.9,2.1-5.3c0-0.2-0.1-0.6-0.3-0.7
	c-0.9-0.4-1.1-1-0.9-2c0.3-1.5,3.1-0.7,3.3-0.2c0.3,0.9-0.2,1.5-0.9,2.1c-0.5,0.4-0.8,1-1,1.6c-0.6,1.4-1.1,2.8-1.6,4.2
	c0,0.1,0.2,0.4,0.4,0.5c1.1,0.7,1.9,0.8,2.7,1.5c0.8,0.7,1.7,1.6,1.8,1.8C290,143.9,281,145.1,280.8,145.2L280.8,145.2z"/>
<path fill-rule="evenodd" clip-rule="evenodd" d="M367.2,126.6L367.2,126.6L367.2,126.6z"/>
<polygon fill-rule="evenodd" clip-rule="evenodd" points="259.1,118 259.1,118 259.1,118 "/>
<polygon fill-rule="evenodd" clip-rule="evenodd" points="259.1,118 259.1,118 259.1,118 "/>
<path fill-rule="evenodd" clip-rule="evenodd" d="M302.8,155c0,0.2-2.1,0.3-2.3,0.3c-3.4,0.2-79.6,6.1-83.1,6.3
	c-0.3-3.6-2.1-19.8-3.7-33.9c2.4-0.1,82.3-5.9,88.1-6.3C302.4,135.8,302.9,153.2,302.8,155L302.8,155z M224.6,105.9
	c0.2,0.2,9,8.2,9,9c0.1,0.6-2.7,7.7-3.6,9.5c-0.2,0.4-1.4,1.6-1.8,1.7c-2.3,0.3-13.3,1-14.6,1.1c-1.1-10.1-2.1-18.9-2.3-20.9
	C212.5,106.1,224.5,105.8,224.6,105.9L224.6,105.9z M244.3,104.6c0.5,0,1.1,0.2,1.6,0.5c0.4,0.3,5.3,6,7.3,8.4
	c0.1,0.1-3.7,8.2-4.6,9.6c-0.1,0.2-1.4,1.6-1.6,1.6c-2.9,0.2-17.2,1.2-17.1,1.1c0.5-1,1.4-3,1.9-4c0.8-1.6,3.2-7.1,2.9-7.5
	c-1.3-1.8-7.7-6.8-8.9-8.1c-0.1-0.1-0.6-0.5-0.6-0.6C225.3,105.5,242.4,104.6,244.3,104.6L244.3,104.6z M246.6,104.5
	c3.5-0.1,18.4-1,18.8-0.8c0.7,0.3,1.1,0.6,1.6,1.1c2,2.1,6.2,7,6.3,7c0,0-3.7,9.9-4.2,11.1c-0.1,0.2-21.1,2.1-20.8,1.6
	c1.1-1.8,5.3-9.8,5.4-10c0.3-0.3,0.3-1.2,0-1.5c-0.4-0.3-5.2-5.7-7.3-8c-0.1-0.1-0.1-0.2-0.2-0.4
	C246.4,104.6,246.5,104.5,246.6,104.5L246.6,104.5z M285.5,102.9c0.5,0.1,1.1,0.9,1.4,1.5c1.1,1.8,2.5,4.2,3.6,6
	c0.6,1-3.3,9.4-4.2,11.4c-0.1,0.3-16.5,1.3-16.5,1.1c0.7-1.9,2-5.9,2.7-7.8c0.3-0.7,1-2.7,1.2-3.4c0,0-6.9-8.1-7.1-8.4
	C267.1,103.4,284.2,102.7,285.5,102.9L285.5,102.9z M286.5,102.9c0-0.1,0.2-0.2,0.3-0.2c0.6,0,12.5-0.4,14.6-0.4
	c0,3,0.5,10.7,0.4,18.6c-2.4,0.1-14.3,0.6-14.3,0.5c0.9-2.1,4.1-10.2,4-10.6c-1-2.7-3-5.4-4.8-7.7
	C286.6,103.1,286.5,102.9,286.5,102.9L286.5,102.9z M302,101.5c0,0-89.3,3.6-91.3,3.9c-0.1,0,6.1,56.6,6.2,57
	c0,0.1,81.2-6.5,83.8-6.6c0.3,0,2.6-0.1,2.7-0.2C303.5,152.8,302,101.5,302,101.5L302,101.5z"/>
<path fill-rule="evenodd" clip-rule="evenodd" d="M231.6,129.9c0-0.1,0.3-0.1,0.3,0c0.1,0.6,3,26.6,3,27.9c0,0.1-0.3,0.1-0.3,0
	C234.6,157.5,231.7,131.1,231.6,129.9L231.6,129.9z"/>
<path fill-rule="evenodd" clip-rule="evenodd" d="M249.2,128.7c0-0.1,0.3-0.1,0.3,0c0.1,0.6,3,26.6,3,27.9c0,0.1-0.3,0.1-0.3,0
	C252.2,156.4,249.3,130,249.2,128.7L249.2,128.7z"/>
<path fill-rule="evenodd" clip-rule="evenodd" d="M268.8,126.7c0-0.1,0.3-0.1,0.3,0c0.1,0.6,3,26.6,3,27.9c0,0.1-0.3,0.1-0.3,0
	C271.8,154.4,268.9,128,268.8,126.7L268.8,126.7z"/>
<path fill-rule="evenodd" clip-rule="evenodd" d="M275.7,125.4c0-0.1,0.3-0.1,0.3,0c0.1,0.6,3,26.6,3,27.9c0,0.1-0.3,0.1-0.3,0
	C278.7,153.1,275.9,126.7,275.7,125.4L275.7,125.4z"/>
<path fill-rule="evenodd" clip-rule="evenodd" d="M272,137.5c0,0.1-0.4,0.2-0.6,0.3c0-0.2-0.1-0.3-0.1-0.5c0-0.2-0.1-0.6-0.1-0.6
	c-0.7,0-1.2,0-1.4,1l-1.6,8.3c-0.4,1.5-2.6,0.2-2.5,0c0.3-1.1,2.1-7.2,2.4-9.2c0-0.2,0.3-0.4-0.3-0.6c-0.6-0.2-3,1.7-2.9,0.9
	c0.2-2.1,4.1-2.1,5.6-1.6c0,0-0.1,0.4,0.1,0.4c0.3,0.1,0.7,0,0.7,0c0,0,0-1,0.1-1.1c0.3,0.3,1.2,0.1,1.2,0.4
	C272.6,135.8,272.2,136.9,272,137.5L272,137.5z M271.5,134.3c-0.1,0-0.5,0-0.5,0.1c-0.1,0.3,0,0.9-0.1,1.2l-0.2,0
	c-0.1-0.1,0-0.5-0.1-0.5c-1.1-0.1-2.5-0.3-3.6-0.1c-1.2,0.1-3.7,1.8-2.6,2.9c1,0.9,1.9-0.7,2.5-1.1c0.1-0.1,0.8-0.1,0.7,0
	c-0.1,0.7-0.4,1.5-0.5,2.1c-0.6,2.3-1.3,4.6-1.9,6.9c-0.1,0.2,0,0.6,0.2,0.7c0.7,0.3,1.4,0.6,2.1,0.8c0.2,0,0.6-0.2,0.6-0.4
	c0.5-2,1-3.9,1.4-5.9c0.3-1.1,0.5-3.8,1-3.8c0.1,0,0.4,0,0.4,0c-0.3,0.8,0.3,1.2,0.3,1.1c0.2,0,1.2,0,1.2-0.1
	c0.3-0.9,0.2-1.8,0.4-2.4C273.1,134.5,272.2,134.5,271.5,134.3L271.5,134.3z"/>
<path d="M258.3,147.4l-0.3-6.8l0.8-0.1c0,0,2.1,4.8,2.3,4.9s2.5-5.4,2.5-5.4l1.2-0.1l0.4,7L258.3,147.4z M262.9,140.1
	c0,0-1.7,4.4-1.9,4.3c-0.2,0-1.7-3.9-1.7-3.9L262.9,140.1z M265.1,139.4l-1.3,0.1c0,0,1.6-2.9,1.5-3.5c-0.1-0.5-0.3-0.5-0.5-0.2
	c-0.2,0.3-1.6,3.8-1.6,3.8l-4,0.4c0,0-0.5-1.3-0.7-1.6c-0.2-0.3-0.5-0.1-0.5,0.2c0,0.4,0.6,1.5,0.6,1.5l-1.1,0.1l0.4,7.8l7.8-0.7
	L265.1,139.4z"/>
<path d="M217.3,140.4c0,0,4.4,11.6,3.4,12.4c-1,0.8,9.9-3.3,9.9-3.3s0.1-12.2-2.9-11.9C224.6,137.8,217.3,140.4,217.3,140.4
	L217.3,140.4z M220.4,153c0.9-0.7-3.3-12.7-3.3-12.7l0.1,0c0,0,7.6-2.7,10.6-2.9c3-0.2,3.3,12.2,3.3,12.2l-0.1,0
	C231,149.6,219.5,153.7,220.4,153L220.4,153z"/>
<path fill-rule="evenodd" clip-rule="evenodd" d="M226.1,146.7c-0.2-0.9-0.5-1.8-0.8-2.8c0.8-0.3,1.5-0.5,2.2-0.7
	c0.3,0.9,0.5,1.8,0.8,2.7C227.6,146.1,226.8,146.4,226.1,146.7L226.1,146.7z M221.2,142.3c0.9-0.3,2-0.7,3.1-1l0.6,2.4
	c-1.1,0.4-2.2,0.8-3.1,1.1L221.2,142.3z M229.9,145.2c-0.1,0-0.7,0.3-1.5,0.6c-0.2-0.8-0.4-1.8-0.7-2.7c1.2-0.4,2-0.7,2.1-0.7
	c0,0,0-0.4,0-0.4c-0.1,0-1,0.3-2.1,0.7c-0.2-0.8-0.5-1.7-0.7-2.3c1.1-0.4,1.8-0.6,1.9-0.6c0,0,0-0.4,0-0.4c-0.1,0-0.9,0.3-1.9,0.7
	c-0.3-0.8-0.5-1.3-0.6-1.3c-0.1,0,0,0.6,0.3,1.4c-0.7,0.2-1.4,0.5-2.2,0.8c-0.2-0.7-0.2-1.3-0.4-1.2c-0.2,0,0.3,1.3,0.3,1.3
	c-1.1,0.4-2.1,0.8-3.1,1.1l-0.4-1.5c-0.2,0.1-0.2,0.7-0.1,1.6c-1.2,0.4-2,0.7-2,0.7c0,0,0,0.2,0,0.2c0.1,0,0.9-0.3,2.1-0.6
	c0.1,0.7,0.4,1.6,0.6,2.4c-1,0.3-1.7,0.6-1.7,0.6c0,0,0,0.2,0,0.2c0.1,0,0.8-0.2,1.7-0.5c0.3,1,0.6,2.1,0.9,2.9
	c-0.8,0.3-1.4,0.6-1.4,0.6c0,0,0,0.2,0,0.2c0.1,0,0.7-0.2,1.5-0.5c0.4,1,0.6,1.8,0.7,1.9l-0.5-2c0.9-0.3,2-0.7,3.1-1.2l0.6,2.3
	c0.3-0.1,0.2-1.1-0.1-2.4c0.8-0.3,1.5-0.6,2.1-0.8c0.3,1.2,0.4,2.2,0.1,2.3c0,0,0.3,0.1,0.3,0.1c0.2-0.1,0.1-1.1-0.2-2.5
	c0.8-0.3,1.4-0.5,1.5-0.6C229.9,145.5,229.9,145.2,229.9,145.2L229.9,145.2z"/>
<path d="M239,147.9c-0.1,0-0.6,0.3-0.8,0.2c-0.2-0.1-0.2-0.3-0.2-0.6s0.3-0.7,0.7-1.6l0.2,0.8l1.1-0.2
	C239.7,146.9,239.3,147.4,239,147.9L239,147.9z M243.6,136.2c0-0.1,0.4,0,0.8,0.1l-5.3,9.5l-0.1-0.3
	C240.5,142.4,243.4,136.6,243.6,136.2L243.6,136.2z M239.1,146l5.4-9.6c0.3,0.1,0.6,0.2,0.9,0.3l-6,9.6l-0.3,0.1L239.1,146z
	 M240.2,146.1l-0.6,0.1l5.9-9.5c0.5,0.2,1,0.3,1,0.3S242.8,142.3,240.2,146.1L240.2,146.1z M243.3,135.9c-0.8,1.4-4.4,8.8-5.2,10.1
	c-0.4,0.8-0.9,2.9-0.8,3.6c0.9-0.5,1.8-1,2.3-2c0.6-1.3,7-9.9,7.5-10.9C245.8,136.4,244.7,135.5,243.3,135.9L243.3,135.9z"/>
<path d="M515.4,138.6h-26.6c6.3-1.8,12.9-2.8,19.5-2.8c0.9,0,1.7-0.8,1.7-1.7l0-36.2h5.4L515.4,138.6z M442.5,98h5.4v36.2
	c0,0.9,0.8,1.7,1.7,1.7c6.7,0,13.2,1,19.5,2.8h-26.6V98z M451.2,92c9,0.2,17.7,2.1,26.1,5.5v40.3c-8.4-3.3-17.1-5.1-26.1-5.3
	L451.2,92L451.2,92z M480.6,137.8V97.5c8.4-3.4,17.1-5.3,26.1-5.5v40.6C497.6,132.7,489,134.6,480.6,137.8L480.6,137.8z M516.9,94.7
	h-7v-4.3c0-0.9-0.8-1.7-1.7-1.7c-10.1,0-20,2-29.4,5.8c-9.4-3.9-19.2-5.8-29.4-5.8c-0.9,0-1.7,0.8-1.7,1.7v4.3h-6.9
	c-0.9,0-1.7,0.8-1.7,1.7v43.9c0,0.9,0.8,1.7,1.7,1.7H517c0.9,0,1.7-0.8,1.7-1.7V96.3C518.6,95.5,517.9,94.7,516.9,94.7L516.9,94.7z"
	/>
<path d="M457.3,102.4c4.4,0.5,8.9,1.3,13.1,2.7c0.2,0.1,0.3,0.1,0.5,0.1c0.7,0,1.3-0.5,1.6-1.2c0.3-0.8-0.3-1.8-1.1-2
	c-4.5-1.3-9.1-2.3-13.7-2.8c-0.9-0.1-1.7,0.6-1.8,1.4C455.8,101.5,456.5,102.3,457.3,102.4L457.3,102.4z"/>
<path d="M471.4,109.9c-4.5-1.3-9.1-2.3-13.7-2.8c-0.9-0.1-1.7,0.6-1.8,1.4c-0.1,0.9,0.6,1.7,1.4,1.8c4.4,0.5,8.9,1.3,13.1,2.7
	c0.2,0.1,0.3,0.1,0.5,0.1c0.7,0,1.3-0.4,1.6-1.2C472.8,111,472.2,110.1,471.4,109.9L471.4,109.9z"/>
<path d="M471.4,117.8c-4.5-1.3-9.1-2.3-13.7-2.8c-0.9-0.1-1.7,0.6-1.8,1.4c-0.1,0.9,0.6,1.7,1.4,1.8c4.4,0.5,8.9,1.3,13.1,2.7
	c0.2,0.1,0.3,0.1,0.5,0.1c0.7,0,1.3-0.4,1.6-1.2C472.8,119,472.2,118,471.4,117.8L471.4,117.8z"/>
<path d="M471.4,125.6c-4.5-1.3-9.1-2.3-13.7-2.8c-0.9-0.1-1.7,0.6-1.8,1.4c-0.1,0.9,0.6,1.7,1.4,1.8c4.4,0.5,8.9,1.3,13.1,2.7
	c0.2,0.1,0.3,0.1,0.5,0.1c0.7,0,1.3-0.4,1.6-1.2C472.8,126.8,472.2,125.9,471.4,125.6L471.4,125.6z"/>
<path d="M500.1,99.2c-4.6,0.5-9.2,1.4-13.7,2.8c-0.8,0.3-1.3,1.2-1.1,2c0.3,0.7,0.8,1.2,1.6,1.2c0.2,0,0.3,0,0.5-0.1
	c4.3-1.3,8.8-2.2,13.1-2.7c0.9-0.1,1.6-0.9,1.4-1.8C501.9,99.7,501.1,99.1,500.1,99.2L500.1,99.2z"/>
<path d="M500.1,107.1c-4.6,0.5-9.3,1.4-13.7,2.8c-0.8,0.3-1.3,1.2-1.1,2c0.3,0.7,0.8,1.2,1.6,1.2c0.2,0,0.3,0,0.5-0.1
	c4.3-1.3,8.7-2.2,13.1-2.7c0.9-0.1,1.6-0.9,1.4-1.8C501.9,107.6,501.1,106.9,500.1,107.1L500.1,107.1z"/>
<path d="M500.1,114.9c-4.6,0.5-9.3,1.5-13.7,2.8c-0.8,0.3-1.3,1.2-1.1,2c0.3,0.7,0.8,1.2,1.6,1.2c0.2,0,0.3,0,0.5-0.1
	c4.3-1.3,8.7-2.2,13.1-2.7c0.9-0.1,1.6-0.9,1.4-1.8C501.9,115.5,501.1,114.9,500.1,114.9L500.1,114.9z"/>
<path d="M500.1,122.9c-4.6,0.5-9.3,1.4-13.7,2.8c-0.8,0.3-1.3,1.2-1.1,2c0.3,0.7,0.8,1.2,1.6,1.2c0.2,0,0.3,0,0.5-0.1
	c4.3-1.3,8.7-2.2,13.1-2.7c0.9-0.1,1.6-0.9,1.4-1.8C501.9,123.5,501.1,122.8,500.1,122.9L500.1,122.9z"/>
<text transform="matrix(1 0 0 1 64.3183 278.5387)" font-family="'MyriadPro-Regular'" font-size="18">UX designer</text>
<text transform="matrix(1 0 0 1 423.1142 163.9613)" font-family="'MyriadPro-Regular'" font-size="18">Documentation</text>
<text transform="matrix(1 0 0 1 439.2562 283.3229)"><tspan x="0" y="0" font-family="'MyriadPro-Regular'" font-size="18">TWs and </tspan><tspan x="0" y="21.6" font-family="'MyriadPro-Regular'" font-size="18">UX writing</tspan></text>
<g>
	<path fill="none" d="M36.4,187.8c0,0-19.8-65.9,44.9-124.8"/>
	<text transform="matrix(-0.208 -0.9781 0.9781 -0.208 35.9264 186.2079)" font-family="'MyriadPro-Regular'" font-size="9"></text>
	<text transform="matrix(-0.1629 -0.9866 0.9866 -0.1629 35.2675 183.1729)" font-family="'MyriadPro-Regular'" font-size="9">S</text>
	<text transform="matrix(-0.1162 -0.9932 0.9932 -0.1162 34.5533 178.8761)" font-family="'MyriadPro-Regular'" font-size="9">o</text>
	
		<text transform="matrix(-8.162317e-02 -0.9967 0.9967 -8.162317e-02 34.0052 174.0221)" font-family="'MyriadPro-Regular'" font-size="9">f</text>
	
		<text transform="matrix(-5.700137e-02 -0.9984 0.9984 -5.700137e-02 33.7915 171.4471)" font-family="'MyriadPro-Regular'" font-size="9">t</text>
	
		<text transform="matrix(-1.599973e-02 -0.9999 0.9999 -1.599973e-02 33.5874 168.5354)" font-family="'MyriadPro-Regular'" font-size="9">w</text>
	
		<text transform="matrix(2.966206e-02 -0.9996 0.9996 2.966206e-02 33.5073 161.9697)" font-family="'MyriadPro-Regular'" font-size="9">a</text>
	
		<text transform="matrix(5.946587e-02 -0.9982 0.9982 5.946587e-02 33.6446 157.6754)" font-family="'MyriadPro-Regular'" font-size="9">r</text>
	
		<text transform="matrix(8.952677e-02 -0.996 0.996 8.952677e-02 33.8034 154.7947)" font-family="'MyriadPro-Regular'" font-size="9">e</text>
	<text transform="matrix(0.1152 -0.9933 0.9933 0.1152 34.2192 150.3512)" font-family="'MyriadPro-Regular'" font-size="9"> </text>
	<text transform="matrix(0.1347 -0.9909 0.9909 0.1347 34.4303 148.4843)" font-family="'MyriadPro-Regular'" font-size="9">t</text>
	<text transform="matrix(0.1645 -0.9864 0.9864 0.1645 34.8153 145.5642)" font-family="'MyriadPro-Regular'" font-size="9">e</text>
	<text transform="matrix(0.198 -0.9802 0.9802 0.198 35.5512 141.1734)" font-family="'MyriadPro-Regular'" font-size="9">c</text>
	<text transform="matrix(0.2329 -0.9725 0.9725 0.2329 36.3247 137.2913)" font-family="'MyriadPro-Regular'" font-size="9">h</text>
	<text transform="matrix(0.2711 -0.9625 0.9625 0.2711 37.4742 132.4884)" font-family="'MyriadPro-Regular'" font-size="9">n</text>
	<text transform="matrix(0.2978 -0.9546 0.9546 0.2978 38.8338 127.7335)" font-family="'MyriadPro-Regular'" font-size="9">i</text>
	<text transform="matrix(0.3206 -0.9472 0.9472 0.3206 39.4381 125.755)" font-family="'MyriadPro-Regular'" font-size="9">c</text>
	<text transform="matrix(0.3512 -0.9363 0.9363 0.3512 40.7122 121.9807)" font-family="'MyriadPro-Regular'" font-size="9">a</text>
	<text transform="matrix(0.3744 -0.9273 0.9273 0.3744 42.236 117.9555)" font-family="'MyriadPro-Regular'" font-size="9">l</text>
	<text transform="matrix(0.3885 -0.9214 0.9214 0.3885 43.0156 116.0275)" font-family="'MyriadPro-Regular'" font-size="9"> </text>
	<text transform="matrix(0.4181 -0.9084 0.9084 0.4181 43.7044 114.2944)" font-family="'MyriadPro-Regular'" font-size="9">w</text>
	<text transform="matrix(0.4504 -0.8928 0.8928 0.4504 46.4819 108.3374)" font-family="'MyriadPro-Regular'" font-size="9">r</text>
	<text transform="matrix(0.4669 -0.8843 0.8843 0.4669 47.794 105.7435)" font-family="'MyriadPro-Regular'" font-size="9">i</text>
	<text transform="matrix(0.4833 -0.8754 0.8754 0.4833 48.7654 103.8956)" font-family="'MyriadPro-Regular'" font-size="9">t</text>
	<text transform="matrix(0.4994 -0.8664 0.8664 0.4994 50.1933 101.3171)" font-family="'MyriadPro-Regular'" font-size="9">i</text>
	<text transform="matrix(0.5211 -0.8535 0.8535 0.5211 51.2061 99.5223)" font-family="'MyriadPro-Regular'" font-size="9">n</text>
	<text transform="matrix(0.5507 -0.8347 0.8347 0.5507 53.7727 95.316)" font-family="'MyriadPro-Regular'" font-size="9">g</text>
	<text transform="matrix(0.5706 -0.8212 0.8212 0.5706 56.5546 91.1338)" font-family="'MyriadPro-Regular'" font-size="9"> </text>
	<path fill="none" d="M50.2,187.5c0,0-19.8-65.9,44.9-124.8"/>
	<text transform="matrix(-0.2156 -0.9765 0.9765 -0.2156 49.6601 185.8276)" font-family="'MyriadPro-Regular'" font-size="9">i</text>
	<text transform="matrix(-0.1795 -0.9837 0.9837 -0.1795 49.2053 183.8254)" font-family="'MyriadPro-Regular'" font-size="9">s</text>
	<text transform="matrix(-0.1502 -0.9886 0.9886 -0.1502 48.5894 180.3854)" font-family="'MyriadPro-Regular'" font-size="9"> </text>
	<text transform="matrix(-0.1195 -0.9928 0.9928 -0.1195 48.2909 178.543)" font-family="'MyriadPro-Regular'" font-size="9">a</text>
	
		<text transform="matrix(-9.059428e-02 -0.9959 0.9959 -9.059428e-02 47.7947 174.2781)" font-family="'MyriadPro-Regular'" font-size="9"> </text>
	
		<text transform="matrix(-5.968453e-02 -0.9982 0.9982 -5.968453e-02 47.6021 172.4321)" font-family="'MyriadPro-Regular'" font-size="9">d</text>
	
		<text transform="matrix(-1.982177e-02 -0.9998 0.9998 -1.982177e-02 47.3101 167.4242)" font-family="'MyriadPro-Regular'" font-size="9">y</text>
	<text transform="matrix(6.588262e-03 -1 1 6.588262e-03 47.2411 163.2434)" font-family="'MyriadPro-Regular'" font-size="9">i</text>
	
		<text transform="matrix(3.603936e-02 -0.9993 0.9993 3.603936e-02 47.2323 161.1649)" font-family="'MyriadPro-Regular'" font-size="9">n</text>
	
		<text transform="matrix(7.678253e-02 -0.997 0.997 7.678253e-02 47.4082 156.2447)" font-family="'MyriadPro-Regular'" font-size="9">g</text>
	<text transform="matrix(0.1047 -0.9945 0.9945 0.1047 47.8122 151.2834)" font-family="'MyriadPro-Regular'" font-size="9"> </text>
	<text transform="matrix(0.1285 -0.9917 0.9917 0.1285 47.9965 149.4104)" font-family="'MyriadPro-Regular'" font-size="9">c</text>
	<text transform="matrix(0.1616 -0.9869 0.9869 0.1616 48.5019 145.4757)" font-family="'MyriadPro-Regular'" font-size="9">a</text>
	<text transform="matrix(0.1902 -0.9817 0.9817 0.1902 49.2049 141.2404)" font-family="'MyriadPro-Regular'" font-size="9">r</text>
	<text transform="matrix(0.2193 -0.9757 0.9757 0.2193 49.746 138.3873)" font-family="'MyriadPro-Regular'" font-size="9">e</text>
	<text transform="matrix(0.254 -0.9672 0.9672 0.254 50.721 134.0417)" font-family="'MyriadPro-Regular'" font-size="9">e</text>
	<text transform="matrix(0.2822 -0.9593 0.9593 0.2822 51.8637 129.7351)" font-family="'MyriadPro-Regular'" font-size="9">r</text>
	<text transform="matrix(0.3005 -0.9538 0.9538 0.3005 52.6926 126.934)" font-family="'MyriadPro-Regular'" font-size="9"> </text>
	<text transform="matrix(0.3144 -0.9493 0.9493 0.3144 53.2547 125.1479)" font-family="'MyriadPro-Regular'" font-size="9">.</text>
	<text transform="matrix(0.3282 -0.9446 0.9446 0.3282 53.8373 123.391)" font-family="'MyriadPro-Regular'" font-size="9">.</text>
	<text transform="matrix(0.3418 -0.9398 0.9398 0.3418 54.4372 121.6619)" font-family="'MyriadPro-Regular'" font-size="9">.</text>
	<text transform="matrix(0.36 -0.933 0.933 0.36 55.0549 119.9432)" font-family="'MyriadPro-Regular'" font-size="9"></text>
	<text transform="matrix(0.3782 -0.9257 0.9257 0.3782 56.2001 116.9916)" font-family="'MyriadPro-Regular'" font-size="9"> </text>
	<text transform="matrix(0.3978 -0.9175 0.9175 0.3978 56.9013 115.2522)" font-family="'MyriadPro-Regular'" font-size="9">?</text>
	<text transform="matrix(0.4229 -0.9061 0.9061 0.4229 58.3338 111.9452)" font-family="'MyriadPro-Regular'" font-size="9">?</text>
	<text transform="matrix(0.4475 -0.8943 0.8943 0.4475 59.8611 108.6724)" font-family="'MyriadPro-Regular'" font-size="9">?</text>
</g>
<path d="M468.8,258.5v-25l-8.4,7.5v17.5c0,2.3,1.9,4.2,4.2,4.2C466.9,262.7,468.8,260.8,468.8,258.5L468.8,258.5z"/>
<path d="M477,190.9c1,4.1-1.6,8.2-5.7,9.2c-4.1,1-8.2-1.6-9.2-5.7c-1-4.1,1.6-8.2,5.7-9.2C472,184.2,476.1,186.8,477,190.9"/>
<path d="M506.9,207.8v-5.7c0-2.1-1.7-3.8-3.8-3.8l-11.4,0c-2.1,0-3.8,1.7-3.8,3.8l0,3.4v2.3L506.9,207.8z"/>
<polygon points="493.6,243 501.2,243 501.2,208.9 493.6,208.9 493.6,216.3 "/>
<polygon points="492.2,243 492.2,216.1 492.2,208.9 487.8,208.9 487.8,243 "/>
<polygon points="502.5,243 506.9,243 506.9,208.9 502.5,208.9 "/>
<path d="M495.7,261.1c0.9,1.9,2.5,1.9,3.4,0l7.8-17h-19.1L495.7,261.1z"/>
<path d="M469.6,231.9c0.3-0.3,0.5-0.6,0.5-0.9c0.1-0.5,0-1-0.4-1.5l-0.9-1l-5.7-6.4c-0.6-0.7-1.7-0.8-2.4-0.1l-0.3,0.2l-1.7,1.5
	c0.5,1,1,2.1,1.7,3.2c0.3,0.6,0.7,1.1,1.1,1.7c0.4,0.7,0.6,1.4,0.5,2.1c-0.1,1-0.6,2-1.5,2.6c0,0-0.1,0-0.1,0.1
	c-0.5,0.3-1.1,0.5-1.7,0.5c-1.1,0-2.2-0.6-2.8-1.5c-0.9-1.3-1.7-2.7-2.3-4l-3.4,3.1c-0.7,0.6-0.8,1.7-0.1,2.4l6.6,7.4
	c0.6,0.7,1.7,0.8,2.4,0.1l1.4-1.3l8.4-7.5L469.6,231.9z"/>
<path d="M454,227.9c0.7,1.3,1.5,2.6,2.4,4c0.5,0.8,1.4,1.2,2.3,1.2c0.5,0,1-0.1,1.5-0.5c0.1-0.1,0.2-0.1,0.2-0.2
	c0.7-0.6,1-1.4,1-2.2c0-0.5-0.2-0.9-0.4-1.4c-0.2-0.3-0.3-0.5-0.5-0.8c-0.9-1.4-1.6-2.8-2.2-4c-0.1-0.2-0.2-0.4-0.3-0.6
	c-0.6-1.3-0.9-2.5-1.2-3.6c-0.2-1-0.3-2-0.3-2.8c0-1.8,0.4-3.2,1-4.3c0.8-1.4,1.9-2.5,2.9-3.3v11.8c0,0,0,0,0.1,0
	c0.4-0.3,0.9-0.4,1.4-0.4c0.7,0,1.3,0.3,1.8,0.8l5.2,5.8l1.4,1.6c0.1,0.1,0.1,0.2,0.2,0.2c0.3,0.4,0.4,0.9,0.4,1.5
	c0,0.1,0,0.1,0,0.2c-0.1,0.4-0.2,0.7-0.4,1v26.5c0,2.3,1.9,4.2,4.2,4.2c2.3,0,4.2-1.9,4.2-4.2l0-36.6c0-0.2,0-0.4,0-0.6v-10.4
	c0.4,0.2,0.8,0.5,1.2,0.7c1.9,1.2,4.3,2.4,7.2,3.3v-5.8c-1.7-0.7-3.2-1.4-4.4-2.2c-1.5-0.9-2.6-1.8-3.4-2.4
	c-0.4-0.3-0.7-0.6-0.8-0.7c-0.1-0.1-0.2-0.1-0.2-0.2c0,0,0,0,0,0c0,0,0,0-0.1-0.1c-0.5-0.6-1.2-1-2.1-1l-13.1,0
	c-0.2,0-0.4,0-0.6,0.1c-0.3,0-0.5,0-0.8,0.1c-0.2,0.1-2.7,0.9-5.3,3.1c-1.3,1.1-2.6,2.5-3.7,4.4c-1,1.9-1.7,4.2-1.7,6.9
	c0,1.6,0.2,3.3,0.8,5.2c0.4,1.6,1.1,3.2,1.9,5C453.8,227.5,453.9,227.7,454,227.9L454,227.9z"/>
<path fill-rule="evenodd" clip-rule="evenodd" fill="none" stroke="#9A9A9A" stroke-width="1.573" stroke-miterlimit="10" d="
	M293.5,195.4c21.8-2.2,40.7-15.5,58.5-28.4c14-10.2,28.6-21,36-36.7"/>
<path fill-rule="evenodd" clip-rule="evenodd" fill="none" stroke="#9A9A9A" stroke-width="1.3464" stroke-miterlimit="10" d="
	M293.5,218.9c21.8,1.6,40.7,11.3,58.5,20.8c14,7.5,28.6,15.4,36,26.9"/>
<path fill-rule="evenodd" clip-rule="evenodd" fill="none" d="M290.2,190.3c21.8-2.2,40.7-15.5,58.5-28.4c14-10.2,28.6-21,36-36.7"
	/>
<text transform="matrix(0.9119 -0.4103 0.4103 0.9119 312.3592 184.3627)"><tspan x="0" y="0" font-family="'MyriadPro-Regular'" font-size="13">I</tspan><tspan x="3.5" y="0.1" font-family="'MyriadPro-Regular'" font-size="13" rotate="-3.8">m</tspan><tspan x="14.6" y="-0.7" font-family="'MyriadPro-Regular'" font-size="13" rotate="-7.5">p</tspan><tspan x="22.1" y="-1.7" font-family="'MyriadPro-Regular'" font-size="13" rotate="-9.5">a</tspan><tspan x="28.2" y="-2.7" font-family="'MyriadPro-Regular'" font-size="13" rotate="-10.7">c</tspan><tspan x="33.9" y="-3.8" font-family="'MyriadPro-Regular'" font-size="13" rotate="-11.3">t</tspan></text>
<path fill-rule="evenodd" clip-rule="evenodd" fill="none" d="M292.5,233.3c21.8,1.6,40.7,11.3,58.5,20.8c14,7.5,28.6,15.4,36,26.9"
	/>
<text transform="matrix(0.9269 0.3753 -0.3753 0.9269 323.057 240.5961)"><tspan x="0" y="0" font-family="'MyriadPro-Regular'" font-size="13">I</tspan><tspan x="3" y="-0.1" font-family="'MyriadPro-Regular'" font-size="13" rotate="2.3">m</tspan><tspan x="13.8" y="0.4" font-family="'MyriadPro-Regular'" font-size="13" rotate="4.5">p</tspan><tspan x="21.1" y="1" font-family="'MyriadPro-Regular'" font-size="13" rotate="5.5">a</tspan><tspan x="27.3" y="1.6" font-family="'MyriadPro-Regular'" font-size="13" rotate="5.9">c</tspan><tspan x="33.1" y="2.2" font-family="'MyriadPro-Regular'" font-size="13" rotate="6.3">t</tspan></text>
<path fill-rule="evenodd" clip-rule="evenodd" fill="none" d="M368.1,134.8c6.7-2,13.3-4,20-5.9c0.3,5.1-0.5,12.9-2.1,17.7"/>
<path fill-rule="evenodd" clip-rule="evenodd" fill="none" d="M386.5,247.4c0.9,6,1.7,12,2.6,18.1c-7.3-0.4-16.7,4.2-24.1,3.8"/>
<path fill="none" stroke="#9A9A9A" stroke-width="1.573" stroke-miterlimit="10" d="M374,131.5c6-0.1,11.9-1.8,17-4.9
	c-1,5.6-2,11.3-3,16.9c-0.1,0.7-0.4,1.5-1.1,1.5c-0.7,0-0.4-1.4,0.1-0.9"/>
<path fill="none" stroke="#9A9A9A" stroke-width="1.573" stroke-miterlimit="10" d="M388.9,254.6c0.2,6,2,11.9,5.1,16.9
	c-5.7-0.9-11.3-1.8-17-2.8c-0.7-0.1-1.5-0.4-1.5-1.1c0-0.7,1.4-0.4,0.9,0.1"/>
</svg>
