<?xml version="1.0" encoding="utf-8"?>
<!-- Generator: Adobe Illustrator 17.1.0, SVG Export Plug-In . SVG Version: 6.00 Build 0)  -->
<!DOCTYPE svg PUBLIC "-//W3C//DTD SVG 1.1//EN" "http://www.w3.org/Graphics/SVG/1.1/DTD/svg11.dtd">
<svg version="1.1" id="Layer_1" xmlns="http://www.w3.org/2000/svg" xmlns:xlink="http://www.w3.org/1999/xlink" x="0px" y="0px"
	 viewBox="0 0 600 350" enable-background="new 0 0 600 350" xml:space="preserve">
<path d="M302.2,248.3l25.2-57.7c1.5-3.5-0.1-7.5-3.5-9c-3.5-1.5-7.5,0.1-9,3.5l-25.2,57.7l-25.2,9.9l-57.3-24.3
	c-3.5-1.5-7.5,0.1-9,3.6c-1.5,3.5,0.1,7.5,3.6,9l57.2,24.3l3,7.6h49.9L302.2,248.3z"/>
<path d="M286.1,218.2c3.9,9.9-1,21.1-10.9,25c-9.9,3.9-21.1-1-25-10.9c-3.9-9.9,1-21.1,10.9-25C271,203.4,282.2,208.2,286.1,218.2"
	/>
<rect x="344" y="190.2" width="9.4" height="1.3"/>
<rect x="367.4" y="190.3" width="6.1" height="1.3"/>
<rect x="375.4" y="190.3" width="3.1" height="1.3"/>
<rect x="360.4" y="194.5" width="4.3" height="1.3"/>
<rect x="348.6" y="194.5" width="9.4" height="1.3"/>
<rect x="234.3" y="190.2" width="9.4" height="1.3"/>
<rect x="277.7" y="190.3" width="6.1" height="1.3"/>
<rect x="295.2" y="190.3" width="3.1" height="1.3"/>
<rect x="263.2" y="194.5" width="4.3" height="1.3"/>
<rect x="238.9" y="194.5" width="18.8" height="1.3"/>
<rect x="385.7" y="243.9" width="17.1" height="2.2"/>
<rect x="257.6" y="279.1" width="17.1" height="2.6"/>
<rect x="227.9" y="279.1" width="24.5" height="2.6"/>
<rect x="278.8" y="279.1" width="7.1" height="2.6"/>
<rect x="216.6" y="279.1" width="7.1" height="2.6"/>
<rect x="314.6" y="279.1" width="7.1" height="2.6"/>
<rect x="324.4" y="279.1" width="19.9" height="2.6"/>
<rect x="323.9" y="266.1" width="7" height="2.6"/>
<rect x="224" y="266.1" width="7" height="2.6"/>
<rect x="244.6" y="266.1" width="7" height="2.6"/>
<rect x="330.3" y="272.6" width="13.6" height="2.6"/>
<rect x="350.3" y="279.1" width="10.3" height="2.6"/>
<rect x="289.5" y="279.1" width="21.6" height="2.6"/>
<rect x="363.9" y="243.9" width="10.9" height="2.2"/>
<rect x="349.4" y="243.9" width="10.9" height="2.2"/>
<rect x="343.1" y="233.6" width="44.3" height="2.2"/>
<rect x="354" y="226.2" width="7.3" height="2.2"/>
<rect x="330.8" y="233.6" width="8.3" height="2.2"/>
<rect x="409.1" y="233.6" width="8.6" height="2.2"/>
<path d="M314.5,135.4c-6-6.7-12.7,3.5-12.7,3.5s-10.8-5.7-12.8,3c4.3-3.8,11.3-0.7,13.8,0.8C304.3,140.3,308.9,134.2,314.5,135.4
	L314.5,135.4z"/>
<path d="M314.9,153.1c4.3-3.8,11.3-0.7,13.8,0.8c1.5-2.5,6.1-8.6,11.7-7.4c-6-6.7-12.7,3.5-12.7,3.5S316.8,144.3,314.9,153.1
	L314.9,153.1z"/>
<path d="M332.8,124.2c1.5-2.5,6.1-8.6,11.7-7.4c-6-6.7-12.7,3.5-12.7,3.5s-10.8-5.7-12.8,3C323.3,119.6,330.3,122.8,332.8,124.2
	L332.8,124.2z"/>
<rect x="191.8" y="169.9" width="233.7" height="2.7"/>
<path d="M491.8,83h-96.9v-3.1c0-0.9,0.7-1.6,1.6-1.6h93.8c0.9,0,1.6,0.7,1.6,1.6V83z M491.8,136.9h-96.9V84.5h96.9V136.9z
	 M491.8,142.4c0,0.9-0.7,1.6-1.6,1.6h-93.8c-0.9,0-1.6-0.7-1.6-1.6v-3.9h96.9V142.4z M447.2,152.5h-7.8v-7h7.8V152.5z M490.2,76.7
	h-93.8c-1.7,0-3.1,1.4-3.1,3.1v62.5c0,1.7,1.4,3.1,3.1,3.1h41.4v7h-6.2c-0.4,0-0.8,0.3-0.8,0.8s0.3,0.8,0.8,0.8h23.4
	c0.4,0,0.8-0.3,0.8-0.8s-0.3-0.8-0.8-0.8h-6.2v-7h41.4c1.7,0,3.1-1.4,3.1-3.1V79.9C493.3,78.1,491.9,76.7,490.2,76.7z"/>
<path d="M398.8,90.8H414c0.4,0,0.8-0.3,0.8-0.8c0-0.4-0.3-0.8-0.8-0.8h-15.2c-0.4,0-0.8,0.3-0.8,0.8C398,90.4,398.4,90.8,398.8,90.8
	z"/>
<path d="M406,93.1c0,0.4,0.3,0.8,0.8,0.8h16.8c0.4,0,0.8-0.3,0.8-0.8c0-0.4-0.3-0.8-0.8-0.8h-16.8C406.4,92.4,406,92.7,406,93.1z"/>
<path d="M398.8,97h13.6c0.4,0,0.8-0.3,0.8-0.8c0-0.4-0.3-0.8-0.8-0.8h-13.6c-0.4,0-0.8,0.3-0.8,0.8C398,96.7,398.4,97,398.8,97z"/>
<path d="M398.8,100.2h16c0.4,0,0.8-0.3,0.8-0.8c0-0.4-0.3-0.8-0.8-0.8h-16c-0.4,0-0.8,0.3-0.8,0.8C398,99.8,398.4,100.2,398.8,100.2
	z"/>
<path d="M404.4,102.5c0,0.4,0.3,0.8,0.8,0.8H426c0.4,0,0.8-0.3,0.8-0.8c0-0.4-0.3-0.8-0.8-0.8h-20.8
	C404.8,101.7,404.4,102.1,404.4,102.5z"/>
<path d="M422,104.9h-19.2c-0.4,0-0.8,0.3-0.8,0.8c0,0.4,0.3,0.8,0.8,0.8H422c0.4,0,0.8-0.3,0.8-0.8
	C422.8,105.2,422.5,104.9,422,104.9z"/>
<path d="M398.8,109.5H418c0.4,0,0.8-0.3,0.8-0.8c0-0.4-0.3-0.8-0.8-0.8h-19.2c-0.4,0-0.8,0.3-0.8,0.8
	C398,109.2,398.4,109.5,398.8,109.5z"/>
<path d="M408.4,111.9c0,0.4,0.3,0.8,0.8,0.8h13.6c0.4,0,0.8-0.3,0.8-0.8c0-0.4-0.3-0.8-0.8-0.8h-13.6
	C408.8,111.1,408.4,111.5,408.4,111.9z"/>
<path d="M410,115.8h8c0.4,0,0.8-0.3,0.8-0.8c0-0.4-0.3-0.8-0.8-0.8h-8c-0.4,0-0.8,0.3-0.8,0.8C409.2,115.4,409.6,115.8,410,115.8z"
	/>
<path d="M398.8,118.9H418c0.4,0,0.8-0.3,0.8-0.8c0-0.4-0.3-0.8-0.8-0.8h-19.2c-0.4,0-0.8,0.3-0.8,0.8
	C398,118.6,398.4,118.9,398.8,118.9z"/>
<path d="M398.8,122h18.4c0.4,0,0.8-0.3,0.8-0.8c0-0.4-0.3-0.8-0.8-0.8h-18.4c-0.4,0-0.8,0.3-0.8,0.8C398,121.7,398.4,122,398.8,122z
	"/>
<path d="M430.8,123.6H414c-0.4,0-0.8,0.3-0.8,0.8c0,0.4,0.3,0.8,0.8,0.8h16.8c0.4,0,0.8-0.3,0.8-0.8
	C431.6,124,431.3,123.6,430.8,123.6z"/>
<path d="M398.8,128.3H418c0.4,0,0.8-0.3,0.8-0.8c0-0.4-0.3-0.8-0.8-0.8h-19.2c-0.4,0-0.8,0.3-0.8,0.8
	C398,127.9,398.4,128.3,398.8,128.3z"/>
<path d="M428.4,129.9h-16.8c-0.4,0-0.8,0.3-0.8,0.8c0,0.4,0.3,0.8,0.8,0.8h16.8c0.4,0,0.8-0.3,0.8-0.8
	C429.2,130.2,428.9,129.9,428.4,129.9z"/>
<path d="M470.3,90.8h17.6c0.4,0,0.8-0.3,0.8-0.8c0-0.4-0.3-0.8-0.8-0.8h-17.6c-0.4,0-0.8,0.3-0.8,0.8
	C469.5,90.4,469.8,90.8,470.3,90.8z"/>
<path d="M463,93.9h16.8c0.4,0,0.8-0.3,0.8-0.8c0-0.4-0.3-0.8-0.8-0.8H463c-0.4,0-0.8,0.3-0.8,0.8C462.3,93.6,462.6,93.9,463,93.9z"
	/>
<path d="M487.9,95.5h-13.6c-0.4,0-0.8,0.3-0.8,0.8s0.3,0.8,0.8,0.8h13.6c0.4,0,0.8-0.3,0.8-0.8S488.3,95.5,487.9,95.5z"/>
<path d="M487.9,98.6h-18.4c-0.4,0-0.8,0.3-0.8,0.8s0.3,0.8,0.8,0.8h18.4c0.4,0,0.8-0.3,0.8-0.8S488.3,98.6,487.9,98.6z"/>
<path d="M460.6,103.3h20.8c0.4,0,0.8-0.3,0.8-0.8c0-0.4-0.3-0.8-0.8-0.8h-20.8c-0.4,0-0.8,0.3-0.8,0.8
	C459.9,102.9,460.2,103.3,460.6,103.3z"/>
<path d="M483.9,106.4c0.4,0,0.8-0.3,0.8-0.8c0-0.4-0.3-0.8-0.8-0.8h-19.2c-0.4,0-0.8,0.3-0.8,0.8c0,0.4,0.3,0.8,0.8,0.8H483.9z"/>
<path d="M487.9,108h-19.2c-0.4,0-0.8,0.3-0.8,0.8c0,0.4,0.3,0.8,0.8,0.8h19.2c0.4,0,0.8-0.3,0.8-0.8
	C488.6,108.3,488.3,108,487.9,108z"/>
<path d="M463,111.9c0,0.4,0.3,0.8,0.8,0.8h13.6c0.4,0,0.8-0.3,0.8-0.8c0-0.4-0.3-0.8-0.8-0.8h-13.6C463.4,111.1,463,111.5,463,111.9
	z"/>
<path d="M468.7,114.2c-0.4,0-0.8,0.3-0.8,0.8c0,0.4,0.3,0.8,0.8,0.8h8c0.4,0,0.8-0.3,0.8-0.8c0-0.4-0.3-0.8-0.8-0.8H468.7z"/>
<path d="M487.9,117.4h-19.2c-0.4,0-0.8,0.3-0.8,0.8c0,0.4,0.3,0.8,0.8,0.8h19.2c0.4,0,0.8-0.3,0.8-0.8
	C488.6,117.7,488.3,117.4,487.9,117.4z"/>
<path d="M487.9,120.5h-18.4c-0.4,0-0.8,0.3-0.8,0.8c0,0.4,0.3,0.8,0.8,0.8h18.4c0.4,0,0.8-0.3,0.8-0.8
	C488.6,120.8,488.3,120.5,487.9,120.5z"/>
<path d="M473.5,124.4c0-0.4-0.3-0.8-0.8-0.8h-16.8c-0.4,0-0.8,0.3-0.8,0.8c0,0.4,0.3,0.8,0.8,0.8h16.8
	C473.1,125.2,473.5,124.8,473.5,124.4z"/>
<path d="M487.9,126.7h-19.2c-0.4,0-0.8,0.3-0.8,0.8c0,0.4,0.3,0.8,0.8,0.8h19.2c0.4,0,0.8-0.3,0.8-0.8
	C488.6,127.1,488.3,126.7,487.9,126.7z"/>
<path d="M475.1,129.9h-16.8c-0.4,0-0.8,0.3-0.8,0.8c0,0.4,0.3,0.8,0.8,0.8h16.8c0.4,0,0.8-0.3,0.8-0.8
	C475.9,130.2,475.5,129.9,475.1,129.9z"/>
<path d="M415.5,80.6c0,1-1.6,1-1.6,0S415.5,79.6,415.5,80.6"/>
<path d="M412.4,80.6c0,1-1.6,1-1.6,0S412.4,79.6,412.4,80.6"/>
<path d="M409.3,80.6c0,1-1.6,1-1.6,0S409.3,79.6,409.3,80.6"/>
<path d="M440,119.7c0.1,0,0.1,0,0.2,0c0.3,0,0.7-0.2,0.8-0.6l4.9-17.2c0.1-0.4-0.1-0.8-0.5-1c-0.4-0.1-0.8,0.1-1,0.5l-4.9,17.2
	C439.3,119.1,439.6,119.6,440,119.7z"/>
<path d="M429.6,111.7l7.1,5c0.1,0.1,0.3,0.1,0.5,0.1c0.2,0,0.5-0.1,0.6-0.3c0.2-0.4,0.2-0.8-0.2-1.1l-6.2-4.4l6.2-4.4
	c0.4-0.2,0.4-0.7,0.2-1.1c-0.2-0.4-0.7-0.4-1.1-0.2l-7.1,5c-0.2,0.1-0.3,0.4-0.3,0.6C429.3,111.4,429.4,111.6,429.6,111.7
	L429.6,111.7z"/>
<path d="M448.9,116.6c0.2,0.2,0.4,0.3,0.6,0.3c0.2,0,0.3,0,0.5-0.1l7.1-5c0.2-0.1,0.3-0.4,0.3-0.6c0-0.3-0.1-0.5-0.3-0.6l-7.1-5
	c-0.4-0.2-0.8-0.2-1.1,0.2c-0.2,0.4-0.2,0.8,0.2,1.1l6.2,4.4l-6.2,4.4C448.8,115.8,448.7,116.2,448.9,116.6L448.9,116.6z"/>
<path d="M124.5,189.5l-9.3,6.9c-0.2,0.2-0.3,0.4-0.3,0.7c0,0.3,0.1,0.5,0.3,0.7l9,6.6c0.4,0.2,0.9,0.2,1.1-0.2
	c0.3-0.4,0.2-0.9-0.1-1.1l-8.1-6l8.4-6.2c0.2-0.1,0.3-0.3,0.4-0.6c0-0.2,0-0.5-0.2-0.7c-0.1-0.2-0.3-0.3-0.6-0.3
	C125,189.2,124.7,189.3,124.5,189.5L124.5,189.5z"/>
<path d="M154.2,196.1l-9-6.6c-0.4-0.2-0.9-0.2-1.1,0.2c-0.3,0.4-0.2,0.9,0.1,1.1l8.1,6l-8.4,6.2c-0.2,0.1-0.3,0.3-0.4,0.6
	c0,0.2,0,0.5,0.2,0.7c0.1,0.2,0.3,0.3,0.6,0.3c0.2,0,0.5,0,0.6-0.2l9.3-6.8c0.2-0.2,0.3-0.4,0.3-0.7
	C154.6,196.5,154.4,196.3,154.2,196.1L154.2,196.1z"/>
<path d="M139.6,183.8c-0.2-0.1-0.4-0.1-0.6,0c-0.2,0.1-0.4,0.3-0.4,0.5l-9.4,24.7c-0.2,0.4,0.1,0.9,0.5,1.1c0.1,0,0.2,0.1,0.3,0.1
	c0.3,0,0.7-0.2,0.8-0.5l9.4-24.7v0c0.1-0.2,0.1-0.5,0-0.7C140,184,139.8,183.8,139.6,183.8L139.6,183.8z"/>
<path d="M124.4,228.4l-9.3,6.9c-0.2,0.2-0.3,0.4-0.3,0.7c0,0.3,0.1,0.5,0.3,0.7l9,6.6c0.4,0.2,0.9,0.2,1.1-0.2
	c0.3-0.4,0.2-0.9-0.1-1.1l-8.1-6l8.4-6.2c0.2-0.1,0.3-0.3,0.4-0.6c0-0.2,0-0.5-0.2-0.7c-0.1-0.2-0.3-0.3-0.6-0.3
	C124.8,228.2,124.6,228.2,124.4,228.4L124.4,228.4z"/>
<path d="M154.1,235l-9-6.6c-0.4-0.2-0.9-0.2-1.1,0.2c-0.3,0.4-0.2,0.9,0.1,1.1l8.1,6l-8.4,6.2c-0.2,0.1-0.3,0.3-0.4,0.6
	c0,0.2,0,0.5,0.2,0.7c0.1,0.2,0.3,0.3,0.6,0.3c0.2,0,0.5,0,0.6-0.2l9.3-6.8c0.2-0.2,0.3-0.4,0.3-0.7
	C154.4,235.4,154.3,235.2,154.1,235L154.1,235z"/>
<path d="M139.5,222.7c-0.2-0.1-0.4-0.1-0.6,0c-0.2,0.1-0.4,0.3-0.4,0.5l-9.4,24.7c-0.2,0.4,0.1,0.9,0.5,1.1c0.1,0,0.2,0.1,0.3,0.1
	c0.3,0,0.7-0.2,0.8-0.5l9.4-24.7v0c0.1-0.2,0.1-0.5,0-0.7C139.9,222.9,139.7,222.8,139.5,222.7L139.5,222.7z"/>
<path d="M167.9,196.8l-9.3,6.9c-0.2,0.2-0.3,0.4-0.3,0.7c0,0.3,0.1,0.5,0.3,0.7l9,6.6c0.4,0.2,0.9,0.2,1.1-0.2
	c0.3-0.4,0.2-0.9-0.1-1.1l-8.1-6l8.4-6.2c0.2-0.1,0.3-0.3,0.4-0.6c0-0.2,0-0.5-0.2-0.7c-0.1-0.2-0.3-0.3-0.6-0.3
	C168.4,196.6,168.1,196.7,167.9,196.8L167.9,196.8z"/>
<path d="M197.6,203.5l-9-6.6c-0.4-0.2-0.9-0.2-1.1,0.2c-0.3,0.4-0.2,0.9,0.1,1.1l8.1,6l-8.4,6.2c-0.2,0.1-0.3,0.3-0.4,0.6
	c0,0.2,0,0.5,0.2,0.7c0.1,0.2,0.3,0.3,0.6,0.3c0.2,0,0.5,0,0.6-0.2l9.3-6.8c0.2-0.2,0.3-0.4,0.3-0.7
	C198,203.9,197.8,203.6,197.6,203.5L197.6,203.5z"/>
<path d="M183,191.1c-0.2-0.1-0.4-0.1-0.6,0c-0.2,0.1-0.4,0.3-0.4,0.5l-9.4,24.7c-0.2,0.4,0.1,0.9,0.5,1.1c0.1,0,0.2,0.1,0.3,0.1
	c0.3,0,0.7-0.2,0.8-0.5l9.4-24.7v0c0.1-0.2,0.1-0.5,0-0.7C183.4,191.4,183.2,191.2,183,191.1L183,191.1z"/>
<path d="M170.5,250.4l-9.3,6.9c-0.2,0.2-0.3,0.4-0.3,0.7c0,0.3,0.1,0.5,0.3,0.7l9,6.6c0.4,0.2,0.9,0.2,1.1-0.2
	c0.3-0.4,0.2-0.9-0.1-1.1l-8.1-6l8.4-6.2c0.2-0.1,0.3-0.3,0.4-0.6c0-0.2,0-0.5-0.2-0.7c-0.1-0.2-0.3-0.3-0.6-0.3
	C171,250.1,170.7,250.2,170.5,250.4L170.5,250.4z"/>
<path d="M200.2,257l-9-6.6c-0.4-0.2-0.9-0.2-1.1,0.2c-0.3,0.4-0.2,0.9,0.1,1.1l8.1,6l-8.4,6.2c-0.2,0.1-0.3,0.3-0.4,0.6
	c0,0.2,0,0.5,0.2,0.7c0.1,0.2,0.3,0.3,0.6,0.3c0.2,0,0.5,0,0.6-0.2l9.3-6.8c0.2-0.2,0.3-0.4,0.3-0.7
	C200.6,257.4,200.4,257.2,200.2,257L200.2,257z"/>
<path d="M185.6,244.7c-0.2-0.1-0.4-0.1-0.6,0c-0.2,0.1-0.4,0.3-0.4,0.5l-9.4,24.7c-0.2,0.4,0.1,0.9,0.5,1.1c0.1,0,0.2,0.1,0.3,0.1
	c0.3,0,0.7-0.2,0.8-0.5l9.4-24.7v0c0.1-0.2,0.1-0.5,0-0.7C186,244.9,185.8,244.7,185.6,244.7L185.6,244.7z"/>
<path d="M196.7,279l-9.3,6.9c-0.2,0.2-0.3,0.4-0.3,0.7c0,0.3,0.1,0.5,0.3,0.7l9,6.6c0.4,0.2,0.9,0.2,1.1-0.2
	c0.3-0.4,0.2-0.9-0.1-1.1l-8.1-6l8.4-6.2c0.2-0.1,0.3-0.3,0.4-0.6c0-0.2,0-0.5-0.2-0.7c-0.1-0.2-0.3-0.3-0.6-0.3
	C197.1,278.8,196.9,278.8,196.7,279L196.7,279z"/>
<path d="M226.4,285.6l-9-6.6c-0.4-0.2-0.9-0.2-1.1,0.2c-0.3,0.4-0.2,0.9,0.1,1.1l8.1,6l-8.4,6.2c-0.2,0.1-0.3,0.3-0.4,0.6
	c0,0.2,0,0.5,0.2,0.7c0.1,0.2,0.3,0.3,0.6,0.3c0.2,0,0.5,0,0.6-0.2l9.3-6.8c0.2-0.2,0.3-0.4,0.3-0.7
	C226.7,286,226.6,285.8,226.4,285.6L226.4,285.6z"/>
<path d="M211.8,273.3c-0.2-0.1-0.4-0.1-0.6,0c-0.2,0.1-0.4,0.3-0.4,0.5l-9.4,24.7c-0.2,0.4,0.1,0.9,0.5,1.1c0.1,0,0.2,0.1,0.3,0.1
	c0.3,0,0.7-0.2,0.8-0.5l9.4-24.7v0c0.1-0.2,0.1-0.5,0-0.7C212.2,273.5,212,273.3,211.8,273.3L211.8,273.3z"/>
<path d="M123.5,281.7l-8.4,7.9c-0.2,0.2-0.3,0.4-0.3,0.7c0,0.3,0.2,0.5,0.4,0.6l9.7,5.5c0.4,0.2,0.9,0,1.1-0.3
	c0.2-0.4,0.1-0.9-0.3-1.1l-8.7-4.9l7.6-7.1c0.2-0.1,0.3-0.4,0.3-0.6c0-0.2-0.1-0.5-0.2-0.6c-0.2-0.2-0.4-0.3-0.6-0.3
	C123.8,281.4,123.6,281.5,123.5,281.7L123.5,281.7z"/>
<path d="M153.7,284.7l-9.7-5.5c-0.4-0.2-0.9,0-1.1,0.3c-0.2,0.4-0.1,0.9,0.3,1.1l8.7,4.9l-7.6,7.1c-0.2,0.1-0.3,0.4-0.3,0.6
	c0,0.2,0.1,0.5,0.2,0.6c0.2,0.2,0.4,0.3,0.6,0.3c0.2,0,0.5-0.1,0.6-0.3l8.4-7.9c0.2-0.2,0.3-0.4,0.3-0.7
	C154.1,285.1,153.9,284.8,153.7,284.7L153.7,284.7z"/>
<path d="M137.7,274.2c-0.2-0.1-0.4,0-0.6,0.1c-0.2,0.1-0.3,0.3-0.4,0.5l-6.4,25.6c-0.1,0.5,0.2,0.9,0.6,1c0.1,0,0.2,0,0.3,0
	c0.3,0,0.6-0.3,0.7-0.6l6.4-25.6l0,0c0.1-0.2,0-0.5-0.1-0.7C138.2,274.4,138,274.3,137.7,274.2L137.7,274.2z"/>
<path d="M388.5,300.4l-8.4,7.9c-0.2,0.2-0.3,0.4-0.3,0.7c0,0.3,0.2,0.5,0.4,0.6l9.7,5.5c0.4,0.2,0.9,0,1.1-0.3
	c0.2-0.4,0.1-0.9-0.3-1.1l-8.7-4.9l7.6-7.1c0.2-0.1,0.3-0.4,0.3-0.6c0-0.2-0.1-0.5-0.2-0.6c-0.2-0.2-0.4-0.3-0.6-0.3
	C388.9,300.1,388.7,300.2,388.5,300.4L388.5,300.4z"/>
<path d="M418.7,303.4l-9.7-5.5c-0.4-0.2-0.9,0-1.1,0.3c-0.2,0.4-0.1,0.9,0.3,1.1l8.7,4.9l-7.6,7.1c-0.2,0.1-0.3,0.4-0.3,0.6
	c0,0.2,0.1,0.5,0.2,0.6c0.2,0.2,0.4,0.3,0.6,0.3c0.2,0,0.5-0.1,0.6-0.3l8.4-7.9c0.2-0.2,0.3-0.4,0.3-0.7
	C419.1,303.8,419,303.5,418.7,303.4L418.7,303.4z"/>
<path d="M402.8,292.9c-0.2-0.1-0.4,0-0.6,0.1c-0.2,0.1-0.3,0.3-0.4,0.5l-6.4,25.6c-0.1,0.5,0.2,0.9,0.6,1c0.1,0,0.2,0,0.3,0
	c0.3,0,0.6-0.3,0.7-0.6l6.4-25.6l0,0c0.1-0.2,0-0.5-0.1-0.7C403.2,293.1,403,292.9,402.8,292.9L402.8,292.9z"/>
<path d="M396.8,194.7l-8.4,7.9c-0.2,0.2-0.3,0.4-0.3,0.7c0,0.3,0.2,0.5,0.4,0.6l9.7,5.5c0.4,0.2,0.9,0,1.1-0.3
	c0.2-0.4,0.1-0.9-0.3-1.1l-8.7-4.9l7.6-7.1c0.2-0.1,0.3-0.4,0.3-0.6c0-0.2-0.1-0.5-0.2-0.6c-0.2-0.2-0.4-0.3-0.6-0.3
	C397.2,194.4,397,194.5,396.8,194.7L396.8,194.7z"/>
<path d="M427.1,197.7l-9.7-5.5c-0.4-0.2-0.9,0-1.1,0.3c-0.2,0.4-0.1,0.9,0.3,1.1l8.7,4.9l-7.6,7.1c-0.2,0.1-0.3,0.4-0.3,0.6
	c0,0.2,0.1,0.5,0.2,0.6c0.2,0.2,0.4,0.3,0.6,0.3c0.2,0,0.5-0.1,0.6-0.3l8.4-7.9c0.2-0.2,0.3-0.4,0.3-0.7
	C427.5,198.1,427.3,197.9,427.1,197.7L427.1,197.7z"/>
<path d="M411.1,187.2c-0.2-0.1-0.4,0-0.6,0.1c-0.2,0.1-0.3,0.3-0.4,0.5l-6.4,25.6c-0.1,0.5,0.2,0.9,0.6,1c0.1,0,0.2,0,0.3,0
	c0.3,0,0.6-0.3,0.7-0.6l6.4-25.6l0,0c0.1-0.2,0-0.5-0.1-0.7C411.5,187.4,411.3,187.3,411.1,187.2L411.1,187.2z"/>
<path d="M392.6,267.1l-8.4,7.9c-0.2,0.2-0.3,0.4-0.3,0.7c0,0.3,0.2,0.5,0.4,0.6l9.7,5.5c0.4,0.2,0.9,0,1.1-0.3
	c0.2-0.4,0.1-0.9-0.3-1.1l-8.7-4.9l7.6-7.1c0.2-0.1,0.3-0.4,0.3-0.6c0-0.2-0.1-0.5-0.2-0.6c-0.2-0.2-0.4-0.3-0.6-0.3
	C393,266.8,392.8,266.9,392.6,267.1L392.6,267.1z"/>
<path d="M422.9,270.1l-9.7-5.5c-0.4-0.2-0.9,0-1.1,0.3c-0.2,0.4-0.1,0.9,0.3,1.1l8.7,4.9l-7.6,7.1c-0.2,0.1-0.3,0.4-0.3,0.6
	c0,0.2,0.1,0.5,0.2,0.6c0.2,0.2,0.4,0.3,0.6,0.3c0.2,0,0.5-0.1,0.6-0.3l8.4-7.9c0.2-0.2,0.3-0.4,0.3-0.7
	C423.3,270.5,423.1,270.2,422.9,270.1L422.9,270.1z"/>
<path d="M406.9,259.6c-0.2-0.1-0.4,0-0.6,0.1c-0.2,0.1-0.3,0.3-0.4,0.5l-6.4,25.6c-0.1,0.5,0.2,0.9,0.6,1c0.1,0,0.2,0,0.3,0
	c0.3,0,0.6-0.3,0.7-0.6l6.4-25.6l0,0c0.1-0.2,0-0.5-0.1-0.7C407.3,259.8,407.1,259.7,406.9,259.6L406.9,259.6z"/>
<path d="M246.8,293.2l-9.6,8.1c-0.2,0.2-0.3,0.5-0.3,0.7c0,0.3,0.2,0.5,0.5,0.6l10.8,5.4c0.4,0.2,1,0,1.2-0.4
	c0.3-0.4,0.1-0.9-0.3-1.1l-9.7-4.8l8.6-7.3c0.2-0.2,0.3-0.4,0.4-0.6c0-0.2-0.1-0.5-0.3-0.6c-0.2-0.2-0.4-0.3-0.7-0.3
	C247.2,292.9,247,293,246.8,293.2L246.8,293.2z"/>
<path d="M278.7,299l-10.8-5.4c-0.4-0.2-1,0-1.2,0.4c-0.3,0.4-0.1,0.9,0.3,1.1l9.7,4.8l-8.6,7.3c-0.2,0.2-0.3,0.4-0.4,0.6
	c0,0.2,0.1,0.5,0.3,0.6c0.2,0.2,0.4,0.3,0.7,0.3c0.3,0,0.5-0.1,0.7-0.3l9.6-8.1c0.2-0.2,0.3-0.5,0.3-0.7
	C279.1,299.4,279,299.1,278.7,299L278.7,299z"/>
<path d="M263,285.5c-0.2-0.1-0.5,0-0.7,0.1c-0.2,0.1-0.4,0.3-0.4,0.5l-7.6,25.8c-0.1,0.5,0.2,0.9,0.7,1c0.1,0,0.2,0,0.3,0
	c0.4,0,0.7-0.3,0.8-0.6l7.6-25.8l0,0c0.1-0.2,0-0.5-0.1-0.7C263.4,285.7,263.2,285.6,263,285.5L263,285.5z"/>
<path d="M439.8,229.7l-8.4,7.9c-0.2,0.2-0.3,0.4-0.3,0.7c0,0.3,0.2,0.5,0.4,0.6l9.7,5.5c0.4,0.2,0.9,0,1.1-0.3
	c0.2-0.4,0.1-0.9-0.3-1.1l-8.7-4.9l7.6-7.1c0.2-0.1,0.3-0.4,0.3-0.6c0-0.2-0.1-0.5-0.2-0.6c-0.2-0.2-0.4-0.3-0.6-0.3
	C440.2,229.4,440,229.5,439.8,229.7L439.8,229.7z"/>
<path d="M470.1,232.7l-9.7-5.5c-0.4-0.2-0.9,0-1.1,0.3c-0.2,0.4-0.1,0.9,0.3,1.1l8.7,4.9l-7.6,7.1c-0.2,0.1-0.3,0.4-0.3,0.6
	c0,0.2,0.1,0.5,0.2,0.6c0.2,0.2,0.4,0.3,0.6,0.3c0.2,0,0.5-0.1,0.6-0.3l8.4-7.9c0.2-0.2,0.3-0.4,0.3-0.7
	C470.5,233.1,470.3,232.8,470.1,232.7L470.1,232.7z"/>
<path d="M454.1,222.2c-0.2-0.1-0.4,0-0.6,0.1c-0.2,0.1-0.3,0.3-0.4,0.5l-6.4,25.6c-0.1,0.5,0.2,0.9,0.6,1c0.1,0,0.2,0,0.3,0
	c0.3,0,0.6-0.3,0.7-0.6l6.4-25.6l0,0c0.1-0.2,0-0.5-0.1-0.7C454.6,222.4,454.4,222.2,454.1,222.2L454.1,222.2z"/>
<path d="M446,187.9l-8.3,8.9c-0.2,0.2-0.3,0.5-0.2,0.8c0,0.3,0.2,0.6,0.4,0.7l9.8,6.5c0.4,0.2,0.9,0.1,1.1-0.4
	c0.2-0.4,0.1-1-0.3-1.3l-8.8-5.8l7.5-8c0.2-0.2,0.3-0.4,0.3-0.7c0-0.3-0.1-0.5-0.2-0.7c-0.2-0.2-0.4-0.3-0.6-0.3
	C446.4,187.6,446.1,187.7,446,187.9L446,187.9z"/>
<path d="M476.3,191.9l-9.8-6.5c-0.4-0.2-0.9-0.1-1.1,0.4c-0.2,0.4-0.1,1,0.3,1.3l8.8,5.8l-7.5,8c-0.2,0.2-0.3,0.4-0.3,0.7
	c0,0.3,0.1,0.5,0.2,0.7c0.2,0.2,0.4,0.3,0.6,0.3c0.2,0,0.5-0.1,0.6-0.3l8.3-8.9c0.2-0.2,0.3-0.5,0.2-0.8
	C476.7,192.3,476.6,192.1,476.3,191.9L476.3,191.9z"/>
<path d="M460.1,179.6c-0.2-0.1-0.4,0-0.6,0.1c-0.2,0.1-0.3,0.3-0.4,0.6l-6,29.3c-0.1,0.5,0.2,1,0.6,1.2c0.1,0,0.2,0,0.3,0
	c0.3,0,0.6-0.3,0.7-0.7l6-29.2l0,0c0.1-0.3,0-0.5-0.1-0.8C460.6,179.8,460.4,179.7,460.1,179.6L460.1,179.6z"/>
<path d="M450.2,269.1l-8.4,7.9c-0.2,0.2-0.3,0.4-0.3,0.7s0.2,0.5,0.4,0.6l9.7,5.5c0.4,0.2,0.9,0,1.1-0.3c0.2-0.4,0.1-0.9-0.3-1.1
	l-8.7-4.9l7.6-7.1c0.2-0.1,0.3-0.4,0.3-0.6c0-0.2-0.1-0.5-0.2-0.6c-0.2-0.2-0.4-0.3-0.6-0.3C450.6,268.8,450.4,268.9,450.2,269.1
	L450.2,269.1z"/>
<path d="M480.5,272.1l-9.7-5.5c-0.4-0.2-0.9,0-1.1,0.3c-0.2,0.4-0.1,0.9,0.3,1.1l8.7,4.9l-7.6,7.1c-0.2,0.1-0.3,0.4-0.3,0.6
	c0,0.2,0.1,0.5,0.2,0.6c0.2,0.2,0.4,0.3,0.6,0.3c0.2,0,0.5-0.1,0.6-0.3l8.4-7.9c0.2-0.2,0.3-0.4,0.3-0.7
	C480.9,272.5,480.7,272.2,480.5,272.1L480.5,272.1z"/>
<path d="M464.5,261.6c-0.2-0.1-0.4,0-0.6,0.1c-0.2,0.1-0.3,0.3-0.4,0.5l-6.4,25.6c-0.1,0.5,0.2,0.9,0.6,1c0.1,0,0.2,0,0.3,0
	c0.3,0,0.6-0.3,0.7-0.6l6.4-25.6l0,0c0.1-0.2,0-0.5-0.1-0.7C464.9,261.8,464.7,261.7,464.5,261.6L464.5,261.6z"/>
<path d="M442.1,297.9l-8.4,7.9c-0.2,0.2-0.3,0.4-0.3,0.7c0,0.3,0.2,0.5,0.4,0.6l9.7,5.5c0.4,0.2,0.9,0,1.1-0.3
	c0.2-0.4,0.1-0.9-0.3-1.1l-8.7-4.9l7.6-7.1c0.2-0.1,0.3-0.4,0.3-0.6c0-0.2-0.1-0.5-0.2-0.6c-0.2-0.2-0.4-0.3-0.6-0.3
	C442.5,297.6,442.3,297.7,442.1,297.9L442.1,297.9z"/>
<path d="M472.4,300.9l-9.7-5.5c-0.4-0.2-0.9,0-1.1,0.3c-0.2,0.4-0.1,0.9,0.3,1.1l8.7,4.9L463,309c-0.2,0.1-0.3,0.4-0.3,0.6
	c0,0.2,0.1,0.5,0.2,0.6c0.2,0.2,0.4,0.3,0.6,0.3c0.2,0,0.5-0.1,0.6-0.3l8.4-7.9c0.2-0.2,0.3-0.4,0.3-0.7
	C472.8,301.3,472.6,301.1,472.4,300.9L472.4,300.9z"/>
<path d="M456.4,290.4c-0.2-0.1-0.4,0-0.6,0.1c-0.2,0.1-0.3,0.3-0.4,0.5l-6.4,25.6c-0.1,0.5,0.2,0.9,0.6,1c0.1,0,0.2,0,0.3,0
	c0.3,0,0.6-0.3,0.7-0.6l6.4-25.6l0,0c0.1-0.2,0-0.5-0.1-0.7C456.8,290.6,456.6,290.5,456.4,290.4L456.4,290.4z"/>
<path d="M160.7,301.5l-8.4,7.9c-0.2,0.2-0.3,0.4-0.3,0.7c0,0.3,0.2,0.5,0.4,0.6l9.7,5.5c0.4,0.2,0.9,0,1.1-0.3
	c0.2-0.4,0.1-0.9-0.3-1.1l-8.7-4.9l7.6-7.1c0.2-0.1,0.3-0.4,0.3-0.6c0-0.2-0.1-0.5-0.2-0.6c-0.2-0.2-0.4-0.3-0.6-0.3
	C161.1,301.2,160.9,301.3,160.7,301.5L160.7,301.5z"/>
<path d="M191,304.5l-9.7-5.5c-0.4-0.2-0.9,0-1.1,0.3c-0.2,0.4-0.1,0.9,0.3,1.1l8.7,4.9l-7.6,7.1c-0.2,0.1-0.3,0.4-0.3,0.6
	c0,0.2,0.1,0.5,0.2,0.6c0.2,0.2,0.4,0.3,0.6,0.3c0.2,0,0.5-0.1,0.6-0.3l8.4-7.9c0.2-0.2,0.3-0.4,0.3-0.7
	C191.4,304.9,191.2,304.6,191,304.5L191,304.5z"/>
<path d="M175,294c-0.2-0.1-0.4,0-0.6,0.1c-0.2,0.1-0.3,0.3-0.4,0.5l-6.4,25.6c-0.1,0.5,0.2,0.9,0.6,1c0.1,0,0.2,0,0.3,0
	c0.3,0,0.6-0.3,0.7-0.6l6.4-25.6l0,0c0.1-0.2,0-0.5-0.1-0.7C175.4,294.2,175.2,294,175,294L175,294z"/>
<text transform="matrix(1 0 0 1 79.0038 158.8815)"><tspan x="0" y="0" font-family="'MyriadPro-Regular'" font-size="10">Time devoted to </tspan><tspan x="6.8" y="12" font-family="'MyriadPro-Regular'" font-size="10">learning tech.</tspan></text>
<path d="M307.8,293.2l-9.6,8.1c-0.2,0.2-0.3,0.5-0.3,0.7c0,0.3,0.2,0.5,0.5,0.6l10.8,5.4c0.4,0.2,1,0,1.2-0.4
	c0.3-0.4,0.1-0.9-0.3-1.1l-9.7-4.8l8.6-7.3c0.2-0.2,0.3-0.4,0.4-0.6c0-0.2-0.1-0.5-0.3-0.6c-0.2-0.2-0.4-0.3-0.7-0.3
	C308.2,292.9,308,293,307.8,293.2L307.8,293.2z"/>
<path d="M341.8,295.8l-10.8-5.4c-0.4-0.2-1,0-1.2,0.4c-0.3,0.4-0.1,0.9,0.3,1.1l9.7,4.8l-8.6,7.3c-0.2,0.2-0.3,0.4-0.4,0.6
	c0,0.2,0.1,0.5,0.3,0.6c0.2,0.2,0.4,0.3,0.7,0.3c0.3,0,0.5-0.1,0.7-0.3l9.6-8.1c0.2-0.2,0.3-0.5,0.3-0.7
	C342.2,296.1,342,295.9,341.8,295.8L341.8,295.8z"/>
<path d="M324,285.5c-0.2-0.1-0.5,0-0.7,0.1c-0.2,0.1-0.4,0.3-0.4,0.5l-7.6,25.8c-0.1,0.5,0.2,0.9,0.7,1c0.1,0,0.2,0,0.3,0
	c0.4,0,0.7-0.3,0.8-0.6l7.6-25.8l0,0c0.1-0.2,0-0.5-0.1-0.7C324.4,285.7,324.2,285.6,324,285.5L324,285.5z"/>
<path d="M120.6,127.5c-0.3,0-0.6-0.1-0.9-0.2l-7.7-3.8c-0.7-0.3-1.1-1-1.1-1.7v-13.4c0-1.1,0.9-1.9,1.9-1.9s1.9,0.9,1.9,1.9v12.3
	l6.6,3.3c0.9,0.5,1.3,1.6,0.9,2.6C121.9,127.1,121.3,127.5,120.6,127.5L120.6,127.5z M134,123.7c-0.5,0-1-0.2-1.4-0.6
	c-0.3-0.4-0.6-0.9-0.6-1.4s0.2-1,0.6-1.4c0.7-0.7,2-0.7,2.7,0c0.3,0.4,0.6,0.9,0.6,1.4s-0.2,1-0.6,1.4
	C135,123.5,134.5,123.7,134,123.7L134,123.7z M120.2,104c-1-0.4-1.4-1.5-1-2.5c0.4-1,1.5-1.4,2.5-1c1,0.4,1.4,1.5,1,2.5
	c-0.3,0.7-1,1.2-1.8,1.2C120.7,104.2,120.5,104.1,120.2,104L120.2,104z M126.5,108.2c-0.7-0.7-0.7-2,0-2.7c0.8-0.7,2-0.7,2.7,0
	c0.8,0.7,0.8,2,0,2.7c-0.4,0.4-0.9,0.6-1.3,0.6C127.3,108.8,126.8,108.6,126.5,108.2z M130.6,114.4c-0.4-1,0.1-2.1,1-2.5
	c1-0.4,2.1,0.1,2.5,1c0.4,1-0.1,2.1-1,2.5c-0.3,0.1-0.5,0.2-0.7,0.2C131.6,115.6,130.9,115.2,130.6,114.4L130.6,114.4z M112.9,102.6
	c-0.5,0-1-0.2-1.4-0.6c-0.3-0.4-0.6-0.9-0.6-1.4c0-0.5,0.2-1,0.6-1.4c0.7-0.7,2-0.7,2.7,0c0.3,0.4,0.6,0.9,0.6,1.4
	c0,0.5-0.2,1-0.6,1.4C113.9,102.4,113.4,102.6,112.9,102.6L112.9,102.6z M112.9,144.8c-12.7,0-23.1-10.3-23.1-23.1
	s10.3-23.1,23.1-23.1c1.1,0,1.9,0.9,1.9,1.9s-0.9,1.9-1.9,1.9c-10.6,0-19.2,8.6-19.2,19.2s8.6,19.2,19.2,19.2s19.2-8.6,19.2-19.2
	c0-1.1,0.9-1.9,1.9-1.9c1.1,0,1.9,0.9,1.9,1.9C135.9,134.5,125.6,144.8,112.9,144.8L112.9,144.8z"/>
</svg>
