<?xml version="1.0" encoding="utf-8"?>
<!-- Generator: Adobe Illustrator 17.1.0, SVG Export Plug-In . SVG Version: 6.00 Build 0)  -->
<!DOCTYPE svg PUBLIC "-//W3C//DTD SVG 1.1//EN" "http://www.w3.org/Graphics/SVG/1.1/DTD/svg11.dtd">
<svg version="1.1" id="Layer_1" xmlns="http://www.w3.org/2000/svg" xmlns:xlink="http://www.w3.org/1999/xlink" x="0px" y="0px"
	 viewBox="0 0 600 350" enable-background="new 0 0 600 350" xml:space="preserve">
<g>
	<rect x="134.3" y="293.1" width="336.8" height="60.7"/>
	<rect x="470.8" y="114.9" width="129.2" height="238.9"/>
	<rect x="0" y="114.9" width="146.9" height="238.9"/>
	<polygon points="328.1,115.1 353.4,163.8 378.9,153.3 471,293.1 471,115.1 	"/>
	<polygon points="334.9,293.1 297,155.4 320.4,171.6 384.2,293.1 	"/>
	<polygon points="363.3,181.8 389.2,232.2 385.4,191.5 	"/>
	<polygon fill="#FBB040" points="327.8,115.1 297.5,56.3 278.3,87.5 260.4,81 242.5,115.1 	"/>
	<polygon points="290.6,203 269.5,212.9 256.7,140.9 223.2,242.3 248.5,293.1 313.2,293.1 	"/>
	<polygon points="242.5,115.1 145,115.1 145,293.1 196.7,293.1 182,225.4 	"/>
	<path fill="#FFFFFF" stroke="#000000" stroke-width="0.9476" stroke-miterlimit="10" d="M543.9,338.9l-1.1-1l5.5-5l-5.5-5l1.1-1
		l6.6,6L543.9,338.9z M538.1,338.6l-1.5-0.4l3.8-10.9l1.5,0.4L538.1,338.6z M535.6,337.9l-1.1,1l-6.6-6l6.6-6l1.1,1l-5.5,5
		L535.6,337.9z M562.2,341.1h-1.6v-17.5c0-0.6-0.6-1.1-1.2-1.1l-40.3,0c-0.7,0-1.2,0.5-1.2,1.1v17.5l-20.5,0v2.2h83.8v-2.2H562.2z"
		/>
	<path fill="#FFFFFF" stroke="#000000" stroke-width="0.9476" stroke-miterlimit="10" d="M524,321.1h30.7c-0.6-6.5-10-6.8-10.4-6.8
		l-0.5,0l-2.1-3.9c-0.7,0.2-1.5,0.3-2.3,0.3c-0.8,0-1.6-0.1-2.3-0.3l-2.1,3.9l-0.5,0C534,314.3,524.6,314.6,524,321.1L524,321.1z"/>
	<path fill="#FFFFFF" stroke="#000000" stroke-width="0.9476" stroke-miterlimit="10" d="M539.4,309.3c3.4,0,6.1-2.2,6.8-5
		c0.1-0.4,0.1-0.8,0.1-1.2c0-0.1,0-0.1,0-0.2c-0.1-3.3-3.2-6-6.9-6c-3.7,0-6.8,2.7-6.9,6c0,0.1,0,0.1,0,0.2c0,0.4,0,0.8,0.1,1.2
		C533.2,307.1,536,309.3,539.4,309.3L539.4,309.3z"/>
	<polygon fill="#FFFFFF" stroke="#000000" stroke-width="0.9476" stroke-miterlimit="10" points="497.1,289.2 511.1,276.6 
		497.1,264 496,265 508.9,276.6 496,288.2 	"/>
	
		<rect x="518.6" y="269.8" fill="#FFFFFF" stroke="#000000" stroke-width="0.9476" stroke-miterlimit="10" width="12.1" height="1.4"/>
	
		<rect x="538.2" y="269.8" fill="#FFFFFF" stroke="#000000" stroke-width="0.9476" stroke-miterlimit="10" width="18" height="1.4"/>
	
		<rect x="565.9" y="269.8" fill="#FFFFFF" stroke="#000000" stroke-width="0.9476" stroke-miterlimit="10" width="3.2" height="1.4"/>
	
		<rect x="584.8" y="262.4" fill="#FFFFFF" stroke="#000000" stroke-width="0.9476" stroke-miterlimit="10" width="3.9" height="1.4"/>
	
		<rect x="569.8" y="275.9" fill="#FFFFFF" stroke="#000000" stroke-width="0.9476" stroke-miterlimit="10" width="12.1" height="1.4"/>
	
		<rect x="544.3" y="275.9" fill="#FFFFFF" stroke="#000000" stroke-width="0.9476" stroke-miterlimit="10" width="18" height="1.4"/>
	
		<rect x="531.4" y="275.9" fill="#FFFFFF" stroke="#000000" stroke-width="0.9476" stroke-miterlimit="10" width="3.2" height="1.4"/>
	
		<rect x="518.6" y="275.9" fill="#FFFFFF" stroke="#000000" stroke-width="0.9476" stroke-miterlimit="10" width="3.9" height="1.4"/>
	
		<rect x="518.6" y="282.1" fill="#FFFFFF" stroke="#000000" stroke-width="0.9476" stroke-miterlimit="10" width="12.1" height="1.4"/>
	
		<rect x="538.2" y="282.1" fill="#FFFFFF" stroke="#000000" stroke-width="0.9476" stroke-miterlimit="10" width="18" height="1.4"/>
	
		<rect x="565.9" y="282.1" fill="#FFFFFF" stroke="#000000" stroke-width="0.9476" stroke-miterlimit="10" width="3.2" height="1.4"/>
	
		<rect x="584.8" y="274.7" fill="#FFFFFF" stroke="#000000" stroke-width="0.9476" stroke-miterlimit="10" width="3.9" height="1.4"/>
	
		<rect x="496.5" y="294.6" fill="#FFFFFF" stroke="#000000" stroke-width="0.9476" stroke-miterlimit="10" width="16.3" height="1.4"/>
	
		<rect x="560.3" y="294.6" fill="#FFFFFF" stroke="#000000" stroke-width="0.9476" stroke-miterlimit="10" width="4.3" height="1.4"/>
	
		<rect x="583.4" y="287.2" fill="#FFFFFF" stroke="#000000" stroke-width="0.9476" stroke-miterlimit="10" width="5.3" height="1.4"/>
	
		<rect x="565.6" y="302.9" fill="#FFFFFF" stroke="#000000" stroke-width="0.9476" stroke-miterlimit="10" width="16.3" height="1.4"/>
	
		<rect x="513.9" y="302.9" fill="#FFFFFF" stroke="#000000" stroke-width="0.9476" stroke-miterlimit="10" width="4.3" height="1.4"/>
	
		<rect x="496.5" y="302.9" fill="#FFFFFF" stroke="#000000" stroke-width="0.9476" stroke-miterlimit="10" width="5.3" height="1.4"/>
	
		<rect x="496.5" y="311.2" fill="#FFFFFF" stroke="#000000" stroke-width="0.9476" stroke-miterlimit="10" width="16.3" height="1.4"/>
	
		<rect x="560.3" y="311.2" fill="#FFFFFF" stroke="#000000" stroke-width="0.9476" stroke-miterlimit="10" width="4.3" height="1.4"/>
	
		<rect x="583.4" y="303.8" fill="#FFFFFF" stroke="#000000" stroke-width="0.9476" stroke-miterlimit="10" width="5.3" height="1.4"/>
	<path fill="#FFFFFF" stroke="#000000" stroke-width="0.9476" stroke-miterlimit="10" d="M75.1,334.2l-1.1-1l5.5-5l-5.5-5l1.1-1
		l6.6,6L75.1,334.2z M69.2,333.9l-1.5-0.4l3.8-10.9L73,323L69.2,333.9z M66.8,333.2l-1.1,1l-6.6-6l6.6-6l1.1,1l-5.5,5L66.8,333.2z
		 M93.3,336.4h-1.6v-17.5c0-0.6-0.6-1.1-1.2-1.1l-40.3,0c-0.7,0-1.2,0.5-1.2,1.1v17.5l-20.5,0v2.2h83.8v-2.2H93.3z"/>
	<path fill="#FFFFFF" stroke="#000000" stroke-width="0.9476" stroke-miterlimit="10" d="M55.1,316.4h30.7c-0.6-6.5-10-6.8-10.4-6.8
		l-0.5,0l-2.1-3.9c-0.7,0.2-1.5,0.3-2.3,0.3c-0.8,0-1.6-0.1-2.3-0.3l-2.1,3.9l-0.5,0C65.2,309.6,55.8,309.9,55.1,316.4L55.1,316.4z"
		/>
	<path fill="#FFFFFF" stroke="#000000" stroke-width="0.9476" stroke-miterlimit="10" d="M70.5,304.6c3.4,0,6.1-2.2,6.8-5
		c0.1-0.4,0.1-0.8,0.1-1.2c0-0.1,0-0.1,0-0.2c-0.1-3.3-3.2-6-6.9-6c-3.7,0-6.8,2.7-6.9,6c0,0.1,0,0.1,0,0.2c0,0.4,0,0.8,0.1,1.2
		C64.3,302.4,67.1,304.6,70.5,304.6L70.5,304.6z"/>
	<polygon fill="#FFFFFF" stroke="#000000" stroke-width="0.9476" stroke-miterlimit="10" points="28.2,284.5 42.2,271.9 28.2,259.3 
		27.1,260.3 40,271.9 27.1,283.5 	"/>
	<rect x="49.7" y="265" fill="#FFFFFF" stroke="#000000" stroke-width="0.9476" stroke-miterlimit="10" width="12.1" height="1.4"/>
	<rect x="69.3" y="265" fill="#FFFFFF" stroke="#000000" stroke-width="0.9476" stroke-miterlimit="10" width="18" height="1.4"/>
	<rect x="97" y="265" fill="#FFFFFF" stroke="#000000" stroke-width="0.9476" stroke-miterlimit="10" width="3.2" height="1.4"/>
	<rect x="109.1" y="265" fill="#FFFFFF" stroke="#000000" stroke-width="0.9476" stroke-miterlimit="10" width="3.9" height="1.4"/>
	
		<rect x="101" y="271.2" fill="#FFFFFF" stroke="#000000" stroke-width="0.9476" stroke-miterlimit="10" width="12.1" height="1.4"/>
	<rect x="75.4" y="271.2" fill="#FFFFFF" stroke="#000000" stroke-width="0.9476" stroke-miterlimit="10" width="18" height="1.4"/>
	
		<rect x="62.6" y="271.2" fill="#FFFFFF" stroke="#000000" stroke-width="0.9476" stroke-miterlimit="10" width="3.2" height="1.4"/>
	
		<rect x="49.7" y="271.2" fill="#FFFFFF" stroke="#000000" stroke-width="0.9476" stroke-miterlimit="10" width="3.9" height="1.4"/>
	
		<rect x="49.7" y="277.3" fill="#FFFFFF" stroke="#000000" stroke-width="0.9476" stroke-miterlimit="10" width="12.1" height="1.4"/>
	<rect x="69.3" y="277.3" fill="#FFFFFF" stroke="#000000" stroke-width="0.9476" stroke-miterlimit="10" width="18" height="1.4"/>
	<rect x="97" y="277.3" fill="#FFFFFF" stroke="#000000" stroke-width="0.9476" stroke-miterlimit="10" width="3.2" height="1.4"/>
	
		<rect x="109.1" y="277.3" fill="#FFFFFF" stroke="#000000" stroke-width="0.9476" stroke-miterlimit="10" width="3.9" height="1.4"/>
	
		<rect x="27.7" y="289.9" fill="#FFFFFF" stroke="#000000" stroke-width="0.9476" stroke-miterlimit="10" width="16.3" height="1.4"/>
	
		<rect x="91.4" y="289.9" fill="#FFFFFF" stroke="#000000" stroke-width="0.9476" stroke-miterlimit="10" width="4.3" height="1.4"/>
	
		<rect x="107.8" y="289.9" fill="#FFFFFF" stroke="#000000" stroke-width="0.9476" stroke-miterlimit="10" width="5.3" height="1.4"/>
	
		<rect x="96.8" y="298.2" fill="#FFFFFF" stroke="#000000" stroke-width="0.9476" stroke-miterlimit="10" width="16.3" height="1.4"/>
	<rect x="45" y="298.2" fill="#FFFFFF" stroke="#000000" stroke-width="0.9476" stroke-miterlimit="10" width="4.3" height="1.4"/>
	
		<rect x="27.7" y="298.2" fill="#FFFFFF" stroke="#000000" stroke-width="0.9476" stroke-miterlimit="10" width="5.3" height="1.4"/>
	
		<rect x="27.7" y="306.4" fill="#FFFFFF" stroke="#000000" stroke-width="0.9476" stroke-miterlimit="10" width="16.3" height="1.4"/>
	
		<rect x="91.4" y="306.4" fill="#FFFFFF" stroke="#000000" stroke-width="0.9476" stroke-miterlimit="10" width="4.3" height="1.4"/>
	
		<rect x="107.8" y="306.4" fill="#FFFFFF" stroke="#000000" stroke-width="0.9476" stroke-miterlimit="10" width="5.3" height="1.4"/>
	<g>
		
			<rect x="180.6" y="341.3" fill="#FFFFFF" stroke="#000000" stroke-width="0.9476" stroke-miterlimit="10" width="8.4" height="1.9"/>
		
			<rect x="197.4" y="341.3" fill="#FFFFFF" stroke="#000000" stroke-width="0.9476" stroke-miterlimit="10" width="8.4" height="1.9"/>
		
			<rect x="146.9" y="341.3" fill="#FFFFFF" stroke="#000000" stroke-width="0.9476" stroke-miterlimit="10" width="25.2" height="1.9"/>
		
			<rect x="163.7" y="336.5" fill="#FFFFFF" stroke="#000000" stroke-width="0.9476" stroke-miterlimit="10" width="16.8" height="1.9"/>
		
			<rect x="189" y="336.5" fill="#FFFFFF" stroke="#000000" stroke-width="0.9476" stroke-miterlimit="10" width="8.4" height="1.9"/>
		
			<rect x="146.9" y="331.8" fill="#FFFFFF" stroke="#000000" stroke-width="0.9476" stroke-miterlimit="10" width="8.4" height="1.9"/>
		
			<rect x="163.7" y="331.8" fill="#FFFFFF" stroke="#000000" stroke-width="0.9476" stroke-miterlimit="10" width="8.4" height="1.9"/>
		
			<rect x="180.6" y="331.8" fill="#FFFFFF" stroke="#000000" stroke-width="0.9476" stroke-miterlimit="10" width="8.4" height="1.9"/>
		
			<rect x="197.4" y="331.8" fill="#FFFFFF" stroke="#000000" stroke-width="0.9476" stroke-miterlimit="10" width="8.4" height="1.9"/>
		<polygon fill="#FFFFFF" stroke="#000000" stroke-width="0.9476" stroke-miterlimit="10" points="151.6,314.4 168,306.9 168,309 
			154.2,315.2 154.2,315.3 168,321.5 168,323.7 151.6,316.1 151.6,314.4 		"/>
		<polygon fill="#FFFFFF" stroke="#000000" stroke-width="0.9476" stroke-miterlimit="10" points="170.3,325 180.1,302 182.5,302 
			172.6,325 		"/>
		<polygon fill="#FFFFFF" stroke="#000000" stroke-width="0.9476" stroke-miterlimit="10" points="201.1,316.2 184.7,323.7 
			184.7,321.5 198.6,315.3 198.6,315.2 184.7,309 184.7,306.9 201.1,314.4 		"/>
	</g>
	<g>
		
			<rect x="264.9" y="341.3" fill="#FFFFFF" stroke="#000000" stroke-width="0.9476" stroke-miterlimit="10" width="8.4" height="1.9"/>
		
			<rect x="281.7" y="341.3" fill="#FFFFFF" stroke="#000000" stroke-width="0.9476" stroke-miterlimit="10" width="8.4" height="1.9"/>
		
			<rect x="231.3" y="341.3" fill="#FFFFFF" stroke="#000000" stroke-width="0.9476" stroke-miterlimit="10" width="25.2" height="1.9"/>
		
			<rect x="248.1" y="336.5" fill="#FFFFFF" stroke="#000000" stroke-width="0.9476" stroke-miterlimit="10" width="16.8" height="1.9"/>
		
			<rect x="273.3" y="336.5" fill="#FFFFFF" stroke="#000000" stroke-width="0.9476" stroke-miterlimit="10" width="8.4" height="1.9"/>
		
			<rect x="231.3" y="331.8" fill="#FFFFFF" stroke="#000000" stroke-width="0.9476" stroke-miterlimit="10" width="8.4" height="1.9"/>
		
			<rect x="248.1" y="331.8" fill="#FFFFFF" stroke="#000000" stroke-width="0.9476" stroke-miterlimit="10" width="8.4" height="1.9"/>
		
			<rect x="264.9" y="331.8" fill="#FFFFFF" stroke="#000000" stroke-width="0.9476" stroke-miterlimit="10" width="8.4" height="1.9"/>
		
			<rect x="281.7" y="331.8" fill="#FFFFFF" stroke="#000000" stroke-width="0.9476" stroke-miterlimit="10" width="8.4" height="1.9"/>
		<polygon fill="#FFFFFF" stroke="#000000" stroke-width="0.9476" stroke-miterlimit="10" points="236,314.4 252.4,306.9 252.4,309 
			238.6,315.2 238.6,315.3 252.4,321.5 252.4,323.7 236,316.1 236,314.4 		"/>
		<polygon fill="#FFFFFF" stroke="#000000" stroke-width="0.9476" stroke-miterlimit="10" points="254.7,325 264.5,302 266.9,302 
			257,325 		"/>
		<polygon fill="#FFFFFF" stroke="#000000" stroke-width="0.9476" stroke-miterlimit="10" points="285.4,316.2 269.1,323.7 
			269.1,321.5 283,315.3 283,315.2 269.1,309 269.1,306.9 285.4,314.4 		"/>
	</g>
	<g>
		
			<rect x="349.3" y="341.3" fill="#FFFFFF" stroke="#000000" stroke-width="0.9476" stroke-miterlimit="10" width="8.4" height="1.9"/>
		
			<rect x="366.1" y="341.3" fill="#FFFFFF" stroke="#000000" stroke-width="0.9476" stroke-miterlimit="10" width="8.4" height="1.9"/>
		
			<rect x="315.7" y="341.3" fill="#FFFFFF" stroke="#000000" stroke-width="0.9476" stroke-miterlimit="10" width="25.2" height="1.9"/>
		
			<rect x="332.5" y="336.5" fill="#FFFFFF" stroke="#000000" stroke-width="0.9476" stroke-miterlimit="10" width="16.8" height="1.9"/>
		
			<rect x="357.7" y="336.5" fill="#FFFFFF" stroke="#000000" stroke-width="0.9476" stroke-miterlimit="10" width="8.4" height="1.9"/>
		
			<rect x="315.7" y="331.8" fill="#FFFFFF" stroke="#000000" stroke-width="0.9476" stroke-miterlimit="10" width="8.4" height="1.9"/>
		
			<rect x="332.5" y="331.8" fill="#FFFFFF" stroke="#000000" stroke-width="0.9476" stroke-miterlimit="10" width="8.4" height="1.9"/>
		
			<rect x="349.3" y="331.8" fill="#FFFFFF" stroke="#000000" stroke-width="0.9476" stroke-miterlimit="10" width="8.4" height="1.9"/>
		
			<rect x="366.1" y="331.8" fill="#FFFFFF" stroke="#000000" stroke-width="0.9476" stroke-miterlimit="10" width="8.4" height="1.9"/>
		<polygon fill="#FFFFFF" stroke="#000000" stroke-width="0.9476" stroke-miterlimit="10" points="320.4,314.4 336.7,306.9 
			336.7,309 323,315.2 323,315.3 336.7,321.5 336.7,323.7 320.4,316.1 320.4,314.4 		"/>
		<polygon fill="#FFFFFF" stroke="#000000" stroke-width="0.9476" stroke-miterlimit="10" points="339,325 348.9,302 351.3,302 
			341.4,325 		"/>
		<polygon fill="#FFFFFF" stroke="#000000" stroke-width="0.9476" stroke-miterlimit="10" points="369.8,316.2 353.5,323.7 
			353.5,321.5 367.4,315.3 367.4,315.2 353.5,309 353.5,306.9 369.8,314.4 		"/>
	</g>
	<g>
		
			<rect x="433.7" y="341.3" fill="#FFFFFF" stroke="#000000" stroke-width="0.9476" stroke-miterlimit="10" width="8.4" height="1.9"/>
		
			<rect x="450.5" y="341.3" fill="#FFFFFF" stroke="#000000" stroke-width="0.9476" stroke-miterlimit="10" width="8.4" height="1.9"/>
		
			<rect x="400" y="341.3" fill="#FFFFFF" stroke="#000000" stroke-width="0.9476" stroke-miterlimit="10" width="25.2" height="1.9"/>
		
			<rect x="416.9" y="336.5" fill="#FFFFFF" stroke="#000000" stroke-width="0.9476" stroke-miterlimit="10" width="16.8" height="1.9"/>
		
			<rect x="442.1" y="336.5" fill="#FFFFFF" stroke="#000000" stroke-width="0.9476" stroke-miterlimit="10" width="8.4" height="1.9"/>
		
			<rect x="400" y="331.8" fill="#FFFFFF" stroke="#000000" stroke-width="0.9476" stroke-miterlimit="10" width="8.4" height="1.9"/>
		
			<rect x="416.9" y="331.8" fill="#FFFFFF" stroke="#000000" stroke-width="0.9476" stroke-miterlimit="10" width="8.4" height="1.9"/>
		
			<rect x="433.7" y="331.8" fill="#FFFFFF" stroke="#000000" stroke-width="0.9476" stroke-miterlimit="10" width="8.4" height="1.9"/>
		
			<rect x="450.5" y="331.8" fill="#FFFFFF" stroke="#000000" stroke-width="0.9476" stroke-miterlimit="10" width="8.4" height="1.9"/>
		<polygon fill="#FFFFFF" stroke="#000000" stroke-width="0.9476" stroke-miterlimit="10" points="404.8,314.4 421.1,306.9 
			421.1,309 407.3,315.2 407.3,315.3 421.1,321.5 421.1,323.7 404.8,316.1 404.8,314.4 		"/>
		<polygon fill="#FFFFFF" stroke="#000000" stroke-width="0.9476" stroke-miterlimit="10" points="423.4,325 433.2,302 435.6,302 
			425.8,325 		"/>
		<polygon fill="#FFFFFF" stroke="#000000" stroke-width="0.9476" stroke-miterlimit="10" points="454.2,316.2 437.8,323.7 
			437.8,321.5 451.7,315.3 451.7,315.2 437.8,309 437.8,306.9 454.2,314.4 		"/>
	</g>
	<path fill="#FFFFFF" stroke="#000000" stroke-width="0.9476" stroke-miterlimit="10" d="M545.9,231.1l-1.1-1l5.5-5l-5.5-5l1.1-1
		l6.6,6L545.9,231.1z M540.1,230.8l-1.5-0.4l3.8-10.9l1.5,0.4L540.1,230.8z M537.6,230.1l-1.1,1l-6.6-6l6.6-6l1.1,1l-5.5,5
		L537.6,230.1z M564.2,233.3h-1.6v-17.5c0-0.6-0.6-1.1-1.2-1.1l-40.3,0c-0.7,0-1.2,0.5-1.2,1.1v17.5l-20.5,0v2.2h83.8v-2.2H564.2z"
		/>
	<path fill="#FFFFFF" stroke="#000000" stroke-width="0.9476" stroke-miterlimit="10" d="M526,213.3h30.7c-0.6-6.5-10-6.8-10.4-6.8
		l-0.5,0l-2.1-3.9c-0.7,0.2-1.5,0.3-2.3,0.3c-0.8,0-1.6-0.1-2.3-0.3l-2.1,3.9l-0.5,0C536,206.5,526.6,206.8,526,213.3L526,213.3z"/>
	<path fill="#FFFFFF" stroke="#000000" stroke-width="0.9476" stroke-miterlimit="10" d="M541.3,201.4c3.4,0,6.1-2.2,6.8-5
		c0.1-0.4,0.1-0.8,0.1-1.2c0-0.1,0-0.1,0-0.2c-0.1-3.3-3.2-6-6.9-6c-3.7,0-6.8,2.7-6.9,6c0,0.1,0,0.1,0,0.2c0,0.4,0,0.8,0.1,1.2
		C535.2,199.3,538,201.4,541.3,201.4L541.3,201.4z"/>
	<polygon fill="#FFFFFF" stroke="#000000" stroke-width="0.9476" stroke-miterlimit="10" points="499.1,181.4 513.1,168.8 
		499.1,156.2 498,157.2 510.9,168.8 498,180.4 	"/>
	
		<rect x="520.5" y="161.9" fill="#FFFFFF" stroke="#000000" stroke-width="0.9476" stroke-miterlimit="10" width="12.1" height="1.4"/>
	
		<rect x="540.1" y="161.9" fill="#FFFFFF" stroke="#000000" stroke-width="0.9476" stroke-miterlimit="10" width="18" height="1.4"/>
	
		<rect x="567.8" y="161.9" fill="#FFFFFF" stroke="#000000" stroke-width="0.9476" stroke-miterlimit="10" width="3.2" height="1.4"/>
	
		<rect x="586.7" y="199.4" fill="#FFFFFF" stroke="#000000" stroke-width="0.9476" stroke-miterlimit="10" width="3.9" height="1.4"/>
	
		<rect x="571.8" y="168.1" fill="#FFFFFF" stroke="#000000" stroke-width="0.9476" stroke-miterlimit="10" width="12.1" height="1.4"/>
	
		<rect x="546.3" y="168.1" fill="#FFFFFF" stroke="#000000" stroke-width="0.9476" stroke-miterlimit="10" width="18" height="1.4"/>
	
		<rect x="533.4" y="168.1" fill="#FFFFFF" stroke="#000000" stroke-width="0.9476" stroke-miterlimit="10" width="3.2" height="1.4"/>
	
		<rect x="520.5" y="168.1" fill="#FFFFFF" stroke="#000000" stroke-width="0.9476" stroke-miterlimit="10" width="3.9" height="1.4"/>
	
		<rect x="520.5" y="174.2" fill="#FFFFFF" stroke="#000000" stroke-width="0.9476" stroke-miterlimit="10" width="12.1" height="1.4"/>
	
		<rect x="540.1" y="174.2" fill="#FFFFFF" stroke="#000000" stroke-width="0.9476" stroke-miterlimit="10" width="18" height="1.4"/>
	
		<rect x="567.8" y="174.2" fill="#FFFFFF" stroke="#000000" stroke-width="0.9476" stroke-miterlimit="10" width="3.2" height="1.4"/>
	
		<rect x="586.7" y="211.7" fill="#FFFFFF" stroke="#000000" stroke-width="0.9476" stroke-miterlimit="10" width="3.9" height="1.4"/>
	
		<rect x="498.5" y="186.7" fill="#FFFFFF" stroke="#000000" stroke-width="0.9476" stroke-miterlimit="10" width="16.3" height="1.4"/>
	
		<rect x="562.3" y="186.7" fill="#FFFFFF" stroke="#000000" stroke-width="0.9476" stroke-miterlimit="10" width="4.3" height="1.4"/>
	
		<rect x="585.4" y="179.3" fill="#FFFFFF" stroke="#000000" stroke-width="0.9476" stroke-miterlimit="10" width="5.3" height="1.4"/>
	
		<rect x="567.6" y="195" fill="#FFFFFF" stroke="#000000" stroke-width="0.9476" stroke-miterlimit="10" width="16.3" height="1.4"/>
	<rect x="515.9" y="195" fill="#FFFFFF" stroke="#000000" stroke-width="0.9476" stroke-miterlimit="10" width="4.3" height="1.4"/>
	<rect x="498.5" y="195" fill="#FFFFFF" stroke="#000000" stroke-width="0.9476" stroke-miterlimit="10" width="5.3" height="1.4"/>
	
		<rect x="498.5" y="203.3" fill="#FFFFFF" stroke="#000000" stroke-width="0.9476" stroke-miterlimit="10" width="16.3" height="1.4"/>
	
		<rect x="562.3" y="203.3" fill="#FFFFFF" stroke="#000000" stroke-width="0.9476" stroke-miterlimit="10" width="4.3" height="1.4"/>
	
		<rect x="585.4" y="195.9" fill="#FFFFFF" stroke="#000000" stroke-width="0.9476" stroke-miterlimit="10" width="5.3" height="1.4"/>
	<path fill="#FFFFFF" stroke="#000000" stroke-width="0.9476" stroke-miterlimit="10" d="M67.3,220.4l-1.1-1l5.5-5l-5.5-5l1.1-1
		l6.6,6L67.3,220.4z M61.5,220.1l-1.5-0.4l3.8-10.9l1.5,0.4L61.5,220.1z M59,219.4l-1.1,1l-6.6-6l6.6-6l1.1,1l-5.5,5L59,219.4z
		 M85.6,222.6H84v-17.5c0-0.6-0.6-1.1-1.2-1.1l-40.3,0c-0.7,0-1.2,0.5-1.2,1.1v17.5l-20.5,0v2.2h83.8v-2.2H85.6z"/>
	<path fill="#FFFFFF" stroke="#000000" stroke-width="0.9476" stroke-miterlimit="10" d="M47.4,202.6h30.7c-0.6-6.5-10-6.8-10.4-6.8
		l-0.5,0l-2.1-3.9c-0.7,0.2-1.5,0.3-2.3,0.3c-0.8,0-1.6-0.1-2.3-0.3l-2.1,3.9l-0.5,0C57.4,195.8,48,196.1,47.4,202.6L47.4,202.6z"/>
	<path fill="#FFFFFF" stroke="#000000" stroke-width="0.9476" stroke-miterlimit="10" d="M62.8,190.8c3.4,0,6.1-2.2,6.8-5
		c0.1-0.4,0.1-0.8,0.1-1.2c0-0.1,0-0.1,0-0.2c-0.1-3.3-3.2-6-6.9-6c-3.7,0-6.8,2.7-6.9,6c0,0.1,0,0.1,0,0.2c0,0.4,0,0.8,0.1,1.2
		C56.6,188.6,59.4,190.8,62.8,190.8L62.8,190.8z"/>
	<polygon fill="#FFFFFF" stroke="#000000" stroke-width="0.9476" stroke-miterlimit="10" points="20.5,170.7 34.5,158.1 20.5,145.5 
		19.4,146.5 32.3,158.1 19.4,169.7 	"/>
	<rect x="42" y="151.2" fill="#FFFFFF" stroke="#000000" stroke-width="0.9476" stroke-miterlimit="10" width="12.1" height="1.4"/>
	<rect x="61.6" y="151.2" fill="#FFFFFF" stroke="#000000" stroke-width="0.9476" stroke-miterlimit="10" width="18" height="1.4"/>
	
		<rect x="89.3" y="151.2" fill="#FFFFFF" stroke="#000000" stroke-width="0.9476" stroke-miterlimit="10" width="3.2" height="1.4"/>
	
		<rect x="108.2" y="143.8" fill="#FFFFFF" stroke="#000000" stroke-width="0.9476" stroke-miterlimit="10" width="3.9" height="1.4"/>
	
		<rect x="93.2" y="157.4" fill="#FFFFFF" stroke="#000000" stroke-width="0.9476" stroke-miterlimit="10" width="12.1" height="1.4"/>
	<rect x="67.7" y="157.4" fill="#FFFFFF" stroke="#000000" stroke-width="0.9476" stroke-miterlimit="10" width="18" height="1.4"/>
	
		<rect x="54.8" y="157.4" fill="#FFFFFF" stroke="#000000" stroke-width="0.9476" stroke-miterlimit="10" width="3.2" height="1.4"/>
	<rect x="42" y="157.4" fill="#FFFFFF" stroke="#000000" stroke-width="0.9476" stroke-miterlimit="10" width="3.9" height="1.4"/>
	<rect x="42" y="163.5" fill="#FFFFFF" stroke="#000000" stroke-width="0.9476" stroke-miterlimit="10" width="12.1" height="1.4"/>
	<rect x="61.6" y="163.5" fill="#FFFFFF" stroke="#000000" stroke-width="0.9476" stroke-miterlimit="10" width="18" height="1.4"/>
	
		<rect x="89.3" y="163.5" fill="#FFFFFF" stroke="#000000" stroke-width="0.9476" stroke-miterlimit="10" width="3.2" height="1.4"/>
	
		<rect x="108.2" y="156.1" fill="#FFFFFF" stroke="#000000" stroke-width="0.9476" stroke-miterlimit="10" width="3.9" height="1.4"/>
	
		<rect x="19.9" y="176.1" fill="#FFFFFF" stroke="#000000" stroke-width="0.9476" stroke-miterlimit="10" width="16.3" height="1.4"/>
	
		<rect x="83.7" y="176.1" fill="#FFFFFF" stroke="#000000" stroke-width="0.9476" stroke-miterlimit="10" width="4.3" height="1.4"/>
	
		<rect x="106.8" y="168.7" fill="#FFFFFF" stroke="#000000" stroke-width="0.9476" stroke-miterlimit="10" width="5.3" height="1.4"/>
	<rect x="89" y="184.4" fill="#FFFFFF" stroke="#000000" stroke-width="0.9476" stroke-miterlimit="10" width="16.3" height="1.4"/>
	
		<rect x="37.3" y="184.4" fill="#FFFFFF" stroke="#000000" stroke-width="0.9476" stroke-miterlimit="10" width="4.3" height="1.4"/>
	
		<rect x="19.9" y="184.4" fill="#FFFFFF" stroke="#000000" stroke-width="0.9476" stroke-miterlimit="10" width="5.3" height="1.4"/>
	
		<rect x="19.9" y="192.6" fill="#FFFFFF" stroke="#000000" stroke-width="0.9476" stroke-miterlimit="10" width="16.3" height="1.4"/>
	
		<rect x="83.7" y="192.6" fill="#FFFFFF" stroke="#000000" stroke-width="0.9476" stroke-miterlimit="10" width="4.3" height="1.4"/>
	
		<rect x="106.8" y="185.2" fill="#FFFFFF" stroke="#000000" stroke-width="0.9476" stroke-miterlimit="10" width="5.3" height="1.4"/>
	<rect x="437.2" y="177.1" fill="#FDFDFE" stroke="#000000" stroke-width="0.4668" stroke-miterlimit="10" width="7" height="1.6"/>
	<rect x="451.3" y="177.1" fill="#FDFDFE" stroke="#000000" stroke-width="0.4668" stroke-miterlimit="10" width="7" height="1.6"/>
	
		<rect x="409" y="177.1" fill="#FDFDFE" stroke="#000000" stroke-width="0.4668" stroke-miterlimit="10" width="21.1" height="1.6"/>
	
		<rect x="423.1" y="173.1" fill="#FDFDFE" stroke="#000000" stroke-width="0.4668" stroke-miterlimit="10" width="14.1" height="1.6"/>
	<rect x="444.2" y="173.1" fill="#FDFDFE" stroke="#000000" stroke-width="0.4668" stroke-miterlimit="10" width="7" height="1.6"/>
	<rect x="409" y="169.2" fill="#FDFDFE" stroke="#000000" stroke-width="0.4668" stroke-miterlimit="10" width="7" height="1.6"/>
	<rect x="423.1" y="169.2" fill="#FDFDFE" stroke="#000000" stroke-width="0.4668" stroke-miterlimit="10" width="7" height="1.6"/>
	
		<rect x="446.8" y="169.1" fill="#FDFDFE" stroke="#000000" stroke-width="0.6292" stroke-miterlimit="10" width="9.5" height="2.2"/>
	<rect x="451.3" y="169.2" fill="#FDFDFE" stroke="#000000" stroke-width="0.4668" stroke-miterlimit="10" width="7" height="1.6"/>
	<polygon fill="#FDFDFE" stroke="#000000" stroke-width="0.4668" stroke-miterlimit="10" points="413,154.6 426.7,148.3 
		426.7,150.1 415.1,155.3 415.1,155.4 426.7,160.6 426.7,162.4 413,156.1 413,154.6 	"/>
	<polygon fill="#FDFDFE" stroke="#000000" stroke-width="0.4668" stroke-miterlimit="10" points="428.6,163.5 436.8,144.3 
		438.8,144.3 430.6,163.5 	"/>
	<polygon fill="#FDFDFE" stroke="#000000" stroke-width="0.4668" stroke-miterlimit="10" points="454.4,156.1 440.7,162.4 
		440.7,160.6 452.3,155.4 452.3,155.3 440.7,150.1 440.7,148.3 454.4,154.6 	"/>
	
		<rect x="183.3" y="176.9" fill="#FDFDFE" stroke="#000000" stroke-width="0.4886" stroke-miterlimit="10" width="7.4" height="1.7"/>
	<rect x="198" y="176.9" fill="#FDFDFE" stroke="#000000" stroke-width="0.4886" stroke-miterlimit="10" width="7.4" height="1.7"/>
	
		<rect x="153.8" y="176.9" fill="#FDFDFE" stroke="#000000" stroke-width="0.4886" stroke-miterlimit="10" width="22.1" height="1.7"/>
	
		<rect x="168.5" y="172.8" fill="#FDFDFE" stroke="#000000" stroke-width="0.4886" stroke-miterlimit="10" width="14.7" height="1.7"/>
	
		<rect x="190.6" y="172.8" fill="#FDFDFE" stroke="#000000" stroke-width="0.4886" stroke-miterlimit="10" width="7.4" height="1.7"/>
	
		<rect x="153.8" y="168.6" fill="#FDFDFE" stroke="#000000" stroke-width="0.4886" stroke-miterlimit="10" width="7.4" height="1.7"/>
	
		<rect x="168.5" y="168.6" fill="#FDFDFE" stroke="#000000" stroke-width="0.4886" stroke-miterlimit="10" width="7.4" height="1.7"/>
	
		<rect x="183.3" y="168.6" fill="#FDFDFE" stroke="#000000" stroke-width="0.4886" stroke-miterlimit="10" width="7.4" height="1.7"/>
	<rect x="198" y="168.6" fill="#FDFDFE" stroke="#000000" stroke-width="0.4886" stroke-miterlimit="10" width="7.4" height="1.7"/>
	<polygon fill="#FDFDFE" stroke="#000000" stroke-width="0.4886" stroke-miterlimit="10" points="157.9,153.4 172.2,146.8 
		172.2,148.7 160.2,154.1 160.2,154.2 172.2,159.6 172.2,161.5 157.9,154.9 157.9,153.4 	"/>
	<polygon fill="#FDFDFE" stroke="#000000" stroke-width="0.4886" stroke-miterlimit="10" points="174.2,162.6 182.9,142.5 
		185,142.5 176.3,162.6 	"/>
	<polygon fill="#FDFDFE" stroke="#000000" stroke-width="0.4886" stroke-miterlimit="10" points="201.2,154.9 186.9,161.5 
		186.9,159.6 199.1,154.2 199.1,154.1 186.9,148.7 186.9,146.8 201.2,153.4 	"/>
	<path fill="#F7F5F5" stroke="#000000" stroke-width="0.5633" stroke-miterlimit="10" d="M127.9,225.3l-11.3,10.2l11.3,10.2
		c1,0.9,2.7,0.9,3.7,0c1-0.9,1-2.4,0-3.4l-7.1-6.5l-2.2,1.2l9.3-8.5c0.5-0.5,0.8-1.1,0.8-1.7c0-0.6-0.3-1.2-0.8-1.7
		C130.6,224.3,129,224.3,127.9,225.3L127.9,225.3z"/>
	<path fill="#F7F5F5" stroke="#000000" stroke-width="0.5633" stroke-miterlimit="10" d="M158.9,225.3l11.3,10.2l-11.3,10.2
		c-1,0.9-2.7,0.9-3.7,0c-1-0.9-1-2.4,0-3.4l7.1-6.5l2.2,1.2l-9.3-8.5c-0.5-0.5-0.8-1.1-0.8-1.7c0-0.6,0.3-1.2,0.8-1.7
		C156.2,224.3,157.9,224.3,158.9,225.3L158.9,225.3z"/>
	<path fill="#F7F5F5" stroke="#000000" stroke-width="0.5633" stroke-miterlimit="10" d="M149.9,226.1c-0.2-0.6-0.7-1.1-1.4-1.3
		c-1.3-0.5-2.9,0-3.5,1.2l-8.2,17.1c-0.3,0.6-0.3,1.3,0,1.8c0.2,0.6,0.7,1.1,1.4,1.3c1.3,0.5,2.9,0,3.5-1.2l8.2-17.1
		C150.2,227.3,150.2,226.6,149.9,226.1z"/>
	<path fill="#F7F5F5" stroke="#000000" stroke-width="0.5633" stroke-miterlimit="10" d="M441.1,198.8L429.9,209l11.3,10.2
		c1,0.9,2.7,0.9,3.7,0c1-0.9,1-2.4,0-3.4l-7.1-6.5l-2.2,1.2l9.3-8.5c0.5-0.5,0.8-1.1,0.8-1.7c0-0.6-0.3-1.2-0.8-1.7
		C443.8,197.8,442.1,197.8,441.1,198.8L441.1,198.8z"/>
	<path fill="#F7F5F5" stroke="#000000" stroke-width="0.5633" stroke-miterlimit="10" d="M472.1,198.8l11.3,10.2l-11.3,10.2
		c-1,0.9-2.7,0.9-3.7,0c-1-0.9-1-2.4,0-3.4l7.1-6.5l2.2,1.2l-9.3-8.5c-0.5-0.5-0.8-1.1-0.8-1.7c0-0.6,0.3-1.2,0.8-1.7
		C469.4,197.8,471.1,197.8,472.1,198.8L472.1,198.8z"/>
	<path fill="#F7F5F5" stroke="#000000" stroke-width="0.5633" stroke-miterlimit="10" d="M463.1,199.6c-0.2-0.6-0.7-1.1-1.4-1.3
		c-1.3-0.5-2.9,0-3.5,1.2l-8.2,17.1c-0.3,0.6-0.3,1.3,0,1.8c0.2,0.6,0.7,1.1,1.4,1.3c1.3,0.5,2.9,0,3.5-1.2l8.2-17.1
		C463.3,200.8,463.3,200.2,463.1,199.6z"/>
	<path fill="#F7F5F5" stroke="#000000" stroke-width="0.5633" stroke-miterlimit="10" d="M249.4,234.8l-11.3,10.2l11.3,10.2
		c1,0.9,2.7,0.9,3.7,0c1-0.9,1-2.4,0-3.4l-7.1-6.5l-2.2,1.2l9.3-8.5c0.5-0.5,0.8-1.1,0.8-1.7c0-0.6-0.3-1.2-0.8-1.7
		C252.1,233.9,250.5,233.9,249.4,234.8L249.4,234.8z"/>
	<path fill="#F7F5F5" stroke="#000000" stroke-width="0.5633" stroke-miterlimit="10" d="M280.4,234.8l11.3,10.2l-11.3,10.2
		c-1,0.9-2.7,0.9-3.7,0c-1-0.9-1-2.4,0-3.4l7.1-6.5l2.2,1.2l-9.3-8.5c-0.5-0.5-0.8-1.1-0.8-1.7c0-0.6,0.3-1.2,0.8-1.7
		C277.7,233.9,279.4,233.9,280.4,234.8L280.4,234.8z"/>
	<path fill="#F7F5F5" stroke="#000000" stroke-width="0.5633" stroke-miterlimit="10" d="M271.4,235.7c-0.2-0.6-0.7-1.1-1.4-1.3
		c-1.3-0.5-2.9,0-3.5,1.2l-8.2,17.1c-0.3,0.6-0.3,1.3,0,1.8c0.2,0.6,0.7,1.1,1.4,1.3c1.3,0.5,2.9,0,3.5-1.2l8.2-17.1
		C271.7,236.9,271.7,236.2,271.4,235.7z"/>
	<path fill="#F7F5F5" stroke="#000000" stroke-width="0.5633" stroke-miterlimit="10" d="M532.7,124.5l-11.3,10.2l11.3,10.2
		c1,0.9,2.7,0.9,3.7,0c1-0.9,1-2.4,0-3.4l-7.1-6.5l-2.2,1.2l9.3-8.5c0.5-0.5,0.8-1.1,0.8-1.7c0-0.6-0.3-1.2-0.8-1.7
		C535.4,123.5,533.8,123.5,532.7,124.5L532.7,124.5z"/>
	<path fill="#F7F5F5" stroke="#000000" stroke-width="0.5633" stroke-miterlimit="10" d="M563.7,124.5l11.3,10.2l-11.3,10.2
		c-1,0.9-2.7,0.9-3.7,0c-1-0.9-1-2.4,0-3.4l7.1-6.5l2.2,1.2l-9.3-8.5c-0.5-0.5-0.8-1.1-0.8-1.7c0-0.6,0.3-1.2,0.8-1.7
		C561,123.5,562.7,123.5,563.7,124.5L563.7,124.5z"/>
	<path fill="#F7F5F5" stroke="#000000" stroke-width="0.5633" stroke-miterlimit="10" d="M554.7,125.3c-0.2-0.6-0.7-1.1-1.4-1.3
		c-1.3-0.5-2.9,0-3.5,1.2l-8.2,17.1c-0.3,0.6-0.3,1.3,0,1.8c0.2,0.6,0.7,1.1,1.4,1.3c1.3,0.5,2.9,0,3.5-1.2l8.2-17.1
		C555,126.5,555,125.8,554.7,125.3z"/>
</g>
</svg>
