<?xml version="1.0" encoding="utf-8"?>
<!-- Generator: Adobe Illustrator 17.1.0, SVG Export Plug-In . SVG Version: 6.00 Build 0)  -->
<!DOCTYPE svg PUBLIC "-//W3C//DTD SVG 1.1//EN" "http://www.w3.org/Graphics/SVG/1.1/DTD/svg11.dtd">
<svg version="1.1" id="Layer_1" xmlns="http://www.w3.org/2000/svg" xmlns:xlink="http://www.w3.org/1999/xlink" x="0px" y="0px"
	 viewBox="0 0 600 350" enable-background="new 0 0 600 350" xml:space="preserve">
<path d="M114.7,110.6h36.8v27.2h-17.8c0.7,1,1.2,2.1,1.7,3.2h19.3v-33.6h-43.2v21.8c1-0.3,2.1-0.5,3.2-0.6L114.7,110.6z"/>
<path d="M162.7,165.3v-3.2h36.8v27.2h-30c-0.9,1.2-1.8,2.2-2.7,3.2h35.9V159h-43.2v12.7c0.5-1.1,1-2.3,1.5-3.6
	C161.4,167.1,162,166.1,162.7,165.3L162.7,165.3z"/>
<path d="M137,149.5h2.9v-6.1h-3.7c0.5,1.8,0.8,3.7,0.8,5.6C137,149.1,137,149.3,137,149.5L137,149.5z"/>
<path d="M157.4,175.8V169h-6.1v13.6c0.6-0.2,1.3-0.7,2.4-1.7C154.5,180.1,155.8,178.6,157.4,175.8L157.4,175.8z"/>
<path d="M162,222.7h36.8v27.2H162V222.7z M158.8,253.1H202v-33.6h-43.2V253.1z"/>
<path d="M215.7,200.3h36.8v27.2h-36.8V200.3z M212.5,230.7h43.2v-33.6h-43.2V230.7z"/>
<polygon points="173.9,211.2 173.9,217.3 187.5,217.3 187.5,211.2 182.3,211.2 182.3,201.5 187.5,201.5 187.5,195.3 173.9,195.3 
	173.9,201.5 179.1,201.5 179.1,211.2 "/>
<rect x="227.3" y="188.3" width="13.6" height="6.1"/>
<path d="M303.7,195.8h-36.8v-27.2h36.8V195.8z M306.9,165.4h-43.2V199h43.2V165.4z"/>
<path d="M140.9,177.2h8.5V174h-11.2c0.4,0.6,1.1,1.4,2,2.4C140.4,176.7,140.7,177,140.9,177.2L140.9,177.2z"/>
<path d="M131.5,169.2c1.1,0.2,2.2,0.6,3.2,1.1v-12c-0.9,1.6-1.9,3.2-3.2,4.5V169.2z"/>
<polygon points="292.1,149.5 292.1,143.3 278.5,143.3 278.5,149.5 283.8,149.5 283.8,156.6 278.5,156.6 278.5,162.7 292.1,162.7 
	292.1,156.6 286.9,156.6 286.9,149.5 "/>
<polygon points="235.1,125.2 244.2,125.2 244.2,150.5 232.5,150.5 232.5,174.3 210.7,174.3 210.7,169 204.6,169 204.6,182.6 
	210.7,182.6 210.7,177.5 232.5,177.5 232.5,185.9 235.7,185.9 235.7,177.5 255.5,177.5 255.5,182.6 261.7,182.6 261.7,169 
	255.5,169 255.5,174.3 235.7,174.3 235.7,153.7 247.4,153.7 247.4,125.2 255.5,125.2 255.5,131 261.6,131 261.6,117.4 255.5,117.4 
	255.5,122 235.1,122 235.1,116.7 228.9,116.7 228.9,130.3 235.1,130.3 "/>
<path d="M223.6,137.8h-36.8v-27.2h36.8V137.8z M226.8,107.4h-43.2V141h43.2V107.4z"/>
<rect x="175.4" y="117.4" width="6.1" height="13.6"/>
<path d="M303.7,137.8h-36.8v-27.2h36.8V137.8z M306.9,107.4h-43.2V141h43.2V107.4z"/>
<rect x="157.5" y="122.8" width="16.4" height="3.2"/>
<path d="M138.4,118.5c0,6.8-10.2,6.8-10.2,0C128.2,111.7,138.4,111.7,138.4,118.5"/>
<path d="M126.8,131.3c0.1-0.3,0.2-0.6,0.4-0.8v1.1c1.8,1.1,3.4,2.4,4.8,4h7.5v-5.1c0.1,0.3,0.3,0.6,0.4,1c0.4,1,0.7,2.3,0.9,4.1h3.7
	c-0.4-3.8-1.3-6.2-2.3-7.8c-0.7-1.1-1.6-1.9-2.4-2.3c-0.5-0.3-1-0.4-1.4-0.4c-0.2-0.1-0.4-0.1-0.5-0.1l-8.8,0c-0.2,0-0.4,0-0.5,0.1
	c-0.4,0.1-0.9,0.2-1.4,0.4c-1.2,0.6-2.5,1.9-3.5,4.3c0,0,0,0,0,0C124.6,130.1,125.7,130.7,126.8,131.3L126.8,131.3z"/>
<path d="M177.2,167.7c0.9,2,1,4.2,0.3,6.2c0.9,0.9,2.2,1.4,3.5,1.4c2.8,0,5.1-2.3,5.1-5.1s-2.3-5.1-5.1-5.1c-1.7,0-3.2,0.8-4.1,2.1
	C177.1,167.4,177.2,167.5,177.2,167.7L177.2,167.7z"/>
<path d="M185.5,176.6h-8.8c-0.1,0-0.1,0-0.2,0c-1.7,4.1-3.5,7.6-5.5,10.6h2.6c0.3-2.4,0.8-4,1.3-5.1v5.1h12.3v-5.1
	c0.1,0.3,0.3,0.6,0.4,1c0.4,1,0.7,2.3,0.9,4.1h3.7c-0.4-3.8-1.3-6.2-2.3-7.8c-0.7-1.1-1.6-1.9-2.4-2.3c-0.5-0.3-1-0.4-1.4-0.4
	C185.9,176.7,185.7,176.6,185.5,176.6L185.5,176.6z"/>
<path d="M186.2,230.5c0,6.8-10.2,6.8-10.2,0C176,223.7,186.2,223.7,186.2,230.5"/>
<path d="M187.4,237.4c-0.5-0.3-1-0.4-1.4-0.4c-0.2-0.1-0.4-0.1-0.5-0.1h-8.8c-0.2,0-0.4,0-0.5,0.1c-0.4,0.1-0.9,0.2-1.4,0.4
	c-1.2,0.6-2.5,1.9-3.5,4.3c-0.6,1.5-1,3.3-1.3,5.8h3.7c0.3-2.4,0.8-4,1.3-5.1v5.1h12.3v-5.1c0.1,0.3,0.3,0.6,0.4,1
	c0.4,1,0.7,2.3,0.9,4.1h3.7c-0.4-3.8-1.3-6.2-2.3-7.8C189.1,238.6,188.2,237.8,187.4,237.4L187.4,237.4z"/>
<path d="M79.9,248.1c0.1,0,0.3,0,0.4,0c3.5-0.2,6.2-3.2,6-6.8c-0.3-5.3-0.5-10.2-0.5-14.6c0-19.4,2.8-30.3,5.6-35.9v120
	c0,5.5,4.4,9.9,9.9,9.9c5.5,0,9.9-4.4,9.9-9.9v-72.2h3.7v72.2c0,5.5,4.4,9.9,9.9,9.9c5.5,0,9.9-4.4,9.9-9.9V192
	c1.4,1.1,2.9,2.2,4.6,3.1c3,1.6,6.6,2.9,10.7,2.9h0.2c4.8,0,9.9-2.1,14-6.2c4.2-4.1,7.8-10,11-18.3c1.3-3.3-0.4-7-3.7-8.3
	c-3.3-1.3-7,0.4-8.3,3.7c-2.8,7.2-5.6,11.5-8,13.7c-2.4,2.2-3.8,2.5-5.3,2.6c-1.3,0-2.8-0.4-4.5-1.4c-2.5-1.4-5.2-3.8-7-5.9
	c-0.9-1-1.7-2-2.2-2.6c-0.2-0.3-0.4-0.6-0.5-0.8c-0.1-0.1-0.1-0.1-0.1-0.2c0,0,0,0,0,0c0,0,0,0,0,0c-1.4-2.1-3.8-3.1-6.1-2.8
	c-0.3,0-0.6-0.1-1-0.1H97.6c-0.1,0-0.3,0-0.4,0c-1.5,0-3.8,0.4-6.5,1.7c-4.3,2.1-8.9,6.8-12.2,15.1c-3.3,8.3-5.5,20.3-5.5,38.4
	c0,4.7,0.2,9.8,0.5,15.3C73.7,245.5,76.5,248.1,79.9,248.1L79.9,248.1z"/>
<path d="M134.6,148.9c0,9.9-8.1,18-18,18s-18-8.1-18-18c0-9.9,8.1-18,18-18S134.6,139,134.6,148.9"/>
<path d="M236.8,212.6v-7.3c-3.6,2.2-7.3-2.1-10.9-0.7v-0.2c0-0.3-0.2-0.5-0.5-0.5c-0.3,0-0.5,0.2-0.5,0.5V225h1.1v-12.4
	C229.6,211,233.2,215.1,236.8,212.6L236.8,212.6z"/>
<rect x="217.5" y="220.4" width="6.2" height="0.9"/>
<rect x="227.3" y="220.4" width="22.4" height="0.9"/>
<path d="M277,117.5c2,0,3.6,1.6,3.6,3.6c0,2-1.6,3.6-3.6,3.6c-2,0-3.6-1.6-3.6-3.6C273.4,119.1,275,117.5,277,117.5z M270.3,122.5
	c0.2,0.8,0.5,1.5,0.9,2.2l-1.1,1.1c0.6,0.8,1.3,1.5,2.1,2.1l1.1-1.1c0.7,0.4,1.4,0.7,2.2,0.9v1.5c0.5,0.1,1,0.1,1.5,0.1
	c0.5,0,1-0.1,1.5-0.1v-1.5c0.8-0.2,1.5-0.5,2.2-0.9l1.1,1.1c0.8-0.6,1.5-1.3,2.1-2.1l-1.1-1.1c0.4-0.7,0.7-1.4,0.9-2.2h1.5
	c0.1-0.5,0.1-1,0.1-1.5c0-0.5-0.1-1-0.1-1.5h-1.5c-0.2-0.8-0.5-1.5-0.9-2.2l1.1-1.1c-0.6-0.8-1.3-1.5-2.1-2.1l-1.1,1.1
	c-0.7-0.4-1.4-0.7-2.2-0.9l0-1.5c-0.5-0.1-1-0.1-1.5-0.1c-0.5,0-1,0.1-1.5,0.1v1.5c-0.8,0.2-1.5,0.5-2.2,0.9l-1.1-1.1
	c-0.8,0.6-1.5,1.3-2.1,2.1l1.1,1.1c-0.4,0.7-0.7,1.4-0.9,2.2h-1.5c-0.1,0.5-0.1,1-0.1,1.5c0,0.5,0.1,1,0.1,1.5L270.3,122.5z"/>
<path d="M278.7,121c0,2.3-3.5,2.3-3.5,0C275.2,118.7,278.7,118.7,278.7,121"/>
<path d="M293.6,124.1c2,0,3.6,1.6,3.6,3.6c0,2-1.6,3.6-3.6,3.6s-3.6-1.6-3.6-3.6C290,125.7,291.6,124.1,293.6,124.1z M287,129.2
	c0.2,0.8,0.5,1.5,0.9,2.2l-1.1,1.1c0.6,0.8,1.3,1.5,2.1,2.1l1.1-1.1c0.7,0.4,1.4,0.7,2.2,0.9v1.5c0.5,0.1,1,0.1,1.5,0.1
	c0.5,0,1-0.1,1.5-0.1v-1.5c0.8-0.2,1.5-0.5,2.2-0.9l1.1,1.1c0.8-0.6,1.5-1.3,2.1-2.1l-1.1-1.1c0.4-0.7,0.7-1.4,0.9-2.2h1.5
	c0.1-0.5,0.1-1,0.1-1.5c0-0.5-0.1-1-0.1-1.5h-1.5c-0.2-0.8-0.5-1.5-0.9-2.2l1.1-1.1c-0.6-0.8-1.3-1.5-2.1-2.1l-1.1,1.1
	c-0.7-0.4-1.4-0.7-2.2-0.9l0-1.5c-0.5-0.1-1-0.1-1.5-0.1c-0.5,0-1,0.1-1.5,0.1v1.5c-0.8,0.2-1.5,0.5-2.2,0.9l-1.1-1.1
	c-0.8,0.6-1.5,1.3-2.1,2.1l1.1,1.1c-0.4,0.7-0.7,1.4-0.9,2.2h-1.5c-0.1,0.5-0.1,1-0.1,1.5c0,0.5,0.1,1,0.1,1.5L287,129.2z"/>
<path d="M295.4,127.7c0,2.3-3.5,2.3-3.5,0C291.9,125.4,295.4,125.4,295.4,127.7"/>
<path d="M294.6,182.3l-1.4,1.1l-2.3-1.3l-3,2.4l-1.8-2.1l4.3-7.5L294.6,182.3z M290.6,192.6l0.4,0.6h11.4l-12-20.8l-5.7,9.9
	L290.6,192.6z"/>
<path d="M283,184l-1.2,1l-2-1.1l-2.5,2l-1.6-1.7l3.6-6.3L283,184z M279.4,175.7l-10.1,17.5h20.2L279.4,175.7z"/>
<path d="M201.8,123.2c1.3,0,2.3,1,2.3,2.3s-1,2.3-2.3,2.3c-1.3,0-2.3-1-2.3-2.3S200.5,123.2,201.8,123.2z M208.6,130.6v1.3h-6.7
	v-1.3H208.6z M208.7,123.2c1.3,0,2.3,1,2.3,2.3s-1,2.3-2.3,2.3s-2.3-1-2.3-2.3S207.4,123.2,208.7,123.2z M197.2,134.7h16v-5h2.8
	v-6.1h-2.8v-4.8h-7.1v-1.5c0.8-0.3,1.3-1.1,1.3-2c0-1.2-1-2.2-2.2-2.2s-2.2,1-2.2,2.2c0,0.9,0.5,1.6,1.3,2v1.5h-7.1v4.8h-2.8v6.1
	h2.8L197.2,134.7z"/>
<path d="M395.4,119.9c-0.2,0.2-0.4,0.4-0.7,0.5c-0.6,0.1-1.3-0.3-1.4-0.9c-0.5-2.4-0.7-4.8-0.6-7.3c0-0.7,0.6-1.2,1.2-1.1
	c0.7,0,1.2,0.6,1.1,1.2c-0.1,2.2,0.1,4.5,0.5,6.7C395.7,119.3,395.6,119.6,395.4,119.9L395.4,119.9z"/>
<text transform="matrix(1 0 0 1 178.0926 151.3418)" font-family="'MyriadPro-Regular'" font-size="10">Blockbuster</text>
<text transform="matrix(1 0 0 1 157.5618 263.3934)" font-family="'MyriadPro-Regular'" font-size="10">Blackberry</text>
<text transform="matrix(0.9995 -3.024000e-02 3.024000e-02 0.9995 209.2355 241.8723)" font-family="'MyriadPro-Regular'" font-size="10">Radio Shack</text>
<text transform="matrix(1 0 0 1 268.4667 209.3418)" font-family="'MyriadPro-Regular'" font-size="10">Borders</text>
<path d="M449.2,257.6c0,6.5-9.8,6.5-9.8,0C439.4,251.1,449.2,251.1,449.2,257.6"/>
<path d="M496.5,300.4c1.5-0.5,4.5-0.7,1.1-2.1c-3.5-1.4-6.5-4.1-5.1-4c1.3,0.2,1.7,2.9,2.7,0c1-2.9-2.4-14.6-6.2-15.6
	c-3.8-1-4.8-3.1-6-4.6c-1.2-1.5-2.8,2.2-4,1.2c-1.2-1-1-4-3.4-2.2c-2.4,1.8-2.2,5.4-4,3.6c-1.7-1.8-2.4-1.6-2.9-0.8
	c-0.5,0.9-1.2,1.7-2.1,1.9s-5.7,0.4-2.4,1.9c3.3,1.5,14.1,7.2,16,10.3c1.9,3.1,5.5,12.2,5.5,12.2c1.4,4,14.3,4.1,11.5,0
	c-0.6-1-1.1-1.5-1.4-1.9C496,300.5,496.2,300.5,496.5,300.4L496.5,300.4z"/>
<path d="M482.4,297.1v5.7c0,0.6,0.5,1.1,1.1,1.1h2c-0.3-0.4-0.6-0.8-0.8-1.2C484.7,302.6,483.6,300,482.4,297.1L482.4,297.1z"/>
<path d="M431.2,278.8c0.2-0.2,0.3-0.5,0.4-0.8c1.1-6.3-6.6,1.8-15.5-6.9c-0.6-0.6-1-0.3-1.2,0.5v6.4c0.4,0.1,1.7,0.4,3.3,0.7
	L431.2,278.8z"/>
<path d="M438.9,271.1v3.9l-1.1-1.2L438.9,271.1z M449.8,269.8l1.7,4l-1.7,1.8V269.8z M463.7,280.8c-0.3-0.2-1-0.5-1.4-0.9l-5.8,0
	h-2.1l0.2-1c0.1-0.8-0.2-1.7-0.7-2.4c0.7-0.8,0.6-1.6,0.5-1.9l-1.9-9.7c-0.7-1.8-2.2-2.1-2.9-1.9l-1.5,0.4c0,0,0,0-0.1,0
	c-1,0-2.3,0.3-3.7,0.3c-1.2,0-2.2-0.2-3.1-0.3c0,0-0.1,0-0.1-0.1l-1.5-0.4c-0.7-0.2-2.2,0.1-2.9,1.9l-1.9,9.7
	c-0.1,0.3-0.1,0.9,0.3,1.5c-0.7,0.8-1.1,1.9-1,2.8l0.2,1h-1.9l-18.5,0l0-16.7c0-0.6-0.5-1.1-1.1-1.1h-2.4c-0.6,0-1.1,0.5-1.1,1.1
	v39.6c0,0.6,0.5,1.1,1.1,1.1h2.4c0.6,0,1.1-0.5,1.1-1.1v-17.2c0-0.6,0.5-1.1,1.1-1.1h20l2.7,16.6c0.2,1.4,0.8,3.5,2.2,3.3
	c1.4-0.2,1.6-1.6,1.4-3l-0.5-16.9h7.4l-0.5,16.9c-0.2,1.4,0,2.8,1.4,3c1.4,0.2,2-1.9,2.2-3.3l2.7-16.6h17.2
	C468.1,282.9,465.4,281.5,463.7,280.8L463.7,280.8z"/>
<path fill="#EAEAEA" d="M543,208.2h-78.2c-6.6,0-12,5.4-12,12v0.1c0,4,2,7.5,4.9,9.7c-1.8,10-8.2,23.9-8.2,23.9
	c3.1-7.6,12.6-9.9,22.1-19.8c0.6-0.6,1.2-1.3,1.8-1.9H543c6.6,0,12-5.4,12-12v-0.1C555,213.6,549.6,208.2,543,208.2z"/>
<text transform="matrix(1 0 0 1 458.1717 224.0728)" font-family="'MyriadPro-Regular'" font-size="12">“what happened?”</text>
<g>
	<path d="M434.9,88c0,0.1-0.1,0.2-0.1,0.2c-0.3,0.4-0.9,0.6-1.4,0.4c-2.1-0.9-4.2-1.5-6.5-1.9c-0.6-0.1-1.1-0.7-1-1.4
		c0.1-0.6,0.7-1.1,1.4-1c2.4,0.4,4.8,1.1,7,2C434.8,86.7,435.1,87.4,434.9,88L434.9,88z"/>
	<path d="M412.8,85.6c2.3-0.8,4.7-1.3,7.2-1.5c0.7-0.1,1.2,0.4,1.3,1.1c0,0.3-0.1,0.6-0.2,0.8c-0.2,0.3-0.5,0.4-0.9,0.5
		c-2.2,0.2-4.5,0.6-6.6,1.3c-0.6,0.2-1.3-0.1-1.5-0.8C411.8,86.4,412.1,85.8,412.8,85.6L412.8,85.6z"/>
	<path d="M401.7,131.2c0.4,0.4,0.3,1,0,1.5c-0.1,0.1-0.1,0.1-0.2,0.2c-0.5,0.4-1.3,0.3-1.7-0.2c-1.5-1.9-2.9-4-3.9-6.2
		c-0.3-0.6,0-1.3,0.6-1.6c0.6-0.3,1.3,0,1.6,0.6C399.1,127.6,400.3,129.5,401.7,131.2L401.7,131.2z"/>
	<path d="M401.5,95c-0.5-0.5-0.5-1.2,0-1.7c1.7-1.8,3.6-3.3,5.7-4.6c0.6-0.3,1.3-0.2,1.6,0.4c0.3,0.4,0.2,1-0.1,1.3
		c-0.1,0.1-0.2,0.2-0.3,0.3c-1.9,1.2-3.7,2.6-5.2,4.3C402.8,95.4,402,95.4,401.5,95L401.5,95z"/>
	<path d="M399.2,99.6c-1.1,1.9-2,4-2.6,6.2c0,0.1-0.1,0.3-0.2,0.4c-0.3,0.4-0.8,0.6-1.3,0.4c-0.6-0.2-1-0.8-0.8-1.5
		c0.7-2.3,1.6-4.6,2.9-6.7c0.3-0.6,1.1-0.8,1.6-0.4C399.3,98.3,399.5,99.1,399.2,99.6L399.2,99.6z"/>
	<path d="M440.1,92c-0.5-0.4-0.6-1.1-0.2-1.7l0,0c0.4-0.5,1.1-0.6,1.6-0.2c1.2,0.9,2.3,1.9,3.3,2.9l3.7-5l0.4,10.1l-9,1.3l3.4-4.6
		C442.4,93.9,441.3,92.9,440.1,92L440.1,92z"/>
	<path d="M417.6,142.2c0.1-0.6,0.7-1.1,1.4-1c2.2,0.4,4.5,0.4,6.7,0.3c0.7-0.1,1.2,0.4,1.3,1.1c0,0.3-0.1,0.6-0.2,0.8
		c-0.2,0.3-0.5,0.4-0.9,0.5c-2.4,0.2-4.9,0.1-7.3-0.3C417.9,143.4,417.5,142.8,417.6,142.2L417.6,142.2z"/>
	<path d="M443.7,133c0.8-0.8,1.7-1.6,2.3-2.5c0,0,0,0,0,0c0.7-0.9,1.1-1.9,1.7-2.9c0.3-0.6,0.9-0.9,1.5-0.5c0.6,0.3,0.8,1.1,0.5,1.6
		c-0.6,1-1.2,2.1-2,3.1c0,0,0,0,0,0c-0.7,1-1.5,1.9-2.4,2.8c-0.5,0.5-1.2,0.5-1.7,0C443.2,134.2,443.2,133.5,443.7,133L443.7,133z"
		/>
	<path d="M405.6,137.3l-0.1-0.1c-0.5-0.4-0.7-1-0.3-1.6c0.4-0.5,1.1-0.5,1.6-0.1l0.1,0.1c1.8,1.4,3.6,2.7,5.7,3.5
		c0.6,0.3,0.8,1.1,0.5,1.7c0,0.1-0.1,0.2-0.1,0.3c-0.3,0.4-0.7,0.3-1.2,0.1C409.5,140.3,407.6,138.8,405.6,137.3L405.6,137.3z"/>
	<path d="M432.3,140.1c2.1-0.7,4.2-1.7,6.1-2.9c0.6-0.4,1.3-0.2,1.6,0.4c0.3,0.4,0.2,1-0.1,1.3c-0.1,0.1-0.2,0.2-0.3,0.3
		c-2.1,1.3-4.3,2.4-6.6,3.1c-0.6,0.2-1.3-0.1-1.5-0.7C431.3,141,431.6,140.3,432.3,140.1L432.3,140.1z"/>
	<path d="M424.1,108V97.2c0-0.7-0.4-1.2-1-1.2c-0.7,0-1,0.5-1,1.2v10.9c0-0.1,0.8-0.2,1.2-0.2C423.5,107.9,423.4,107.9,424.1,108
		L424.1,108z"/>
	<path d="M443.6,111.2h-16.2c0.1,0.7,0.1,0.9,0.1,1.2c0,0.5-0.1,0.9-0.2,1.6h16.3c0.7,0,1.2-0.7,1.2-1.4
		C444.8,112,444.2,111.2,443.6,111.2L443.6,111.2z"/>
	<path d="M425.6,111.4c-0.3-0.7-0.9-1.3-1.6-1.6c-0.3-0.1-0.6-0.2-1-0.2c-0.5,0-1,0.1-1.4,0.4c-0.8,0.5-1.4,1.4-1.4,2.4
		c0,1.5,1.2,2.8,2.8,2.8c1,0,1.9-0.6,2.4-1.4c0.2-0.4,0.4-0.9,0.4-1.4C425.8,112.1,425.7,111.7,425.6,111.4L425.6,111.4z"/>
	<text transform="matrix(1 0 0 1 398.9085 165.4137)"><tspan x="0" y="0" font-family="'MyriadPro-Regular'" font-size="12">tomorrow’s </tspan><tspan x="0" y="14.4" font-family="'MyriadPro-Regular'" font-size="12">market</tspan></text>
</g>
<path d="M504.1,84.2c0-1.9,1.6-3.5,3.6-3.5c2,0,3.6,1.6,3.6,3.5s-1.6,3.5-3.6,3.5C505.7,87.7,504.1,86.1,504.1,84.2z M512.8,84.2
	c0-2.8-2.3-5.2-5.2-5.2s-5.2,2.3-5.2,5.2c0,2.8,2.3,5.2,5.2,5.2S512.8,87,512.8,84.2z"/>
<path d="M485.6,92.2c0-0.9,0.4-1.8,1-2.5c0.7-0.7,1.6-1,2.5-1h0c0.9,0,1.8,0.4,2.5,1c0.7,0.7,1,1.6,1,2.5c0,0.9-0.4,1.8-1,2.5
	c-0.7,0.7-1.6,1-2.5,1h0c-0.9,0-1.8-0.4-2.5-1C486,94,485.6,93.1,485.6,92.2z M489.2,97.3c1.4,0,2.7-0.5,3.7-1.5s1.5-2.3,1.5-3.7
	c0-1.4-0.5-2.7-1.5-3.6c-1-1-2.3-1.5-3.6-1.5h0c-1.4,0-2.7,0.5-3.7,1.5c-1,1-1.5,2.3-1.5,3.7c0,1.4,0.5,2.7,1.5,3.6
	C486.5,96.8,487.8,97.3,489.2,97.3L489.2,97.3z"/>
<path d="M481.2,108c1.9,0,3.5,1.6,3.5,3.6c0,2-1.6,3.6-3.5,3.6c-1.9,0-3.5-1.6-3.5-3.6C477.6,109.6,479.2,108,481.2,108z
	 M481.2,116.7c2.8,0,5.2-2.3,5.2-5.2s-2.3-5.2-5.2-5.2c-2.8,0-5.2,2.3-5.2,5.2S478.3,116.7,481.2,116.7z"/>
<path d="M486.7,128.4c0.7-0.7,1.5-1,2.5-1h0c0.9,0,1.8,0.4,2.5,1c0.7,0.7,1,1.6,1,2.5c0,0.9-0.4,1.8-1,2.5c-0.7,0.7-1.5,1-2.5,1h0
	c-0.9,0-1.8-0.4-2.5-1c-0.7-0.7-1-1.6-1-2.5C485.6,129.9,486,129,486.7,128.4z M484,130.9c0,1.4,0.5,2.7,1.5,3.7
	c1,1,2.3,1.5,3.7,1.5h0c1.4,0,2.7-0.5,3.6-1.5c1-1,1.5-2.3,1.5-3.6c0-1.4-0.5-2.7-1.5-3.7c-1-1-2.3-1.5-3.7-1.5h0
	c-1.4,0-2.7,0.5-3.6,1.5C484.5,128.2,484,129.5,484,130.9z"/>
<path d="M508.5,142.4c-2,0-3.6-1.6-3.6-3.5s1.6-3.5,3.6-3.5s3.6,1.6,3.6,3.5S510.5,142.4,508.5,142.4z M508.5,133.7
	c-2.9,0-5.2,2.3-5.2,5.2c0,2.8,2.3,5.2,5.2,5.2s5.2-2.3,5.2-5.2C513.7,136,511.4,133.7,508.5,133.7z"/>
<path d="M531.4,130.9c0,0.9-0.4,1.8-1,2.5c-0.7,0.7-1.6,1-2.5,1h0c-0.9,0-1.8-0.4-2.5-1c-0.7-0.7-1-1.6-1-2.5c0-0.9,0.4-1.8,1-2.5
	c0.7-0.7,1.6-1,2.5-1h0c0.9,0,1.8,0.4,2.5,1C531,129,531.4,129.9,531.4,130.9z M527.9,125.7c-1.4,0-2.7,0.5-3.7,1.5
	c-1,1-1.5,2.3-1.5,3.7s0.5,2.7,1.5,3.6c1,1,2.3,1.5,3.6,1.5h0c1.4,0,2.7-0.5,3.7-1.5c1-1,1.5-2.3,1.5-3.7c0-1.4-0.5-2.7-1.5-3.6
	C530.6,126.2,529.3,125.7,527.9,125.7L527.9,125.7z"/>
<path d="M537.7,115.1c-1.9,0-3.5-1.6-3.5-3.6s1.6-3.6,3.5-3.6c1.9,0,3.5,1.6,3.5,3.6S539.6,115.1,537.7,115.1z M537.7,106.3
	c-2.8,0-5.2,2.3-5.2,5.2c0,2.9,2.3,5.2,5.2,5.2s5.2-2.3,5.2-5.2C542.8,108.7,540.5,106.3,537.7,106.3z"/>
<path d="M530.4,94.7c-0.7,0.7-1.5,1-2.5,1h0c-0.9,0-1.8-0.4-2.5-1c-0.7-0.7-1-1.6-1-2.5c0-0.9,0.4-1.8,1-2.5c0.7-0.7,1.5-1,2.5-1h0
	c0.9,0,1.8,0.4,2.5,1c0.7,0.7,1,1.6,1,2.5C531.4,93.1,531,94,530.4,94.7z M533,92.2c0-1.4-0.5-2.7-1.5-3.7c-1-1-2.3-1.5-3.7-1.5h0
	c-1.4,0-2.7,0.5-3.6,1.5c-1,1-1.5,2.3-1.5,3.6c0,1.4,0.5,2.7,1.5,3.7c1,1,2.3,1.5,3.7,1.5h0c1.4,0,2.7-0.5,3.6-1.5
	C532.5,94.9,533,93.6,533,92.2z"/>
<path d="M521.7,88c0.2-0.4,0.1-0.9-0.3-1.1c-1.8-1-3.7-1.8-5.7-2.4c-0.4-0.1-0.9,0.1-1,0.5s0.1,0.9,0.5,1c1.8,0.6,3.6,1.3,5.3,2.2
	c0.1,0.1,0.3,0.1,0.4,0.1C521.2,88.4,521.5,88.3,521.7,88L521.7,88z"/>
<path d="M500,84.4c-2,0.6-3.9,1.3-5.7,2.3c-0.4,0.2-0.5,0.7-0.3,1.1c0.1,0.3,0.4,0.4,0.7,0.4c0.1,0,0.3,0,0.4-0.1
	c1.7-0.9,3.5-1.7,5.4-2.2c0.4-0.1,0.7-0.6,0.6-1S500.4,84.3,500,84.4L500,84.4z"/>
<path d="M485.1,97.4c-0.4-0.2-0.9-0.1-1.1,0.3c-1,1.8-1.8,3.7-2.4,5.7c-0.1,0.4,0.1,0.9,0.5,1c0.1,0,0.2,0,0.2,0
	c0.3,0,0.7-0.2,0.8-0.6c0.6-1.8,1.3-3.6,2.2-5.3C485.6,98.1,485.5,97.6,485.1,97.4L485.1,97.4z"/>
<path d="M483,118.6c-0.1-0.4-0.6-0.7-1-0.6c-0.4,0.1-0.7,0.6-0.6,1c0.6,2,1.3,3.9,2.3,5.7c0.1,0.3,0.4,0.4,0.7,0.4
	c0.1,0,0.3,0,0.4-0.1c0.4-0.2,0.5-0.7,0.3-1.1C484.3,122.3,483.6,120.5,483,118.6L483,118.6z"/>
<path d="M494.5,134.8c-0.2,0.4-0.1,0.9,0.3,1.1c1.8,1,3.7,1.8,5.7,2.4c0.1,0,0.2,0,0.2,0c0.3,0,0.7-0.2,0.8-0.6
	c0.1-0.4-0.1-0.9-0.5-1c-1.8-0.6-3.6-1.3-5.3-2.2C495.2,134.3,494.7,134.4,494.5,134.8L494.5,134.8z"/>
<path d="M521.1,134.7c-1.7,0.9-3.5,1.7-5.4,2.2c-0.4,0.1-0.7,0.6-0.6,1c0.1,0.4,0.4,0.6,0.8,0.6c0.1,0,0.1,0,0.2,0
	c2-0.6,3.9-1.3,5.7-2.3c0.4-0.2,0.5-0.7,0.3-1.1C522,134.6,521.5,134.5,521.1,134.7L521.1,134.7z"/>
<path d="M536.7,118.5c-0.4-0.1-0.9,0.1-1,0.5c-0.6,1.8-1.3,3.6-2.2,5.3c-0.2,0.4-0.1,0.9,0.3,1.1c0.1,0.1,0.3,0.1,0.4,0.1
	c0.3,0,0.6-0.1,0.7-0.4c1-1.8,1.8-3.7,2.4-5.7C537.3,119,537.1,118.6,536.7,118.5L536.7,118.5z"/>
<path d="M535.8,104.2c0.1,0.4,0.4,0.6,0.8,0.6c0.1,0,0.1,0,0.2,0c0.4-0.1,0.7-0.6,0.6-1c-0.6-2-1.3-3.9-2.3-5.7
	c-0.2-0.4-0.7-0.5-1.1-0.3c-0.4,0.2-0.5,0.7-0.3,1.1C534.5,100.6,535.3,102.4,535.8,104.2L535.8,104.2z"/>
<path d="M508,97.5c2.3-0.1,4.6,0.7,6.2,2.2c1.7,1.6,2.6,3.8,2.6,6.1c0,2.1-0.8,4.1-2.2,5.7c-1.5,1.6-2.3,3.6-2.5,5.8h-7.2
	c-0.2-2.2-1-4.3-2.5-5.8c-1.5-1.6-2.3-3.8-2.2-6C500.3,101.3,503.8,97.8,508,97.5L508,97.5z M510.1,125.7H507
	c-0.6,0-1.1-0.5-1.1-1.1v-0.8h5.2v0.8C511.2,125.2,510.7,125.7,510.1,125.7L510.1,125.7z M512.7,119v2.9c0,0.1-0.1,0.2-0.2,0.2h-7.8
	c-0.1,0-0.2-0.1-0.2-0.2V119H512.7z M498.6,105.4c-0.1,2.7,0.9,5.2,2.7,7.2c1.2,1.3,1.9,2.9,2.1,4.8c-0.3,0.1-0.6,0.4-0.6,0.8v3.7
	c0,0.9,0.7,1.7,1.6,1.8v0.9c0,1.5,1.2,2.7,2.7,2.7h3.1c1.5,0,2.7-1.2,2.7-2.7v-0.9c0.8-0.2,1.5-0.9,1.5-1.8v-3.7
	c0-0.4-0.2-0.7-0.6-0.8c0.2-1.8,0.9-3.5,2.1-4.8c1.7-1.8,2.7-4.3,2.7-6.8c0-2.7-1.1-5.4-3.1-7.3c-2-1.9-4.7-2.9-7.5-2.7
	C502.9,96.2,498.8,100.4,498.6,105.4L498.6,105.4z"/>
<text transform="matrix(1 0 0 1 482.2455 164.4138)"><tspan x="0" y="0" font-family="'MyriadPro-Regular'" font-size="12">continuous</tspan><tspan x="0" y="14.4" font-family="'MyriadPro-Regular'" font-size="12">innovation</tspan></text>
<g>
	<path fill="none" stroke="#000000" stroke-width="0.8794" stroke-miterlimit="10" d="M367.9,82.9c-4.6,0.2-7.5,4.9-8.9,9.3
		c-4,12.5-1.9,26.3-4.9,39.1c-1.5,6.6-5.6,13.9-12.3,14.5"/>
	<path fill="none" stroke="#000000" stroke-width="0.9337" stroke-miterlimit="10" d="M367.9,216.9c-4.6-0.2-7.5-5.6-8.9-10.5
		c-4-14.1-1.9-29.6-4.9-44.1c-1.5-7.5-5.6-15.7-12.3-16.4"/>
</g>
</svg>
