<?xml version="1.0" encoding="utf-8"?>
<!-- Generator: Adobe Illustrator 17.1.0, SVG Export Plug-In . SVG Version: 6.00 Build 0)  -->
<!DOCTYPE svg PUBLIC "-//W3C//DTD SVG 1.1//EN" "http://www.w3.org/Graphics/SVG/1.1/DTD/svg11.dtd">
<svg version="1.1" id="Layer_1" xmlns="http://www.w3.org/2000/svg" xmlns:xlink="http://www.w3.org/1999/xlink" x="0px" y="0px"
	 viewBox="0 0 600 350" enable-background="new 0 0 600 350" xml:space="preserve">
<g>
	<path d="M41.5,269H27.9v-16.9h8.8v4.4c0,0.2,0.1,0.3,0.3,0.3l4.6,0L41.5,269z M37.2,252.5l3.9,3.7l-3.9,0V252.5z M42,256.4
		C42,256.4,42,256.3,42,256.4l-4.9-4.7c0,0-0.1-0.1-0.1-0.1H37h-9.3c-0.2,0-0.3,0.1-0.3,0.3v17.4c0,0.2,0.1,0.3,0.3,0.3h14.2
		c0.2,0,0.3-0.1,0.3-0.3v-1.1l0-11.7C42.1,256.5,42.1,256.4,42,256.4L42,256.4z"/>
	<path d="M39.6,260.5h-2.2v-2h2.2L39.6,260.5z M39.8,258.1h-2.6c-0.1,0-0.2,0.1-0.2,0.2v2.4c0,0.1,0.1,0.2,0.2,0.2h2.6
		c0.1,0,0.2-0.1,0.2-0.2l0-2.4C40,258.2,39.9,258.1,39.8,258.1L39.8,258.1z"/>
	<path d="M38,260.1c0,0,0.1,0.1,0.1,0.1h0c0,0,0.1,0,0.1-0.1l1.1-1c0.1-0.1,0.1-0.2,0-0.3c-0.1-0.1-0.2-0.1-0.3,0l-0.9,0.8l-0.3-0.4
		c-0.1-0.1-0.2-0.1-0.3-0.1c-0.1,0.1-0.1,0.2-0.1,0.3L38,260.1z"/>
	<path d="M39.6,263.7h-2.2v-2h2.2L39.6,263.7z M39.8,261.3h-2.6c-0.1,0-0.2,0.1-0.2,0.2v2.4c0,0.1,0.1,0.2,0.2,0.2h2.6
		c0.1,0,0.2-0.1,0.2-0.2l0-2.4C40,261.4,39.9,261.3,39.8,261.3L39.8,261.3z"/>
	<path d="M38,263.1c0,0,0.1,0.1,0.1,0.1h0c0,0,0.1,0,0.1-0.1l1.1-1c0.1-0.1,0.1-0.2,0-0.3c-0.1-0.1-0.2-0.1-0.3,0l-0.9,0.8l-0.3-0.4
		c-0.1-0.1-0.2-0.1-0.3-0.1c-0.1,0.1-0.1,0.2-0.1,0.3L38,263.1z"/>
	<path d="M39.6,267h-2.2v-2h2.2L39.6,267z M39.8,264.7h-2.6c-0.1,0-0.2,0.1-0.2,0.2v2.4c0,0.1,0.1,0.2,0.2,0.2h2.6
		c0.1,0,0.2-0.1,0.2-0.2l0-2.4C40,264.7,39.9,264.7,39.8,264.7L39.8,264.7z"/>
	<path d="M38,266.5c0,0,0.1,0.1,0.1,0.1h0c0,0,0.1,0,0.1-0.1l1.1-1c0.1-0.1,0.1-0.2,0-0.3c-0.1-0.1-0.2-0.1-0.3,0l-0.9,0.8l-0.3-0.4
		c-0.1-0.1-0.2-0.1-0.3-0.1s-0.1,0.2-0.1,0.3L38,266.5z"/>
	<path d="M29.6,257.7c0-0.8,0.6-1.4,1.4-1.4h1.9c0.8,0,1.4,0.6,1.4,1.4v0.6h-4.6L29.6,257.7z M31.9,253.2c0.6,0,1.1,0.5,1.1,1.1
		s-0.5,1.1-1.1,1.1c-0.6,0-1.1-0.5-1.1-1.1C30.8,253.7,31.3,253.2,31.9,253.2z M29.3,258.8h5.2c0.2,0,0.3-0.1,0.3-0.3v-0.8
		c0-1.1-0.9-1.9-1.9-1.9h0c0.5-0.3,0.8-0.8,0.8-1.4c0-0.9-0.8-1.7-1.7-1.7c-0.9,0-1.7,0.8-1.7,1.7c0,0.6,0.3,1.1,0.8,1.4H31
		c-1.1,0-1.9,0.9-1.9,1.9v0.8C29.1,258.7,29.2,258.8,29.3,258.8L29.3,258.8z"/>
	<path d="M29.4,259.9c-0.2,0-0.3,0.1-0.3,0.3c0,0.2,0.1,0.3,0.3,0.3l5.3,0c0.2,0,0.3-0.1,0.3-0.3c0-0.2-0.1-0.3-0.3-0.3L29.4,259.9z
		"/>
	<path d="M34.7,261.7h-5.3c-0.2,0-0.3,0.1-0.3,0.3c0,0.2,0.1,0.3,0.3,0.3l5.3,0c0.2,0,0.3-0.1,0.3-0.3
		C35,261.9,34.9,261.7,34.7,261.7L34.7,261.7z"/>
	<path d="M34.9,263.6h-5.6c-0.1,0-0.1,0.1-0.1,0.3c0,0.2,0.1,0.3,0.1,0.3l5.6,0c0.1,0,0.1-0.1,0.1-0.3C35,263.7,35,263.6,34.9,263.6
		L34.9,263.6z"/>
	<path d="M34.9,265.5h-5.6c-0.1,0-0.1,0.1-0.1,0.3c0,0.2,0.1,0.3,0.1,0.3l5.6,0c0.1,0,0.1-0.1,0.1-0.3C35,265.6,35,265.5,34.9,265.5
		L34.9,265.5z"/>
	<path d="M34.9,267.4h-5.6c-0.1,0-0.1,0.1-0.1,0.3c0,0.2,0.1,0.3,0.1,0.3l5.6,0c0.1,0,0.1-0.1,0.1-0.3C35,267.5,35,267.4,34.9,267.4
		z"/>
</g>
<g>
	<path d="M63.1,269H49.5v-16.9h8.8v4.4c0,0.2,0.1,0.3,0.3,0.3l4.6,0L63.1,269z M58.8,252.5l3.9,3.7l-3.9,0V252.5z M63.6,256.4
		C63.6,256.4,63.6,256.3,63.6,256.4l-4.9-4.7c0,0-0.1-0.1-0.1-0.1h-0.1h-9.3c-0.2,0-0.3,0.1-0.3,0.3v17.4c0,0.2,0.1,0.3,0.3,0.3
		h14.2c0.2,0,0.3-0.1,0.3-0.3v-1.1l0-11.7C63.6,256.5,63.6,256.4,63.6,256.4L63.6,256.4z"/>
	<path d="M61.2,260.5h-2.2v-2h2.2L61.2,260.5z M61.4,258.1h-2.6c-0.1,0-0.2,0.1-0.2,0.2v2.4c0,0.1,0.1,0.2,0.2,0.2h2.6
		c0.1,0,0.2-0.1,0.2-0.2l0-2.4C61.5,258.2,61.5,258.1,61.4,258.1L61.4,258.1z"/>
	<path d="M59.6,260.1c0,0,0.1,0.1,0.1,0.1h0c0,0,0.1,0,0.1-0.1l1.1-1c0.1-0.1,0.1-0.2,0-0.3c-0.1-0.1-0.2-0.1-0.3,0l-0.9,0.8
		l-0.3-0.4c-0.1-0.1-0.2-0.1-0.3-0.1c-0.1,0.1-0.1,0.2-0.1,0.3L59.6,260.1z"/>
	<path d="M61.2,263.7h-2.2v-2h2.2L61.2,263.7z M61.4,261.3h-2.6c-0.1,0-0.2,0.1-0.2,0.2v2.4c0,0.1,0.1,0.2,0.2,0.2h2.6
		c0.1,0,0.2-0.1,0.2-0.2l0-2.4C61.6,261.4,61.5,261.3,61.4,261.3L61.4,261.3z"/>
	<path d="M59.6,263.1c0,0,0.1,0.1,0.1,0.1h0c0,0,0.1,0,0.1-0.1l1.1-1c0.1-0.1,0.1-0.2,0-0.3c-0.1-0.1-0.2-0.1-0.3,0l-0.9,0.8
		l-0.3-0.4c-0.1-0.1-0.2-0.1-0.3-0.1c-0.1,0.1-0.1,0.2-0.1,0.3L59.6,263.1z"/>
	<path d="M61.2,267h-2.2v-2h2.2L61.2,267z M61.4,264.7h-2.6c-0.1,0-0.2,0.1-0.2,0.2v2.4c0,0.1,0.1,0.2,0.2,0.2h2.6
		c0.1,0,0.2-0.1,0.2-0.2l0-2.4C61.6,264.7,61.5,264.7,61.4,264.7L61.4,264.7z"/>
	<path d="M59.5,266.5c0,0,0.1,0.1,0.1,0.1h0c0,0,0.1,0,0.1-0.1l1.1-1c0.1-0.1,0.1-0.2,0-0.3c-0.1-0.1-0.2-0.1-0.3,0l-0.9,0.8
		l-0.3-0.4c-0.1-0.1-0.2-0.1-0.3-0.1s-0.1,0.2-0.1,0.3L59.5,266.5z"/>
	<path d="M51.2,257.7c0-0.8,0.6-1.4,1.4-1.4h1.9c0.8,0,1.4,0.6,1.4,1.4v0.6h-4.6L51.2,257.7z M53.5,253.2c0.6,0,1.1,0.5,1.1,1.1
		s-0.5,1.1-1.1,1.1c-0.6,0-1.1-0.5-1.1-1.1C52.4,253.7,52.9,253.2,53.5,253.2z M50.9,258.8h5.2c0.2,0,0.3-0.1,0.3-0.3v-0.8
		c0-1.1-0.9-1.9-1.9-1.9h0c0.5-0.3,0.8-0.8,0.8-1.4c0-0.9-0.8-1.7-1.7-1.7c-0.9,0-1.7,0.8-1.7,1.7c0,0.6,0.3,1.1,0.8,1.4h-0.1
		c-1.1,0-1.9,0.9-1.9,1.9v0.8C50.6,258.7,50.8,258.8,50.9,258.8L50.9,258.8z"/>
	<path d="M51,259.9c-0.2,0-0.3,0.1-0.3,0.3c0,0.2,0.1,0.3,0.3,0.3l5.3,0c0.2,0,0.3-0.1,0.3-0.3c0-0.2-0.1-0.3-0.3-0.3L51,259.9z"/>
	<path d="M56.3,261.7H51c-0.2,0-0.3,0.1-0.3,0.3c0,0.2,0.1,0.3,0.3,0.3l5.3,0c0.2,0,0.3-0.1,0.3-0.3
		C56.5,261.9,56.4,261.7,56.3,261.7L56.3,261.7z"/>
	<path d="M56.5,263.6h-5.6c-0.1,0-0.1,0.1-0.1,0.3c0,0.2,0.1,0.3,0.1,0.3l5.6,0c0.1,0,0.1-0.1,0.1-0.3
		C56.6,263.7,56.6,263.6,56.5,263.6L56.5,263.6z"/>
	<path d="M56.5,265.5h-5.6c-0.1,0-0.1,0.1-0.1,0.3c0,0.2,0.1,0.3,0.1,0.3l5.6,0c0.1,0,0.1-0.1,0.1-0.3
		C56.6,265.6,56.6,265.5,56.5,265.5L56.5,265.5z"/>
	<path d="M56.5,267.4h-5.6c-0.1,0-0.1,0.1-0.1,0.3c0,0.2,0.1,0.3,0.1,0.3l5.6,0c0.1,0,0.1-0.1,0.1-0.3
		C56.6,267.5,56.6,267.4,56.5,267.4z"/>
</g>
<path d="M84.7,269H71v-16.9h8.8v4.4c0,0.2,0.1,0.3,0.3,0.3l4.6,0L84.7,269z M80.4,252.5l3.9,3.7l-3.9,0V252.5z M85.2,256.4
	C85.2,256.4,85.2,256.3,85.2,256.4l-4.9-4.7c0,0-0.1-0.1-0.1-0.1h-0.1h-9.3c-0.2,0-0.3,0.1-0.3,0.3v17.4c0,0.2,0.1,0.3,0.3,0.3h14.2
	c0.2,0,0.3-0.1,0.3-0.3v-1.1l0-11.7C85.2,256.5,85.2,256.4,85.2,256.4L85.2,256.4z"/>
<path d="M82.7,260.5h-2.2v-2h2.2L82.7,260.5z M82.9,258.1h-2.6c-0.1,0-0.2,0.1-0.2,0.2v2.4c0,0.1,0.1,0.2,0.2,0.2h2.6
	c0.1,0,0.2-0.1,0.2-0.2l0-2.4C83.1,258.2,83,258.1,82.9,258.1L82.9,258.1z"/>
<path d="M81.2,260.1c0,0,0.1,0.1,0.1,0.1h0c0,0,0.1,0,0.1-0.1l1.1-1c0.1-0.1,0.1-0.2,0-0.3c-0.1-0.1-0.2-0.1-0.3,0l-0.9,0.8
	l-0.3-0.4c-0.1-0.1-0.2-0.1-0.3-0.1c-0.1,0.1-0.1,0.2-0.1,0.3L81.2,260.1z"/>
<path d="M82.8,263.7h-2.2v-2h2.2L82.8,263.7z M83,261.3h-2.6c-0.1,0-0.2,0.1-0.2,0.2v2.4c0,0.1,0.1,0.2,0.2,0.2H83
	c0.1,0,0.2-0.1,0.2-0.2l0-2.4C83.1,261.4,83.1,261.3,83,261.3L83,261.3z"/>
<path d="M81.2,263.1c0,0,0.1,0.1,0.1,0.1h0c0,0,0.1,0,0.1-0.1l1.1-1c0.1-0.1,0.1-0.2,0-0.3c-0.1-0.1-0.2-0.1-0.3,0l-0.9,0.8
	l-0.3-0.4c-0.1-0.1-0.2-0.1-0.3-0.1c-0.1,0.1-0.1,0.2-0.1,0.3L81.2,263.1z"/>
<path d="M82.8,267h-2.2v-2h2.2L82.8,267z M83,264.7h-2.6c-0.1,0-0.2,0.1-0.2,0.2v2.4c0,0.1,0.1,0.2,0.2,0.2H83
	c0.1,0,0.2-0.1,0.2-0.2l0-2.4C83.1,264.7,83.1,264.7,83,264.7L83,264.7z"/>
<path d="M81.1,266.5c0,0,0.1,0.1,0.1,0.1h0c0,0,0.1,0,0.1-0.1l1.1-1c0.1-0.1,0.1-0.2,0-0.3c-0.1-0.1-0.2-0.1-0.3,0l-0.9,0.8
	l-0.3-0.4c-0.1-0.1-0.2-0.1-0.3-0.1s-0.1,0.2-0.1,0.3L81.1,266.5z"/>
<path d="M72.8,257.7c0-0.8,0.6-1.4,1.4-1.4H76c0.8,0,1.4,0.6,1.4,1.4v0.6h-4.6L72.8,257.7z M75.1,253.2c0.6,0,1.1,0.5,1.1,1.1
	s-0.5,1.1-1.1,1.1c-0.6,0-1.1-0.5-1.1-1.1C74,253.7,74.5,253.2,75.1,253.2z M72.5,258.8h5.2c0.2,0,0.3-0.1,0.3-0.3v-0.8
	c0-1.1-0.9-1.9-1.9-1.9h0c0.5-0.3,0.8-0.8,0.8-1.4c0-0.9-0.8-1.7-1.7-1.7s-1.7,0.8-1.7,1.7c0,0.6,0.3,1.1,0.8,1.4h-0.1
	c-1.1,0-1.9,0.9-1.9,1.9v0.8C72.2,258.7,72.3,258.8,72.5,258.8L72.5,258.8z"/>
<path d="M72.6,259.9c-0.2,0-0.3,0.1-0.3,0.3c0,0.2,0.1,0.3,0.3,0.3l5.3,0c0.2,0,0.3-0.1,0.3-0.3c0-0.2-0.1-0.3-0.3-0.3L72.6,259.9z"
	/>
<path d="M77.8,261.7h-5.3c-0.2,0-0.3,0.1-0.3,0.3c0,0.2,0.1,0.3,0.3,0.3l5.3,0c0.2,0,0.3-0.1,0.3-0.3
	C78.1,261.9,78,261.7,77.8,261.7L77.8,261.7z"/>
<path d="M78.1,263.6h-5.6c-0.1,0-0.1,0.1-0.1,0.3c0,0.2,0.1,0.3,0.1,0.3l5.6,0c0.1,0,0.1-0.1,0.1-0.3
	C78.2,263.7,78.1,263.6,78.1,263.6L78.1,263.6z"/>
<path d="M78.1,265.5h-5.6c-0.1,0-0.1,0.1-0.1,0.3c0,0.2,0.1,0.3,0.1,0.3l5.6,0c0.1,0,0.1-0.1,0.1-0.3
	C78.2,265.6,78.1,265.5,78.1,265.5L78.1,265.5z"/>
<path d="M78.1,267.4h-5.6c-0.1,0-0.1,0.1-0.1,0.3c0,0.2,0.1,0.3,0.1,0.3l5.6,0c0.1,0,0.1-0.1,0.1-0.3
	C78.2,267.5,78.1,267.4,78.1,267.4z"/>
<g>
	<path d="M41.9,289.2H28.2v-16.9H37v4.4c0,0.2,0.1,0.3,0.3,0.3l4.6,0L41.9,289.2z M37.6,272.7l3.9,3.7l-3.9,0V272.7z M42.4,276.6
		C42.4,276.5,42.4,276.5,42.4,276.6l-4.9-4.7c0,0-0.1-0.1-0.1-0.1h-0.1H28c-0.2,0-0.3,0.1-0.3,0.3v17.4c0,0.2,0.1,0.3,0.3,0.3h14.2
		c0.2,0,0.3-0.1,0.3-0.3v-1.1l0-11.7C42.4,276.7,42.4,276.6,42.4,276.6L42.4,276.6z"/>
	<path d="M39.9,280.7h-2.2v-2h2.2L39.9,280.7z M40.1,278.3h-2.6c-0.1,0-0.2,0.1-0.2,0.2v2.4c0,0.1,0.1,0.2,0.2,0.2h2.6
		c0.1,0,0.2-0.1,0.2-0.2l0-2.4C40.3,278.4,40.2,278.3,40.1,278.3L40.1,278.3z"/>
	<path d="M38.4,280.2c0,0,0.1,0.1,0.1,0.1h0c0,0,0.1,0,0.1-0.1l1.1-1c0.1-0.1,0.1-0.2,0-0.3c-0.1-0.1-0.2-0.1-0.3,0l-0.9,0.8
		l-0.3-0.4c-0.1-0.1-0.2-0.1-0.3-0.1s-0.1,0.2-0.1,0.3L38.4,280.2z"/>
	<path d="M40,283.9h-2.2v-2H40L40,283.9z M40.2,281.5h-2.6c-0.1,0-0.2,0.1-0.2,0.2v2.4c0,0.1,0.1,0.2,0.2,0.2h2.6
		c0.1,0,0.2-0.1,0.2-0.2l0-2.4C40.3,281.6,40.3,281.5,40.2,281.5L40.2,281.5z"/>
	<path d="M38.4,283.3c0,0,0.1,0.1,0.1,0.1h0c0,0,0.1,0,0.1-0.1l1.1-1c0.1-0.1,0.1-0.2,0-0.3c-0.1-0.1-0.2-0.1-0.3,0l-0.9,0.8
		l-0.3-0.4c-0.1-0.1-0.2-0.1-0.3-0.1s-0.1,0.2-0.1,0.3L38.4,283.3z"/>
	<path d="M40,287.2h-2.2v-2H40L40,287.2z M40.2,284.8h-2.6c-0.1,0-0.2,0.1-0.2,0.2v2.4c0,0.1,0.1,0.2,0.2,0.2h2.6
		c0.1,0,0.2-0.1,0.2-0.2l0-2.4C40.3,284.9,40.3,284.8,40.2,284.8L40.2,284.8z"/>
	<path d="M38.3,286.7c0,0,0.1,0.1,0.1,0.1h0c0,0,0.1,0,0.1-0.1l1.1-1c0.1-0.1,0.1-0.2,0-0.3c-0.1-0.1-0.2-0.1-0.3,0l-0.9,0.8
		l-0.3-0.4c-0.1-0.1-0.2-0.1-0.3-0.1c-0.1,0.1-0.1,0.2-0.1,0.3L38.3,286.7z"/>
	<path d="M30,277.9c0-0.8,0.6-1.4,1.4-1.4h1.9c0.8,0,1.4,0.6,1.4,1.4v0.6H30L30,277.9z M32.3,273.4c0.6,0,1.1,0.5,1.1,1.1
		s-0.5,1.1-1.1,1.1s-1.1-0.5-1.1-1.1C31.2,273.9,31.7,273.4,32.3,273.4z M29.7,279h5.2c0.2,0,0.3-0.1,0.3-0.3v-0.8
		c0-1.1-0.9-1.9-1.9-1.9h0c0.5-0.3,0.8-0.8,0.8-1.4c0-0.9-0.8-1.7-1.7-1.7c-0.9,0-1.7,0.8-1.7,1.7c0,0.6,0.3,1.1,0.8,1.4h-0.1
		c-1.1,0-1.9,0.9-1.9,1.9v0.8C29.4,278.8,29.5,279,29.7,279L29.7,279z"/>
	<path d="M29.8,280.1c-0.2,0-0.3,0.1-0.3,0.3c0,0.2,0.1,0.3,0.3,0.3l5.3,0c0.2,0,0.3-0.1,0.3-0.3c0-0.2-0.1-0.3-0.3-0.3L29.8,280.1z
		"/>
	<path d="M35,281.9h-5.3c-0.2,0-0.3,0.1-0.3,0.3c0,0.2,0.1,0.3,0.3,0.3l5.3,0c0.2,0,0.3-0.1,0.3-0.3C35.3,282.1,35.2,281.9,35,281.9
		L35,281.9z"/>
	<path d="M35.3,283.8h-5.6c-0.1,0-0.1,0.1-0.1,0.3c0,0.2,0.1,0.3,0.1,0.3l5.6,0c0.1,0,0.1-0.1,0.1-0.3
		C35.4,283.9,35.3,283.8,35.3,283.8L35.3,283.8z"/>
	<path d="M35.3,285.7h-5.6c-0.1,0-0.1,0.1-0.1,0.3c0,0.2,0.1,0.3,0.1,0.3l5.6,0c0.1,0,0.1-0.1,0.1-0.3
		C35.4,285.8,35.3,285.7,35.3,285.7L35.3,285.7z"/>
	<path d="M35.3,287.5h-5.6c-0.1,0-0.1,0.1-0.1,0.3c0,0.2,0.1,0.3,0.1,0.3l5.6,0c0.1,0,0.1-0.1,0.1-0.3
		C35.4,287.6,35.3,287.5,35.3,287.5z"/>
</g>
<g>
	<path d="M63.4,289.2H49.8v-16.9h8.8v4.4c0,0.2,0.1,0.3,0.3,0.3l4.6,0L63.4,289.2z M59.2,272.7l3.9,3.7l-3.9,0V272.7z M64,276.6
		C63.9,276.5,63.9,276.5,64,276.6l-4.9-4.7c0,0-0.1-0.1-0.1-0.1h-0.1h-9.3c-0.2,0-0.3,0.1-0.3,0.3v17.4c0,0.2,0.1,0.3,0.3,0.3h14.2
		c0.2,0,0.3-0.1,0.3-0.3v-1.1l0-11.7C64,276.7,64,276.6,64,276.6L64,276.6z"/>
	<path d="M61.5,280.7h-2.2v-2h2.2L61.5,280.7z M61.7,278.3h-2.6c-0.1,0-0.2,0.1-0.2,0.2v2.4c0,0.1,0.1,0.2,0.2,0.2h2.6
		c0.1,0,0.2-0.1,0.2-0.2l0-2.4C61.9,278.4,61.8,278.3,61.7,278.3L61.7,278.3z"/>
	<path d="M59.9,280.2c0,0,0.1,0.1,0.1,0.1h0c0,0,0.1,0,0.1-0.1l1.1-1c0.1-0.1,0.1-0.2,0-0.3c-0.1-0.1-0.2-0.1-0.3,0l-0.9,0.8
		l-0.3-0.4c-0.1-0.1-0.2-0.1-0.3-0.1s-0.1,0.2-0.1,0.3L59.9,280.2z"/>
	<path d="M61.5,283.9h-2.2v-2h2.2L61.5,283.9z M61.7,281.5h-2.6c-0.1,0-0.2,0.1-0.2,0.2v2.4c0,0.1,0.1,0.2,0.2,0.2h2.6
		c0.1,0,0.2-0.1,0.2-0.2l0-2.4C61.9,281.6,61.8,281.5,61.7,281.5L61.7,281.5z"/>
	<path d="M59.9,283.3c0,0,0.1,0.1,0.1,0.1h0c0,0,0.1,0,0.1-0.1l1.1-1c0.1-0.1,0.1-0.2,0-0.3c-0.1-0.1-0.2-0.1-0.3,0l-0.9,0.8
		l-0.3-0.4c-0.1-0.1-0.2-0.1-0.3-0.1s-0.1,0.2-0.1,0.3L59.9,283.3z"/>
	<path d="M61.5,287.2h-2.2v-2h2.2L61.5,287.2z M61.7,284.8h-2.6c-0.1,0-0.2,0.1-0.2,0.2v2.4c0,0.1,0.1,0.2,0.2,0.2h2.6
		c0.1,0,0.2-0.1,0.2-0.2l0-2.4C61.9,284.9,61.8,284.8,61.7,284.8L61.7,284.8z"/>
	<path d="M59.9,286.7c0,0,0.1,0.1,0.1,0.1h0c0,0,0.1,0,0.1-0.1l1.1-1c0.1-0.1,0.1-0.2,0-0.3c-0.1-0.1-0.2-0.1-0.3,0l-0.9,0.8
		l-0.3-0.4c-0.1-0.1-0.2-0.1-0.3-0.1c-0.1,0.1-0.1,0.2-0.1,0.3L59.9,286.7z"/>
	<path d="M51.5,277.9c0-0.8,0.6-1.4,1.4-1.4h1.9c0.8,0,1.4,0.6,1.4,1.4v0.6h-4.6L51.5,277.9z M53.9,273.4c0.6,0,1.1,0.5,1.1,1.1
		s-0.5,1.1-1.1,1.1c-0.6,0-1.1-0.5-1.1-1.1C52.7,273.9,53.2,273.4,53.9,273.4z M51.3,279h5.2c0.2,0,0.3-0.1,0.3-0.3v-0.8
		c0-1.1-0.9-1.9-1.9-1.9h0c0.5-0.3,0.8-0.8,0.8-1.4c0-0.9-0.8-1.7-1.7-1.7c-0.9,0-1.7,0.8-1.7,1.7c0,0.6,0.3,1.1,0.8,1.4h-0.1
		c-1.1,0-1.9,0.9-1.9,1.9v0.8C51,278.8,51.1,279,51.3,279L51.3,279z"/>
	<path d="M51.3,280.1c-0.2,0-0.3,0.1-0.3,0.3c0,0.2,0.1,0.3,0.3,0.3l5.3,0c0.2,0,0.3-0.1,0.3-0.3c0-0.2-0.1-0.3-0.3-0.3L51.3,280.1z
		"/>
	<path d="M56.6,281.9h-5.3c-0.2,0-0.3,0.1-0.3,0.3c0,0.2,0.1,0.3,0.3,0.3l5.3,0c0.2,0,0.3-0.1,0.3-0.3
		C56.9,282.1,56.8,281.9,56.6,281.9L56.6,281.9z"/>
	<path d="M56.8,283.8h-5.6c-0.1,0-0.1,0.1-0.1,0.3c0,0.2,0.1,0.3,0.1,0.3l5.6,0c0.1,0,0.1-0.1,0.1-0.3
		C57,283.9,56.9,283.8,56.8,283.8L56.8,283.8z"/>
	<path d="M56.8,285.7h-5.6c-0.1,0-0.1,0.1-0.1,0.3c0,0.2,0.1,0.3,0.1,0.3l5.6,0c0.1,0,0.1-0.1,0.1-0.3
		C57,285.8,56.9,285.7,56.8,285.7L56.8,285.7z"/>
	<path d="M56.8,287.5h-5.6c-0.1,0-0.1,0.1-0.1,0.3c0,0.2,0.1,0.3,0.1,0.3l5.6,0c0.1,0,0.1-0.1,0.1-0.3
		C57,287.6,56.9,287.5,56.8,287.5z"/>
</g>
<g>
	<path d="M85,289.2H71.4v-16.9h8.8v4.4c0,0.2,0.1,0.3,0.3,0.3l4.6,0L85,289.2z M80.7,272.7l3.9,3.7l-3.9,0V272.7z M85.5,276.6
		C85.5,276.5,85.5,276.5,85.5,276.6l-4.9-4.7c0,0-0.1-0.1-0.1-0.1h-0.1h-9.3c-0.2,0-0.3,0.1-0.3,0.3v17.4c0,0.2,0.1,0.3,0.3,0.3
		h14.2c0.2,0,0.3-0.1,0.3-0.3v-1.1l0-11.7C85.6,276.7,85.6,276.6,85.5,276.6L85.5,276.6z"/>
	<path d="M83.1,280.7h-2.2v-2h2.2L83.1,280.7z M83.3,278.3h-2.6c-0.1,0-0.2,0.1-0.2,0.2v2.4c0,0.1,0.1,0.2,0.2,0.2h2.6
		c0.1,0,0.2-0.1,0.2-0.2l0-2.4C83.5,278.4,83.4,278.3,83.3,278.3L83.3,278.3z"/>
	<path d="M81.5,280.2c0,0,0.1,0.1,0.1,0.1h0c0,0,0.1,0,0.1-0.1l1.1-1c0.1-0.1,0.1-0.2,0-0.3c-0.1-0.1-0.2-0.1-0.3,0l-0.9,0.8
		l-0.3-0.4c-0.1-0.1-0.2-0.1-0.3-0.1s-0.1,0.2-0.1,0.3L81.5,280.2z"/>
	<path d="M83.1,283.9h-2.2v-2h2.2L83.1,283.9z M83.3,281.5h-2.6c-0.1,0-0.2,0.1-0.2,0.2v2.4c0,0.1,0.1,0.2,0.2,0.2h2.6
		c0.1,0,0.2-0.1,0.2-0.2l0-2.4C83.5,281.6,83.4,281.5,83.3,281.5L83.3,281.5z"/>
	<path d="M81.5,283.3c0,0,0.1,0.1,0.1,0.1h0c0,0,0.1,0,0.1-0.1l1.1-1c0.1-0.1,0.1-0.2,0-0.3c-0.1-0.1-0.2-0.1-0.3,0l-0.9,0.8
		l-0.3-0.4c-0.1-0.1-0.2-0.1-0.3-0.1s-0.1,0.2-0.1,0.3L81.5,283.3z"/>
	<path d="M83.1,287.2h-2.2v-2h2.2L83.1,287.2z M83.3,284.8h-2.6c-0.1,0-0.2,0.1-0.2,0.2v2.4c0,0.1,0.1,0.2,0.2,0.2h2.6
		c0.1,0,0.2-0.1,0.2-0.2l0-2.4C83.5,284.9,83.4,284.8,83.3,284.8L83.3,284.8z"/>
	<path d="M81.5,286.7c0,0,0.1,0.1,0.1,0.1h0c0,0,0.1,0,0.1-0.1l1.1-1c0.1-0.1,0.1-0.2,0-0.3c-0.1-0.1-0.2-0.1-0.3,0l-0.9,0.8
		l-0.3-0.4c-0.1-0.1-0.2-0.1-0.3-0.1c-0.1,0.1-0.1,0.2-0.1,0.3L81.5,286.7z"/>
	<path d="M73.1,277.9c0-0.8,0.6-1.4,1.4-1.4h1.9c0.8,0,1.4,0.6,1.4,1.4v0.6h-4.6L73.1,277.9z M75.4,273.4c0.6,0,1.1,0.5,1.1,1.1
		s-0.5,1.1-1.1,1.1c-0.6,0-1.1-0.5-1.1-1.1C74.3,273.9,74.8,273.4,75.4,273.4z M72.8,279H78c0.2,0,0.3-0.1,0.3-0.3v-0.8
		c0-1.1-0.9-1.9-1.9-1.9h0c0.5-0.3,0.8-0.8,0.8-1.4c0-0.9-0.8-1.7-1.7-1.7c-0.9,0-1.7,0.8-1.7,1.7c0,0.6,0.3,1.1,0.8,1.4h-0.1
		c-1.1,0-1.9,0.9-1.9,1.9v0.8C72.6,278.8,72.7,279,72.8,279L72.8,279z"/>
	<path d="M72.9,280.1c-0.2,0-0.3,0.1-0.3,0.3c0,0.2,0.1,0.3,0.3,0.3l5.3,0c0.2,0,0.3-0.1,0.3-0.3c0-0.2-0.1-0.3-0.3-0.3L72.9,280.1z
		"/>
	<path d="M78.2,281.9h-5.3c-0.2,0-0.3,0.1-0.3,0.3c0,0.2,0.1,0.3,0.3,0.3l5.3,0c0.2,0,0.3-0.1,0.3-0.3
		C78.5,282.1,78.4,281.9,78.2,281.9L78.2,281.9z"/>
	<path d="M78.4,283.8h-5.6c-0.1,0-0.1,0.1-0.1,0.3c0,0.2,0.1,0.3,0.1,0.3l5.6,0c0.1,0,0.1-0.1,0.1-0.3
		C78.6,283.9,78.5,283.8,78.4,283.8L78.4,283.8z"/>
	<path d="M78.4,285.7h-5.6c-0.1,0-0.1,0.1-0.1,0.3c0,0.2,0.1,0.3,0.1,0.3l5.6,0c0.1,0,0.1-0.1,0.1-0.3
		C78.6,285.8,78.5,285.7,78.4,285.7L78.4,285.7z"/>
	<path d="M78.4,287.5h-5.6c-0.1,0-0.1,0.1-0.1,0.3c0,0.2,0.1,0.3,0.1,0.3l5.6,0c0.1,0,0.1-0.1,0.1-0.3
		C78.6,287.6,78.5,287.5,78.4,287.5z"/>
</g>
<g>
	<path d="M41.9,309.1H28.3v-16.9h8.8v4.4c0,0.2,0.1,0.3,0.3,0.3l4.6,0L41.9,309.1z M37.7,292.6l3.9,3.7l-3.9,0V292.6z M42.5,296.5
		C42.4,296.4,42.4,296.4,42.5,296.5l-4.9-4.7c0,0-0.1-0.1-0.1-0.1h-0.1H28c-0.2,0-0.3,0.1-0.3,0.3v17.4c0,0.2,0.1,0.3,0.3,0.3h14.2
		c0.2,0,0.3-0.1,0.3-0.3v-1.1l0-11.7C42.5,296.6,42.5,296.5,42.5,296.5L42.5,296.5z"/>
	<path d="M40,300.6h-2.2v-2H40L40,300.6z M40.2,298.2h-2.6c-0.1,0-0.2,0.1-0.2,0.2v2.4c0,0.1,0.1,0.2,0.2,0.2h2.6
		c0.1,0,0.2-0.1,0.2-0.2l0-2.4C40.4,298.3,40.3,298.2,40.2,298.2L40.2,298.2z"/>
	<path d="M38.4,300.2c0,0,0.1,0.1,0.1,0.1h0c0,0,0.1,0,0.1-0.1l1.1-1c0.1-0.1,0.1-0.2,0-0.3c-0.1-0.1-0.2-0.1-0.3,0l-0.9,0.8
		l-0.3-0.4c-0.1-0.1-0.2-0.1-0.3-0.1c-0.1,0.1-0.1,0.2-0.1,0.3L38.4,300.2z"/>
	<path d="M40.1,303.8h-2.2v-2h2.2L40.1,303.8z M40.2,301.4h-2.6c-0.1,0-0.2,0.1-0.2,0.2v2.4c0,0.1,0.1,0.2,0.2,0.2h2.6
		c0.1,0,0.2-0.1,0.2-0.2l0-2.4C40.4,301.5,40.3,301.4,40.2,301.4L40.2,301.4z"/>
	<path d="M38.4,303.2c0,0,0.1,0.1,0.1,0.1h0c0,0,0.1,0,0.1-0.1l1.1-1c0.1-0.1,0.1-0.2,0-0.3c-0.1-0.1-0.2-0.1-0.3,0l-0.9,0.8
		l-0.3-0.4c-0.1-0.1-0.2-0.1-0.3-0.1c-0.1,0.1-0.1,0.2-0.1,0.3L38.4,303.2z"/>
	<path d="M40.1,307.1h-2.2v-2h2.2L40.1,307.1z M40.2,304.7h-2.6c-0.1,0-0.2,0.1-0.2,0.2v2.4c0,0.1,0.1,0.2,0.2,0.2h2.6
		c0.1,0,0.2-0.1,0.2-0.2l0-2.4C40.4,304.8,40.3,304.7,40.2,304.7L40.2,304.7z"/>
	<path d="M38.4,306.6c0,0,0.1,0.1,0.1,0.1h0c0,0,0.1,0,0.1-0.1l1.1-1c0.1-0.1,0.1-0.2,0-0.3c-0.1-0.1-0.2-0.1-0.3,0l-0.9,0.8
		l-0.3-0.4c-0.1-0.1-0.2-0.1-0.3-0.1S38,305.9,38,306L38.4,306.6z"/>
	<path d="M30,297.8c0-0.8,0.6-1.4,1.4-1.4h1.9c0.8,0,1.4,0.6,1.4,1.4v0.6H30L30,297.8z M32.4,293.3c0.6,0,1.1,0.5,1.1,1.1
		c0,0.6-0.5,1.1-1.1,1.1s-1.1-0.5-1.1-1.1C31.2,293.8,31.8,293.3,32.4,293.3z M29.8,298.9h5.2c0.2,0,0.3-0.1,0.3-0.3v-0.8
		c0-1.1-0.9-1.9-1.9-1.9h0c0.5-0.3,0.8-0.8,0.8-1.4c0-0.9-0.8-1.7-1.7-1.7c-0.9,0-1.7,0.8-1.7,1.7c0,0.6,0.3,1.1,0.8,1.4h-0.1
		c-1.1,0-1.9,0.9-1.9,1.9v0.8C29.5,298.8,29.6,298.9,29.8,298.9L29.8,298.9z"/>
	<path d="M29.8,300c-0.2,0-0.3,0.1-0.3,0.3c0,0.2,0.1,0.3,0.3,0.3l5.3,0c0.2,0,0.3-0.1,0.3-0.3c0-0.2-0.1-0.3-0.3-0.3L29.8,300z"/>
	<path d="M35.1,301.8h-5.3c-0.2,0-0.3,0.1-0.3,0.3c0,0.2,0.1,0.3,0.3,0.3l5.3,0c0.2,0,0.3-0.1,0.3-0.3
		C35.4,302,35.3,301.8,35.1,301.8L35.1,301.8z"/>
	<path d="M35.3,303.7h-5.6c-0.1,0-0.1,0.1-0.1,0.3c0,0.2,0.1,0.3,0.1,0.3l5.6,0c0.1,0,0.1-0.1,0.1-0.3
		C35.5,303.8,35.4,303.7,35.3,303.7L35.3,303.7z"/>
	<path d="M35.3,305.6h-5.6c-0.1,0-0.1,0.1-0.1,0.3c0,0.2,0.1,0.3,0.1,0.3l5.6,0c0.1,0,0.1-0.1,0.1-0.3
		C35.5,305.7,35.4,305.6,35.3,305.6L35.3,305.6z"/>
	<path d="M35.3,307.5h-5.6c-0.1,0-0.1,0.1-0.1,0.3c0,0.2,0.1,0.3,0.1,0.3l5.6,0c0.1,0,0.1-0.1,0.1-0.3
		C35.5,307.6,35.4,307.5,35.3,307.5z"/>
</g>
<g>
	<path d="M63.5,309.1H49.9v-16.9h8.8v4.4c0,0.2,0.1,0.3,0.3,0.3l4.6,0L63.5,309.1z M59.2,292.6l3.9,3.7l-3.9,0V292.6z M64,296.5
		C64,296.4,64,296.4,64,296.5l-4.9-4.7c0,0-0.1-0.1-0.1-0.1H59h-9.3c-0.2,0-0.3,0.1-0.3,0.3v17.4c0,0.2,0.1,0.3,0.3,0.3h14.2
		c0.2,0,0.3-0.1,0.3-0.3v-1.1l0-11.7C64.1,296.6,64.1,296.5,64,296.5L64,296.5z"/>
	<path d="M61.6,300.6h-2.2v-2h2.2L61.6,300.6z M61.8,298.2h-2.6c-0.1,0-0.2,0.1-0.2,0.2v2.4c0,0.1,0.1,0.2,0.2,0.2h2.6
		c0.1,0,0.2-0.1,0.2-0.2l0-2.4C62,298.3,61.9,298.2,61.8,298.2L61.8,298.2z"/>
	<path d="M60,300.2c0,0,0.1,0.1,0.1,0.1h0c0,0,0.1,0,0.1-0.1l1.1-1c0.1-0.1,0.1-0.2,0-0.3c-0.1-0.1-0.2-0.1-0.3,0l-0.9,0.8l-0.3-0.4
		c-0.1-0.1-0.2-0.1-0.3-0.1c-0.1,0.1-0.1,0.2-0.1,0.3L60,300.2z"/>
	<path d="M61.6,303.8h-2.2v-2h2.2L61.6,303.8z M61.8,301.4h-2.6c-0.1,0-0.2,0.1-0.2,0.2v2.4c0,0.1,0.1,0.2,0.2,0.2h2.6
		c0.1,0,0.2-0.1,0.2-0.2l0-2.4C62,301.5,61.9,301.4,61.8,301.4L61.8,301.4z"/>
	<path d="M60,303.2c0,0,0.1,0.1,0.1,0.1h0c0,0,0.1,0,0.1-0.1l1.1-1c0.1-0.1,0.1-0.2,0-0.3c-0.1-0.1-0.2-0.1-0.3,0l-0.9,0.8l-0.3-0.4
		c-0.1-0.1-0.2-0.1-0.3-0.1c-0.1,0.1-0.1,0.2-0.1,0.3L60,303.2z"/>
	<path d="M61.6,307.1h-2.2v-2h2.2L61.6,307.1z M61.8,304.7h-2.6c-0.1,0-0.2,0.1-0.2,0.2v2.4c0,0.1,0.1,0.2,0.2,0.2h2.6
		c0.1,0,0.2-0.1,0.2-0.2l0-2.4C62,304.8,61.9,304.7,61.8,304.7L61.8,304.7z"/>
	<path d="M60,306.6c0,0,0.1,0.1,0.1,0.1h0c0,0,0.1,0,0.1-0.1l1.1-1c0.1-0.1,0.1-0.2,0-0.3c-0.1-0.1-0.2-0.1-0.3,0l-0.9,0.8l-0.3-0.4
		c-0.1-0.1-0.2-0.1-0.3-0.1s-0.1,0.2-0.1,0.3L60,306.6z"/>
	<path d="M51.6,297.8c0-0.8,0.6-1.4,1.4-1.4h1.9c0.8,0,1.4,0.6,1.4,1.4v0.6h-4.6L51.6,297.8z M54,293.3c0.6,0,1.1,0.5,1.1,1.1
		c0,0.6-0.5,1.1-1.1,1.1c-0.6,0-1.1-0.5-1.1-1.1C52.8,293.8,53.3,293.3,54,293.3z M51.3,298.9h5.2c0.2,0,0.3-0.1,0.3-0.3v-0.8
		c0-1.1-0.9-1.9-1.9-1.9h0c0.5-0.3,0.8-0.8,0.8-1.4c0-0.9-0.8-1.7-1.7-1.7c-0.9,0-1.7,0.8-1.7,1.7c0,0.6,0.3,1.1,0.8,1.4H53
		c-1.1,0-1.9,0.9-1.9,1.9v0.8C51.1,298.8,51.2,298.9,51.3,298.9L51.3,298.9z"/>
	<path d="M51.4,300c-0.2,0-0.3,0.1-0.3,0.3c0,0.2,0.1,0.3,0.3,0.3l5.3,0c0.2,0,0.3-0.1,0.3-0.3c0-0.2-0.1-0.3-0.3-0.3L51.4,300z"/>
	<path d="M56.7,301.8h-5.3c-0.2,0-0.3,0.1-0.3,0.3c0,0.2,0.1,0.3,0.3,0.3l5.3,0c0.2,0,0.3-0.1,0.3-0.3C57,302,56.9,301.8,56.7,301.8
		L56.7,301.8z"/>
	<path d="M56.9,303.7h-5.6c-0.1,0-0.1,0.1-0.1,0.3c0,0.2,0.1,0.3,0.1,0.3l5.6,0c0.1,0,0.1-0.1,0.1-0.3
		C57.1,303.8,57,303.7,56.9,303.7L56.9,303.7z"/>
	<path d="M56.9,305.6h-5.6c-0.1,0-0.1,0.1-0.1,0.3c0,0.2,0.1,0.3,0.1,0.3l5.6,0c0.1,0,0.1-0.1,0.1-0.3
		C57.1,305.7,57,305.6,56.9,305.6L56.9,305.6z"/>
	<path d="M56.9,307.5h-5.6c-0.1,0-0.1,0.1-0.1,0.3c0,0.2,0.1,0.3,0.1,0.3l5.6,0c0.1,0,0.1-0.1,0.1-0.3
		C57.1,307.6,57,307.5,56.9,307.5z"/>
</g>
<g>
	<path d="M85.1,309.1H71.5v-16.9h8.8v4.4c0,0.2,0.1,0.3,0.3,0.3l4.6,0L85.1,309.1z M80.8,292.6l3.9,3.7l-3.9,0V292.6z M85.6,296.5
		C85.6,296.4,85.6,296.4,85.6,296.5l-4.9-4.7c0,0-0.1-0.1-0.1-0.1h-0.1h-9.3c-0.2,0-0.3,0.1-0.3,0.3v17.4c0,0.2,0.1,0.3,0.3,0.3
		h14.2c0.2,0,0.3-0.1,0.3-0.3v-1.1l0-11.7C85.6,296.6,85.6,296.5,85.6,296.5L85.6,296.5z"/>
	<path d="M83.2,300.6h-2.2v-2h2.2L83.2,300.6z M83.4,298.2h-2.6c-0.1,0-0.2,0.1-0.2,0.2v2.4c0,0.1,0.1,0.2,0.2,0.2h2.6
		c0.1,0,0.2-0.1,0.2-0.2l0-2.4C83.5,298.3,83.5,298.2,83.4,298.2L83.4,298.2z"/>
	<path d="M81.6,300.2c0,0,0.1,0.1,0.1,0.1h0c0,0,0.1,0,0.1-0.1l1.1-1c0.1-0.1,0.1-0.2,0-0.3c-0.1-0.1-0.2-0.1-0.3,0l-0.9,0.8
		l-0.3-0.4c-0.1-0.1-0.2-0.1-0.3-0.1c-0.1,0.1-0.1,0.2-0.1,0.3L81.6,300.2z"/>
	<path d="M83.2,303.8H81v-2h2.2L83.2,303.8z M83.4,301.4h-2.6c-0.1,0-0.2,0.1-0.2,0.2v2.4c0,0.1,0.1,0.2,0.2,0.2h2.6
		c0.1,0,0.2-0.1,0.2-0.2l0-2.4C83.6,301.5,83.5,301.4,83.4,301.4L83.4,301.4z"/>
	<path d="M81.6,303.2c0,0,0.1,0.1,0.1,0.1h0c0,0,0.1,0,0.1-0.1l1.1-1c0.1-0.1,0.1-0.2,0-0.3c-0.1-0.1-0.2-0.1-0.3,0l-0.9,0.8
		l-0.3-0.4c-0.1-0.1-0.2-0.1-0.3-0.1c-0.1,0.1-0.1,0.2-0.1,0.3L81.6,303.2z"/>
	<path d="M83.2,307.1H81v-2h2.2L83.2,307.1z M83.4,304.7h-2.6c-0.1,0-0.2,0.1-0.2,0.2v2.4c0,0.1,0.1,0.2,0.2,0.2h2.6
		c0.1,0,0.2-0.1,0.2-0.2l0-2.4C83.6,304.8,83.5,304.7,83.4,304.7L83.4,304.7z"/>
	<path d="M81.5,306.6c0,0,0.1,0.1,0.1,0.1h0c0,0,0.1,0,0.1-0.1l1.1-1c0.1-0.1,0.1-0.2,0-0.3c-0.1-0.1-0.2-0.1-0.3,0l-0.9,0.8
		l-0.3-0.4c-0.1-0.1-0.2-0.1-0.3-0.1c-0.1,0.1-0.1,0.2-0.1,0.3L81.5,306.6z"/>
	<path d="M73.2,297.8c0-0.8,0.6-1.4,1.4-1.4h1.9c0.8,0,1.4,0.6,1.4,1.4v0.6h-4.6L73.2,297.8z M75.5,293.3c0.6,0,1.1,0.5,1.1,1.1
		c0,0.6-0.5,1.1-1.1,1.1c-0.6,0-1.1-0.5-1.1-1.1C74.4,293.8,74.9,293.3,75.5,293.3z M72.9,298.9h5.2c0.2,0,0.3-0.1,0.3-0.3v-0.8
		c0-1.1-0.9-1.9-1.9-1.9h0c0.5-0.3,0.8-0.8,0.8-1.4c0-0.9-0.8-1.7-1.7-1.7c-0.9,0-1.7,0.8-1.7,1.7c0,0.6,0.3,1.1,0.8,1.4h-0.1
		c-1.1,0-1.9,0.9-1.9,1.9v0.8C72.6,298.8,72.8,298.9,72.9,298.9L72.9,298.9z"/>
	<path d="M73,300c-0.2,0-0.3,0.1-0.3,0.3c0,0.2,0.1,0.3,0.3,0.3l5.3,0c0.2,0,0.3-0.1,0.3-0.3c0-0.2-0.1-0.3-0.3-0.3L73,300z"/>
	<path d="M78.3,301.8H73c-0.2,0-0.3,0.1-0.3,0.3c0,0.2,0.1,0.3,0.3,0.3l5.3,0c0.2,0,0.3-0.1,0.3-0.3C78.6,302,78.4,301.8,78.3,301.8
		L78.3,301.8z"/>
	<path d="M78.5,303.7h-5.6c-0.1,0-0.1,0.1-0.1,0.3c0,0.2,0.1,0.3,0.1,0.3l5.6,0c0.1,0,0.1-0.1,0.1-0.3
		C78.6,303.8,78.6,303.7,78.5,303.7L78.5,303.7z"/>
	<path d="M78.5,305.6h-5.6c-0.1,0-0.1,0.1-0.1,0.3c0,0.2,0.1,0.3,0.1,0.3l5.6,0c0.1,0,0.1-0.1,0.1-0.3
		C78.6,305.7,78.6,305.6,78.5,305.6L78.5,305.6z"/>
	<path d="M78.5,307.5h-5.6c-0.1,0-0.1,0.1-0.1,0.3c0,0.2,0.1,0.3,0.1,0.3l5.6,0c0.1,0,0.1-0.1,0.1-0.3
		C78.6,307.6,78.6,307.5,78.5,307.5z"/>
</g>
<g>
	<path d="M114.5,278.5L114.5,278.5c-1.8,0-3.6,0.7-4.9,2.1c-1.7,1.8-2.4,4.4-1.7,6.8c0.6,2.4,2.5,4.3,4.8,4.9c2.4,0.7,4.9,0,6.6-1.8
		c1.3-1.3,2-3.1,2-5c0-1.9-0.7-3.7-2-5C118.1,279.2,116.3,278.5,114.5,278.5L114.5,278.5z M114.5,293.6c-1.5,0-3-0.4-4.2-1.3
		c-2-1.3-3.4-3.5-3.6-5.9c-0.3-2.4,0.6-4.9,2.3-6.6c1.5-1.5,3.5-2.4,5.6-2.4c2.1,0,4.1,0.8,5.6,2.4c1.5,1.5,2.3,3.6,2.3,5.7
		c0,2.1-0.8,4.2-2.3,5.7C118.6,292.7,116.6,293.6,114.5,293.6L114.5,293.6z"/>
	<path d="M116.2,280.8c-0.7-0.2-1.4-0.3-2.1-0.2l-0.2-1c0.9-0.1,1.8-0.1,2.6,0.2L116.2,280.8z"/>
	<path d="M108.1,290.4l-7,7.1c-0.1,0.1-0.1,0.3,0,0.5l1.1,1.1c0.1,0.1,0.3,0.1,0.4,0l7-7.1C109.1,291.5,108.6,291,108.1,290.4
		L108.1,290.4z M102.5,300.2c-0.4,0-0.7-0.1-1-0.4l-1.1-1.1c-0.5-0.5-0.5-1.4,0-2l7.4-7.6c0.1-0.1,0.3-0.2,0.4-0.2
		c0.2,0,0.3,0.1,0.4,0.2c0.5,0.9,1.3,1.6,2.1,2.2c0.1,0.1,0.2,0.2,0.2,0.4c0,0.2,0,0.3-0.1,0.4l-7.4,7.6
		C103.2,300.1,102.8,300.2,102.5,300.2L102.5,300.2z"/>
	<path d="M124.7,275.7h4.8l-4.8-4.9V275.7z M130.8,276.7h-6.6c-0.1,0-0.3-0.1-0.4-0.2c-0.1-0.1-0.2-0.2-0.2-0.4v-6.7
		c0-0.2,0.1-0.4,0.3-0.5c0.2-0.1,0.4,0,0.6,0.1l6.6,6.7c0.1,0.2,0.2,0.4,0.1,0.6C131.2,276.6,131,276.7,130.8,276.7L130.8,276.7z"/>
	<path d="M130.8,300.5h-22.4c-0.1,0-0.3-0.1-0.4-0.2c-0.1-0.1-0.2-0.2-0.2-0.4v-3.1h1v2.6h21.3l0-23L124,270h-15v7.7h-1l0-8.3
		c0-0.3,0.2-0.5,0.5-0.5h15.8c0.1,0,0.3,0.1,0.4,0.2l6.6,6.7c0.1,0.1,0.2,0.2,0.2,0.4v23.7c0,0.1-0.1,0.3-0.2,0.4
		C131.1,300.4,131,300.5,130.8,300.5L130.8,300.5z"/>
	<rect x="111.4" y="283.9" width="1" height="4.3"/>
	<rect x="113.7" y="285.2" width="1" height="3.1"/>
	<rect x="116.3" y="282.7" width="1" height="5.5"/>
	<rect x="118.9" y="294.9" width="4.9" height="1.1"/>
	<rect x="118.9" y="298.2" width="4.9" height="1.1"/>
	<rect x="110" y="298" width="7.3" height="1.1"/>
	<rect x="110.3" y="294.9" width="7.3" height="1.1"/>
	<path d="M111.5,275.1c0-0.7,0.6-1.3,1.3-1.3h1.8c0.7,0,1.3,0.6,1.3,1.3v0.5h-4.4L111.5,275.1z M113.8,270.8c0.6,0,1.1,0.5,1.1,1.1
		c0,0.6-0.5,1.1-1.1,1.1c-0.6,0-1.1-0.5-1.1-1.1C112.7,271.3,113.2,270.8,113.8,270.8z M111.3,276.2h4.9c0.2,0,0.3-0.1,0.3-0.3v-0.8
		c0-1-0.8-1.8-1.8-1.8h0c0.4-0.3,0.7-0.8,0.7-1.4c0-0.9-0.7-1.6-1.6-1.6s-1.6,0.7-1.6,1.6c0,0.6,0.3,1.1,0.7,1.4h-0.1
		c-1,0-1.8,0.8-1.8,1.8v0.8C111,276,111.2,276.2,111.3,276.2L111.3,276.2z"/>
	<path d="M127.4,283.2h-3.2v-3h3.2L127.4,283.2z M127.7,279.7H124c-0.2,0-0.3,0.1-0.3,0.3v3.5c0,0.2,0.1,0.3,0.3,0.3h3.7
		c0.2,0,0.3-0.1,0.3-0.3l0-3.5C127.9,279.8,127.8,279.7,127.7,279.7L127.7,279.7z"/>
	<path d="M125.2,282.6c0.1,0.1,0.1,0.1,0.2,0.1h0c0.1,0,0.1,0,0.2-0.1l1.6-1.4c0.1-0.1,0.1-0.3,0-0.4c-0.1-0.1-0.3-0.1-0.4,0
		l-1.3,1.2l-0.4-0.6c-0.1-0.1-0.2-0.2-0.4-0.1c-0.1,0.1-0.2,0.2-0.1,0.4L125.2,282.6z"/>
	<path d="M127.5,287.9h-3.2v-3h3.2L127.5,287.9z M127.7,284.4H124c-0.2,0-0.3,0.1-0.3,0.3v3.5c0,0.2,0.1,0.3,0.3,0.3h3.7
		c0.2,0,0.3-0.1,0.3-0.3l0-3.5C128,284.5,127.9,284.4,127.7,284.4L127.7,284.4z"/>
	<path d="M125.2,287c0.1,0.1,0.1,0.1,0.2,0.1h0c0.1,0,0.1,0,0.2-0.1l1.6-1.4c0.1-0.1,0.1-0.3,0-0.4c-0.1-0.1-0.3-0.1-0.4,0l-1.3,1.2
		l-0.4-0.6c-0.1-0.1-0.2-0.2-0.4-0.1s-0.2,0.2-0.1,0.4L125.2,287z"/>
	<path d="M127.5,292.7h-3.2v-3h3.2L127.5,292.7z M127.7,289.2H124c-0.2,0-0.3,0.1-0.3,0.3v3.5c0,0.2,0.1,0.3,0.3,0.3h3.7
		c0.2,0,0.3-0.1,0.3-0.3l0-3.5C128,289.4,127.9,289.2,127.7,289.2L127.7,289.2z"/>
	<path d="M125.1,292c0.1,0.1,0.1,0.1,0.2,0.1h0c0.1,0,0.1,0,0.2-0.1l1.6-1.4c0.1-0.1,0.1-0.3,0-0.4c-0.1-0.1-0.3-0.1-0.4,0l-1.3,1.2
		l-0.4-0.6c-0.1-0.1-0.2-0.2-0.4-0.1c-0.1,0.1-0.2,0.2-0.1,0.4L125.1,292z"/>
</g>
<rect x="132.4" y="164.7" fill="none" width="196" height="56.4"/>
<text transform="matrix(1 0 0 1 132.4107 175.5877)"><tspan x="0" y="0" font-family="'MyriadPro-Regular'" font-size="13">34% Subject-matter familiarity</tspan><tspan x="0" y="15.6" font-family="'MyriadPro-Regular'" font-size="13">24% Specialized doc type skills</tspan><tspan x="0" y="31.2" font-family="'MyriadPro-Regular'" font-size="13">17% TW-specific skills</tspan></text>
<text transform="matrix(1 0 0 1 132.4107 144.9192)" font-family="'MyriadPro-Regular'" font-size="18">Highlights</text>
<text transform="matrix(1 0 0 1 26.2712 146.4275)"><tspan x="0" y="0" font-family="'MyriadPro-Regular'" font-size="18">Scope: </tspan><tspan x="0" y="14.4" font-family="'MyriadPro-Regular'" font-size="12"> </tspan><tspan x="0" y="28.8" font-family="'MyriadPro-Regular'" font-size="12">&lt; 2 yrs</tspan><tspan x="0" y="43.2" font-family="'MyriadPro-Regular'" font-size="12">“technical writer”</tspan><tspan x="0" y="57.6" font-family="'MyriadPro-Regular'" font-size="12">327 job ads</tspan></text>
<text transform="matrix(1 0 0 1 41.6791 241.7422)" font-family="'MyriadPro-Regular'" font-size="13">2006</text>
<path d="M397.2,113.9c-0.1,0-0.1-0.1-0.1-0.2v-2.3c0.3-0.7,0.5-1.4,0.7-2.1c0.1,0,0.1,0.1,0.2,0.1c0.3,0,0.7-0.4,1.1-1.9
	c0.5-1.6,0.2-2.1-0.2-2.3c1.3-6.1-1.6-6.3-1.6-6.3s-0.4-0.8-1.6-1.4c-0.7-0.4-1.6-0.7-2.7-0.7h-0.6c-0.5,0-0.9,0.1-1.3,0.2
	c-0.5,0.2-1,0.4-1.4,0.7c-0.5,0.3-1,0.7-1.5,1.2c-0.7,0.7-1.3,1.6-1.6,2.8c-0.3,1-0.2,2,0.1,3.1h-0.1c-0.5,0-1,0.4-0.5,2.3
	c0.4,1.5,0.8,1.9,1.1,1.9c0.1,0.9,0.4,1.8,0.9,2.7v2c0,0.1,0,0.2-0.1,0.2c-0.7,0.4-4.4,2.2-7.8,5c-0.6,0.5-1,1.3-1,2.1l0,3.7v14
	c0,2.1,0.7,4.1,2.1,5.7l2.8,3.3l2.6,32.8c0.1,1.1,1,2,2.2,2h7.3c1.2,0,2.1-0.9,2.2-2l2.5-32.8l2.8-3.3c1.4-1.6,2.1-3.7,2.1-5.8
	l0-13.9V121c0-0.8-0.4-1.5-1-2.1C401.6,116.1,398,114.3,397.2,113.9L397.2,113.9z M349.4,137.5l-2.1,2.1l1.8,1.8l2.1-2.1l2.1,2.1
	l1.8-1.8l-2.1-2.1l2.1-2.1l-1.8-1.8l-2.1,2.1l-2.1-2.1l-1.8,1.8L349.4,137.5z M343.6,142.1v-9.3c0-1.6,1.3-3,3-3h9.3
	c1.6,0,3,1.3,3,3v9.3c0,1.6-1.3,3-3,3h-9.4C344.9,145.1,343.6,143.7,343.6,142.1L343.6,142.1z M349.4,115.5l-2.1,2.1l1.8,1.8
	l2.1-2.1l2.1,2.1l1.8-1.8l-2.1-2.1l2.1-2.1l-1.8-1.8l-2.1,2.1l-2.1-2.1l-1.8,1.8L349.4,115.5z M343.6,120.1v-9.3c0-1.6,1.3-3,3-3
	h9.3c1.6,0,3,1.3,3,3v9.3c0,1.6-1.3,3-3,3h-9.4C344.9,123.1,343.6,121.8,343.6,120.1L343.6,120.1z M346.4,159.8l3.5,3.5l1.8-1.8
	l4.2-4.1l-1.8-1.8l-4.1,4.1l-1.7-1.7L346.4,159.8z M343.6,164.1v-9.3c0-1.6,1.3-3,3-3h9.3c1.6,0,3,1.3,3,3v9.3c0,1.6-1.3,3-3,3h-9.4
	C344.9,167.1,343.6,165.7,343.6,164.1L343.6,164.1z M368.8,159.4v-20.3h5.1v-3.4h-5.1v-20.2c0-0.9-0.8-1.7-1.7-1.7h-5.5v3.4h3.8
	v18.6h-3.8v3.4h3.8l0,18.5h-3.8v3.4h5.5C368,161.1,368.8,160.4,368.8,159.4L368.8,159.4z M436,115.5l2.1-2.1l-1.8-1.8l-2.1,2.1
	l-2.1-2.1l-1.8,1.8l2.1,2.1l-2.1,2.1l1.8,1.8l2.1-2.1l2.1,2.1l1.8-1.8L436,115.5z M441.8,110.8v9.3c0,1.6-1.3,3-3,3h-9.3
	c-1.6,0-3-1.3-3-3v-9.3c0-1.6,1.3-3,3-3h9.3C440.5,107.8,441.8,109.2,441.8,110.8z M436,159.4l2.1-2.1l-1.8-1.8l-2.1,2.2l-2.1-2.1
	l-1.8,1.8l2.1,2.1l-2.1,2.1l1.8,1.8l2.1-2.1l2.1,2.1l1.8-1.8L436,159.4z M441.8,154.8v9.3c0,1.6-1.3,3-3,3h-9.3c-1.6,0-3-1.3-3-3
	v-9.3c0-1.6,1.3-3,3-3h9.3C440.5,151.8,441.8,153.1,441.8,154.8z M439,135.4l-1.8-1.8l-4.2,4.1l-1.7-1.7l-1.8,1.8l3.5,3.5l1.8-1.8
	L439,135.4z M441.8,132.8v9.3c0,1.6-1.3,3-3,3h-9.3c-1.6,0-3-1.3-3-3v-9.3c0-1.6,1.3-3,3-3h9.3C440.5,129.8,441.8,131.2,441.8,132.8
	z M416.6,139.1h-5.1v-3.4h5.1v-20.2c0-0.9,0.8-1.7,1.7-1.7h5.5v3.4H420v18.6h3.8v3.4H420l0,18.5h3.8v3.4h-5.5
	c-0.9,0-1.7-0.8-1.7-1.7L416.6,139.1z"/>
<path d="M479.8,206.8c3.8,0,6.9-6.6,6.9-10.5c0-3.8-3.1-6.9-6.9-6.9c-3.8,0-6.9,3.1-6.9,6.9C472.8,200.1,475.9,206.8,479.8,206.8z"
	/>
<path d="M513.7,221c-0.1-1.2-1-2.1-2.2-2l-11,0.1l-8.7-8l0,0c-0.4-0.5-0.9-0.8-1.5-1c-0.4-0.1-5.1-1.8-5.1-1.8l-3.6,5.6l-0.3-4.7
	h-3.3l-0.3,4.7l-3.6-5.6c0,0-4.7,1.7-5.1,1.8c-7.5,2.4-4.1,32.3-1.1,29.7v39.5c0,2.4,2,4.4,4.4,4.4h0.2c2.3,0,4.2-1.8,4.4-4.1
	l1.8-27h2l1.8,27c0.1,2.3,2.1,4.1,4.4,4.1h0.2c2.4,0,4.4-2,4.4-4.4V220l6.3,4l0.4,0.2c0.4,0.3,1,0.4,1.5,0.4l12.1-1.3
	C513,223.2,513.8,222.2,513.7,221L513.7,221z"/>
<path d="M513.7,208.8c-4.6,0-8.4-3.8-8.4-8.4c0-4.6,3.8-8.4,8.4-8.4c4.6,0,8.4,3.8,8.4,8.4C522.1,205,518.4,208.8,513.7,208.8z
	 M527.9,202.7c0.1-0.8,0.2-1.5,0.2-2.3c0-0.8-0.1-1.6-0.2-2.3H525c-0.3-1.4-0.9-2.8-1.7-4l2.1-2.1c-0.9-1.3-2-2.4-3.3-3.3l-2.1,2.1
	c-1.2-0.8-2.5-1.4-4-1.7l0-2.9c-0.8-0.1-1.5-0.2-2.3-0.2s-1.6,0.1-2.3,0.2v2.9c-1.4,0.3-2.8,0.9-4,1.7l-2.1-2.1
	c-1.3,0.9-2.4,2-3.3,3.3l2.1,2.1c-0.8,1.2-1.4,2.5-1.7,4h-2.9c-0.1,0.8-0.2,1.5-0.2,2.3c0,0.8,0.1,1.6,0.2,2.3h2.9
	c0.3,1.4,0.9,2.8,1.7,4l-2.1,2.1c0.9,1.3,2,2.4,3.3,3.3l2.1-2.1c1.2,0.8,2.5,1.4,4,1.7v2.9c0.8,0.1,1.5,0.2,2.3,0.2s1.6-0.1,2.3-0.2
	v-2.9c1.4-0.3,2.8-0.9,4-1.7l2.1,2.1c1.3-0.9,2.4-2,3.3-3.3l-2.1-2.1c0.8-1.2,1.4-2.5,1.7-4L527.9,202.7z"/>
<path d="M519.2,200.4c0,3-2.5,5.5-5.5,5.5c-3,0-5.5-2.5-5.5-5.5c0-3,2.5-5.5,5.5-5.5C516.8,194.9,519.2,197.3,519.2,200.4"/>
<text transform="matrix(1 0 0 1 366.1406 196.9149)"><tspan x="0" y="0" font-family="'MyriadPro-Regular'" font-size="12">Generalist </tspan><tspan x="-7.7" y="14.4" font-family="'MyriadPro-Regular'" font-size="12">opportunities</tspan></text>
<text transform="matrix(1 0 0 1 456.228 299.9874)"><tspan x="0" y="0" font-family="'MyriadPro-Regular'" font-size="12">Specialist</tspan><tspan x="-10.6" y="14.4" font-family="'MyriadPro-Regular'" font-size="12">opportunities</tspan></text>
<line fill="none" stroke="#000000" stroke-width="2" stroke-miterlimit="10" x1="528.1" y1="82.2" x2="373.7" y2="302.8"/>
</svg>
