<?xml version="1.0" encoding="utf-8"?>
<!-- Generator: Adobe Illustrator 17.1.0, SVG Export Plug-In . SVG Version: 6.00 Build 0)  -->
<!DOCTYPE svg PUBLIC "-//W3C//DTD SVG 1.1//EN" "http://www.w3.org/Graphics/SVG/1.1/DTD/svg11.dtd">
<svg version="1.1" id="Layer_1" xmlns="http://www.w3.org/2000/svg" xmlns:xlink="http://www.w3.org/1999/xlink" x="0px" y="0px"
	 viewBox="0 0 600 350" enable-background="new 0 0 600 350" xml:space="preserve">
<path fill="#BFBFBF" d="M271.9,181.8c0,0,29.8,5.4,47.7-0.6c7.6-2.5,13.1-7.2,13.1-15.1c0-26.7,0-75.9,0-75.9s104.9-8,116.2,0
	c11.3,8,35.3,79.4,24.8,83.2"/>
<path d="M259.3,199.6c-6.9,0-12.5-5.6-12.5-12.5c0-6.9,5.6-12.5,12.5-12.5c6.9,0,12.5,5.6,12.5,12.5
	C271.9,194,266.3,199.6,259.3,199.6z"/>
<path d="M287.9,229.4v2.8h-16.5v-2.8h13.4v-17.3h3.1L287.9,229.4z M307.9,217.5v33.9h-9.3c0-0.3,0.2-0.5,0.2-0.8
	c6.6-12.2,5.1-70.7-21-60c0,0-5.9,2.3-6.1,15.6c-0.3,2.1-0.5,6.2-0.6,11.2l-25.2,0l6.5-10.1l-3.2-2l-7.8,12.1h-0.6
	c-3.4,0-6.1,2.7-6.1,6.1c0,1.9,1,3.6,2.4,4.7h-37.5v9.1H271c0,1.3,0,2.5,0,3.4h-21.2c-5.2,0-9.8,3.4-9.8,9.6l0,43.8
	c0,4.2,2.5,7.6,6.6,7.6c4.7,0,7.2-3.8,7.2-8v-33.4h7.9l0,41.3h9.1l0-41.3h37v41.3h9.1v-84.4L307.9,217.5z"/>
<rect x="380.2" y="96.6" width="7.9" height="6.7"/>
<rect x="380" y="160.1" width="7.9" height="5.6"/>
<rect x="380" y="104.5" width="7.9" height="54.3"/>
<rect x="348.1" y="152.4" width="13.4" height="1.4"/>
<rect x="348.2" y="96.6" width="13.4" height="14.1"/>
<rect x="348.1" y="112" width="13.4" height="1.4"/>
<rect x="348.1" y="114.6" width="13.4" height="36.6"/>
<rect x="348.1" y="155.2" width="13.4" height="10.5"/>
<polygon points="421.2,114.4 422.2,117.5 432.5,114.4 431.5,111.5 "/>
<polygon points="433.9,119 432.8,115.7 422.6,118.7 423.6,122.1 "/>
<polygon points="445.1,155.5 434.2,120.3 424,123.2 434.9,158.5 "/>
<path d="M431.1,110.4l-2-6.4c-5.2,0.7-8.4,2-10.1,3.5l1.9,5.9L431.1,110.4z"/>
<polygon points="435.2,159.7 437.1,165.7 447.2,162.2 445.5,156.7 "/>
<polygon points="426.8,157 418.9,113.5 408.4,115.4 416.4,159 "/>
<path d="M418.6,112.2l-1.6-8.9c-2.3,0.5-5.3,1-10.5,2l1.6,8.9L418.6,112.2z"/>
<polygon points="416.7,160.2 417.7,165.7 428.1,163.6 427.1,158.3 "/>
<rect x="364.1" y="155.2" width="13.4" height="10.5"/>
<path d="M370.7,141.7c1.7,0,3.1,2.2,3.1,5.1c0,2.8-1.4,5.1-3.1,5.1s-3.1-2.2-3.1-5.1C367.6,143.9,369.1,141.7,370.7,141.7z
	 M377.6,153.9v-42.6h-13.4v42.6L377.6,153.9z"/>
<path d="M397.2,113.9c1.6,0,2.8,7.9,2.8,17.6s-1.2,17.6-2.8,17.6c-1.6,0-2.8-7.9-2.8-17.6S395.6,113.9,397.2,113.9z M403.9,151.2
	V96.6h-13.4v54.6H403.9z"/>
<rect x="390.5" y="155.2" width="13.4" height="10.5"/>
<rect x="390.5" y="152.4" width="13.4" height="1.4"/>
<line fill="none" stroke="#010101" stroke-width="2.4755" stroke-miterlimit="10" x1="450.1" y1="169.6" x2="344.6" y2="169.6"/>
<g>
	<path fill="none" stroke="#000000" stroke-miterlimit="10" d="M108.5,135.3c22.7,7,47.9,13.6,53.5,40.4
		c3.7,17.5-4.5,36.9-19.7,46.5c-15.1,9.6-36.2,8.7-50.5-2.2c-30.1-22.9-17.1-63.5,10.1-81.5"/>
	<path fill="none" stroke="#000000" stroke-miterlimit="10" d="M94.1,137.9c2.6-0.4,5.3-0.2,7.9,0.6c-0.2,2.6-0.6,5.2-1.2,7.7"/>
	<path fill="none" stroke="#000000" stroke-miterlimit="10" d="M81.4,217.6c0-2.7,0-5.5,0-8.2c2.9-1,5.9,1.2,8.9,0.9"/>
	<text transform="matrix(1 0 0 1 55.8218 218.4586)" font-family="'MyriadPro-Regular'" font-size="13">Java</text>
	<text transform="matrix(1 0 0 1 94.1143 133.0313)" font-family="'MyriadPro-Regular'" font-size="13">C++</text>
	<text transform="matrix(1 0 0 1 158.8046 161.4035)" font-family="'MyriadPro-Regular'" font-size="13">Python</text>
	<path fill="none" stroke="#000000" stroke-miterlimit="10" d="M168.8,171c-1.6,3.7-4.7,6.6-5.6,10.5c-2.9-1.3-5.1-4.4-7.5-6.5
		c-1.5-1.3-3.3-2.2-5-3.2"/>
	<path d="M107,173l-8.9,8.4c-0.2,0.2-0.3,0.5-0.3,0.8c0,0.3,0.2,0.5,0.4,0.7l10.3,5.8c0.4,0.2,0.9,0,1.2-0.4
		c0.2-0.4,0.1-0.9-0.3-1.2l-9.2-5.2l8-7.6c0.2-0.2,0.3-0.4,0.3-0.6c0-0.2-0.1-0.5-0.2-0.7c-0.2-0.2-0.4-0.3-0.7-0.3
		C107.4,172.7,107.2,172.8,107,173L107,173z"/>
	<path d="M139.1,176.2l-10.3-5.8c-0.4-0.2-0.9,0-1.2,0.4c-0.2,0.4-0.1,0.9,0.3,1.2l9.2,5.2l-8,7.6c-0.2,0.2-0.3,0.4-0.3,0.6
		c0,0.2,0.1,0.5,0.2,0.7c0.2,0.2,0.4,0.3,0.7,0.3c0.2,0,0.5-0.1,0.7-0.3l8.9-8.4c0.2-0.2,0.3-0.5,0.3-0.8
		C139.5,176.6,139.4,176.3,139.1,176.2L139.1,176.2z"/>
	<path d="M122.2,165.1c-0.2-0.1-0.5,0-0.7,0.1c-0.2,0.1-0.3,0.3-0.4,0.6l-6.8,27.2c-0.1,0.5,0.2,1,0.7,1.1c0.1,0,0.2,0,0.3,0
		c0.4,0,0.7-0.3,0.8-0.7l6.8-27.2l0,0c0.1-0.2,0-0.5-0.1-0.7C122.6,165.3,122.4,165.1,122.2,165.1L122.2,165.1z"/>
</g>
<text transform="matrix(1 0 0 1 364.0617 190.3069)" font-family="'MyriadPro-Regular'" font-size="12">Knowledge</text>
</svg>
