<?xml version="1.0" encoding="utf-8"?>
<!-- Generator: Adobe Illustrator 17.1.0, SVG Export Plug-In . SVG Version: 6.00 Build 0)  -->
<!DOCTYPE svg PUBLIC "-//W3C//DTD SVG 1.1//EN" "http://www.w3.org/Graphics/SVG/1.1/DTD/svg11.dtd">
<svg version="1.1" id="Layer_1" xmlns="http://www.w3.org/2000/svg" xmlns:xlink="http://www.w3.org/1999/xlink" x="0px" y="0px"
	 viewBox="0 0 600 350" enable-background="new 0 0 600 350" xml:space="preserve">
<path fill="#FFFFFF" stroke="#010101" stroke-width="1.2655" stroke-miterlimit="10" d="M314.2,126.3c0,2-1.6,3.6-3.5,3.6
	l-102.9,0.5c-1.9,0-3.4-1.6-3.5-3.6L203.9,55c0-2,1.5-3.5,3.4-3.5L310.3,51c1.9,0,3.5,1.6,3.5,3.5L314.2,126.3z"/>
<ellipse transform="matrix(1 -4.963813e-03 4.963813e-03 1 -0.8528 1.2999)" fill="#161616" cx="261.4" cy="172.5" rx="31.7" ry="13"/>
<path fill="none" stroke="#111111" stroke-width="0.4218" stroke-miterlimit="10" d="M242.6,123.3"/>
<path fill="#010101" stroke="#FFFFFF" stroke-width="0.1406" stroke-miterlimit="10" d="M254.9,129.7l21.3-0.1
	c0,0-10.2,16.5-7.7,30.8c1.7,9.6,16,15.8,16,15.8l-43.5,0.2c0,0,12-9.6,12.4-20.5c0.4-10.9-12.6-26.1-12.6-26.1l13-0.1"/>
<g>
	<path fill="none" stroke="#4D54A4" stroke-width="0.4218" stroke-miterlimit="10" d="M300.8,112.8c-0.9,0.6-1.3,1.6-1,2.5"/>
	<path fill="none" stroke="#4D54A4" stroke-width="0.4218" stroke-miterlimit="10" d="M302.3,112.8c0.2,0,0.5,0.1,0.6,0.2
		c0.8,0.6,1.2,1.5,1.1,2.3"/>
	<path fill="none" stroke="#4D54A4" stroke-width="0.4218" stroke-miterlimit="10" d="M299.5,115.1c1.4,0,2.8,0,4.2,0.1"/>
	<path fill="none" stroke="#4D54A4" stroke-width="0.4218" stroke-miterlimit="10" d="M300,111.4c-1.6,0-3.2,0.2-4.8,0.5"/>
	<path fill="none" stroke="#4D54A4" stroke-width="0.4218" stroke-miterlimit="10" d="M291.2,113.6c-0.9,0.1-1.7,0.1-2.6,0.1
		c-0.2-1.2-0.5-2.4-0.7-3.6c1.9,0,3.7-0.1,5.6-0.1c0.3,1,0.5,2.1,0.7,3.2c-0.7,0.1-2.5,0.1-2.9,0.5c-0.1,0.2,0,0.8-0.2,1
		c-0.2,0.3-0.4,0.6-0.8,0.9"/>
	<path fill="none" stroke="#4D54A4" stroke-width="0.4218" stroke-miterlimit="10" d="M292.6,113.5c-0.4,0.9,0.4,2,1.5,2.2"/>
	<path fill="none" stroke="#4D54A4" stroke-width="0.4218" stroke-miterlimit="10" d="M290.3,109.8c-0.2-3.6-0.4-7.1-0.5-10.7
		c-0.2-4.6-0.5-9.2-1.9-13.7"/>
	<path fill="none" stroke="#4D54A4" stroke-width="0.4218" stroke-miterlimit="10" d="M300.2,83.3c0,0.2,0,0.5-0.2,0.7
		c-0.1,0.2-0.4,0.2-0.6,0.3c-0.9,0.3-2,0.4-3,0.3c0.3,0.2,0.2,0.7-0.1,0.9c-0.3,0.2-0.8,0.3-1.3,0.3c-1,0.1-2.1,0.2-3.1,0.1
		c-1-0.1-2.1-0.4-2.7-1c-1.3,0.5-2.8,0.8-4.2,0.8c-1.5-0.1-2.9-0.5-3.8-1.5c-1,0.5-2.1,0.8-3.3,0.8c-0.8-0.9-0.5-2.3,0.4-3.1
		c0.9-0.9,2.3-1.3,3.7-1.6c-0.9-0.2-1-1.2-0.5-1.7c0.5-0.6,1.5-0.8,2.3-1c1.6-0.3,3.4-0.6,4.9-0.1c-0.3-0.4,0.4-0.8,0.9-0.9
		c1-0.3,2-0.4,3-0.3c0.3,0,0.6,0,0.8,0.2c0.2,0.1,0.3,0.3,0.4,0.4c1.2,1.2,4,0.2,5.2,1.3c0.4,0.4,0.5,1.1,0.1,1.5
		c-0.4,0.4-1.1,0.7-1.8,0.5C298.8,80.9,300,82,300.2,83.3z"/>
	<path fill="none" stroke="#4D54A4" stroke-width="0.4218" stroke-miterlimit="10" d="M285,81.6c0.1-1,0.4-1.9,1-2.8
		c0.4,0.2,0.7,0.5,0.9,0.9c0.3,0.5,0.4,1.1,0.9,1.5"/>
	<path fill="none" stroke="#4D54A4" stroke-width="0.4218" stroke-miterlimit="10" d="M285.3,80.2"/>
	<path fill="none" stroke="#4D54A4" stroke-width="0.4218" stroke-miterlimit="10" d="M285.2,80.5c0.6,0.1,1.2,0,1.7-0.1"/>
	<path fill="none" stroke="#4D54A4" stroke-miterlimit="10" d="M288.6,81.3V79c0,0,0.6-0.3,0.9-0.3c0.3,0,0.6,0.2,0.7,0.4
		c0.1,0.3-0.2,0.7-0.5,0.8c-0.4,0.1-0.8,0.1-1.2,0.1"/>
	<path fill="none" stroke="#4D54A4" stroke-width="0.4218" stroke-miterlimit="10" d="M291.3,78.6c0,0.8,0.1,1.7,0.1,2.5"/>
	<path fill="none" stroke="#4D54A4" stroke-width="0.4218" stroke-miterlimit="10" d="M279.7,80.7c-4.5,0-9,0.2-13.4,0.5"/>
	<path fill="none" stroke="#4D54A4" stroke-width="0.4218" stroke-miterlimit="10" d="M265.2,82c-0.8,0.9-1.6,1.9-2.7,2.5
		c-0.4,0.3-0.9,0.5-1.5,0.5c-1.2,0.1-2.3-0.7-2.7-1.6c-0.8-1.4-0.5-3.1,0.6-4.3c1.1-1.2,3-2,4.9-2.1c0.3,0,0.5,0,0.8,0.1
		c0.4,0.2,0.7,0.5,0.8,0.9c0.2,0.8,0.1,1.6-0.4,2.3"/>
	<path fill="none" stroke="#4D54A4" stroke-width="0.4218" stroke-miterlimit="10" d="M263.5,78.8c0.1,0.6,0.9,1,1.1,1.5
		c0.7-0.2,1.6-0.5,2.3-0.8"/>
	<path fill="none" stroke="#4D54A4" stroke-width="0.4218" stroke-miterlimit="10" d="M291.2,111c-0.3,0.5-0.6,1.1-0.8,1.7"/>
	<path fill="none" stroke="#4D54A4" stroke-width="0.4218" stroke-miterlimit="10" d="M291.6,111.2c0.5,0,1.1,0.2,1.4,0.6
		c-0.5,0.5-1,0.9-1.6,1.2"/>
	<path fill="none" stroke="#4D54A4" stroke-width="0.4218" stroke-miterlimit="10" d="M290.2,111.2c-0.4,0-0.9,0.2-1.2,0.6
		c0.4,0.5,0.8,0.9,1.3,1.2"/>
	<path fill="none" stroke="#4D54A4" stroke-width="0.4218" stroke-miterlimit="10" d="M259.2,81.4c1.5,0,2.9,0,4.3,0.1"/>
	<path fill="none" stroke="#4D54A4" stroke-width="0.4218" stroke-miterlimit="10" d="M259.8,80.7c0.1-0.1,0.3,0.1,0.3,0.3
		c-0.1,0-0.2,0-0.2,0s-0.1-0.1,0-0.1"/>
	<path fill="none" stroke="#4D54A4" stroke-width="0.4125" stroke-miterlimit="10" d="M261.1,80.6c0,0,0.2,0,0.3,0
		c0,0.2,0,0.3,0,0.4c-0.3,0-0.8-0.2-0.7-0.4C260.9,80.5,261,80.5,261.1,80.6"/>
	<path fill="none" stroke="#4D54A4" stroke-width="0.4218" stroke-miterlimit="10" d="M262.7,80.7c-0.1,0-0.2,0-0.3,0
		c-0.1,0.2,0.2,0.4,0.4,0.3c0.1-0.2,0-0.4-0.1-0.5"/>
	<path fill="none" stroke="#4D54A4" stroke-width="0.4218" stroke-miterlimit="10" d="M287.9,85.9c-0.3,0.6-0.6,1.3-1,1.9"/>
	<path fill="none" stroke="#4D54A4" stroke-width="0.4218" stroke-miterlimit="10" d="M288.1,85.8c0.8,0.7,1.7,1.4,2.5,2"/>
	<path fill="none" stroke="#4D54A4" stroke-width="0.4218" stroke-miterlimit="10" d="M264.2,84.3c4.2,8.3,10,16.1,17.1,23
		c1.4,1.4,3,2.8,5.1,3.2"/>
	<path fill="none" stroke="#4D54A4" stroke-width="0.4218" stroke-miterlimit="10" d="M286,108.8c0.2,0.6,0.4,1.3,0.4,1.9
		c-0.9,0-1.9,0.2-2.8,0.2"/>
	<path fill="none" stroke="#4D54A4" stroke-width="0.4218" stroke-miterlimit="10" d="M292.7,109.1c2.7-3.1,5.4-6.3,8.1-9.4"/>
	<path fill="none" stroke="#4D54A4" stroke-width="0.4218" stroke-miterlimit="10" d="M301.4,98.3c0,0.3,0.2,0.5,0.5,0.7
		c0.4,0.2,0.9,0.2,1.4,0.2c0.5,0,1.1,0,1.6,0c0.5,0,1.1,0,1.4-0.3c0.5-0.4,0.1-1.1-0.5-1.4s-1.4-0.3-2.1-0.3c-0.4,0-0.8,0-1.3,0
		c-0.2,0-0.4,0-0.5,0.1c-1.6,1.3-0.8,4.4-0.8,6.1c1.5,0.4,3.2,0.3,4.8,0.3c0.2,0,0.6-0.1,0.4-0.3"/>
	<path fill="none" stroke="#4D54A4" stroke-width="0.4218" stroke-miterlimit="10" d="M306.4,98.9c-0.1,1.6,0,3.2,0.2,4.7"/>
	<path fill="none" stroke="#4D54A4" stroke-width="0.4218" stroke-miterlimit="10" d="M300.1,99.7c-2.4-2.2-5-4.2-7.8-6
		c-1-0.7-2.1-1.3-2.7-2.3"/>
	<path fill="none" stroke="#4D54A4" stroke-width="0.4218" stroke-miterlimit="10" d="M295.5,93.9c0.6,0,1.2,0,1.9-0.1
		c0.1,0.3,0.1,0.6,0.1,0.9c0,0,0,0,0,0s0,0,0,0c-0.2,0.3-0.5,0.5-0.7,0.8c-0.4-0.2-0.7-0.4-1-0.6c0,0-0.1,0-0.1-0.1c0,0,0-0.1,0-0.1
		C295.6,94.4,295.6,94.2,295.5,93.9z"/>
	<g>
		<path fill="none" stroke="#4D54A4" stroke-width="0.2812" stroke-miterlimit="10" d="M273.9,108.5c0.3,0,0.5,0,0.8,0
			c0.3,0,0.5,0,0.8-0.1"/>
		<path fill="none" stroke="#4D54A4" stroke-width="0.2812" stroke-miterlimit="10" d="M274.7,108.6c0.1,0.3,0.1,0.6,0.2,0.9
			c-0.1,0.1-0.3,0.2-0.4,0.2c-0.2,0-0.3-0.1-0.3-0.2"/>
		<path fill="none" stroke="#4D54A4" stroke-width="0.2812" stroke-miterlimit="10" d="M276.3,108.3c-0.1-0.1-0.3,0-0.4,0.1
			c-0.1,0.1-0.1,0.2,0,0.4c0.2,0,0.4,0.1,0.6,0.2s0.2,0.3,0.1,0.5c-0.1,0.1-0.3,0.1-0.5,0.1c-0.2,0-0.4,0-0.4-0.1"/>
		<path fill="none" stroke="#4D54A4" stroke-width="0.2812" stroke-miterlimit="10" d="M277.7,108.4c-0.1,0-0.1,0-0.2,0
			c-0.2,0-0.3,0-0.5,0c0,0.3-0.1,0.6,0,0.8c0.1,0.3,0.4,0.5,0.8,0.4c0.1-0.3,0.2-0.6,0.1-0.9C277.9,108.6,277.9,108.4,277.7,108.4z"
			/>
		<line fill="none" stroke="#4D54A4" stroke-miterlimit="10" x1="278.6" y1="108.3" x2="278.6" y2="109.3"/>
		<path fill="none" stroke="#4D54A4" stroke-width="0.2812" stroke-miterlimit="10" d="M278.8,108.3c0.4,0.4,0.7,0.8,1,1.3"/>
		<path fill="none" stroke="#4D54A4" stroke-width="0.2812" stroke-miterlimit="10" d="M279.7,109.5c0-0.5,0-0.9,0.1-1.4"/>
	</g>
	<line fill="none" stroke="#4D54A4" stroke-miterlimit="10" x1="302.6" y1="100.3" x2="302.6" y2="102.3"/>
	<path fill="none" stroke="#4D54A4" stroke-width="0.2812" stroke-miterlimit="10" d="M303.5,100.6c0.4-0.2,0.9,0,1.1,0.3
		c0.2,0.3,0.1,0.7,0,1.1c-0.3,0-0.6,0-0.9,0.1"/>
	<path fill="none" stroke="#4D54A4" stroke-width="0.2812" stroke-miterlimit="10" d="M302.7,100.4c0,0.7,0.1,1.3,0.1,2"/>
	<path fill="none" stroke="#4D54A4" stroke-width="0.2812" stroke-miterlimit="10" d="M298.3,92.6c0,0.4,0,0.7,0,1.1"/>
	<path fill="none" stroke="#4D54A4" stroke-width="0.2812" stroke-miterlimit="10" d="M299.2,93.4c0,0,0,0.1,0,0.1
		c0,0,0.1,0.1,0.1,0.1c0.1,0.1,0.3,0.1,0.4,0.1c0.1,0,0.2-0.1,0.2-0.2c0-0.1,0-0.2,0-0.2c0-0.1,0-0.3,0-0.4s-0.2-0.2-0.4-0.2
		c0,0-0.1,0-0.1,0c0,0,0,0,0,0c-0.1,0.1-0.2,0.3-0.2,0.4C299.2,93.2,299.2,93.3,299.2,93.4z"/>
	<path fill="none" stroke="#4D54A4" stroke-width="0.2812" stroke-miterlimit="10" d="M300.4,92.6c0,0.4,0,0.8,0,1.2"/>
	<path fill="none" stroke="#4D54A4" stroke-width="0.2812" stroke-miterlimit="10" d="M300.6,93.2c0.2-0.2,0.3-0.4,0.5-0.5"/>
	<path fill="none" stroke="#4D54A4" stroke-width="0.2812" stroke-miterlimit="10" d="M301.1,93.7c-0.1,0-0.1-0.1-0.2-0.2
		c-0.1-0.1-0.2-0.1-0.3-0.2c0,0-0.1-0.1-0.1-0.1"/>
	<path fill="none" stroke="#4D54A4" stroke-width="0.2812" stroke-miterlimit="10" d="M301.9,92.7c-0.2,0-0.4,0-0.6,0"/>
	<line fill="none" stroke="#4D54A4" stroke-width="0.6891" stroke-miterlimit="10" x1="301.7" y1="92.7" x2="301.7" y2="92.7"/>
	<line fill="none" stroke="#4D54A4" stroke-width="0.6891" stroke-miterlimit="10" x1="301.7" y1="94" x2="301.7" y2="94"/>
	<path fill="none" stroke="#4D54A4" stroke-width="0.2812" stroke-miterlimit="10" d="M301.3,92.6c0,0.4,0,0.7-0.1,1.1"/>
	<path fill="none" stroke="#4D54A4" stroke-width="0.2812" stroke-miterlimit="10" d="M302.2,92.6c0,0.3,0,0.5,0,0.8
		c0,0.1,0,0.2,0,0.4"/>
	<path fill="none" stroke="#4D54A4" stroke-width="0.2812" stroke-miterlimit="10" d="M302.3,92.6c0.1,0.1,0.1,0.2,0.2,0.2
		c0.1,0.2,0.3,0.4,0.4,0.5c0.1,0.1,0.1,0.2,0.2,0.3"/>
	<path fill="none" stroke="#4D54A4" stroke-width="0.2812" stroke-miterlimit="10" d="M303,93.6c0-0.4,0-0.7,0-1.1"/>
	<path fill="none" stroke="#4D54A4" stroke-width="0.2812" stroke-miterlimit="10" d="M299.2,92.6c-0.3,0-0.6,0-1,0
		c-0.1,0-0.2,0-0.2,0c-0.2,0-0.3,0.1-0.5,0"/>
	<path fill="none" stroke="#4D54A4" stroke-width="0.4218" stroke-miterlimit="10" d="M301.6,113.5c0.1,0,0.2,0,0.2,0
		c0.7-0.1,0.6-0.9,0.6-1.3c-0.1-0.7-0.5-1.3-1.5-1.3c-0.3,0-0.5,0.9-0.5,1.1c0,0.5,0.2,0.9,0.7,1.3
		C301.3,113.4,301.5,113.5,301.6,113.5z"/>
</g>
<path fill="#FFFFFF" stroke="#010101" stroke-width="0.4218" stroke-miterlimit="10" d="M225.8,179.3c0.6,0.4,1.6,0.7,2.3,0.6
	l83-9.4c0.7-0.1,0.8-0.5,0.3-0.9l-12.5-9.3c-0.6-0.4-1.6-0.7-2.3-0.6l-83,9.4c-0.7,0.1-0.8,0.5-0.3,0.9L225.8,179.3z"/>
<rect x="213.1" y="77.3" fill="#010101" width="38" height="25"/>
<text transform="matrix(0.9406 0 0 1 217.5535 96.8504)" fill="#F9F9FA" font-family="'MyriadPro-Regular'" font-size="19.4429">&lt;/&gt;</text>
<line fill="none" stroke="#454545" stroke-miterlimit="10" x1="214.1" y1="66.8" x2="306.1" y2="66.8"/>
<line fill="none" stroke="#454545" stroke-miterlimit="10" x1="211.1" y1="120.8" x2="303.1" y2="120.8"/>
<line fill="none" stroke="#454545" stroke-miterlimit="10" x1="211.1" y1="123.8" x2="303.1" y2="123.8"/>
<line fill="none" stroke="#454545" stroke-miterlimit="10" x1="211.1" y1="114.8" x2="253.1" y2="114.8"/>
<line fill="none" stroke="#454545" stroke-miterlimit="10" x1="211.1" y1="110.8" x2="253.1" y2="110.8"/>
<line fill="none" stroke="#454545" stroke-miterlimit="10" x1="214.1" y1="69.8" x2="306.1" y2="69.8"/>
<path fill="none" stroke="#010101" stroke-width="0.703" stroke-miterlimit="10" d="M213.8,171.8c-4.5,0.1-8.1-5.2-6.4-9.3
	c2.3-5.3,10.4-6.2,12.3-11.7c6.6-1.8,13.2-3.6,19.8-5.3"/>
<line fill="none" stroke="#010101" stroke-width="0.1406" stroke-miterlimit="10" x1="219" y1="172.5" x2="301.1" y2="163.9"/>
<line fill="none" stroke="#010101" stroke-width="0.1406" stroke-miterlimit="10" x1="221.8" y1="176.1" x2="303.9" y2="167.5"/>
<path d="M376.5,145.5c0,7.5-6,13.5-13.5,13.5c-7.5,0-13.5-6-13.5-13.5c0-7.4,6-13.5,13.5-13.5C370.4,132,376.5,138,376.5,145.5"/>
<polygon points="247.8,253.5 261.2,253.5 261.2,207.1 304.6,207.1 304.6,253.5 318,253.5 318,193.3 247.8,193.3 "/>
<polygon points="382.8,183.4 376.7,183.4 376.7,222.3 341,222.3 341,232.7 387.1,232.7 387.1,183.4 "/>
<path d="M370.3,218.3h1.5c1.4,0,2.6-3,2.6-6.8l0-47h-17.1l-4.7,3.3l-11.5,6.9l-19.6,0l1.9,0l-5.3,0.4l-1.5,6.2l2.5-0.3l-2.5,0.3
	c0.8,1.6,2.5,2.7,4.4,2.7h20.8l2.7-0.1l8.2-4.9v25.5l-23.6,0v0.1c-3.1,0.5-5.4,3.3-5.4,6.7v36c0,3.8,2.9,6.8,6.4,6.8
	c3.5,0,6.4-3,6.4-6.8l0-29L370.3,218.3z"/>
<path d="M291.2,192.7h21.6c1.9,0,3.4-1.2,3.4-2.8c0-1.5-1.5-2.8-3.4-2.8h-21.6c-1.9,0-3.4,1.2-3.4,2.8
	C287.8,191.5,289.3,192.7,291.2,192.7z"/>
<path d="M322.5,180.3c0,2.5-2,4.5-4.5,4.5l0,0c-2.5,0-4.5-2-4.5-4.5v-0.6c0-2.5,2-4.5,4.5-4.5l0,0c2.5,0,4.5,2,4.5,4.5V180.3z"/>
<text transform="matrix(1 0 0 1 340.9559 269.0916)" font-family="'MyriadPro-Regular'" font-size="12.4043">Developer</text>
<text transform="matrix(1 0 0 1 214.9568 62.9251)" font-family="'MyriadPro-Regular'" font-size="10.3369">Documentation</text>
<path d="M171.5,166.2c0.9,7.4,7.8,12.6,15.4,11.7c7.6-0.9,13-7.7,12.1-15.1c-0.9-7.4-7.8-12.6-15.4-11.7
	C176,152,170.6,158.8,171.5,166.2"/>
<polygon points="168.9,201.7 176.2,201.1 179.6,239.8 222.3,236.1 223.2,246.4 168.1,251.2 163.8,202.2 "/>
<path d="M186,236.9l-1.6,0.1c-1.5,0.1-3-2.8-3.3-6.5l-4.3-46.8l17.5-1.6l5.1,2.9l12.4,5.8l20-1.9L230,189l5.5-0.1l2.1,6l-2.6-0.1
	l2.6,0.1c-0.6,1.7-2.3,3-4.3,3.1l-21.2,2l-2.8,0.1l-8.8-4.2l2.4,25.4l24.1-2.2l0,0.1c3.2,0.2,5.9,2.8,6.2,6.2l3.3,35.8
	c0.3,3.8-2.3,7.1-5.9,7.4c-3.6,0.3-6.8-2.4-7.2-6.2l-2.7-28.8L186,236.9z"/>
<text transform="matrix(1 0 0 1 169.8309 284.0807)" font-family="'MyriadPro-Regular'" font-size="12.4043">Tech writer</text>
<polygon points="188.2,251.6 171.4,251.6 171.4,268.6 175.4,268.6 175.4,255.5 201.8,255.5 201.8,268.6 205.7,268.6 205.7,251.6 "/>
<polygon points="374.2,236.4 357.5,236.4 357.5,253.4 361.4,253.4 361.4,240.3 387.8,240.3 387.8,253.4 391.7,253.4 391.7,236.4 "/>
<polygon points="373.9,236.3 357.1,236.3 357.1,253.4 361,253.4 361,240.2 387.4,240.2 387.4,253.4 391.4,253.4 391.4,236.3 "/>
<path d="M531.4,146.5v2.2h2.2v-2.2H531.4z M527,146.5v2.2h2.2v-2.2H527z M522.7,146.5v2.2h2.2v-2.2H522.7z M496.6,146.5v2.2h23.9
	v-2.2H496.6z M472.7,142.2v2.2h2.2v-2.2H472.7z M472.7,137.8v2.2h2.2v-2.2H472.7z M531.4,135.7v2.2c0,2.4-1.9,4.3-4.4,4.3h-35.5
	l2.6-2.7l-1.6-1.5l-4.4,4.6c-0.4,0.4-0.4,1.1,0,1.5l4.4,4.5l1.6-1.5l-2.6-2.7H527c3.6,0,6.5-2.9,6.5-6.5v-2.2L531.4,135.7z
	 M472.7,133.5v2.2h2.2v-2.2H472.7z M505.3,111.8c2.4,0,4.4,1.9,4.4,4.3s-1.9,4.3-4.4,4.3s-4.4-1.9-4.4-4.3S502.9,111.8,505.3,111.8z
	 M505.3,109.7c-3.6,0-6.5,2.9-6.5,6.5c0,3.6,2.9,6.5,6.5,6.5s6.5-2.9,6.5-6.5C511.8,112.6,508.9,109.7,505.3,109.7z M472.7,107.5
	v23.8h2.2v-23.8H472.7z M535.8,101v23.8h2.2V101H535.8z M478.1,98.9c-0.3,0-0.5,0.1-0.7,0.3l-4.6,4.3l1.5,1.6l2.7-2.6v35.4
	c0,3.6,2.9,6.5,6.5,6.5h2.2v-2.2h-2.2c-2.4,0-4.4-1.9-4.4-4.3v-35.4l2.7,2.6l1.5-1.6l-4.6-4.3C478.6,98.9,478.3,98.8,478.1,98.9z
	 M503.1,98.9h4.4v5.9c0,0.5,0.3,0.9,0.8,1c0.8,0.2,1.6,0.5,2.3,1c0.4,0.2,1,0.2,1.3-0.2l4.1-4.1l3.1,3.1l-4.1,4.1
	c-0.3,0.3-0.4,0.9-0.2,1.3c0.4,0.7,0.7,1.5,1,2.3c0.1,0.5,0.6,0.8,1,0.8h5.8v4.3h-5.9c-0.5,0-0.9,0.3-1,0.8c-0.2,0.8-0.6,1.6-1,2.4
	c-0.2,0.4-0.2,1,0.2,1.3l4.2,4.2L516,130l-4.2-4.2c-0.3-0.3-0.9-0.4-1.3-0.2c-0.7,0.4-1.5,0.7-2.3,0.9c-0.5,0.1-0.8,0.6-0.8,1v5.9
	h-4.4v-5.9c0-0.5-0.3-0.9-0.8-1c-0.8-0.2-1.6-0.5-2.3-1c-0.4-0.2-1-0.2-1.3,0.2l-4.2,4.2l-3.1-3.1l4.2-4.2c0.3-0.3,0.4-0.9,0.2-1.3
	c-0.4-0.7-0.7-1.5-1-2.3c-0.1-0.5-0.6-0.8-1-0.8h-6V114h6c0.5,0,0.9-0.3,1-0.8c0.2-0.8,0.5-1.6,0.9-2.3c0.2-0.4,0.2-0.9-0.2-1.3
	l-4.2-4.2l3.1-3.1l4.2,4.1c0.3,0.3,0.9,0.4,1.3,0.2c0.8-0.4,1.6-0.8,2.4-1c0.5-0.1,0.8-0.6,0.8-1V98.9z M535.8,96.7v2.2h2.2v-2.2
	H535.8z M502,96.7c-0.6,0-1.1,0.5-1.1,1.1v6.2c-0.4,0.2-0.9,0.3-1.3,0.5l-4.4-4.4c-0.4-0.4-1.1-0.4-1.5,0l-4.6,4.6
	c-0.4,0.4-0.4,1.1,0,1.5l4.4,4.4c-0.2,0.4-0.3,0.8-0.5,1.2h-6.3c-0.6,0-1.1,0.5-1.1,1.1v6.5c0,0.6,0.5,1.1,1.1,1.1h6.3
	c0.1,0.4,0.3,0.8,0.5,1.2l-4.5,4.5c-0.4,0.4-0.4,1.1,0,1.5l4.6,4.6c0.4,0.4,1.1,0.4,1.5,0l4.5-4.5c0.4,0.2,0.8,0.3,1.2,0.5v6.2
	c0,0.6,0.5,1.1,1.1,1.1h6.5c0.6,0,1.1-0.5,1.1-1.1v-6.2c0.4-0.1,0.8-0.3,1.1-0.5l4.5,4.4c0.4,0.4,1.1,0.4,1.5,0l4.6-4.6
	c0.4-0.4,0.4-1.1,0-1.5l-4.4-4.4c0.2-0.4,0.4-0.8,0.5-1.3h6.2c0.6,0,1.1-0.5,1.1-1.1v-6.5c0-0.6-0.5-1.1-1.1-1.1h-6.2
	c-0.1-0.4-0.3-0.8-0.5-1.2l4.4-4.4c0.4-0.4,0.4-1.1,0-1.5l-4.6-4.6c-0.4-0.4-1.1-0.4-1.5,0l-4.4,4.4c-0.4-0.2-0.8-0.4-1.2-0.5v-6.2
	c0-0.6-0.5-1.1-1.1-1.1L502,96.7z M535.8,92.4v2.2h2.2v-2.2H535.8z M535.8,88v2.2h2.2V88H535.8z M524.9,88v2.2h2.2
	c2.4,0,4.4,1.9,4.4,4.3v35.4l-2.7-2.6l-1.5,1.6l4.6,4.3c0.4,0.4,1.1,0.4,1.5,0l4.6-4.3l-1.5-1.6l-2.7,2.6V94.5
	c0-3.6-2.9-6.5-6.5-6.5H524.9z M518,83.8l-1.6,1.5l2.6,2.7h-35.5c-3.6,0-6.5,2.9-6.5,6.5v2.2h2.2v-2.2c0-2.4,1.9-4.3,4.4-4.3h35.5
	l-2.6,2.7l1.6,1.5l4.4-4.5c0.4-0.4,0.4-1.1,0-1.5L518,83.8z M490.1,83.7v2.2H514v-2.2H490.1z M485.7,83.7v2.2h2.2v-2.2H485.7z
	 M481.4,83.7v2.2h2.2v-2.2H481.4z M477,83.7v2.2h2.2v-2.2H477z"/>
<text transform="matrix(0 0.9954 -1 0 544.6187 100.0637)" fill="#010101" font-family="'MyriadPro-Regular'" font-size="11.1395">Code</text>
<text transform="matrix(0 -0.9954 1 0 469.0074 106.758)" fill="#010101" font-family="'MyriadPro-Regular'" font-size="11.1395">Code</text>
<text transform="matrix(1.0046 0 0 1 493.3492 160.2502)" fill="#010101" font-family="'MyriadPro-Regular'" font-size="11.0884">Docs</text>
<path d="M238.8,193c0,2.5-2,4.5-4.5,4.5l0,0c-2.5,0-4.5-2-4.5-4.5v-0.6c0-2.5,2-4.5,4.5-4.5l0,0c2.5,0,4.5,2,4.5,4.5V193z"/>
<path fill="none" stroke="#000000" stroke-width="0.6928" stroke-miterlimit="10" d="M67.9,247.9c0,4.1-3.2,7.4-7.1,7.4
	s-7.1-3.3-7.1-7.4c0-4.1,3.2-7.4,7.1-7.4S67.9,243.8,67.9,247.9"/>
<path fill="none" stroke="#000000" stroke-width="0.6928" stroke-miterlimit="10" d="M91.3,247.9c0,4.1-3.2,7.4-7.1,7.4
	c-3.9,0-7.1-3.3-7.1-7.4c0-4.1,3.2-7.4,7.1-7.4C88.1,240.4,91.3,243.8,91.3,247.9"/>
<path fill="none" stroke="#000000" stroke-width="0.6928" stroke-miterlimit="10" d="M84,236.1h-0.2c-0.2,0-0.3,0.1-0.6,0.1
	c-0.4-0.1-0.8-0.6-0.8-1c0-0.6,0.5-1.1,1-1.1s1,0.5,1,1.1C84.6,235.5,84.3,235.9,84,236.1L84,236.1z M83.8,238.3
	c-0.3,0-0.5-0.2-0.5-0.5c0-0.3,0.2-0.5,0.5-0.5s0.5,0.2,0.5,0.5C84.2,238.1,84,238.3,83.8,238.3z M81.5,234h-0.1
	c-1,0-1.8-0.9-1.8-1.9c0-1,0.8-1.9,1.8-1.9c1,0,1.8,0.9,1.8,1.9c0,0.2-0.1,0.4-0.1,0.6C82.3,232.9,81.8,233.4,81.5,234L81.5,234z
	 M78.8,230.5H65.5c-0.6-0.9-1.5-1.6-2.6-1.6c-0.8,0-1.5,0.3-1.9,0.8c-2.3-2.2-1.7-7.7,2.1-7.8c-1.4-3.5,2.8-6.5,6.5-6.5
	c2.1,0,4.1,0.9,4.8,3.3c0.8-0.7,1.8-1.1,2.8-1.1c2.3,0,4.4,1.9,4,4.5c3.2,0.1,4.2,5.4,2,7.5c-0.5-0.4-1.2-0.6-1.9-0.6
	C80.3,229,79.3,229.6,78.8,230.5L78.8,230.5z M62.9,233.9h-0.1c-0.3-0.6-0.9-1.1-1.5-1.2c-0.1-0.2-0.1-0.4-0.1-0.6
	c0-1,0.8-1.9,1.8-1.9c1,0,1.8,0.9,1.8,1.9C64.7,233.1,63.8,233.9,62.9,233.9L62.9,233.9z M61,236c-0.2-0.1-0.3-0.1-0.6-0.1h-0.2
	c-0.3-0.2-0.6-0.5-0.6-0.9c0-0.6,0.5-1.1,1-1.1s1,0.5,1,1.1C61.8,235.4,61.4,235.9,61,236L61,236z M60.4,238.2
	c-0.3,0-0.5-0.2-0.5-0.5c0-0.3,0.2-0.5,0.5-0.5s0.5,0.2,0.5,0.5C60.9,238,60.7,238.2,60.4,238.2z M84.3,232.8
	c0.1-0.2,0.1-0.4,0.1-0.7s-0.1-0.5-0.1-0.7c1.2-1.1,2-2.7,2-4.8c0-2.8-1.2-5.1-3.2-6.1c-0.1-1-0.6-2-1.2-2.8
	c-1.1-1.4-2.9-2.2-4.7-2.2c-0.7,0-1.3,0.1-1.9,0.4c-1.2-1.7-3.2-2.6-5.6-2.6c-3.1,0-6.3,1.6-7.8,4c-0.6,0.9-1,2-1,3
	c-1.9,0.9-3.2,3.1-3.2,5.8c0,2.2,0.9,4.2,2.3,5.3c-0.1,0.2-0.1,0.4-0.1,0.6c0,0.2,0,0.5,0.1,0.7c-0.9,0.4-1.5,1.2-1.5,2.2
	c0,0.6,0.3,1.2,0.7,1.7c-0.2,0.3-0.3,0.6-0.3,1c0,1,0.8,1.8,1.7,1.8s1.7-0.8,1.7-1.8c0-0.3-0.1-0.5-0.1-0.7c0.6-0.4,0.9-1,1-1.7
	c1.5-0.1,2.6-1.2,2.9-2.7h12.5c0.2,1.5,1.4,2.7,2.9,2.7c0.1,0.7,0.4,1.4,1,1.7c-0.1,0.2-0.1,0.5-0.1,0.7c0,1,0.8,1.8,1.7,1.8
	c1,0,1.7-0.8,1.7-1.8c0-0.4-0.1-0.7-0.3-1c0.4-0.4,0.7-1,0.7-1.7C85.8,234.1,85.2,233.2,84.3,232.8L84.3,232.8z"/>
<path fill="none" stroke="#000000" stroke-width="0.6928" stroke-miterlimit="10" d="M60.7,256.8c-5.1,0-10.5,2.3-11.2,7.9v11.7
	h22.4v-3.1v-7.4C71.9,259.4,66.3,256.8,60.7,256.8L60.7,256.8z"/>
<path fill="none" stroke="#000000" stroke-width="0.6928" stroke-miterlimit="10" d="M84.1,256.8c-5.5,0-11.3,2.6-11.3,9.1v7v3.5
	h0.2l22.4,0v-10.3v-0.2C95.4,259.4,89.8,256.8,84.1,256.8L84.1,256.8z"/>
<path fill="none" stroke="#000000" stroke-width="0.6928" stroke-miterlimit="10" d="M74.2,222.4c0,1.2-0.3,1.5-0.8,1.9
	c-0.3,0.4-0.7,0.7-0.7,1.4v0.1h-1.5c0-0.8-0.4-1.2-0.7-1.7c-0.4-0.4-0.8-0.9-0.8-1.9c0-0.9,0.4-1.4,0.8-1.7c0.5-0.4,1-0.6,1.5-0.6
	C72.6,220.1,74.2,220.6,74.2,222.4L74.2,222.4z M74.4,226.6c0-0.3-0.1-0.5-0.3-0.6v-0.3c0-0.1,0.1-0.2,0.3-0.5
	c0.4-0.5,1.1-1.2,1.1-2.9c0-2.5-2.1-3.6-3.5-3.7c-1.4,0-3.5,1.2-3.5,3.7c0,1.6,0.6,2.3,1,2.8c0.3,0.4,0.4,0.5,0.4,0.8v0.1
	c-0.2,0.1-0.3,0.4-0.3,0.6s0.1,0.4,0.3,0.6c-0.2,0.1-0.3,0.4-0.3,0.6c0,0.4,0.3,0.6,0.6,0.6h0.4c-0.1,0.1-0.2,0.3-0.2,0.5
	c0,0.4,0.3,0.6,0.6,0.6h1.9c0.3,0,0.6-0.3,0.6-0.6c0-0.2-0.1-0.4-0.2-0.5h0.4c0.3,0,0.6-0.3,0.6-0.6c0-0.2-0.1-0.4-0.3-0.6
	C74.2,227.1,74.4,226.9,74.4,226.6L74.4,226.6z"/>
</svg>
