<?xml version="1.0" encoding="utf-8"?>
<!-- Generator: Adobe Illustrator 17.1.0, SVG Export Plug-In . SVG Version: 6.00 Build 0)  -->
<!DOCTYPE svg PUBLIC "-//W3C//DTD SVG 1.1//EN" "http://www.w3.org/Graphics/SVG/1.1/DTD/svg11.dtd">
<svg version="1.1" id="Layer_1" xmlns="http://www.w3.org/2000/svg" xmlns:xlink="http://www.w3.org/1999/xlink" x="0px" y="0px"
	 viewBox="0 0 600 350" enable-background="new 0 0 600 350" xml:space="preserve">
<path d="M95.7,131.2h-3.9c-4.1,0-7.3,3.8-7.3,8.3c0,5.4,3.8,13.4,9.3,13.4s9.3-8.2,9.3-13.5C103,134.9,99.8,131.2,95.7,131.2z"/>
<path d="M67.9,185.5c-1.5,0.5-2.9,1.1-3.9,2.3c-1.1,1.1-2,2.4-2.3,3.9l-0.8,5.9l-0.8,6c-0.2,0.7,0.2,1.3,0.7,1.8
	c0.5,0.5,1.1,0.8,1.8,0.8h25.8c0.7,0,1.3-0.3,1.8-0.8s0.7-1.1,0.7-1.8l-1.6-11.8c-0.5-1.5-1.3-2.9-2.3-3.9c-1.1-1.1-2.4-1.8-3.9-2.3
	h-15L67.9,185.5z"/>
<path d="M63.2,192.1l-1.5,11.8c0,0.3,0.2,0.5,0.2,0.5c0.2,0.2,0.3,0.3,0.7,0.3h25.9c0.3,0,0.5-0.2,0.7-0.3c0.2-0.2,0.2-0.3,0.2-0.5
	l-1.6-11.8c-0.3-1.1-1-2.3-1.8-3.1c-0.8-0.8-2-1.5-3.1-1.8H68.3c-1.1,0.3-2.1,1-3.1,1.8C64.2,189.9,63.5,190.9,63.2,192.1
	L63.2,192.1z M88.3,207.9H62.4c-1.1,0-2.3-0.5-2.9-1.3c-0.8-0.8-1.1-2-1-3.1l1.6-12.1c0.5-1.8,1.5-3.4,2.8-4.7
	c1.3-1.3,2.9-2.1,4.7-2.6h16c1.8,0.5,3.4,1.5,4.7,2.6c1.3,1.3,2.3,2.9,2.8,4.7v0.2l1.6,11.8c0.2,1.1-0.2,2.3-1,3.1
	C90.6,207.4,89.5,207.9,88.3,207.9L88.3,207.9z"/>
<path d="M77.4,162.2h-3.9c-3.1,0-5.7,2.9-5.7,6.7c0,5.1,3.4,11.8,7.7,11.8c4.2,0,7.7-6.7,7.7-11.8C83,165.1,80.5,162.2,77.4,162.2z"
	/>
<path d="M73.5,163.8c-2.3,0-4.1,2.3-4.1,5.1c0,4.4,2.9,10.3,6,10.3c3.1,0,6-5.9,6-10.1c0-2.8-1.8-5.1-4.1-5.1l-3.9,0V163.8z
	 M75.5,182.4c-5.5,0-9.3-8.2-9.3-13.4c0-4.6,3.3-8.3,7.3-8.3h3.9c4.1,0,7.3,3.8,7.3,8.2C84.8,174.3,81,182.4,75.5,182.4z"/>
<path d="M95.4,159.9v-2.3c0-1-0.7-1.6-1.6-1.6s-1.6,0.7-1.6,1.6v2.3H95.4z"/>
<path d="M110.7,173.9l-1.6-11.8V162c-0.5-1.8-1.5-3.4-2.8-4.7s-2.9-2.1-4.7-2.6l-1-0.3l-5.4,5.7v10.3c0,1-0.7,1.6-1.6,1.6
	s-1.6-0.7-1.6-1.6v-10.3l-5.4-5.7l-1,0.3c-1.8,0.5-3.4,1.5-4.7,2.6l-0.7,0.7c4.2,1.5,7.3,5.9,7.3,10.9c0,3.1-0.8,6.5-2.4,9.6h21.2
	c1.1,0,2.3-0.5,2.9-1.3C110.5,176.2,110.9,175.1,110.7,173.9L110.7,173.9z"/>
<path d="M57,190.6c0.7-2.3,1.8-4.4,3.6-6.2c1.6-1.6,3.8-2.9,6-3.4h0.2c-1-1.3-1.8-2.9-2.4-4.6l-17.6,15.2c-0.5,0.5-0.7,1.1-0.5,1.8
	c0.2,0.7,0.8,1,1.5,1h8.5L57,190.6z"/>
<path d="M122.8,176.2c-0.2-0.7-0.8-1-1.5-1H114c-0.2,1.5-0.8,2.9-1.8,4.1c-1.3,1.5-3.4,2.4-5.4,2.4H86.6c1.5,0.7,2.8,1.5,3.8,2.6
	c1.8,1.6,2.9,3.9,3.6,6.2l0.2,0.5l0.5,3.4h8.5c0.3,0,0.8-0.2,1.1-0.3l18.4-16C122.9,177.5,123.1,176.9,122.8,176.2L122.8,176.2z"/>
<path d="M166.9,135.8h-31.3V96.9h20.2V107c0,0.4,0.3,0.6,0.6,0.6l10.5,0L166.9,135.8z M157,97.7l8.9,8.6l-8.9,0V97.7z M168.1,106.7
	c-0.1-0.1-0.1-0.1-0.1-0.2l-11.1-10.7c-0.1-0.1-0.1-0.1-0.3-0.1h-0.2h-21.5c-0.4,0-0.6,0.3-0.6,0.6v40.1c0,0.4,0.3,0.6,0.6,0.6h32.6
	c0.4,0,0.6-0.3,0.6-0.6v-2.6l0-26.8C168.1,107,168.1,106.8,168.1,106.7L168.1,106.7z"/>
<path d="M41.3,193.5l-1.1-3.7l2.2,0L41.3,193.5z M41,176.5l0.6,0c0.6,0,1,0.5,1,1.2l0,1.3l-2.5,0l0-1.3C40,177,40.4,176.5,41,176.5
	L41,176.5z M40,179.8l2.5,0l0,9.1l-2.5,0L40,179.8z M43.4,189.4l0-9.9l0-1.8c0-1.1-0.9-2-1.9-2l-0.6,0c-1.1,0-1.9,0.9-1.9,2l0,11.7
	l0,0.1l1.7,5.7c0,0.2,0.2,0.3,0.4,0.3c0.2,0,0.4-0.1,0.4-0.3l1.6-5.7L43.4,189.4L43.4,189.4z"/>
<path d="M162.5,116.2h-5.2v-4.7h5.2L162.5,116.2z M162.9,110.7h-6c-0.3,0-0.4,0.2-0.4,0.4v5.5c0,0.3,0.2,0.4,0.4,0.4h6
	c0.3,0,0.4-0.2,0.4-0.4l0-5.5C163.3,110.9,163.1,110.7,162.9,110.7L162.9,110.7z"/>
<path d="M158.8,115.2c0.1,0.1,0.2,0.2,0.3,0.2h0c0.1,0,0.2,0,0.3-0.1l2.5-2.3c0.2-0.2,0.2-0.4,0-0.6c-0.2-0.2-0.4-0.2-0.6,0
	l-2.1,1.9l-0.6-0.9c-0.1-0.2-0.4-0.3-0.6-0.1c-0.2,0.1-0.3,0.4-0.1,0.6L158.8,115.2z"/>
<path d="M162.5,123.6h-5.2v-4.7h5.2L162.5,123.6z M162.9,118.1h-6c-0.3,0-0.4,0.2-0.4,0.4v5.5c0,0.3,0.2,0.4,0.4,0.4h6
	c0.3,0,0.4-0.2,0.4-0.4l0-5.5C163.4,118.3,163.2,118.1,162.9,118.1L162.9,118.1z"/>
<path d="M158.8,122.1c0.1,0.1,0.2,0.2,0.3,0.2h0c0.1,0,0.2,0,0.3-0.1l2.5-2.3c0.2-0.2,0.2-0.4,0-0.6c-0.2-0.2-0.4-0.2-0.6,0
	l-2.1,1.9l-0.6-0.9c-0.1-0.2-0.4-0.3-0.6-0.1c-0.2,0.1-0.3,0.4-0.1,0.6L158.8,122.1z"/>
<path d="M162.5,131.2h-5.2v-4.7h5.2L162.5,131.2z M162.9,125.7h-6c-0.3,0-0.4,0.2-0.4,0.4v5.5c0,0.3,0.2,0.4,0.4,0.4h6
	c0.3,0,0.4-0.2,0.4-0.4l0-5.5C163.4,125.9,163.2,125.7,162.9,125.7L162.9,125.7z"/>
<path d="M158.7,130.1c0.1,0.1,0.2,0.2,0.3,0.2h0c0.1,0,0.2,0,0.3-0.1l2.5-2.3c0.2-0.2,0.2-0.4,0-0.6c-0.2-0.2-0.4-0.2-0.6,0
	l-2.1,1.9l-0.6-0.9c-0.1-0.2-0.4-0.3-0.6-0.1c-0.2,0.1-0.3,0.4-0.1,0.6L158.7,130.1z"/>
<path d="M139.5,109.7c0-1.8,1.4-3.1,3.1-3.1h4.4c1.8,0,3.1,1.4,3.1,3.1v1.3h-10.7L139.5,109.7z M144.9,99.4c1.4,0,2.6,1.2,2.6,2.6
	c0,1.4-1.2,2.6-2.6,2.6c-1.4,0-2.6-1.2-2.6-2.6C142.2,100.6,143.4,99.4,144.9,99.4z M138.9,112.3h11.9c0.4,0,0.6-0.3,0.6-0.6v-1.9
	c0-2.4-2-4.4-4.4-4.4h-0.1c1.1-0.7,1.8-1.9,1.8-3.3c0-2.1-1.8-3.9-3.9-3.9s-3.9,1.8-3.9,3.9c0,1.4,0.8,2.6,1.8,3.3h-0.2
	c-2.4,0-4.4,2-4.4,4.4v1.9C138.2,112,138.6,112.3,138.9,112.3L138.9,112.3z"/>
<path d="M139.1,114.8c-0.4,0-0.6,0.3-0.6,0.6c0,0.4,0.3,0.6,0.6,0.6l12.2,0c0.4,0,0.6-0.3,0.6-0.6c0-0.4-0.3-0.6-0.6-0.6
	L139.1,114.8z"/>
<path d="M151.2,119.1h-12.2c-0.4,0-0.6,0.3-0.6,0.6c0,0.4,0.3,0.6,0.6,0.6l12.2,0c0.4,0,0.6-0.3,0.6-0.6
	C151.8,119.4,151.6,119.1,151.2,119.1L151.2,119.1z"/>
<path d="M151.7,123.4h-12.9c-0.2,0-0.3,0.3-0.3,0.6c0,0.4,0.1,0.6,0.3,0.6l12.9,0c0.2,0,0.3-0.3,0.3-0.6
	C152,123.6,151.9,123.4,151.7,123.4L151.7,123.4z"/>
<path d="M151.7,127.6h-12.9c-0.2,0-0.3,0.3-0.3,0.6c0,0.4,0.1,0.6,0.3,0.6l12.9,0c0.2,0,0.3-0.3,0.3-0.6
	C152,128,151.9,127.6,151.7,127.6L151.7,127.6z"/>
<path d="M151.7,132h-12.9c-0.2,0-0.3,0.3-0.3,0.6c0,0.4,0.1,0.6,0.3,0.6l12.9,0c0.2,0,0.3-0.3,0.3-0.6
	C152,132.2,151.9,132,151.7,132z"/>
<line fill="none" stroke="#282726" stroke-width="0.446" stroke-miterlimit="10" x1="119.1" y1="167.6" x2="138.2" y2="143"/>
<g>
	<path d="M51.5,265H37.9v-16.9h8.8v4.4c0,0.2,0.1,0.3,0.3,0.3l4.6,0L51.5,265z M47.2,248.5l3.9,3.7l-3.9,0V248.5z M52,252.4
		C52,252.4,52,252.3,52,252.4l-4.9-4.7c0,0-0.1-0.1-0.1-0.1H47h-9.3c-0.2,0-0.3,0.1-0.3,0.3v17.4c0,0.2,0.1,0.3,0.3,0.3h14.2
		c0.2,0,0.3-0.1,0.3-0.3v-1.1l0-11.7C52.1,252.5,52.1,252.4,52,252.4L52,252.4z"/>
	<path d="M49.6,256.5h-2.2v-2h2.2L49.6,256.5z M49.8,254.1h-2.6c-0.1,0-0.2,0.1-0.2,0.2v2.4c0,0.1,0.1,0.2,0.2,0.2h2.6
		c0.1,0,0.2-0.1,0.2-0.2l0-2.4C50,254.2,49.9,254.1,49.8,254.1L49.8,254.1z"/>
	<path d="M48,256.1c0,0,0.1,0.1,0.1,0.1h0c0,0,0.1,0,0.1-0.1l1.1-1c0.1-0.1,0.1-0.2,0-0.3c-0.1-0.1-0.2-0.1-0.3,0l-0.9,0.8l-0.3-0.4
		c-0.1-0.1-0.2-0.1-0.3-0.1c-0.1,0.1-0.1,0.2-0.1,0.3L48,256.1z"/>
	<path d="M49.6,259.7h-2.2v-2h2.2L49.6,259.7z M49.8,257.3h-2.6c-0.1,0-0.2,0.1-0.2,0.2v2.4c0,0.1,0.1,0.2,0.2,0.2h2.6
		c0.1,0,0.2-0.1,0.2-0.2l0-2.4C50,257.4,49.9,257.3,49.8,257.3L49.8,257.3z"/>
	<path d="M48,259.1c0,0,0.1,0.1,0.1,0.1h0c0,0,0.1,0,0.1-0.1l1.1-1c0.1-0.1,0.1-0.2,0-0.3c-0.1-0.1-0.2-0.1-0.3,0l-0.9,0.8l-0.3-0.4
		c-0.1-0.1-0.2-0.1-0.3-0.1c-0.1,0.1-0.1,0.2-0.1,0.3L48,259.1z"/>
	<path d="M49.6,263h-2.2v-2h2.2L49.6,263z M49.8,260.7h-2.6c-0.1,0-0.2,0.1-0.2,0.2v2.4c0,0.1,0.1,0.2,0.2,0.2h2.6
		c0.1,0,0.2-0.1,0.2-0.2l0-2.4C50,260.7,49.9,260.7,49.8,260.7L49.8,260.7z"/>
	<path d="M48,262.5c0,0,0.1,0.1,0.1,0.1h0c0,0,0.1,0,0.1-0.1l1.1-1c0.1-0.1,0.1-0.2,0-0.3c-0.1-0.1-0.2-0.1-0.3,0l-0.9,0.8l-0.3-0.4
		c-0.1-0.1-0.2-0.1-0.3-0.1s-0.1,0.2-0.1,0.3L48,262.5z"/>
	<path d="M39.6,253.7c0-0.8,0.6-1.4,1.4-1.4h1.9c0.8,0,1.4,0.6,1.4,1.4v0.6h-4.6L39.6,253.7z M41.9,249.2c0.6,0,1.1,0.5,1.1,1.1
		s-0.5,1.1-1.1,1.1s-1.1-0.5-1.1-1.1C40.8,249.7,41.3,249.2,41.9,249.2z M39.3,254.8h5.2c0.2,0,0.3-0.1,0.3-0.3v-0.8
		c0-1.1-0.9-1.9-1.9-1.9h0c0.5-0.3,0.8-0.8,0.8-1.4c0-0.9-0.8-1.7-1.7-1.7c-0.9,0-1.7,0.8-1.7,1.7c0,0.6,0.3,1.1,0.8,1.4H41
		c-1.1,0-1.9,0.9-1.9,1.9v0.8C39.1,254.7,39.2,254.8,39.3,254.8L39.3,254.8z"/>
	<path d="M39.4,255.9c-0.2,0-0.3,0.1-0.3,0.3c0,0.2,0.1,0.3,0.3,0.3l5.3,0c0.2,0,0.3-0.1,0.3-0.3c0-0.2-0.1-0.3-0.3-0.3L39.4,255.9z
		"/>
	<path d="M44.7,257.7h-5.3c-0.2,0-0.3,0.1-0.3,0.3c0,0.2,0.1,0.3,0.3,0.3l5.3,0c0.2,0,0.3-0.1,0.3-0.3
		C45,257.9,44.9,257.7,44.7,257.7L44.7,257.7z"/>
	<path d="M44.9,259.6h-5.6c-0.1,0-0.1,0.1-0.1,0.3c0,0.2,0.1,0.3,0.1,0.3l5.6,0c0.1,0,0.1-0.1,0.1-0.3C45,259.7,45,259.6,44.9,259.6
		L44.9,259.6z"/>
	<path d="M44.9,261.5h-5.6c-0.1,0-0.1,0.1-0.1,0.3c0,0.2,0.1,0.3,0.1,0.3l5.6,0c0.1,0,0.1-0.1,0.1-0.3C45,261.6,45,261.5,44.9,261.5
		L44.9,261.5z"/>
	<path d="M44.9,263.4h-5.6c-0.1,0-0.1,0.1-0.1,0.3c0,0.2,0.1,0.3,0.1,0.3l5.6,0c0.1,0,0.1-0.1,0.1-0.3C45,263.5,45,263.4,44.9,263.4
		z"/>
</g>
<g>
	<path d="M73.1,265H59.5v-16.9h8.8v4.4c0,0.2,0.1,0.3,0.3,0.3l4.6,0L73.1,265z M68.8,248.5l3.9,3.7l-3.9,0V248.5z M73.6,252.4
		C73.6,252.4,73.6,252.3,73.6,252.4l-4.9-4.7c0,0-0.1-0.1-0.1-0.1h-0.1h-9.3c-0.2,0-0.3,0.1-0.3,0.3v17.4c0,0.2,0.1,0.3,0.3,0.3
		h14.2c0.2,0,0.3-0.1,0.3-0.3v-1.1l0-11.7C73.6,252.5,73.6,252.4,73.6,252.4L73.6,252.4z"/>
	<path d="M71.2,256.5h-2.2v-2h2.2L71.2,256.5z M71.4,254.1h-2.6c-0.1,0-0.2,0.1-0.2,0.2v2.4c0,0.1,0.1,0.2,0.2,0.2h2.6
		c0.1,0,0.2-0.1,0.2-0.2l0-2.4C71.5,254.2,71.5,254.1,71.4,254.1L71.4,254.1z"/>
	<path d="M69.6,256.1c0,0,0.1,0.1,0.1,0.1h0c0,0,0.1,0,0.1-0.1l1.1-1c0.1-0.1,0.1-0.2,0-0.3c-0.1-0.1-0.2-0.1-0.3,0l-0.9,0.8
		l-0.3-0.4c-0.1-0.1-0.2-0.1-0.3-0.1c-0.1,0.1-0.1,0.2-0.1,0.3L69.6,256.1z"/>
	<path d="M71.2,259.7h-2.2v-2h2.2L71.2,259.7z M71.4,257.3h-2.6c-0.1,0-0.2,0.1-0.2,0.2v2.4c0,0.1,0.1,0.2,0.2,0.2h2.6
		c0.1,0,0.2-0.1,0.2-0.2l0-2.4C71.6,257.4,71.5,257.3,71.4,257.3L71.4,257.3z"/>
	<path d="M69.6,259.1c0,0,0.1,0.1,0.1,0.1h0c0,0,0.1,0,0.1-0.1l1.1-1c0.1-0.1,0.1-0.2,0-0.3c-0.1-0.1-0.2-0.1-0.3,0l-0.9,0.8
		l-0.3-0.4c-0.1-0.1-0.2-0.1-0.3-0.1c-0.1,0.1-0.1,0.2-0.1,0.3L69.6,259.1z"/>
	<path d="M71.2,263h-2.2v-2h2.2L71.2,263z M71.4,260.7h-2.6c-0.1,0-0.2,0.1-0.2,0.2v2.4c0,0.1,0.1,0.2,0.2,0.2h2.6
		c0.1,0,0.2-0.1,0.2-0.2l0-2.4C71.6,260.7,71.5,260.7,71.4,260.7L71.4,260.7z"/>
	<path d="M69.5,262.5c0,0,0.1,0.1,0.1,0.1h0c0,0,0.1,0,0.1-0.1l1.1-1c0.1-0.1,0.1-0.2,0-0.3c-0.1-0.1-0.2-0.1-0.3,0l-0.9,0.8
		l-0.3-0.4c-0.1-0.1-0.2-0.1-0.3-0.1s-0.1,0.2-0.1,0.3L69.5,262.5z"/>
	<path d="M61.2,253.7c0-0.8,0.6-1.4,1.4-1.4h1.9c0.8,0,1.4,0.6,1.4,1.4v0.6h-4.6L61.2,253.7z M63.5,249.2c0.6,0,1.1,0.5,1.1,1.1
		s-0.5,1.1-1.1,1.1c-0.6,0-1.1-0.5-1.1-1.1C62.4,249.7,62.9,249.2,63.5,249.2z M60.9,254.8h5.2c0.2,0,0.3-0.1,0.3-0.3v-0.8
		c0-1.1-0.9-1.9-1.9-1.9h0c0.5-0.3,0.8-0.8,0.8-1.4c0-0.9-0.8-1.7-1.7-1.7s-1.7,0.8-1.7,1.7c0,0.6,0.3,1.1,0.8,1.4h-0.1
		c-1.1,0-1.9,0.9-1.9,1.9v0.8C60.6,254.7,60.8,254.8,60.9,254.8L60.9,254.8z"/>
	<path d="M61,255.9c-0.2,0-0.3,0.1-0.3,0.3c0,0.2,0.1,0.3,0.3,0.3l5.3,0c0.2,0,0.3-0.1,0.3-0.3c0-0.2-0.1-0.3-0.3-0.3L61,255.9z"/>
	<path d="M66.3,257.7H61c-0.2,0-0.3,0.1-0.3,0.3c0,0.2,0.1,0.3,0.3,0.3l5.3,0c0.2,0,0.3-0.1,0.3-0.3
		C66.5,257.9,66.4,257.7,66.3,257.7L66.3,257.7z"/>
	<path d="M66.5,259.6h-5.6c-0.1,0-0.1,0.1-0.1,0.3c0,0.2,0.1,0.3,0.1,0.3l5.6,0c0.1,0,0.1-0.1,0.1-0.3
		C66.6,259.7,66.6,259.6,66.5,259.6L66.5,259.6z"/>
	<path d="M66.5,261.5h-5.6c-0.1,0-0.1,0.1-0.1,0.3c0,0.2,0.1,0.3,0.1,0.3l5.6,0c0.1,0,0.1-0.1,0.1-0.3
		C66.6,261.6,66.6,261.5,66.5,261.5L66.5,261.5z"/>
	<path d="M66.5,263.4h-5.6c-0.1,0-0.1,0.1-0.1,0.3c0,0.2,0.1,0.3,0.1,0.3l5.6,0c0.1,0,0.1-0.1,0.1-0.3
		C66.6,263.5,66.6,263.4,66.5,263.4z"/>
</g>
<path d="M94.7,265H81v-16.9h8.8v4.4c0,0.2,0.1,0.3,0.3,0.3l4.6,0L94.7,265z M90.4,248.5l3.9,3.7l-3.9,0V248.5z M95.2,252.4
	C95.2,252.4,95.2,252.3,95.2,252.4l-4.9-4.7c0,0-0.1-0.1-0.1-0.1h-0.1h-9.3c-0.2,0-0.3,0.1-0.3,0.3v17.4c0,0.2,0.1,0.3,0.3,0.3h14.2
	c0.2,0,0.3-0.1,0.3-0.3v-1.1l0-11.7C95.2,252.5,95.2,252.4,95.2,252.4L95.2,252.4z"/>
<path d="M92.7,256.5h-2.2v-2h2.2L92.7,256.5z M92.9,254.1h-2.6c-0.1,0-0.2,0.1-0.2,0.2v2.4c0,0.1,0.1,0.2,0.2,0.2h2.6
	c0.1,0,0.2-0.1,0.2-0.2l0-2.4C93.1,254.2,93,254.1,92.9,254.1L92.9,254.1z"/>
<path d="M91.2,256.1c0,0,0.1,0.1,0.1,0.1h0c0,0,0.1,0,0.1-0.1l1.1-1c0.1-0.1,0.1-0.2,0-0.3c-0.1-0.1-0.2-0.1-0.3,0l-0.9,0.8
	l-0.3-0.4c-0.1-0.1-0.2-0.1-0.3-0.1c-0.1,0.1-0.1,0.2-0.1,0.3L91.2,256.1z"/>
<path d="M92.8,259.7h-2.2v-2h2.2L92.8,259.7z M93,257.3h-2.6c-0.1,0-0.2,0.1-0.2,0.2v2.4c0,0.1,0.1,0.2,0.2,0.2H93
	c0.1,0,0.2-0.1,0.2-0.2l0-2.4C93.1,257.4,93.1,257.3,93,257.3L93,257.3z"/>
<path d="M91.2,259.1c0,0,0.1,0.1,0.1,0.1h0c0,0,0.1,0,0.1-0.1l1.1-1c0.1-0.1,0.1-0.2,0-0.3c-0.1-0.1-0.2-0.1-0.3,0l-0.9,0.8
	l-0.3-0.4c-0.1-0.1-0.2-0.1-0.3-0.1c-0.1,0.1-0.1,0.2-0.1,0.3L91.2,259.1z"/>
<path d="M92.8,263h-2.2v-2h2.2L92.8,263z M93,260.7h-2.6c-0.1,0-0.2,0.1-0.2,0.2v2.4c0,0.1,0.1,0.2,0.2,0.2H93
	c0.1,0,0.2-0.1,0.2-0.2l0-2.4C93.1,260.7,93.1,260.7,93,260.7L93,260.7z"/>
<path d="M91.1,262.5c0,0,0.1,0.1,0.1,0.1h0c0,0,0.1,0,0.1-0.1l1.1-1c0.1-0.1,0.1-0.2,0-0.3c-0.1-0.1-0.2-0.1-0.3,0l-0.9,0.8
	l-0.3-0.4c-0.1-0.1-0.2-0.1-0.3-0.1s-0.1,0.2-0.1,0.3L91.1,262.5z"/>
<path d="M82.8,253.7c0-0.8,0.6-1.4,1.4-1.4H86c0.8,0,1.4,0.6,1.4,1.4v0.6h-4.6L82.8,253.7z M85.1,249.2c0.6,0,1.1,0.5,1.1,1.1
	s-0.5,1.1-1.1,1.1c-0.6,0-1.1-0.5-1.1-1.1C84,249.7,84.5,249.2,85.1,249.2z M82.5,254.8h5.2c0.2,0,0.3-0.1,0.3-0.3v-0.8
	c0-1.1-0.9-1.9-1.9-1.9h0c0.5-0.3,0.8-0.8,0.8-1.4c0-0.9-0.8-1.7-1.7-1.7s-1.7,0.8-1.7,1.7c0,0.6,0.3,1.1,0.8,1.4h-0.1
	c-1.1,0-1.9,0.9-1.9,1.9v0.8C82.2,254.7,82.3,254.8,82.5,254.8L82.5,254.8z"/>
<path d="M82.6,255.9c-0.2,0-0.3,0.1-0.3,0.3c0,0.2,0.1,0.3,0.3,0.3l5.3,0c0.2,0,0.3-0.1,0.3-0.3c0-0.2-0.1-0.3-0.3-0.3L82.6,255.9z"
	/>
<path d="M87.8,257.7h-5.3c-0.2,0-0.3,0.1-0.3,0.3c0,0.2,0.1,0.3,0.3,0.3l5.3,0c0.2,0,0.3-0.1,0.3-0.3
	C88.1,257.9,88,257.7,87.8,257.7L87.8,257.7z"/>
<path d="M88.1,259.6h-5.6c-0.1,0-0.1,0.1-0.1,0.3c0,0.2,0.1,0.3,0.1,0.3l5.6,0c0.1,0,0.1-0.1,0.1-0.3
	C88.2,259.7,88.1,259.6,88.1,259.6L88.1,259.6z"/>
<path d="M88.1,261.5h-5.6c-0.1,0-0.1,0.1-0.1,0.3c0,0.2,0.1,0.3,0.1,0.3l5.6,0c0.1,0,0.1-0.1,0.1-0.3
	C88.2,261.6,88.1,261.5,88.1,261.5L88.1,261.5z"/>
<path d="M88.1,263.4h-5.6c-0.1,0-0.1,0.1-0.1,0.3c0,0.2,0.1,0.3,0.1,0.3l5.6,0c0.1,0,0.1-0.1,0.1-0.3
	C88.2,263.5,88.1,263.4,88.1,263.4z"/>
<g>
	<path d="M51.9,285.2H38.2v-16.9H47v4.4c0,0.2,0.1,0.3,0.3,0.3l4.6,0L51.9,285.2z M47.6,268.7l3.9,3.7l-3.9,0V268.7z M52.4,272.6
		C52.4,272.5,52.4,272.5,52.4,272.6l-4.9-4.7c0,0-0.1-0.1-0.1-0.1h-0.1H38c-0.2,0-0.3,0.1-0.3,0.3v17.4c0,0.2,0.1,0.3,0.3,0.3h14.2
		c0.2,0,0.3-0.1,0.3-0.3v-1.1l0-11.7C52.4,272.7,52.4,272.6,52.4,272.6L52.4,272.6z"/>
	<path d="M49.9,276.7h-2.2v-2h2.2L49.9,276.7z M50.1,274.3h-2.6c-0.1,0-0.2,0.1-0.2,0.2v2.4c0,0.1,0.1,0.2,0.2,0.2h2.6
		c0.1,0,0.2-0.1,0.2-0.2l0-2.4C50.3,274.4,50.2,274.3,50.1,274.3L50.1,274.3z"/>
	<path d="M48.4,276.2c0,0,0.1,0.1,0.1,0.1h0c0,0,0.1,0,0.1-0.1l1.1-1c0.1-0.1,0.1-0.2,0-0.3c-0.1-0.1-0.2-0.1-0.3,0l-0.9,0.8
		l-0.3-0.4c-0.1-0.1-0.2-0.1-0.3-0.1s-0.1,0.2-0.1,0.3L48.4,276.2z"/>
	<path d="M50,279.9h-2.2v-2H50L50,279.9z M50.2,277.5h-2.6c-0.1,0-0.2,0.1-0.2,0.2v2.4c0,0.1,0.1,0.2,0.2,0.2h2.6
		c0.1,0,0.2-0.1,0.2-0.2l0-2.4C50.3,277.6,50.3,277.5,50.2,277.5L50.2,277.5z"/>
	<path d="M48.4,279.3c0,0,0.1,0.1,0.1,0.1h0c0,0,0.1,0,0.1-0.1l1.1-1c0.1-0.1,0.1-0.2,0-0.3c-0.1-0.1-0.2-0.1-0.3,0l-0.9,0.8
		l-0.3-0.4c-0.1-0.1-0.2-0.1-0.3-0.1s-0.1,0.2-0.1,0.3L48.4,279.3z"/>
	<path d="M50,283.2h-2.2v-2H50L50,283.2z M50.2,280.8h-2.6c-0.1,0-0.2,0.1-0.2,0.2v2.4c0,0.1,0.1,0.2,0.2,0.2h2.6
		c0.1,0,0.2-0.1,0.2-0.2l0-2.4C50.3,280.9,50.3,280.8,50.2,280.8L50.2,280.8z"/>
	<path d="M48.3,282.7c0,0,0.1,0.1,0.1,0.1h0c0,0,0.1,0,0.1-0.1l1.1-1c0.1-0.1,0.1-0.2,0-0.3c-0.1-0.1-0.2-0.1-0.3,0l-0.9,0.8
		l-0.3-0.4c-0.1-0.1-0.2-0.1-0.3-0.1c-0.1,0.1-0.1,0.2-0.1,0.3L48.3,282.7z"/>
	<path d="M40,273.9c0-0.8,0.6-1.4,1.4-1.4h1.9c0.8,0,1.4,0.6,1.4,1.4v0.6H40L40,273.9z M42.3,269.4c0.6,0,1.1,0.5,1.1,1.1
		s-0.5,1.1-1.1,1.1s-1.1-0.5-1.1-1.1C41.2,269.9,41.7,269.4,42.3,269.4z M39.7,275h5.2c0.2,0,0.3-0.1,0.3-0.3v-0.8
		c0-1.1-0.9-1.9-1.9-1.9h0c0.5-0.3,0.8-0.8,0.8-1.4c0-0.9-0.8-1.7-1.7-1.7c-0.9,0-1.7,0.8-1.7,1.7c0,0.6,0.3,1.1,0.8,1.4h-0.1
		c-1.1,0-1.9,0.9-1.9,1.9v0.8C39.4,274.8,39.5,275,39.7,275L39.7,275z"/>
	<path d="M39.8,276.1c-0.2,0-0.3,0.1-0.3,0.3c0,0.2,0.1,0.3,0.3,0.3l5.3,0c0.2,0,0.3-0.1,0.3-0.3c0-0.2-0.1-0.3-0.3-0.3L39.8,276.1z
		"/>
	<path d="M45,277.9h-5.3c-0.2,0-0.3,0.1-0.3,0.3c0,0.2,0.1,0.3,0.3,0.3l5.3,0c0.2,0,0.3-0.1,0.3-0.3C45.3,278.1,45.2,277.9,45,277.9
		L45,277.9z"/>
	<path d="M45.3,279.8h-5.6c-0.1,0-0.1,0.1-0.1,0.3c0,0.2,0.1,0.3,0.1,0.3l5.6,0c0.1,0,0.1-0.1,0.1-0.3
		C45.4,279.9,45.3,279.8,45.3,279.8L45.3,279.8z"/>
	<path d="M45.3,281.7h-5.6c-0.1,0-0.1,0.1-0.1,0.3c0,0.2,0.1,0.3,0.1,0.3l5.6,0c0.1,0,0.1-0.1,0.1-0.3
		C45.4,281.8,45.3,281.7,45.3,281.7L45.3,281.7z"/>
	<path d="M45.3,283.5h-5.6c-0.1,0-0.1,0.1-0.1,0.3c0,0.2,0.1,0.3,0.1,0.3l5.6,0c0.1,0,0.1-0.1,0.1-0.3
		C45.4,283.6,45.3,283.5,45.3,283.5z"/>
</g>
<g>
	<path d="M73.4,285.2H59.8v-16.9h8.8v4.4c0,0.2,0.1,0.3,0.3,0.3l4.6,0L73.4,285.2z M69.2,268.7l3.9,3.7l-3.9,0V268.7z M74,272.6
		C73.9,272.5,73.9,272.5,74,272.6l-4.9-4.7c0,0-0.1-0.1-0.1-0.1h-0.1h-9.3c-0.2,0-0.3,0.1-0.3,0.3v17.4c0,0.2,0.1,0.3,0.3,0.3h14.2
		c0.2,0,0.3-0.1,0.3-0.3v-1.1l0-11.7C74,272.7,74,272.6,74,272.6L74,272.6z"/>
	<path d="M71.5,276.7h-2.2v-2h2.2L71.5,276.7z M71.7,274.3h-2.6c-0.1,0-0.2,0.1-0.2,0.2v2.4c0,0.1,0.1,0.2,0.2,0.2h2.6
		c0.1,0,0.2-0.1,0.2-0.2l0-2.4C71.9,274.4,71.8,274.3,71.7,274.3L71.7,274.3z"/>
	<path d="M69.9,276.2c0,0,0.1,0.1,0.1,0.1h0c0,0,0.1,0,0.1-0.1l1.1-1c0.1-0.1,0.1-0.2,0-0.3c-0.1-0.1-0.2-0.1-0.3,0l-0.9,0.8
		l-0.3-0.4c-0.1-0.1-0.2-0.1-0.3-0.1s-0.1,0.2-0.1,0.3L69.9,276.2z"/>
	<path d="M71.5,279.9h-2.2v-2h2.2L71.5,279.9z M71.7,277.5h-2.6c-0.1,0-0.2,0.1-0.2,0.2v2.4c0,0.1,0.1,0.2,0.2,0.2h2.6
		c0.1,0,0.2-0.1,0.2-0.2l0-2.4C71.9,277.6,71.8,277.5,71.7,277.5L71.7,277.5z"/>
	<path d="M69.9,279.3c0,0,0.1,0.1,0.1,0.1h0c0,0,0.1,0,0.1-0.1l1.1-1c0.1-0.1,0.1-0.2,0-0.3c-0.1-0.1-0.2-0.1-0.3,0l-0.9,0.8
		l-0.3-0.4c-0.1-0.1-0.2-0.1-0.3-0.1s-0.1,0.2-0.1,0.3L69.9,279.3z"/>
	<path d="M71.5,283.2h-2.2v-2h2.2L71.5,283.2z M71.7,280.8h-2.6c-0.1,0-0.2,0.1-0.2,0.2v2.4c0,0.1,0.1,0.2,0.2,0.2h2.6
		c0.1,0,0.2-0.1,0.2-0.2l0-2.4C71.9,280.9,71.8,280.8,71.7,280.8L71.7,280.8z"/>
	<path d="M69.9,282.7c0,0,0.1,0.1,0.1,0.1h0c0,0,0.1,0,0.1-0.1l1.1-1c0.1-0.1,0.1-0.2,0-0.3c-0.1-0.1-0.2-0.1-0.3,0l-0.9,0.8
		l-0.3-0.4c-0.1-0.1-0.2-0.1-0.3-0.1c-0.1,0.1-0.1,0.2-0.1,0.3L69.9,282.7z"/>
	<path d="M61.5,273.9c0-0.8,0.6-1.4,1.4-1.4h1.9c0.8,0,1.4,0.6,1.4,1.4v0.6h-4.6L61.5,273.9z M63.9,269.4c0.6,0,1.1,0.5,1.1,1.1
		s-0.5,1.1-1.1,1.1c-0.6,0-1.1-0.5-1.1-1.1C62.7,269.9,63.2,269.4,63.9,269.4z M61.3,275h5.2c0.2,0,0.3-0.1,0.3-0.3v-0.8
		c0-1.1-0.9-1.9-1.9-1.9h0c0.5-0.3,0.8-0.8,0.8-1.4c0-0.9-0.8-1.7-1.7-1.7c-0.9,0-1.7,0.8-1.7,1.7c0,0.6,0.3,1.1,0.8,1.4h-0.1
		c-1.1,0-1.9,0.9-1.9,1.9v0.8C61,274.8,61.1,275,61.3,275L61.3,275z"/>
	<path d="M61.3,276.1c-0.2,0-0.3,0.1-0.3,0.3c0,0.2,0.1,0.3,0.3,0.3l5.3,0c0.2,0,0.3-0.1,0.3-0.3c0-0.2-0.1-0.3-0.3-0.3L61.3,276.1z
		"/>
	<path d="M66.6,277.9h-5.3c-0.2,0-0.3,0.1-0.3,0.3c0,0.2,0.1,0.3,0.3,0.3l5.3,0c0.2,0,0.3-0.1,0.3-0.3
		C66.9,278.1,66.8,277.9,66.6,277.9L66.6,277.9z"/>
	<path d="M66.8,279.8h-5.6c-0.1,0-0.1,0.1-0.1,0.3c0,0.2,0.1,0.3,0.1,0.3l5.6,0c0.1,0,0.1-0.1,0.1-0.3
		C67,279.9,66.9,279.8,66.8,279.8L66.8,279.8z"/>
	<path d="M66.8,281.7h-5.6c-0.1,0-0.1,0.1-0.1,0.3c0,0.2,0.1,0.3,0.1,0.3l5.6,0c0.1,0,0.1-0.1,0.1-0.3
		C67,281.8,66.9,281.7,66.8,281.7L66.8,281.7z"/>
	<path d="M66.8,283.5h-5.6c-0.1,0-0.1,0.1-0.1,0.3c0,0.2,0.1,0.3,0.1,0.3l5.6,0c0.1,0,0.1-0.1,0.1-0.3
		C67,283.6,66.9,283.5,66.8,283.5z"/>
</g>
<g>
	<path d="M95,285.2H81.4v-16.9h8.8v4.4c0,0.2,0.1,0.3,0.3,0.3l4.6,0L95,285.2z M90.7,268.7l3.9,3.7l-3.9,0V268.7z M95.5,272.6
		C95.5,272.5,95.5,272.5,95.5,272.6l-4.9-4.7c0,0-0.1-0.1-0.1-0.1h-0.1h-9.3c-0.2,0-0.3,0.1-0.3,0.3v17.4c0,0.2,0.1,0.3,0.3,0.3
		h14.2c0.2,0,0.3-0.1,0.3-0.3v-1.1l0-11.7C95.6,272.7,95.6,272.6,95.5,272.6L95.5,272.6z"/>
	<path d="M93.1,276.7h-2.2v-2h2.2L93.1,276.7z M93.3,274.3h-2.6c-0.1,0-0.2,0.1-0.2,0.2v2.4c0,0.1,0.1,0.2,0.2,0.2h2.6
		c0.1,0,0.2-0.1,0.2-0.2l0-2.4C93.5,274.4,93.4,274.3,93.3,274.3L93.3,274.3z"/>
	<path d="M91.5,276.2c0,0,0.1,0.1,0.1,0.1h0c0,0,0.1,0,0.1-0.1l1.1-1c0.1-0.1,0.1-0.2,0-0.3c-0.1-0.1-0.2-0.1-0.3,0l-0.9,0.8
		l-0.3-0.4c-0.1-0.1-0.2-0.1-0.3-0.1s-0.1,0.2-0.1,0.3L91.5,276.2z"/>
	<path d="M93.1,279.9h-2.2v-2h2.2L93.1,279.9z M93.3,277.5h-2.6c-0.1,0-0.2,0.1-0.2,0.2v2.4c0,0.1,0.1,0.2,0.2,0.2h2.6
		c0.1,0,0.2-0.1,0.2-0.2l0-2.4C93.5,277.6,93.4,277.5,93.3,277.5L93.3,277.5z"/>
	<path d="M91.5,279.3c0,0,0.1,0.1,0.1,0.1h0c0,0,0.1,0,0.1-0.1l1.1-1c0.1-0.1,0.1-0.2,0-0.3c-0.1-0.1-0.2-0.1-0.3,0l-0.9,0.8
		l-0.3-0.4c-0.1-0.1-0.2-0.1-0.3-0.1s-0.1,0.2-0.1,0.3L91.5,279.3z"/>
	<path d="M93.1,283.2h-2.2v-2h2.2L93.1,283.2z M93.3,280.8h-2.6c-0.1,0-0.2,0.1-0.2,0.2v2.4c0,0.1,0.1,0.2,0.2,0.2h2.6
		c0.1,0,0.2-0.1,0.2-0.2l0-2.4C93.5,280.9,93.4,280.8,93.3,280.8L93.3,280.8z"/>
	<path d="M91.5,282.7c0,0,0.1,0.1,0.1,0.1h0c0,0,0.1,0,0.1-0.1l1.1-1c0.1-0.1,0.1-0.2,0-0.3c-0.1-0.1-0.2-0.1-0.3,0l-0.9,0.8
		l-0.3-0.4c-0.1-0.1-0.2-0.1-0.3-0.1c-0.1,0.1-0.1,0.2-0.1,0.3L91.5,282.7z"/>
	<path d="M83.1,273.9c0-0.8,0.6-1.4,1.4-1.4h1.9c0.8,0,1.4,0.6,1.4,1.4v0.6h-4.6L83.1,273.9z M85.4,269.4c0.6,0,1.1,0.5,1.1,1.1
		s-0.5,1.1-1.1,1.1c-0.6,0-1.1-0.5-1.1-1.1C84.3,269.9,84.8,269.4,85.4,269.4z M82.8,275H88c0.2,0,0.3-0.1,0.3-0.3v-0.8
		c0-1.1-0.9-1.9-1.9-1.9h0c0.5-0.3,0.8-0.8,0.8-1.4c0-0.9-0.8-1.7-1.7-1.7c-0.9,0-1.7,0.8-1.7,1.7c0,0.6,0.3,1.1,0.8,1.4h-0.1
		c-1.1,0-1.9,0.9-1.9,1.9v0.8C82.6,274.8,82.7,275,82.8,275L82.8,275z"/>
	<path d="M82.9,276.1c-0.2,0-0.3,0.1-0.3,0.3c0,0.2,0.1,0.3,0.3,0.3l5.3,0c0.2,0,0.3-0.1,0.3-0.3c0-0.2-0.1-0.3-0.3-0.3L82.9,276.1z
		"/>
	<path d="M88.2,277.9h-5.3c-0.2,0-0.3,0.1-0.3,0.3c0,0.2,0.1,0.3,0.3,0.3l5.3,0c0.2,0,0.3-0.1,0.3-0.3
		C88.5,278.1,88.4,277.9,88.2,277.9L88.2,277.9z"/>
	<path d="M88.4,279.8h-5.6c-0.1,0-0.1,0.1-0.1,0.3c0,0.2,0.1,0.3,0.1,0.3l5.6,0c0.1,0,0.1-0.1,0.1-0.3
		C88.6,279.9,88.5,279.8,88.4,279.8L88.4,279.8z"/>
	<path d="M88.4,281.7h-5.6c-0.1,0-0.1,0.1-0.1,0.3c0,0.2,0.1,0.3,0.1,0.3l5.6,0c0.1,0,0.1-0.1,0.1-0.3
		C88.6,281.8,88.5,281.7,88.4,281.7L88.4,281.7z"/>
	<path d="M88.4,283.5h-5.6c-0.1,0-0.1,0.1-0.1,0.3c0,0.2,0.1,0.3,0.1,0.3l5.6,0c0.1,0,0.1-0.1,0.1-0.3
		C88.6,283.6,88.5,283.5,88.4,283.5z"/>
</g>
<g>
	<path d="M51.9,305.1H38.3v-16.9h8.8v4.4c0,0.2,0.1,0.3,0.3,0.3l4.6,0L51.9,305.1z M47.7,288.6l3.9,3.7l-3.9,0V288.6z M52.5,292.5
		C52.4,292.4,52.4,292.4,52.5,292.5l-4.9-4.7c0,0-0.1-0.1-0.1-0.1h-0.1H38c-0.2,0-0.3,0.1-0.3,0.3v17.4c0,0.2,0.1,0.3,0.3,0.3h14.2
		c0.2,0,0.3-0.1,0.3-0.3v-1.1l0-11.7C52.5,292.6,52.5,292.5,52.5,292.5L52.5,292.5z"/>
	<path d="M50,296.6h-2.2v-2H50L50,296.6z M50.2,294.2h-2.6c-0.1,0-0.2,0.1-0.2,0.2v2.4c0,0.1,0.1,0.2,0.2,0.2h2.6
		c0.1,0,0.2-0.1,0.2-0.2l0-2.4C50.4,294.3,50.3,294.2,50.2,294.2L50.2,294.2z"/>
	<path d="M48.4,296.2c0,0,0.1,0.1,0.1,0.1h0c0,0,0.1,0,0.1-0.1l1.1-1c0.1-0.1,0.1-0.2,0-0.3c-0.1-0.1-0.2-0.1-0.3,0l-0.9,0.8
		l-0.3-0.4c-0.1-0.1-0.2-0.1-0.3-0.1c-0.1,0.1-0.1,0.2-0.1,0.3L48.4,296.2z"/>
	<path d="M50.1,299.8h-2.2v-2h2.2L50.1,299.8z M50.2,297.4h-2.6c-0.1,0-0.2,0.1-0.2,0.2v2.4c0,0.1,0.1,0.2,0.2,0.2h2.6
		c0.1,0,0.2-0.1,0.2-0.2l0-2.4C50.4,297.5,50.3,297.4,50.2,297.4L50.2,297.4z"/>
	<path d="M48.4,299.2c0,0,0.1,0.1,0.1,0.1h0c0,0,0.1,0,0.1-0.1l1.1-1c0.1-0.1,0.1-0.2,0-0.3c-0.1-0.1-0.2-0.1-0.3,0l-0.9,0.8
		l-0.3-0.4c-0.1-0.1-0.2-0.1-0.3-0.1c-0.1,0.1-0.1,0.2-0.1,0.3L48.4,299.2z"/>
	<path d="M50.1,303.1h-2.2v-2h2.2L50.1,303.1z M50.2,300.7h-2.6c-0.1,0-0.2,0.1-0.2,0.2v2.4c0,0.1,0.1,0.2,0.2,0.2h2.6
		c0.1,0,0.2-0.1,0.2-0.2l0-2.4C50.4,300.8,50.3,300.7,50.2,300.7L50.2,300.7z"/>
	<path d="M48.4,302.6c0,0,0.1,0.1,0.1,0.1h0c0,0,0.1,0,0.1-0.1l1.1-1c0.1-0.1,0.1-0.2,0-0.3c-0.1-0.1-0.2-0.1-0.3,0l-0.9,0.8
		l-0.3-0.4c-0.1-0.1-0.2-0.1-0.3-0.1S48,301.9,48,302L48.4,302.6z"/>
	<path d="M40,293.8c0-0.8,0.6-1.4,1.4-1.4h1.9c0.8,0,1.4,0.6,1.4,1.4v0.6H40L40,293.8z M42.4,289.3c0.6,0,1.1,0.5,1.1,1.1
		c0,0.6-0.5,1.1-1.1,1.1s-1.1-0.5-1.1-1.1C41.2,289.8,41.8,289.3,42.4,289.3z M39.8,294.9h5.2c0.2,0,0.3-0.1,0.3-0.3v-0.8
		c0-1.1-0.9-1.9-1.9-1.9h0c0.5-0.3,0.8-0.8,0.8-1.4c0-0.9-0.8-1.7-1.7-1.7c-0.9,0-1.7,0.8-1.7,1.7c0,0.6,0.3,1.1,0.8,1.4h-0.1
		c-1.1,0-1.9,0.9-1.9,1.9v0.8C39.5,294.8,39.6,294.9,39.8,294.9L39.8,294.9z"/>
	<path d="M39.8,296c-0.2,0-0.3,0.1-0.3,0.3c0,0.2,0.1,0.3,0.3,0.3l5.3,0c0.2,0,0.3-0.1,0.3-0.3c0-0.2-0.1-0.3-0.3-0.3L39.8,296z"/>
	<path d="M45.1,297.8h-5.3c-0.2,0-0.3,0.1-0.3,0.3c0,0.2,0.1,0.3,0.3,0.3l5.3,0c0.2,0,0.3-0.1,0.3-0.3
		C45.4,298,45.3,297.8,45.1,297.8L45.1,297.8z"/>
	<path d="M45.3,299.7h-5.6c-0.1,0-0.1,0.1-0.1,0.3c0,0.2,0.1,0.3,0.1,0.3l5.6,0c0.1,0,0.1-0.1,0.1-0.3
		C45.5,299.8,45.4,299.7,45.3,299.7L45.3,299.7z"/>
	<path d="M45.3,301.6h-5.6c-0.1,0-0.1,0.1-0.1,0.3c0,0.2,0.1,0.3,0.1,0.3l5.6,0c0.1,0,0.1-0.1,0.1-0.3
		C45.5,301.7,45.4,301.6,45.3,301.6L45.3,301.6z"/>
	<path d="M45.3,303.5h-5.6c-0.1,0-0.1,0.1-0.1,0.3c0,0.2,0.1,0.3,0.1,0.3l5.6,0c0.1,0,0.1-0.1,0.1-0.3
		C45.5,303.6,45.4,303.5,45.3,303.5z"/>
</g>
<g>
	<path d="M73.5,305.1H59.9v-16.9h8.8v4.4c0,0.2,0.1,0.3,0.3,0.3l4.6,0L73.5,305.1z M69.2,288.6l3.9,3.7l-3.9,0V288.6z M74,292.5
		C74,292.4,74,292.4,74,292.5l-4.9-4.7c0,0-0.1-0.1-0.1-0.1H69h-9.3c-0.2,0-0.3,0.1-0.3,0.3v17.4c0,0.2,0.1,0.3,0.3,0.3h14.2
		c0.2,0,0.3-0.1,0.3-0.3v-1.1l0-11.7C74.1,292.6,74.1,292.5,74,292.5L74,292.5z"/>
	<path d="M71.6,296.6h-2.2v-2h2.2L71.6,296.6z M71.8,294.2h-2.6c-0.1,0-0.2,0.1-0.2,0.2v2.4c0,0.1,0.1,0.2,0.2,0.2h2.6
		c0.1,0,0.2-0.1,0.2-0.2l0-2.4C72,294.3,71.9,294.2,71.8,294.2L71.8,294.2z"/>
	<path d="M70,296.2c0,0,0.1,0.1,0.1,0.1h0c0,0,0.1,0,0.1-0.1l1.1-1c0.1-0.1,0.1-0.2,0-0.3c-0.1-0.1-0.2-0.1-0.3,0l-0.9,0.8l-0.3-0.4
		c-0.1-0.1-0.2-0.1-0.3-0.1c-0.1,0.1-0.1,0.2-0.1,0.3L70,296.2z"/>
	<path d="M71.6,299.8h-2.2v-2h2.2L71.6,299.8z M71.8,297.4h-2.6c-0.1,0-0.2,0.1-0.2,0.2v2.4c0,0.1,0.1,0.2,0.2,0.2h2.6
		c0.1,0,0.2-0.1,0.2-0.2l0-2.4C72,297.5,71.9,297.4,71.8,297.4L71.8,297.4z"/>
	<path d="M70,299.2c0,0,0.1,0.1,0.1,0.1h0c0,0,0.1,0,0.1-0.1l1.1-1c0.1-0.1,0.1-0.2,0-0.3c-0.1-0.1-0.2-0.1-0.3,0l-0.9,0.8l-0.3-0.4
		c-0.1-0.1-0.2-0.1-0.3-0.1c-0.1,0.1-0.1,0.2-0.1,0.3L70,299.2z"/>
	<path d="M71.6,303.1h-2.2v-2h2.2L71.6,303.1z M71.8,300.7h-2.6c-0.1,0-0.2,0.1-0.2,0.2v2.4c0,0.1,0.1,0.2,0.2,0.2h2.6
		c0.1,0,0.2-0.1,0.2-0.2l0-2.4C72,300.8,71.9,300.7,71.8,300.7L71.8,300.7z"/>
	<path d="M70,302.6c0,0,0.1,0.1,0.1,0.1h0c0,0,0.1,0,0.1-0.1l1.1-1c0.1-0.1,0.1-0.2,0-0.3c-0.1-0.1-0.2-0.1-0.3,0l-0.9,0.8l-0.3-0.4
		c-0.1-0.1-0.2-0.1-0.3-0.1s-0.1,0.2-0.1,0.3L70,302.6z"/>
	<path d="M61.6,293.8c0-0.8,0.6-1.4,1.4-1.4h1.9c0.8,0,1.4,0.6,1.4,1.4v0.6h-4.6L61.6,293.8z M64,289.3c0.6,0,1.1,0.5,1.1,1.1
		c0,0.6-0.5,1.1-1.1,1.1c-0.6,0-1.1-0.5-1.1-1.1C62.8,289.8,63.3,289.3,64,289.3z M61.3,294.9h5.2c0.2,0,0.3-0.1,0.3-0.3v-0.8
		c0-1.1-0.9-1.9-1.9-1.9h0c0.5-0.3,0.8-0.8,0.8-1.4c0-0.9-0.8-1.7-1.7-1.7c-0.9,0-1.7,0.8-1.7,1.7c0,0.6,0.3,1.1,0.8,1.4H63
		c-1.1,0-1.9,0.9-1.9,1.9v0.8C61.1,294.8,61.2,294.9,61.3,294.9L61.3,294.9z"/>
	<path d="M61.4,296c-0.2,0-0.3,0.1-0.3,0.3c0,0.2,0.1,0.3,0.3,0.3l5.3,0c0.2,0,0.3-0.1,0.3-0.3c0-0.2-0.1-0.3-0.3-0.3L61.4,296z"/>
	<path d="M66.7,297.8h-5.3c-0.2,0-0.3,0.1-0.3,0.3c0,0.2,0.1,0.3,0.3,0.3l5.3,0c0.2,0,0.3-0.1,0.3-0.3C67,298,66.9,297.8,66.7,297.8
		L66.7,297.8z"/>
	<path d="M66.9,299.7h-5.6c-0.1,0-0.1,0.1-0.1,0.3c0,0.2,0.1,0.3,0.1,0.3l5.6,0c0.1,0,0.1-0.1,0.1-0.3
		C67.1,299.8,67,299.7,66.9,299.7L66.9,299.7z"/>
	<path d="M66.9,301.6h-5.6c-0.1,0-0.1,0.1-0.1,0.3c0,0.2,0.1,0.3,0.1,0.3l5.6,0c0.1,0,0.1-0.1,0.1-0.3
		C67.1,301.7,67,301.6,66.9,301.6L66.9,301.6z"/>
	<path d="M66.9,303.5h-5.6c-0.1,0-0.1,0.1-0.1,0.3c0,0.2,0.1,0.3,0.1,0.3l5.6,0c0.1,0,0.1-0.1,0.1-0.3
		C67.1,303.6,67,303.5,66.9,303.5z"/>
</g>
<g>
	<path d="M95.1,305.1H81.5v-16.9h8.8v4.4c0,0.2,0.1,0.3,0.3,0.3l4.6,0L95.1,305.1z M90.8,288.6l3.9,3.7l-3.9,0V288.6z M95.6,292.5
		C95.6,292.4,95.6,292.4,95.6,292.5l-4.9-4.7c0,0-0.1-0.1-0.1-0.1h-0.1h-9.3c-0.2,0-0.3,0.1-0.3,0.3v17.4c0,0.2,0.1,0.3,0.3,0.3
		h14.2c0.2,0,0.3-0.1,0.3-0.3v-1.1l0-11.7C95.6,292.6,95.6,292.5,95.6,292.5L95.6,292.5z"/>
	<path d="M93.2,296.6h-2.2v-2h2.2L93.2,296.6z M93.4,294.2h-2.6c-0.1,0-0.2,0.1-0.2,0.2v2.4c0,0.1,0.1,0.2,0.2,0.2h2.6
		c0.1,0,0.2-0.1,0.2-0.2l0-2.4C93.5,294.3,93.5,294.2,93.4,294.2L93.4,294.2z"/>
	<path d="M91.6,296.2c0,0,0.1,0.1,0.1,0.1h0c0,0,0.1,0,0.1-0.1l1.1-1c0.1-0.1,0.1-0.2,0-0.3c-0.1-0.1-0.2-0.1-0.3,0l-0.9,0.8
		l-0.3-0.4c-0.1-0.1-0.2-0.1-0.3-0.1c-0.1,0.1-0.1,0.2-0.1,0.3L91.6,296.2z"/>
	<path d="M93.2,299.8H91v-2h2.2L93.2,299.8z M93.4,297.4h-2.6c-0.1,0-0.2,0.1-0.2,0.2v2.4c0,0.1,0.1,0.2,0.2,0.2h2.6
		c0.1,0,0.2-0.1,0.2-0.2l0-2.4C93.6,297.5,93.5,297.4,93.4,297.4L93.4,297.4z"/>
	<path d="M91.6,299.2c0,0,0.1,0.1,0.1,0.1h0c0,0,0.1,0,0.1-0.1l1.1-1c0.1-0.1,0.1-0.2,0-0.3c-0.1-0.1-0.2-0.1-0.3,0l-0.9,0.8
		l-0.3-0.4c-0.1-0.1-0.2-0.1-0.3-0.1c-0.1,0.1-0.1,0.2-0.1,0.3L91.6,299.2z"/>
	<path d="M93.2,303.1H91v-2h2.2L93.2,303.1z M93.4,300.7h-2.6c-0.1,0-0.2,0.1-0.2,0.2v2.4c0,0.1,0.1,0.2,0.2,0.2h2.6
		c0.1,0,0.2-0.1,0.2-0.2l0-2.4C93.6,300.8,93.5,300.7,93.4,300.7L93.4,300.7z"/>
	<path d="M91.5,302.6c0,0,0.1,0.1,0.1,0.1h0c0,0,0.1,0,0.1-0.1l1.1-1c0.1-0.1,0.1-0.2,0-0.3c-0.1-0.1-0.2-0.1-0.3,0l-0.9,0.8
		l-0.3-0.4c-0.1-0.1-0.2-0.1-0.3-0.1c-0.1,0.1-0.1,0.2-0.1,0.3L91.5,302.6z"/>
	<path d="M83.2,293.8c0-0.8,0.6-1.4,1.4-1.4h1.9c0.8,0,1.4,0.6,1.4,1.4v0.6h-4.6L83.2,293.8z M85.5,289.3c0.6,0,1.1,0.5,1.1,1.1
		c0,0.6-0.5,1.1-1.1,1.1c-0.6,0-1.1-0.5-1.1-1.1C84.4,289.8,84.9,289.3,85.5,289.3z M82.9,294.9h5.2c0.2,0,0.3-0.1,0.3-0.3v-0.8
		c0-1.1-0.9-1.9-1.9-1.9h0c0.5-0.3,0.8-0.8,0.8-1.4c0-0.9-0.8-1.7-1.7-1.7c-0.9,0-1.7,0.8-1.7,1.7c0,0.6,0.3,1.1,0.8,1.4h-0.1
		c-1.1,0-1.9,0.9-1.9,1.9v0.8C82.6,294.8,82.8,294.9,82.9,294.9L82.9,294.9z"/>
	<path d="M83,296c-0.2,0-0.3,0.1-0.3,0.3c0,0.2,0.1,0.3,0.3,0.3l5.3,0c0.2,0,0.3-0.1,0.3-0.3c0-0.2-0.1-0.3-0.3-0.3L83,296z"/>
	<path d="M88.3,297.8H83c-0.2,0-0.3,0.1-0.3,0.3c0,0.2,0.1,0.3,0.3,0.3l5.3,0c0.2,0,0.3-0.1,0.3-0.3C88.6,298,88.4,297.8,88.3,297.8
		L88.3,297.8z"/>
	<path d="M88.5,299.7h-5.6c-0.1,0-0.1,0.1-0.1,0.3c0,0.2,0.1,0.3,0.1,0.3l5.6,0c0.1,0,0.1-0.1,0.1-0.3
		C88.6,299.8,88.6,299.7,88.5,299.7L88.5,299.7z"/>
	<path d="M88.5,301.6h-5.6c-0.1,0-0.1,0.1-0.1,0.3c0,0.2,0.1,0.3,0.1,0.3l5.6,0c0.1,0,0.1-0.1,0.1-0.3
		C88.6,301.7,88.6,301.6,88.5,301.6L88.5,301.6z"/>
	<path d="M88.5,303.5h-5.6c-0.1,0-0.1,0.1-0.1,0.3c0,0.2,0.1,0.3,0.1,0.3l5.6,0c0.1,0,0.1-0.1,0.1-0.3
		C88.6,303.6,88.6,303.5,88.5,303.5z"/>
</g>
<g>
	<path d="M189.1,275.1L189.1,275.1c-2,0-3.9,0.8-5.3,2.3c-1.9,1.9-2.6,4.8-1.9,7.4c0.7,2.6,2.7,4.7,5.3,5.4c2.6,0.7,5.3,0,7.3-1.9
		c1.4-1.4,2.2-3.4,2.2-5.4c0-2-0.8-4-2.2-5.4C193,275.9,191.1,275.1,189.1,275.1L189.1,275.1z M189.1,291.6c-1.6,0-3.3-0.5-4.6-1.4
		c-2.2-1.4-3.7-3.8-4-6.5c-0.3-2.7,0.6-5.3,2.5-7.2c1.6-1.7,3.8-2.6,6.1-2.6c2.3,0,4.5,0.9,6.1,2.6c1.6,1.7,2.5,3.9,2.5,6.3
		c0,2.3-0.9,4.6-2.6,6.3C193.6,290.7,191.4,291.6,189.1,291.6L189.1,291.6z"/>
	<path d="M191,277.7c-0.8-0.2-1.6-0.3-2.3-0.2l-0.2-1.1c1-0.2,1.9-0.1,2.8,0.2L191,277.7z"/>
	<path d="M182.2,288.1l-7.7,7.8c-0.1,0.1-0.1,0.4,0,0.5l1.2,1.2c0.1,0.1,0.3,0.1,0.5,0l7.7-7.8C183.2,289.4,182.7,288.8,182.2,288.1
		L182.2,288.1z M176,298.9c-0.4,0-0.8-0.2-1-0.4l-1.2-1.2c-0.6-0.6-0.6-1.5,0-2.1l8.1-8.3c0.1-0.1,0.3-0.2,0.5-0.2s0.3,0.1,0.4,0.3
		c0.6,1,1.4,1.8,2.3,2.4c0.1,0.1,0.2,0.3,0.3,0.4c0,0.2,0,0.3-0.2,0.5l-8.1,8.3C176.8,298.7,176.4,298.9,176,298.9L176,298.9z"/>
	<path d="M200.4,272.1h5.3l-5.3-5.4V272.1z M207,273.2h-7.2c-0.1,0-0.3-0.1-0.4-0.2c-0.1-0.1-0.2-0.3-0.2-0.4v-7.4
		c0-0.2,0.1-0.4,0.4-0.5c0.2-0.1,0.5,0,0.6,0.1l7.2,7.4c0.2,0.2,0.2,0.4,0.1,0.6C207.4,273.1,207.2,273.2,207,273.2L207,273.2z"/>
	<path d="M207,299.2h-24.4c-0.2,0-0.3-0.1-0.4-0.2c-0.1-0.1-0.2-0.3-0.2-0.4v-3.4h1.1v2.8h23.3l0-25.1l-6.9-7h-16.4v8.5H182l0-9
		c0-0.3,0.3-0.6,0.6-0.6h17.2c0.2,0,0.3,0.1,0.4,0.2l7.2,7.4c0.1,0.1,0.2,0.3,0.2,0.4v25.9c0,0.2-0.1,0.3-0.2,0.4
		C207.3,299.1,207.2,299.2,207,299.2L207,299.2z"/>
	<rect x="185.7" y="281.1" width="1.1" height="4.7"/>
	<rect x="188.3" y="282.4" width="1.1" height="3.4"/>
	<rect x="191.1" y="279.7" width="1.1" height="6.1"/>
	<rect x="193.9" y="293.1" width="5.3" height="1.2"/>
	<rect x="193.9" y="296.6" width="5.3" height="1.2"/>
	<rect x="184.2" y="296.5" width="8" height="1.2"/>
	<rect x="184.5" y="293.1" width="8" height="1.2"/>
	<path d="M185.9,271.4c0-0.8,0.6-1.4,1.4-1.4h2c0.8,0,1.4,0.7,1.4,1.4v0.6h-4.8L185.9,271.4z M188.3,266.7c0.6,0,1.2,0.5,1.2,1.2
		s-0.5,1.2-1.2,1.2c-0.6,0-1.2-0.5-1.2-1.2C187.2,267.3,187.7,266.7,188.3,266.7z M185.7,272.6h5.3c0.2,0,0.3-0.1,0.3-0.3v-0.9
		c0-1.1-0.9-2-2-2h0c0.5-0.3,0.8-0.9,0.8-1.5c0-1-0.8-1.8-1.7-1.8s-1.7,0.8-1.7,1.8c0,0.6,0.3,1.2,0.8,1.5h-0.1c-1.1,0-2,0.9-2,2
		v0.9C185.4,272.5,185.5,272.6,185.7,272.6L185.7,272.6z"/>
	<path d="M203.3,280.2h-3.5V277h3.5L203.3,280.2z M203.6,276.4h-4.1c-0.2,0-0.3,0.1-0.3,0.3v3.8c0,0.2,0.1,0.3,0.3,0.3h4.1
		c0.2,0,0.3-0.1,0.3-0.3l0-3.8C203.9,276.6,203.7,276.4,203.6,276.4L203.6,276.4z"/>
	<path d="M200.8,279.6c0.1,0.1,0.1,0.1,0.2,0.1h0c0.1,0,0.1,0,0.2-0.1l1.7-1.6c0.1-0.1,0.1-0.3,0-0.4c-0.1-0.1-0.3-0.1-0.4,0
		l-1.4,1.3l-0.4-0.6c-0.1-0.1-0.3-0.2-0.4-0.1c-0.1,0.1-0.2,0.3-0.1,0.4L200.8,279.6z"/>
	<path d="M203.3,285.4h-3.5v-3.2h3.5L203.3,285.4z M203.6,281.6h-4.1c-0.2,0-0.3,0.1-0.3,0.3v3.8c0,0.2,0.1,0.3,0.3,0.3h4.1
		c0.2,0,0.3-0.1,0.3-0.3l0-3.8C203.9,281.7,203.8,281.6,203.6,281.6L203.6,281.6z"/>
	<path d="M200.8,284.4c0.1,0.1,0.1,0.1,0.2,0.1h0c0.1,0,0.1,0,0.2-0.1l1.7-1.6c0.1-0.1,0.1-0.3,0-0.4c-0.1-0.1-0.3-0.1-0.4,0
		l-1.4,1.3l-0.4-0.6c-0.1-0.1-0.3-0.2-0.4-0.1c-0.1,0.1-0.2,0.3-0.1,0.4L200.8,284.4z"/>
	<path d="M203.3,290.7h-3.5v-3.2h3.5L203.3,290.7z M203.6,286.9h-4.1c-0.2,0-0.3,0.1-0.3,0.3v3.8c0,0.2,0.1,0.3,0.3,0.3h4.1
		c0.2,0,0.3-0.1,0.3-0.3l0-3.8C203.9,287,203.8,286.9,203.6,286.9L203.6,286.9z"/>
	<path d="M200.7,289.9c0.1,0.1,0.1,0.1,0.2,0.1h0c0.1,0,0.1,0,0.2-0.1l1.7-1.6c0.1-0.1,0.1-0.3,0-0.4c-0.1-0.1-0.3-0.1-0.4,0
		l-1.4,1.3l-0.4-0.6c-0.1-0.1-0.3-0.2-0.4-0.1s-0.2,0.3-0.1,0.4L200.7,289.9z"/>
</g>
<rect x="389.9" y="178.9" fill="none" width="193.1" height="147.3"/>
<text transform="matrix(1 0 0 1 389.9385 189.7957)"><tspan x="0" y="0" font-family="'MyriadPro-Regular'" font-size="13">75% written communication</tspan><tspan x="0" y="15.6" font-family="'MyriadPro-Regular'" font-size="13">51% Editing</tspan><tspan x="0" y="31.2" font-family="'MyriadPro-Regular'" font-size="13">49% Project planning/mgmt</tspan><tspan x="0" y="46.8" font-family="'MyriadPro-Regular'" font-size="13">49% Visual communication</tspan><tspan x="0" y="62.4" font-family="'MyriadPro-Bold'" font-size="13">45% Subject-matter familiarity </tspan><tspan x="0" y="78" font-family="'MyriadPro-Bold'" font-size="13">41% Working with SMEs</tspan><tspan x="0" y="93.6" font-family="'MyriadPro-Regular'" font-size="13">40% Style guides/standards</tspan></text>
<text transform="matrix(1 0 0 1 389.9385 139.3394)"><tspan x="0" y="0" font-family="'MyriadPro-Regular'" font-size="18">Desired professional </tspan><tspan x="0" y="21.6" font-family="'MyriadPro-Regular'" font-size="18">competencies (tw/e)</tspan></text>
<text transform="matrix(1 0 0 1 214.9383 143.094)" font-family="'MyriadPro-Regular'" font-size="18">TC job categories</text>
<rect x="214.9" y="163.2" fill="none" width="152.5" height="100.6"/>
<text transform="matrix(1 0 0 1 214.9385 174.0873)"><tspan x="0" y="0" font-family="'MyriadPro-Regular'" font-size="13">22% Content Dev/Mgr.</tspan><tspan x="0" y="15.6" font-family="'MyriadPro-Regular'" font-size="13">10% Grant/Proposal Writer</tspan><tspan x="0" y="31.2" font-family="'MyriadPro-Regular'" font-size="13">  4% Medical Writer</tspan><tspan x="0" y="46.8" font-family="'MyriadPro-Regular'" font-size="13">11% Social Media Mgr</tspan><tspan x="0" y="62.4" font-family="'MyriadPro-Regular'" font-size="13">52% Technical writer/editor</tspan></text>
<g>
	<path d="M118,265.9h-13.6V249h8.8v4.4c0,0.2,0.1,0.3,0.3,0.3l4.6,0L118,265.9z M113.7,249.3l3.9,3.7l-3.9,0V249.3z M118.5,253.2
		C118.5,253.2,118.5,253.2,118.5,253.2l-4.9-4.7c0,0-0.1-0.1-0.1-0.1h-0.1h-9.3c-0.2,0-0.3,0.1-0.3,0.3v17.4c0,0.2,0.1,0.3,0.3,0.3
		h14.2c0.2,0,0.3-0.1,0.3-0.3V265l0-11.7C118.5,253.4,118.5,253.3,118.5,253.2L118.5,253.2z"/>
	<path d="M116.1,257.4h-2.2v-2h2.2L116.1,257.4z M116.2,255h-2.6c-0.1,0-0.2,0.1-0.2,0.2v2.4c0,0.1,0.1,0.2,0.2,0.2h2.6
		c0.1,0,0.2-0.1,0.2-0.2l0-2.4C116.4,255.1,116.4,255,116.2,255L116.2,255z"/>
	<path d="M114.5,256.9c0,0,0.1,0.1,0.1,0.1h0c0,0,0.1,0,0.1-0.1l1.1-1c0.1-0.1,0.1-0.2,0-0.3c-0.1-0.1-0.2-0.1-0.3,0l-0.9,0.8
		l-0.3-0.4c-0.1-0.1-0.2-0.1-0.3-0.1c-0.1,0.1-0.1,0.2-0.1,0.3L114.5,256.9z"/>
	<path d="M116.1,260.6h-2.2v-2h2.2L116.1,260.6z M116.3,258.2h-2.6c-0.1,0-0.2,0.1-0.2,0.2v2.4c0,0.1,0.1,0.2,0.2,0.2h2.6
		c0.1,0,0.2-0.1,0.2-0.2l0-2.4C116.4,258.3,116.4,258.2,116.3,258.2L116.3,258.2z"/>
	<path d="M114.5,260c0,0,0.1,0.1,0.1,0.1h0c0,0,0.1,0,0.1-0.1l1.1-1c0.1-0.1,0.1-0.2,0-0.3c-0.1-0.1-0.2-0.1-0.3,0l-0.9,0.8
		l-0.3-0.4c-0.1-0.1-0.2-0.1-0.3-0.1c-0.1,0.1-0.1,0.2-0.1,0.3L114.5,260z"/>
	<path d="M116.1,263.9h-2.2v-2h2.2L116.1,263.9z M116.3,261.5h-2.6c-0.1,0-0.2,0.1-0.2,0.2v2.4c0,0.1,0.1,0.2,0.2,0.2h2.6
		c0.1,0,0.2-0.1,0.2-0.2l0-2.4C116.4,261.6,116.4,261.5,116.3,261.5L116.3,261.5z"/>
	<path d="M114.4,263.4c0,0,0.1,0.1,0.1,0.1h0c0,0,0.1,0,0.1-0.1l1.1-1c0.1-0.1,0.1-0.2,0-0.3c-0.1-0.1-0.2-0.1-0.3,0l-0.9,0.8
		l-0.3-0.4c-0.1-0.1-0.2-0.1-0.3-0.1s-0.1,0.2-0.1,0.3L114.4,263.4z"/>
	<path d="M106.1,254.6c0-0.8,0.6-1.4,1.4-1.4h1.9c0.8,0,1.4,0.6,1.4,1.4v0.6h-4.6L106.1,254.6z M108.4,250.1c0.6,0,1.1,0.5,1.1,1.1
		s-0.5,1.1-1.1,1.1c-0.6,0-1.1-0.5-1.1-1.1C107.3,250.6,107.8,250.1,108.4,250.1z M105.8,255.7h5.2c0.2,0,0.3-0.1,0.3-0.3v-0.8
		c0-1.1-0.9-1.9-1.9-1.9h0c0.5-0.3,0.8-0.8,0.8-1.4c0-0.9-0.8-1.7-1.7-1.7c-0.9,0-1.7,0.8-1.7,1.7c0,0.6,0.3,1.1,0.8,1.4h-0.1
		c-1.1,0-1.9,0.9-1.9,1.9v0.8C105.5,255.5,105.7,255.7,105.8,255.7L105.8,255.7z"/>
	<path d="M105.9,256.8c-0.2,0-0.3,0.1-0.3,0.3c0,0.2,0.1,0.3,0.3,0.3l5.3,0c0.2,0,0.3-0.1,0.3-0.3c0-0.2-0.1-0.3-0.3-0.3
		L105.9,256.8z"/>
	<path d="M111.2,258.6h-5.3c-0.2,0-0.3,0.1-0.3,0.3c0,0.2,0.1,0.3,0.3,0.3l5.3,0c0.2,0,0.3-0.1,0.3-0.3
		C111.4,258.8,111.3,258.6,111.2,258.6L111.2,258.6z"/>
	<path d="M111.4,260.5h-5.6c-0.1,0-0.1,0.1-0.1,0.3c0,0.2,0.1,0.3,0.1,0.3l5.6,0c0.1,0,0.1-0.1,0.1-0.3
		C111.5,260.6,111.5,260.5,111.4,260.5L111.4,260.5z"/>
	<path d="M111.4,262.3h-5.6c-0.1,0-0.1,0.1-0.1,0.3c0,0.2,0.1,0.3,0.1,0.3l5.6,0c0.1,0,0.1-0.1,0.1-0.3
		C111.5,262.5,111.5,262.3,111.4,262.3L111.4,262.3z"/>
	<path d="M111.4,264.2h-5.6c-0.1,0-0.1,0.1-0.1,0.3c0,0.2,0.1,0.3,0.1,0.3l5.6,0c0.1,0,0.1-0.1,0.1-0.3
		C111.5,264.3,111.5,264.2,111.4,264.2z"/>
</g>
<g>
	<path d="M139.6,265.9h-13.6V249h8.8v4.4c0,0.2,0.1,0.3,0.3,0.3l4.6,0L139.6,265.9z M135.3,249.3l3.9,3.7l-3.9,0V249.3z
		 M140.1,253.2C140,253.2,140,253.2,140.1,253.2l-4.9-4.7c0,0-0.1-0.1-0.1-0.1H135h-9.3c-0.2,0-0.3,0.1-0.3,0.3v17.4
		c0,0.2,0.1,0.3,0.3,0.3h14.2c0.2,0,0.3-0.1,0.3-0.3V265l0-11.7C140.1,253.4,140.1,253.3,140.1,253.2L140.1,253.2z"/>
	<path d="M137.6,257.4h-2.2v-2h2.2L137.6,257.4z M137.8,255h-2.6c-0.1,0-0.2,0.1-0.2,0.2v2.4c0,0.1,0.1,0.2,0.2,0.2h2.6
		c0.1,0,0.2-0.1,0.2-0.2l0-2.4C138,255.1,137.9,255,137.8,255L137.8,255z"/>
	<path d="M136.1,256.9c0,0,0.1,0.1,0.1,0.1h0c0,0,0.1,0,0.1-0.1l1.1-1c0.1-0.1,0.1-0.2,0-0.3c-0.1-0.1-0.2-0.1-0.3,0l-0.9,0.8
		l-0.3-0.4c-0.1-0.1-0.2-0.1-0.3-0.1c-0.1,0.1-0.1,0.2-0.1,0.3L136.1,256.9z"/>
	<path d="M137.7,260.6h-2.2v-2h2.2L137.7,260.6z M137.8,258.2h-2.6c-0.1,0-0.2,0.1-0.2,0.2v2.4c0,0.1,0.1,0.2,0.2,0.2h2.6
		c0.1,0,0.2-0.1,0.2-0.2l0-2.4C138,258.3,138,258.2,137.8,258.2L137.8,258.2z"/>
	<path d="M136.1,260c0,0,0.1,0.1,0.1,0.1h0c0,0,0.1,0,0.1-0.1l1.1-1c0.1-0.1,0.1-0.2,0-0.3c-0.1-0.1-0.2-0.1-0.3,0l-0.9,0.8
		l-0.3-0.4c-0.1-0.1-0.2-0.1-0.3-0.1c-0.1,0.1-0.1,0.2-0.1,0.3L136.1,260z"/>
	<path d="M137.7,263.9h-2.2v-2h2.2L137.7,263.9z M137.8,261.5h-2.6c-0.1,0-0.2,0.1-0.2,0.2v2.4c0,0.1,0.1,0.2,0.2,0.2h2.6
		c0.1,0,0.2-0.1,0.2-0.2l0-2.4C138,261.6,138,261.5,137.8,261.5L137.8,261.5z"/>
	<path d="M136,263.4c0,0,0.1,0.1,0.1,0.1h0c0,0,0.1,0,0.1-0.1l1.1-1c0.1-0.1,0.1-0.2,0-0.3c-0.1-0.1-0.2-0.1-0.3,0l-0.9,0.8
		l-0.3-0.4c-0.1-0.1-0.2-0.1-0.3-0.1c-0.1,0.1-0.1,0.2-0.1,0.3L136,263.4z"/>
	<path d="M127.6,254.6c0-0.8,0.6-1.4,1.4-1.4h1.9c0.8,0,1.4,0.6,1.4,1.4v0.6h-4.6L127.6,254.6z M130,250.1c0.6,0,1.1,0.5,1.1,1.1
		s-0.5,1.1-1.1,1.1s-1.1-0.5-1.1-1.1C128.8,250.6,129.4,250.1,130,250.1z M127.4,255.7h5.2c0.2,0,0.3-0.1,0.3-0.3v-0.8
		c0-1.1-0.9-1.9-1.9-1.9h0c0.5-0.3,0.8-0.8,0.8-1.4c0-0.9-0.8-1.7-1.7-1.7s-1.7,0.8-1.7,1.7c0,0.6,0.3,1.1,0.8,1.4H129
		c-1.1,0-1.9,0.9-1.9,1.9v0.8C127.1,255.5,127.2,255.7,127.4,255.7L127.4,255.7z"/>
	<path d="M127.5,256.8c-0.2,0-0.3,0.1-0.3,0.3c0,0.2,0.1,0.3,0.3,0.3l5.3,0c0.2,0,0.3-0.1,0.3-0.3c0-0.2-0.1-0.3-0.3-0.3
		L127.5,256.8z"/>
	<path d="M132.7,258.6h-5.3c-0.2,0-0.3,0.1-0.3,0.3c0,0.2,0.1,0.3,0.3,0.3l5.3,0c0.2,0,0.3-0.1,0.3-0.3
		C133,258.8,132.9,258.6,132.7,258.6L132.7,258.6z"/>
	<path d="M132.9,260.5h-5.6c-0.1,0-0.1,0.1-0.1,0.3c0,0.2,0.1,0.3,0.1,0.3l5.6,0c0.1,0,0.1-0.1,0.1-0.3
		C133.1,260.6,133,260.5,132.9,260.5L132.9,260.5z"/>
	<path d="M132.9,262.3h-5.6c-0.1,0-0.1,0.1-0.1,0.3c0,0.2,0.1,0.3,0.1,0.3l5.6,0c0.1,0,0.1-0.1,0.1-0.3
		C133.1,262.5,133,262.3,132.9,262.3L132.9,262.3z"/>
	<path d="M132.9,264.2h-5.6c-0.1,0-0.1,0.1-0.1,0.3c0,0.2,0.1,0.3,0.1,0.3l5.6,0c0.1,0,0.1-0.1,0.1-0.3
		C133.1,264.3,133,264.2,132.9,264.2z"/>
</g>
<path d="M161.1,265.9h-13.6V249h8.8v4.4c0,0.2,0.1,0.3,0.3,0.3l4.6,0L161.1,265.9z M156.9,249.3l3.9,3.7l-3.9,0V249.3z M161.7,253.2
	C161.6,253.2,161.6,253.2,161.7,253.2l-4.9-4.7c0,0-0.1-0.1-0.1-0.1h-0.1h-9.3c-0.2,0-0.3,0.1-0.3,0.3v17.4c0,0.2,0.1,0.3,0.3,0.3
	h14.2c0.2,0,0.3-0.1,0.3-0.3V265l0-11.7C161.7,253.4,161.7,253.3,161.7,253.2L161.7,253.2z"/>
<path d="M159.2,257.4H157v-2h2.2L159.2,257.4z M159.4,255h-2.6c-0.1,0-0.2,0.1-0.2,0.2v2.4c0,0.1,0.1,0.2,0.2,0.2h2.6
	c0.1,0,0.2-0.1,0.2-0.2l0-2.4C159.6,255.1,159.5,255,159.4,255L159.4,255z"/>
<path d="M157.6,256.9c0,0,0.1,0.1,0.1,0.1h0c0,0,0.1,0,0.1-0.1l1.1-1c0.1-0.1,0.1-0.2,0-0.3c-0.1-0.1-0.2-0.1-0.3,0l-0.9,0.8
	l-0.3-0.4c-0.1-0.1-0.2-0.1-0.3-0.1c-0.1,0.1-0.1,0.2-0.1,0.3L157.6,256.9z"/>
<path d="M159.2,260.6H157v-2h2.2L159.2,260.6z M159.4,258.2h-2.6c-0.1,0-0.2,0.1-0.2,0.2v2.4c0,0.1,0.1,0.2,0.2,0.2h2.6
	c0.1,0,0.2-0.1,0.2-0.2l0-2.4C159.6,258.3,159.5,258.2,159.4,258.2L159.4,258.2z"/>
<path d="M157.6,260c0,0,0.1,0.1,0.1,0.1h0c0,0,0.1,0,0.1-0.1l1.1-1c0.1-0.1,0.1-0.2,0-0.3c-0.1-0.1-0.2-0.1-0.3,0l-0.9,0.8l-0.3-0.4
	c-0.1-0.1-0.2-0.1-0.3-0.1c-0.1,0.1-0.1,0.2-0.1,0.3L157.6,260z"/>
<path d="M159.2,263.9H157v-2h2.2L159.2,263.9z M159.4,261.5h-2.6c-0.1,0-0.2,0.1-0.2,0.2v2.4c0,0.1,0.1,0.2,0.2,0.2h2.6
	c0.1,0,0.2-0.1,0.2-0.2l0-2.4C159.6,261.6,159.5,261.5,159.4,261.5L159.4,261.5z"/>
<path d="M157.6,263.4c0,0,0.1,0.1,0.1,0.1h0c0,0,0.1,0,0.1-0.1l1.1-1c0.1-0.1,0.1-0.2,0-0.3c-0.1-0.1-0.2-0.1-0.3,0l-0.9,0.8
	l-0.3-0.4c-0.1-0.1-0.2-0.1-0.3-0.1s-0.1,0.2-0.1,0.3L157.6,263.4z"/>
<path d="M149.2,254.6c0-0.8,0.6-1.4,1.4-1.4h1.9c0.8,0,1.4,0.6,1.4,1.4v0.6h-4.6L149.2,254.6z M151.6,250.1c0.6,0,1.1,0.5,1.1,1.1
	s-0.5,1.1-1.1,1.1s-1.1-0.5-1.1-1.1C150.4,250.6,150.9,250.1,151.6,250.1z M148.9,255.7h5.2c0.2,0,0.3-0.1,0.3-0.3v-0.8
	c0-1.1-0.9-1.9-1.9-1.9h0c0.5-0.3,0.8-0.8,0.8-1.4c0-0.9-0.8-1.7-1.7-1.7s-1.7,0.8-1.7,1.7c0,0.6,0.3,1.1,0.8,1.4h-0.1
	c-1.1,0-1.9,0.9-1.9,1.9v0.8C148.7,255.5,148.8,255.7,148.9,255.7L148.9,255.7z"/>
<path d="M149,256.8c-0.2,0-0.3,0.1-0.3,0.3c0,0.2,0.1,0.3,0.3,0.3l5.3,0c0.2,0,0.3-0.1,0.3-0.3c0-0.2-0.1-0.3-0.3-0.3L149,256.8z"/>
<path d="M154.3,258.6H149c-0.2,0-0.3,0.1-0.3,0.3c0,0.2,0.1,0.3,0.3,0.3l5.3,0c0.2,0,0.3-0.1,0.3-0.3
	C154.6,258.8,154.5,258.6,154.3,258.6L154.3,258.6z"/>
<path d="M154.5,260.5h-5.6c-0.1,0-0.1,0.1-0.1,0.3c0,0.2,0.1,0.3,0.1,0.3l5.6,0c0.1,0,0.1-0.1,0.1-0.3
	C154.7,260.6,154.6,260.5,154.5,260.5L154.5,260.5z"/>
<path d="M154.5,262.3h-5.6c-0.1,0-0.1,0.1-0.1,0.3c0,0.2,0.1,0.3,0.1,0.3l5.6,0c0.1,0,0.1-0.1,0.1-0.3
	C154.7,262.5,154.6,262.3,154.5,262.3L154.5,262.3z"/>
<path d="M154.5,264.2h-5.6c-0.1,0-0.1,0.1-0.1,0.3c0,0.2,0.1,0.3,0.1,0.3l5.6,0c0.1,0,0.1-0.1,0.1-0.3
	C154.7,264.3,154.6,264.2,154.5,264.2z"/>
<g>
	<path d="M118.3,286.1h-13.6v-16.9h8.8v4.4c0,0.2,0.1,0.3,0.3,0.3l4.6,0L118.3,286.1z M114.1,269.5l3.9,3.7l-3.9,0V269.5z
		 M118.9,273.4C118.8,273.4,118.8,273.4,118.9,273.4l-4.9-4.7c0,0-0.1-0.1-0.1-0.1h-0.1h-9.3c-0.2,0-0.3,0.1-0.3,0.3v17.4
		c0,0.2,0.1,0.3,0.3,0.3h14.2c0.2,0,0.3-0.1,0.3-0.3v-1.1l0-11.7C118.9,273.5,118.9,273.4,118.9,273.4L118.9,273.4z"/>
	<path d="M116.4,277.5h-2.2v-2h2.2L116.4,277.5z M116.6,275.1H114c-0.1,0-0.2,0.1-0.2,0.2v2.4c0,0.1,0.1,0.2,0.2,0.2h2.6
		c0.1,0,0.2-0.1,0.2-0.2l0-2.4C116.8,275.2,116.7,275.1,116.6,275.1L116.6,275.1z"/>
	<path d="M114.8,277.1c0,0,0.1,0.1,0.1,0.1h0c0,0,0.1,0,0.1-0.1l1.1-1c0.1-0.1,0.1-0.2,0-0.3c-0.1-0.1-0.2-0.1-0.3,0l-0.9,0.8
		l-0.3-0.4c-0.1-0.1-0.2-0.1-0.3-0.1s-0.1,0.2-0.1,0.3L114.8,277.1z"/>
	<path d="M116.4,280.7h-2.2v-2h2.2L116.4,280.7z M116.6,278.4H114c-0.1,0-0.2,0.1-0.2,0.2v2.4c0,0.1,0.1,0.2,0.2,0.2h2.6
		c0.1,0,0.2-0.1,0.2-0.2l0-2.4C116.8,278.4,116.7,278.4,116.6,278.4L116.6,278.4z"/>
	<path d="M114.8,280.1c0,0,0.1,0.1,0.1,0.1h0c0,0,0.1,0,0.1-0.1l1.1-1c0.1-0.1,0.1-0.2,0-0.3c-0.1-0.1-0.2-0.1-0.3,0l-0.9,0.8
		l-0.3-0.4c-0.1-0.1-0.2-0.1-0.3-0.1s-0.1,0.2-0.1,0.3L114.8,280.1z"/>
	<path d="M116.4,284.1h-2.2v-2h2.2L116.4,284.1z M116.6,281.7H114c-0.1,0-0.2,0.1-0.2,0.2v2.4c0,0.1,0.1,0.2,0.2,0.2h2.6
		c0.1,0,0.2-0.1,0.2-0.2l0-2.4C116.8,281.8,116.7,281.7,116.6,281.7L116.6,281.7z"/>
	<path d="M114.8,283.6c0,0,0.1,0.1,0.1,0.1h0c0,0,0.1,0,0.1-0.1l1.1-1c0.1-0.1,0.1-0.2,0-0.3c-0.1-0.1-0.2-0.1-0.3,0l-0.9,0.8
		l-0.3-0.4c-0.1-0.1-0.2-0.1-0.3-0.1c-0.1,0.1-0.1,0.2-0.1,0.3L114.8,283.6z"/>
	<path d="M106.4,274.7c0-0.8,0.6-1.4,1.4-1.4h1.9c0.8,0,1.4,0.6,1.4,1.4v0.6h-4.6L106.4,274.7z M108.8,270.3c0.6,0,1.1,0.5,1.1,1.1
		s-0.5,1.1-1.1,1.1c-0.6,0-1.1-0.5-1.1-1.1C107.6,270.8,108.1,270.3,108.8,270.3z M106.2,275.8h5.2c0.2,0,0.3-0.1,0.3-0.3v-0.8
		c0-1.1-0.9-1.9-1.9-1.9h0c0.5-0.3,0.8-0.8,0.8-1.4c0-0.9-0.8-1.7-1.7-1.7s-1.7,0.8-1.7,1.7c0,0.6,0.3,1.1,0.8,1.4h-0.1
		c-1.1,0-1.9,0.9-1.9,1.9v0.8C105.9,275.7,106,275.8,106.2,275.8L106.2,275.8z"/>
	<path d="M106.2,276.9c-0.2,0-0.3,0.1-0.3,0.3c0,0.2,0.1,0.3,0.3,0.3l5.3,0c0.2,0,0.3-0.1,0.3-0.3c0-0.2-0.1-0.3-0.3-0.3
		L106.2,276.9z"/>
	<path d="M111.5,278.8h-5.3c-0.2,0-0.3,0.1-0.3,0.3c0,0.2,0.1,0.3,0.3,0.3l5.3,0c0.2,0,0.3-0.1,0.3-0.3
		C111.8,278.9,111.7,278.8,111.5,278.8L111.5,278.8z"/>
	<path d="M111.7,280.7h-5.6c-0.1,0-0.1,0.1-0.1,0.3c0,0.2,0.1,0.3,0.1,0.3l5.6,0c0.1,0,0.1-0.1,0.1-0.3
		C111.9,280.8,111.8,280.7,111.7,280.7L111.7,280.7z"/>
	<path d="M111.7,282.5h-5.6c-0.1,0-0.1,0.1-0.1,0.3c0,0.2,0.1,0.3,0.1,0.3l5.6,0c0.1,0,0.1-0.1,0.1-0.3
		C111.9,282.7,111.8,282.5,111.7,282.5L111.7,282.5z"/>
	<path d="M111.7,284.4h-5.6c-0.1,0-0.1,0.1-0.1,0.3c0,0.2,0.1,0.3,0.1,0.3l5.6,0c0.1,0,0.1-0.1,0.1-0.3
		C111.9,284.5,111.8,284.4,111.7,284.4z"/>
</g>
<g>
	<path d="M139.9,286.1h-13.6v-16.9h8.8v4.4c0,0.2,0.1,0.3,0.3,0.3l4.6,0L139.9,286.1z M135.6,269.5l3.9,3.7l-3.9,0V269.5z
		 M140.4,273.4C140.4,273.4,140.4,273.4,140.4,273.4l-4.9-4.7c0,0-0.1-0.1-0.1-0.1h-0.1H126c-0.2,0-0.3,0.1-0.3,0.3v17.4
		c0,0.2,0.1,0.3,0.3,0.3h14.2c0.2,0,0.3-0.1,0.3-0.3v-1.1l0-11.7C140.5,273.5,140.5,273.4,140.4,273.4L140.4,273.4z"/>
	<path d="M138,277.5h-2.2v-2h2.2L138,277.5z M138.2,275.1h-2.6c-0.1,0-0.2,0.1-0.2,0.2v2.4c0,0.1,0.1,0.2,0.2,0.2h2.6
		c0.1,0,0.2-0.1,0.2-0.2l0-2.4C138.4,275.2,138.3,275.1,138.2,275.1L138.2,275.1z"/>
	<path d="M136.4,277.1c0,0,0.1,0.1,0.1,0.1h0c0,0,0.1,0,0.1-0.1l1.1-1c0.1-0.1,0.1-0.2,0-0.3c-0.1-0.1-0.2-0.1-0.3,0l-0.9,0.8
		l-0.3-0.4c-0.1-0.1-0.2-0.1-0.3-0.1c-0.1,0.1-0.1,0.2-0.1,0.3L136.4,277.1z"/>
	<path d="M138,280.7h-2.2v-2h2.2L138,280.7z M138.2,278.4h-2.6c-0.1,0-0.2,0.1-0.2,0.2v2.4c0,0.1,0.1,0.2,0.2,0.2h2.6
		c0.1,0,0.2-0.1,0.2-0.2l0-2.4C138.4,278.4,138.3,278.4,138.2,278.4L138.2,278.4z"/>
	<path d="M136.4,280.1c0,0,0.1,0.1,0.1,0.1h0c0,0,0.1,0,0.1-0.1l1.1-1c0.1-0.1,0.1-0.2,0-0.3c-0.1-0.1-0.2-0.1-0.3,0l-0.9,0.8
		l-0.3-0.4c-0.1-0.1-0.2-0.1-0.3-0.1c-0.1,0.1-0.1,0.2-0.1,0.3L136.4,280.1z"/>
	<path d="M138,284.1h-2.2v-2h2.2L138,284.1z M138.2,281.7h-2.6c-0.1,0-0.2,0.1-0.2,0.2v2.4c0,0.1,0.1,0.2,0.2,0.2h2.6
		c0.1,0,0.2-0.1,0.2-0.2l0-2.4C138.4,281.8,138.3,281.7,138.2,281.7L138.2,281.7z"/>
	<path d="M136.4,283.6c0,0,0.1,0.1,0.1,0.1h0c0,0,0.1,0,0.1-0.1l1.1-1c0.1-0.1,0.1-0.2,0-0.3c-0.1-0.1-0.2-0.1-0.3,0l-0.9,0.8
		l-0.3-0.4c-0.1-0.1-0.2-0.1-0.3-0.1c-0.1,0.1-0.1,0.2-0.1,0.3L136.4,283.6z"/>
	<path d="M128,274.7c0-0.8,0.6-1.4,1.4-1.4h1.9c0.8,0,1.4,0.6,1.4,1.4v0.6H128L128,274.7z M130.3,270.3c0.6,0,1.1,0.5,1.1,1.1
		s-0.5,1.1-1.1,1.1s-1.1-0.5-1.1-1.1C129.2,270.8,129.7,270.3,130.3,270.3z M127.7,275.8h5.2c0.2,0,0.3-0.1,0.3-0.3v-0.8
		c0-1.1-0.9-1.9-1.9-1.9h0c0.5-0.3,0.8-0.8,0.8-1.4c0-0.9-0.8-1.7-1.7-1.7s-1.7,0.8-1.7,1.7c0,0.6,0.3,1.1,0.8,1.4h-0.1
		c-1.1,0-1.9,0.9-1.9,1.9v0.8C127.5,275.7,127.6,275.8,127.7,275.8L127.7,275.8z"/>
	<path d="M127.8,276.9c-0.2,0-0.3,0.1-0.3,0.3c0,0.2,0.1,0.3,0.3,0.3l5.3,0c0.2,0,0.3-0.1,0.3-0.3c0-0.2-0.1-0.3-0.3-0.3
		L127.8,276.9z"/>
	<path d="M133.1,278.8h-5.3c-0.2,0-0.3,0.1-0.3,0.3c0,0.2,0.1,0.3,0.3,0.3l5.3,0c0.2,0,0.3-0.1,0.3-0.3
		C133.4,278.9,133.3,278.8,133.1,278.8L133.1,278.8z"/>
	<path d="M133.3,280.7h-5.6c-0.1,0-0.1,0.1-0.1,0.3c0,0.2,0.1,0.3,0.1,0.3l5.6,0c0.1,0,0.1-0.1,0.1-0.3
		C133.5,280.8,133.4,280.7,133.3,280.7L133.3,280.7z"/>
	<path d="M133.3,282.5h-5.6c-0.1,0-0.1,0.1-0.1,0.3c0,0.2,0.1,0.3,0.1,0.3l5.6,0c0.1,0,0.1-0.1,0.1-0.3
		C133.5,282.7,133.4,282.5,133.3,282.5L133.3,282.5z"/>
	<path d="M133.3,284.4h-5.6c-0.1,0-0.1,0.1-0.1,0.3c0,0.2,0.1,0.3,0.1,0.3l5.6,0c0.1,0,0.1-0.1,0.1-0.3
		C133.5,284.5,133.4,284.4,133.3,284.4z"/>
</g>
<g>
	<path d="M161.5,286.1h-13.6v-16.9h8.8v4.4c0,0.2,0.1,0.3,0.3,0.3l4.6,0L161.5,286.1z M157.2,269.5l3.9,3.7l-3.9,0V269.5z
		 M162,273.4C162,273.4,162,273.4,162,273.4l-4.9-4.7c0,0-0.1-0.1-0.1-0.1h-0.1h-9.3c-0.2,0-0.3,0.1-0.3,0.3v17.4
		c0,0.2,0.1,0.3,0.3,0.3h14.2c0.2,0,0.3-0.1,0.3-0.3v-1.1l0-11.7C162,273.5,162,273.4,162,273.4L162,273.4z"/>
	<path d="M159.6,277.5h-2.2v-2h2.2L159.6,277.5z M159.8,275.1h-2.6c-0.1,0-0.2,0.1-0.2,0.2v2.4c0,0.1,0.1,0.2,0.2,0.2h2.6
		c0.1,0,0.2-0.1,0.2-0.2l0-2.4C159.9,275.2,159.9,275.1,159.8,275.1L159.8,275.1z"/>
	<path d="M158,277.1c0,0,0.1,0.1,0.1,0.1h0c0,0,0.1,0,0.1-0.1l1.1-1c0.1-0.1,0.1-0.2,0-0.3c-0.1-0.1-0.2-0.1-0.3,0l-0.9,0.8
		l-0.3-0.4c-0.1-0.1-0.2-0.1-0.3-0.1c-0.1,0.1-0.1,0.2-0.1,0.3L158,277.1z"/>
	<path d="M159.6,280.7h-2.2v-2h2.2L159.6,280.7z M159.8,278.4h-2.6c-0.1,0-0.2,0.1-0.2,0.2v2.4c0,0.1,0.1,0.2,0.2,0.2h2.6
		c0.1,0,0.2-0.1,0.2-0.2l0-2.4C160,278.4,159.9,278.4,159.8,278.4L159.8,278.4z"/>
	<path d="M158,280.1c0,0,0.1,0.1,0.1,0.1h0c0,0,0.1,0,0.1-0.1l1.1-1c0.1-0.1,0.1-0.2,0-0.3c-0.1-0.1-0.2-0.1-0.3,0l-0.9,0.8
		l-0.3-0.4c-0.1-0.1-0.2-0.1-0.3-0.1c-0.1,0.1-0.1,0.2-0.1,0.3L158,280.1z"/>
	<path d="M159.6,284.1h-2.2v-2h2.2L159.6,284.1z M159.8,281.7h-2.6c-0.1,0-0.2,0.1-0.2,0.2v2.4c0,0.1,0.1,0.2,0.2,0.2h2.6
		c0.1,0,0.2-0.1,0.2-0.2l0-2.4C160,281.8,159.9,281.7,159.8,281.7L159.8,281.7z"/>
	<path d="M157.9,283.6c0,0,0.1,0.1,0.1,0.1h0c0,0,0.1,0,0.1-0.1l1.1-1c0.1-0.1,0.1-0.2,0-0.3c-0.1-0.1-0.2-0.1-0.3,0l-0.9,0.8
		l-0.3-0.4c-0.1-0.1-0.2-0.1-0.3-0.1c-0.1,0.1-0.1,0.2-0.1,0.3L157.9,283.6z"/>
	<path d="M149.6,274.7c0-0.8,0.6-1.4,1.4-1.4h1.9c0.8,0,1.4,0.6,1.4,1.4v0.6h-4.6L149.6,274.7z M151.9,270.3c0.6,0,1.1,0.5,1.1,1.1
		s-0.5,1.1-1.1,1.1c-0.6,0-1.1-0.5-1.1-1.1C150.8,270.8,151.3,270.3,151.9,270.3z M149.3,275.8h5.2c0.2,0,0.3-0.1,0.3-0.3v-0.8
		c0-1.1-0.9-1.9-1.9-1.9h0c0.5-0.3,0.8-0.8,0.8-1.4c0-0.9-0.8-1.7-1.7-1.7s-1.7,0.8-1.7,1.7c0,0.6,0.3,1.1,0.8,1.4h-0.1
		c-1.1,0-1.9,0.9-1.9,1.9v0.8C149,275.7,149.2,275.8,149.3,275.8L149.3,275.8z"/>
	<path d="M149.4,276.9c-0.2,0-0.3,0.1-0.3,0.3c0,0.2,0.1,0.3,0.3,0.3l5.3,0c0.2,0,0.3-0.1,0.3-0.3c0-0.2-0.1-0.3-0.3-0.3
		L149.4,276.9z"/>
	<path d="M154.7,278.8h-5.3c-0.2,0-0.3,0.1-0.3,0.3c0,0.2,0.1,0.3,0.3,0.3l5.3,0c0.2,0,0.3-0.1,0.3-0.3
		C154.9,278.9,154.8,278.8,154.7,278.8L154.7,278.8z"/>
	<path d="M154.9,280.7h-5.6c-0.1,0-0.1,0.1-0.1,0.3c0,0.2,0.1,0.3,0.1,0.3l5.6,0c0.1,0,0.1-0.1,0.1-0.3
		C155,280.8,155,280.7,154.9,280.7L154.9,280.7z"/>
	<path d="M154.9,282.5h-5.6c-0.1,0-0.1,0.1-0.1,0.3c0,0.2,0.1,0.3,0.1,0.3l5.6,0c0.1,0,0.1-0.1,0.1-0.3
		C155,282.7,155,282.5,154.9,282.5L154.9,282.5z"/>
	<path d="M154.9,284.4h-5.6c-0.1,0-0.1,0.1-0.1,0.3c0,0.2,0.1,0.3,0.1,0.3l5.6,0c0.1,0,0.1-0.1,0.1-0.3
		C155,284.5,155,284.4,154.9,284.4z"/>
</g>
<g>
	<path d="M118.4,306h-13.6v-16.9h8.8v4.4c0,0.2,0.1,0.3,0.3,0.3l4.6,0L118.4,306z M114.1,289.4l3.9,3.7l-3.9,0V289.4z M118.9,293.3
		C118.9,293.3,118.9,293.3,118.9,293.3l-4.9-4.7c0,0-0.1-0.1-0.1-0.1h-0.1h-9.3c-0.2,0-0.3,0.1-0.3,0.3v17.4c0,0.2,0.1,0.3,0.3,0.3
		h14.2c0.2,0,0.3-0.1,0.3-0.3v-1.1l0-11.7C119,293.4,119,293.4,118.9,293.3L118.9,293.3z"/>
	<path d="M116.5,297.4h-2.2v-2h2.2L116.5,297.4z M116.7,295.1h-2.6c-0.1,0-0.2,0.1-0.2,0.2v2.4c0,0.1,0.1,0.2,0.2,0.2h2.6
		c0.1,0,0.2-0.1,0.2-0.2l0-2.4C116.9,295.1,116.8,295.1,116.7,295.1L116.7,295.1z"/>
	<path d="M114.9,297c0,0,0.1,0.1,0.1,0.1h0c0,0,0.1,0,0.1-0.1l1.1-1c0.1-0.1,0.1-0.2,0-0.3c-0.1-0.1-0.2-0.1-0.3,0l-0.9,0.8
		l-0.3-0.4c-0.1-0.1-0.2-0.1-0.3-0.1c-0.1,0.1-0.1,0.2-0.1,0.3L114.9,297z"/>
	<path d="M116.5,300.7h-2.2v-2h2.2L116.5,300.7z M116.7,298.3h-2.6c-0.1,0-0.2,0.1-0.2,0.2v2.4c0,0.1,0.1,0.2,0.2,0.2h2.6
		c0.1,0,0.2-0.1,0.2-0.2l0-2.4C116.9,298.4,116.8,298.3,116.7,298.3L116.7,298.3z"/>
	<path d="M114.9,300c0,0,0.1,0.1,0.1,0.1h0c0,0,0.1,0,0.1-0.1l1.1-1c0.1-0.1,0.1-0.2,0-0.3c-0.1-0.1-0.2-0.1-0.3,0l-0.9,0.8
		l-0.3-0.4c-0.1-0.1-0.2-0.1-0.3-0.1c-0.1,0.1-0.1,0.2-0.1,0.3L114.9,300z"/>
	<path d="M116.5,304h-2.2v-2h2.2L116.5,304z M116.7,301.6h-2.6c-0.1,0-0.2,0.1-0.2,0.2v2.4c0,0.1,0.1,0.2,0.2,0.2h2.6
		c0.1,0,0.2-0.1,0.2-0.2l0-2.4C116.9,301.7,116.8,301.6,116.7,301.6L116.7,301.6z"/>
	<path d="M114.9,303.5c0,0,0.1,0.1,0.1,0.1h0c0,0,0.1,0,0.1-0.1l1.1-1c0.1-0.1,0.1-0.2,0-0.3c-0.1-0.1-0.2-0.1-0.3,0l-0.9,0.8
		l-0.3-0.4c-0.1-0.1-0.2-0.1-0.3-0.1s-0.1,0.2-0.1,0.3L114.9,303.5z"/>
	<path d="M106.5,294.6c0-0.8,0.6-1.4,1.4-1.4h1.9c0.8,0,1.4,0.6,1.4,1.4v0.6h-4.6L106.5,294.6z M108.8,290.2c0.6,0,1.1,0.5,1.1,1.1
		c0,0.6-0.5,1.1-1.1,1.1c-0.6,0-1.1-0.5-1.1-1.1C107.7,290.7,108.2,290.2,108.8,290.2z M106.2,295.8h5.2c0.2,0,0.3-0.1,0.3-0.3v-0.8
		c0-1.1-0.9-1.9-1.9-1.9h0c0.5-0.3,0.8-0.8,0.8-1.4c0-0.9-0.8-1.7-1.7-1.7s-1.7,0.8-1.7,1.7c0,0.6,0.3,1.1,0.8,1.4h-0.1
		c-1.1,0-1.9,0.9-1.9,1.9v0.8C106,295.6,106.1,295.8,106.2,295.8L106.2,295.8z"/>
	<path d="M106.3,296.9c-0.2,0-0.3,0.1-0.3,0.3c0,0.2,0.1,0.3,0.3,0.3l5.3,0c0.2,0,0.3-0.1,0.3-0.3c0-0.2-0.1-0.3-0.3-0.3
		L106.3,296.9z"/>
	<path d="M111.6,298.7h-5.3c-0.2,0-0.3,0.1-0.3,0.3c0,0.2,0.1,0.3,0.3,0.3l5.3,0c0.2,0,0.3-0.1,0.3-0.3
		C111.9,298.8,111.8,298.7,111.6,298.7L111.6,298.7z"/>
	<path d="M111.8,300.6h-5.6c-0.1,0-0.1,0.1-0.1,0.3c0,0.2,0.1,0.3,0.1,0.3l5.6,0c0.1,0,0.1-0.1,0.1-0.3
		C112,300.7,111.9,300.6,111.8,300.6L111.8,300.6z"/>
	<path d="M111.8,302.4h-5.6c-0.1,0-0.1,0.1-0.1,0.3c0,0.2,0.1,0.3,0.1,0.3l5.6,0c0.1,0,0.1-0.1,0.1-0.3
		C112,302.6,111.9,302.4,111.8,302.4L111.8,302.4z"/>
	<path d="M111.8,304.3h-5.6c-0.1,0-0.1,0.1-0.1,0.3c0,0.2,0.1,0.3,0.1,0.3l5.6,0c0.1,0,0.1-0.1,0.1-0.3
		C112,304.4,111.9,304.3,111.8,304.3z"/>
</g>
<g>
	<path d="M140,306h-13.6v-16.9h8.8v4.4c0,0.2,0.1,0.3,0.3,0.3l4.6,0L140,306z M135.7,289.4l3.9,3.7l-3.9,0V289.4z M140.5,293.3
		C140.5,293.3,140.5,293.3,140.5,293.3l-4.9-4.7c0,0-0.1-0.1-0.1-0.1h-0.1h-9.3c-0.2,0-0.3,0.1-0.3,0.3v17.4c0,0.2,0.1,0.3,0.3,0.3
		h14.2c0.2,0,0.3-0.1,0.3-0.3v-1.1l0-11.7C140.5,293.4,140.5,293.4,140.5,293.3L140.5,293.3z"/>
	<path d="M138.1,297.4h-2.2v-2h2.2L138.1,297.4z M138.3,295.1h-2.6c-0.1,0-0.2,0.1-0.2,0.2v2.4c0,0.1,0.1,0.2,0.2,0.2h2.6
		c0.1,0,0.2-0.1,0.2-0.2l0-2.4C138.4,295.1,138.4,295.1,138.3,295.1L138.3,295.1z"/>
	<path d="M136.5,297c0,0,0.1,0.1,0.1,0.1h0c0,0,0.1,0,0.1-0.1l1.1-1c0.1-0.1,0.1-0.2,0-0.3c-0.1-0.1-0.2-0.1-0.3,0l-0.9,0.8
		l-0.3-0.4c-0.1-0.1-0.2-0.1-0.3-0.1c-0.1,0.1-0.1,0.2-0.1,0.3L136.5,297z"/>
	<path d="M138.1,300.7h-2.2v-2h2.2L138.1,300.7z M138.3,298.3h-2.6c-0.1,0-0.2,0.1-0.2,0.2v2.4c0,0.1,0.1,0.2,0.2,0.2h2.6
		c0.1,0,0.2-0.1,0.2-0.2l0-2.4C138.5,298.4,138.4,298.3,138.3,298.3L138.3,298.3z"/>
	<path d="M136.5,300c0,0,0.1,0.1,0.1,0.1h0c0,0,0.1,0,0.1-0.1l1.1-1c0.1-0.1,0.1-0.2,0-0.3c-0.1-0.1-0.2-0.1-0.3,0l-0.9,0.8
		l-0.3-0.4c-0.1-0.1-0.2-0.1-0.3-0.1c-0.1,0.1-0.1,0.2-0.1,0.3L136.5,300z"/>
	<path d="M138.1,304h-2.2v-2h2.2L138.1,304z M138.3,301.6h-2.6c-0.1,0-0.2,0.1-0.2,0.2v2.4c0,0.1,0.1,0.2,0.2,0.2h2.6
		c0.1,0,0.2-0.1,0.2-0.2l0-2.4C138.5,301.7,138.4,301.6,138.3,301.6L138.3,301.6z"/>
	<path d="M136.4,303.5c0,0,0.1,0.1,0.1,0.1h0c0,0,0.1,0,0.1-0.1l1.1-1c0.1-0.1,0.1-0.2,0-0.3c-0.1-0.1-0.2-0.1-0.3,0l-0.9,0.8
		l-0.3-0.4c-0.1-0.1-0.2-0.1-0.3-0.1c-0.1,0.1-0.1,0.2-0.1,0.3L136.4,303.5z"/>
	<path d="M128.1,294.6c0-0.8,0.6-1.4,1.4-1.4h1.9c0.8,0,1.4,0.6,1.4,1.4v0.6h-4.6L128.1,294.6z M130.4,290.2c0.6,0,1.1,0.5,1.1,1.1
		c0,0.6-0.5,1.1-1.1,1.1c-0.6,0-1.1-0.5-1.1-1.1C129.3,290.7,129.8,290.2,130.4,290.2z M127.8,295.8h5.2c0.2,0,0.3-0.1,0.3-0.3v-0.8
		c0-1.1-0.9-1.9-1.9-1.9h0c0.5-0.3,0.8-0.8,0.8-1.4c0-0.9-0.8-1.7-1.7-1.7s-1.7,0.8-1.7,1.7c0,0.6,0.3,1.1,0.8,1.4h-0.1
		c-1.1,0-1.9,0.9-1.9,1.9v0.8C127.5,295.6,127.7,295.8,127.8,295.8L127.8,295.8z"/>
	<path d="M127.9,296.9c-0.2,0-0.3,0.1-0.3,0.3c0,0.2,0.1,0.3,0.3,0.3l5.3,0c0.2,0,0.3-0.1,0.3-0.3c0-0.2-0.1-0.3-0.3-0.3
		L127.9,296.9z"/>
	<path d="M133.2,298.7h-5.3c-0.2,0-0.3,0.1-0.3,0.3c0,0.2,0.1,0.3,0.3,0.3l5.3,0c0.2,0,0.3-0.1,0.3-0.3
		C133.5,298.8,133.3,298.7,133.2,298.7L133.2,298.7z"/>
	<path d="M133.4,300.6h-5.6c-0.1,0-0.1,0.1-0.1,0.3c0,0.2,0.1,0.3,0.1,0.3l5.6,0c0.1,0,0.1-0.1,0.1-0.3
		C133.5,300.7,133.5,300.6,133.4,300.6L133.4,300.6z"/>
	<path d="M133.4,302.4h-5.6c-0.1,0-0.1,0.1-0.1,0.3c0,0.2,0.1,0.3,0.1,0.3l5.6,0c0.1,0,0.1-0.1,0.1-0.3
		C133.5,302.6,133.5,302.4,133.4,302.4L133.4,302.4z"/>
	<path d="M133.4,304.3h-5.6c-0.1,0-0.1,0.1-0.1,0.3c0,0.2,0.1,0.3,0.1,0.3l5.6,0c0.1,0,0.1-0.1,0.1-0.3
		C133.5,304.4,133.5,304.3,133.4,304.3z"/>
</g>
<g>
	<path d="M161.6,306h-13.6v-16.9h8.8v4.4c0,0.2,0.1,0.3,0.3,0.3l4.6,0L161.6,306z M157.3,289.4l3.9,3.7l-3.9,0V289.4z M162.1,293.3
		C162.1,293.3,162.1,293.3,162.1,293.3l-4.9-4.7c0,0-0.1-0.1-0.1-0.1H157h-9.3c-0.2,0-0.3,0.1-0.3,0.3v17.4c0,0.2,0.1,0.3,0.3,0.3
		h14.2c0.2,0,0.3-0.1,0.3-0.3v-1.1l0-11.7C162.1,293.4,162.1,293.4,162.1,293.3L162.1,293.3z"/>
	<path d="M159.7,297.4h-2.2v-2h2.2L159.7,297.4z M159.8,295.1h-2.6c-0.1,0-0.2,0.1-0.2,0.2v2.4c0,0.1,0.1,0.2,0.2,0.2h2.6
		c0.1,0,0.2-0.1,0.2-0.2l0-2.4C160,295.1,159.9,295.1,159.8,295.1L159.8,295.1z"/>
	<path d="M158.1,297c0,0,0.1,0.1,0.1,0.1h0c0,0,0.1,0,0.1-0.1l1.1-1c0.1-0.1,0.1-0.2,0-0.3c-0.1-0.1-0.2-0.1-0.3,0l-0.9,0.8
		l-0.3-0.4c-0.1-0.1-0.2-0.1-0.3-0.1c-0.1,0.1-0.1,0.2-0.1,0.3L158.1,297z"/>
	<path d="M159.7,300.7h-2.2v-2h2.2L159.7,300.7z M159.9,298.3h-2.6c-0.1,0-0.2,0.1-0.2,0.2v2.4c0,0.1,0.1,0.2,0.2,0.2h2.6
		c0.1,0,0.2-0.1,0.2-0.2l0-2.4C160,298.4,160,298.3,159.9,298.3L159.9,298.3z"/>
	<path d="M158.1,300c0,0,0.1,0.1,0.1,0.1h0c0,0,0.1,0,0.1-0.1l1.1-1c0.1-0.1,0.1-0.2,0-0.3c-0.1-0.1-0.2-0.1-0.3,0l-0.9,0.8
		l-0.3-0.4c-0.1-0.1-0.2-0.1-0.3-0.1c-0.1,0.1-0.1,0.2-0.1,0.3L158.1,300z"/>
	<path d="M159.7,304h-2.2v-2h2.2L159.7,304z M159.9,301.6h-2.6c-0.1,0-0.2,0.1-0.2,0.2v2.4c0,0.1,0.1,0.2,0.2,0.2h2.6
		c0.1,0,0.2-0.1,0.2-0.2l0-2.4C160,301.7,160,301.6,159.9,301.6L159.9,301.6z"/>
	<path d="M158,303.5c0,0,0.1,0.1,0.1,0.1h0c0,0,0.1,0,0.1-0.1l1.1-1c0.1-0.1,0.1-0.2,0-0.3c-0.1-0.1-0.2-0.1-0.3,0l-0.9,0.8
		l-0.3-0.4c-0.1-0.1-0.2-0.1-0.3-0.1c-0.1,0.1-0.1,0.2-0.1,0.3L158,303.5z"/>
	<path d="M149.7,294.6c0-0.8,0.6-1.4,1.4-1.4h1.9c0.8,0,1.4,0.6,1.4,1.4v0.6h-4.6L149.7,294.6z M152,290.2c0.6,0,1.1,0.5,1.1,1.1
		c0,0.6-0.5,1.1-1.1,1.1s-1.1-0.5-1.1-1.1C150.9,290.7,151.4,290.2,152,290.2z M149.4,295.8h5.2c0.2,0,0.3-0.1,0.3-0.3v-0.8
		c0-1.1-0.9-1.9-1.9-1.9h0c0.5-0.3,0.8-0.8,0.8-1.4c0-0.9-0.8-1.7-1.7-1.7s-1.7,0.8-1.7,1.7c0,0.6,0.3,1.1,0.8,1.4H151
		c-1.1,0-1.9,0.9-1.9,1.9v0.8C149.1,295.6,149.2,295.8,149.4,295.8L149.4,295.8z"/>
	<path d="M149.5,296.9c-0.2,0-0.3,0.1-0.3,0.3c0,0.2,0.1,0.3,0.3,0.3l5.3,0c0.2,0,0.3-0.1,0.3-0.3c0-0.2-0.1-0.3-0.3-0.3
		L149.5,296.9z"/>
	<path d="M154.8,298.7h-5.3c-0.2,0-0.3,0.1-0.3,0.3c0,0.2,0.1,0.3,0.3,0.3l5.3,0c0.2,0,0.3-0.1,0.3-0.3
		C155,298.8,154.9,298.7,154.8,298.7L154.8,298.7z"/>
	<path d="M155,300.6h-5.6c-0.1,0-0.1,0.1-0.1,0.3c0,0.2,0.1,0.3,0.1,0.3l5.6,0c0.1,0,0.1-0.1,0.1-0.3
		C155.1,300.7,155,300.6,155,300.6L155,300.6z"/>
	<path d="M155,302.4h-5.6c-0.1,0-0.1,0.1-0.1,0.3c0,0.2,0.1,0.3,0.1,0.3l5.6,0c0.1,0,0.1-0.1,0.1-0.3
		C155.1,302.6,155,302.4,155,302.4L155,302.4z"/>
	<path d="M155,304.3h-5.6c-0.1,0-0.1,0.1-0.1,0.3c0,0.2,0.1,0.3,0.1,0.3l5.6,0c0.1,0,0.1-0.1,0.1-0.3
		C155.1,304.4,155,304.3,155,304.3z"/>
</g>
<text transform="matrix(1 0 0 1 84.4298 241.1013)" font-family="'MyriadPro-Regular'" font-size="13">2013</text>
<line fill="none" stroke="#000000" stroke-miterlimit="10" x1="373.4" y1="124" x2="373.4" y2="303.5"/>
</svg>
