<?xml version="1.0" encoding="utf-8"?>
<!-- Generator: Adobe Illustrator 23.0.1, SVG Export Plug-In . SVG Version: 6.00 Build 0)  -->
<svg version="1.1" id="Layer_1" xmlns="http://www.w3.org/2000/svg" xmlns:xlink="http://www.w3.org/1999/xlink" x="0px" y="0px"
	 viewBox="0 0 600 350" enable-background="new 0 0 600 350" xml:space="preserve">
<g opacity="0.41">
	<linearGradient id="SVGID_1_" gradientUnits="userSpaceOnUse" x1="13.0805" y1="147.8209" x2="580.1481" y2="147.8209">
		<stop  offset="0.1966" style="stop-color:#D1D3D4"/>
		<stop  offset="1" style="stop-color:#F7F8F9;stop-opacity:0"/>
	</linearGradient>
	<path fill="url(#SVGID_1_)" d="M580.1,203.5c0,5.5-4.5,10-10,10H23.1c-5.5,0-10-4.5-10-10V92.2c0-5.5,4.5-10,10-10h547.1
		c5.5,0,10,4.5,10,10V203.5z"/>
</g>
<rect x="0" y="44.1" fill="none" width="600" height="45.9"/>
<text transform="matrix(1 0 0 1 35.2853 65.5104)" font-family="'ArialMT'" font-size="25px">Strategy #3: Develop project management skills</text>
<path d="M469.7,135c-10.5,0-19,8.5-19,19s8.5,19,19,19s19-8.5,19-19S480.1,135,469.7,135z M469.7,175.7c-12,0-21.7-9.7-21.7-21.7
	s9.7-21.7,21.7-21.7c12,0,21.7,9.7,21.7,21.7S481.6,175.7,469.7,175.7z"/>
<path d="M481.3,155.6h-11.6c-0.7,0-1.2-0.5-1.2-1.2v-12.3c0-0.7,0.5-1.2,1.2-1.2c0.7,0,1.2,0.5,1.2,1.2v11.1h10.4
	c0.7,0,1.2,0.5,1.2,1.2C482.5,155.1,482,155.6,481.3,155.6L481.3,155.6z"/>
<path d="M447,187.5c0-0.1-0.6-7.6-10.1-7.6c-9.6,0-10.1,7.6-10.1,7.7v2.2c0,0.6,0.5,1.1,1.1,1.1h18c0.6,0,1.1-0.5,1.1-1.1L447,187.5
	z"/>
<ellipse cx="436.6" cy="172.5" rx="5" ry="5.6"/>
<path d="M514,187.5c0-0.1-0.6-7.6-10.1-7.6c-9.6,0-10.1,7.6-10.1,7.7v2.2c0,0.6,0.5,1.1,1.1,1.1h18c0.6,0,1.1-0.5,1.1-1.1L514,187.5
	z"/>
<ellipse cx="503.6" cy="172.5" rx="5" ry="5.6"/>
<path d="M480,118.9c0-0.1-0.6-7.6-10.1-7.6c-9.6,0-10.1,7.6-10.1,7.7v2.2c0,0.6,0.5,1.1,1.1,1.1h18c0.6,0,1.1-0.5,1.1-1.1L480,118.9
	z"/>
<ellipse cx="469.7" cy="103.8" rx="5" ry="5.6"/>
<path d="M454.5,112.4c-0.2-0.5-0.7-0.8-1.2-0.8c-0.2,0-0.4,0-0.5,0.1c-37.2,16.2-25.5,54-25.4,54.4c0.2,0.7,1,1.1,1.6,0.8
	c0.3-0.1,0.6-0.3,0.8-0.6s0.2-0.7,0.1-1c0-0.1-2.9-9-1.3-19.8c2-14.4,10.5-25,25.2-31.4C454.5,113.8,454.8,113,454.5,112.4
	L454.5,112.4z"/>
<path d="M488.5,111.7c-0.2-0.1-0.3-0.1-0.5-0.1s-0.3,0-0.5,0.1c-0.3,0.1-0.6,0.4-0.7,0.7c-0.1,0.3-0.1,0.7,0,1
	c0.1,0.3,0.4,0.6,0.7,0.7c35,15.3,24.4,49.7,24,51.2c-0.2,0.7,0.2,1.4,0.8,1.6c0.7,0.2,1.4-0.2,1.6-0.8
	C514,165.7,525.7,128,488.5,111.7L488.5,111.7z"/>
<path d="M487.6,190.7c-18.2,7.7-33.2,0.1-33.3,0c-0.2-0.1-0.4-0.1-0.6-0.1c-0.1,0-0.3,0-0.4,0.1c-0.3,0.1-0.6,0.3-0.8,0.6
	s-0.2,0.7-0.1,1c0.1,0.3,0.3,0.6,0.6,0.8s7.3,3.8,17.6,3.8c6.1,0,12.1-1.2,17.9-3.7c0.7-0.3,1-1,0.7-1.7
	C489,190.7,488.2,190.4,487.6,190.7L487.6,190.7z"/>
<path d="M296.8,126.3H292v5.5h18.5v-5.5h-4.8c-0.1,0-0.1,0-0.2,0c-0.5-0.1-0.8-0.6-0.7-1.1c0-0.1,0.1-0.3,0.1-0.4c0-0.1,0-0.3,0-0.4
	c0-1-0.4-1.9-1.1-2.6c-0.7-0.7-1.6-1.1-2.6-1.1c-1,0-1.9,0.4-2.6,1.1c-0.7,0.7-1.1,1.6-1.1,2.6c0,0.1,0,0.3,0,0.4v0
	c0,0.1,0,0.3,0.1,0.4c0,0.1,0,0.2,0,0.3C297.7,125.9,297.3,126.3,296.8,126.3L296.8,126.3z M312.2,128.8h8.3c1.7,0,2.9,0.6,3.6,1.7
	c0.7,1,0.9,2.3,0.9,3.8h0l-0.2,27.6l0.2,27.5c0,0,0,0.1,0,0.1c0,1.5-0.3,2.9-0.9,3.8c-0.7,1.1-1.9,1.7-3.6,1.7h-38.8
	c-1.7,0-2.9-0.6-3.6-1.7c-0.7-1-0.9-2.3-0.9-3.8h0l0.2-27.6l-0.2-27.5c0,0,0-0.1,0-0.1c0-1.5,0.3-2.9,0.9-3.8
	c0.7-1.1,1.9-1.7,3.6-1.7h8.3v-3.4c0-0.5,0.4-0.9,0.9-0.9h4.7c0-0.1,0-0.1,0-0.2c0-1.5,0.6-2.9,1.6-3.9c1-1,2.4-1.6,3.9-1.6
	c1.5,0,2.9,0.6,3.9,1.6c1,1,1.6,2.4,1.6,3.9c0,0.1,0,0.1,0,0.2h4.6c0.5,0,0.9,0.4,0.9,0.9L312.2,128.8z M301,140.4
	c-0.5,0-0.9-0.4-0.9-0.9s0.4-0.9,0.9-0.9l14.8,0c0.5,0,0.9,0.4,0.9,0.9c0,0.5-0.4,0.9-0.9,0.9L301,140.4z M301,143.5
	c-0.3,0-0.6-0.3-0.6-0.6c0-0.3,0.3-0.6,0.6-0.6l12.8,0c0.3,0,0.6,0.3,0.6,0.6c0,0.3-0.3,0.6-0.6,0.6L301,143.5z M301,146.2
	c-0.3,0-0.6-0.3-0.6-0.6c0-0.3,0.3-0.6,0.6-0.6l12.8,0c0.3,0,0.6,0.3,0.6,0.6c0,0.3-0.3,0.6-0.6,0.6L301,146.2z M287.9,142.9
	c-0.3-0.4-0.3-0.9,0.1-1.3c0.4-0.3,0.9-0.3,1.3,0.1l1.5,1.8l3.7-4.7c0.3-0.4,0.9-0.5,1.3-0.2s0.5,0.9,0.2,1.3l-4.4,5.6
	c0,0-0.1,0.1-0.1,0.1c-0.4,0.3-0.9,0.3-1.3-0.1L287.9,142.9z M301,157.4c-0.5,0-0.9-0.4-0.9-0.9c0-0.5,0.4-0.9,0.9-0.9l14.8,0
	c0.5,0,0.9,0.4,0.9,0.9c0,0.5-0.4,0.9-0.9,0.9L301,157.4z M301,160.4c-0.3,0-0.6-0.3-0.6-0.6c0-0.3,0.3-0.6,0.6-0.6l12.8,0
	c0.3,0,0.6,0.3,0.6,0.6c0,0.3-0.3,0.6-0.6,0.6L301,160.4z M301,163.1c-0.3,0-0.6-0.3-0.6-0.6c0-0.3,0.3-0.6,0.6-0.6l12.8,0
	c0.3,0,0.6,0.3,0.6,0.6c0,0.3-0.3,0.6-0.6,0.6L301,163.1z M287.9,159.9c-0.3-0.4-0.3-0.9,0.1-1.3c0.4-0.3,0.9-0.3,1.3,0.1l1.5,1.8
	l3.7-4.7c0.3-0.4,0.9-0.5,1.3-0.2s0.5,0.9,0.2,1.3l-4.4,5.6c0,0-0.1,0.1-0.1,0.1c-0.4,0.3-0.9,0.3-1.3-0.1L287.9,159.9z M301,175.1
	c-0.5,0-0.9-0.4-0.9-0.9c0-0.5,0.4-0.9,0.9-0.9l14.8,0c0.5,0,0.9,0.4,0.9,0.9c0,0.5-0.4,0.9-0.9,0.9L301,175.1z M301,178.1
	c-0.3,0-0.6-0.3-0.6-0.6c0-0.3,0.3-0.6,0.6-0.6l12.8,0c0.3,0,0.6,0.3,0.6,0.6c0,0.3-0.3,0.6-0.6,0.6L301,178.1z M301,180.8
	c-0.3,0-0.6-0.3-0.6-0.6c0-0.3,0.3-0.6,0.6-0.6l12.8,0c0.3,0,0.6,0.3,0.6,0.6c0,0.3-0.3,0.6-0.6,0.6L301,180.8z M287.9,177.5
	c-0.3-0.4-0.3-0.9,0.1-1.3c0.4-0.3,0.9-0.3,1.3,0.1l1.5,1.8l3.7-4.7c0.3-0.4,0.9-0.5,1.3-0.2s0.5,0.9,0.2,1.3l-4.4,5.6
	c0,0-0.1,0.1-0.1,0.1c-0.4,0.3-0.9,0.3-1.3-0.1L287.9,177.5z M260.3,125.5c-3.9-3.9-9.3-6.3-15.2-6.3c-5.9,0-11.3,2.4-15.2,6.3
	c-3.9,3.9-6.3,9.3-6.3,15.2c0,5.9,2.4,11.3,6.3,15.2c3.9,3.9,9.3,6.3,15.2,6.3c5.9,0,11.3-2.4,15.2-6.3c3.9-3.9,6.3-9.3,6.3-15.2
	C266.6,134.7,264.2,129.4,260.3,125.5z M245.7,121.1l0,4.9l-1.1,0l0-4.9L245.7,121.1z M235.8,123.4l2.4,4.3l-1,0.6l-2.4-4.3
	L235.8,123.4z M228.4,130.3l4.2,2.5l-0.6,1l-4.2-2.5L228.4,130.3z M225.4,140l4.9,0l0,1.1l-4.9,0L225.4,140z M227.7,149.9l4.3-2.4
	l0.6,1l-4.3,2.4L227.7,149.9z M234.7,157.4l2.5-4.2l1,0.6l-2.5,4.2L234.7,157.4z M244.4,160.3l0-4.9l1.1,0l0,4.9L244.4,160.3z
	 M254.3,158l-2.4-4.3l1-0.6l2.4,4.3L254.3,158z M261.7,151.1l-4.2-2.5l0.6-1l4.2,2.5L261.7,151.1z M264.7,141.3l-4.9,0l0-1.1l4.9,0
	L264.7,141.3z M262.4,131.4l-4.3,2.4l-0.6-1l4.3-2.4L262.4,131.4z M255.4,124l-2.5,4.2l-1-0.6l2.5-4.2L255.4,124z M245.7,114.4h-1.4
	v2.7h1.4V114.4z M247.5,114c1.1-0.4,2-1.2,2.8-2.1c0.9-1.1,1.4-2.5,1.4-4.1c0-1.8-0.7-3.5-1.9-4.7c-1.2-1.2-2.8-1.9-4.7-1.9
	s-3.5,0.7-4.7,1.9c-1.2,1.2-1.9,2.8-1.9,4.7c0,1.5,0.5,2.9,1.4,4.1c0.7,0.9,1.6,1.6,2.7,2.1v-0.4c0-0.5,0.4-0.9,0.9-0.9h3.2
	c0.5,0,0.9,0.4,0.9,0.9L247.5,114L247.5,114z M226.5,116.6l-5.1,3.6l1.3,1.8l5.1-3.6L226.5,116.6z M226.6,126.4l-2.4-3.3L223,124
	c-0.4,0.3-1,0.2-1.3-0.2l-2.3-3.3c-0.3-0.4-0.2-1,0.2-1.3l6.6-4.6c0.4-0.3,1-0.2,1.3,0.2l2.3,3.3c0.3,0.4,0.2,1-0.2,1.3l-1.1,0.8
	l1.8,2.5c3.4-2.8,7.6-4.7,12.3-5.2v-1.6c-1.6-0.5-3.1-1.5-4.1-2.9c-1.1-1.4-1.8-3.2-1.8-5.2c0-2.3,0.9-4.4,2.5-5.9
	c1.5-1.5,3.6-2.5,5.9-2.5c2.3,0,4.4,0.9,5.9,2.5c1.5,1.5,2.5,3.6,2.5,5.9c0,1.9-0.7,3.7-1.8,5.2c-1,1.4-2.5,2.4-4.2,2.9v1.6
	c5.5,0.6,10.3,3,14,6.7c4.2,4.2,6.8,10.1,6.8,16.5c0,6.4-2.6,12.3-6.8,16.5c-4.2,4.2-10.1,6.8-16.5,6.8s-12.3-2.6-16.5-6.8
	c-4.2-4.2-6.8-10.1-6.8-16.5C221.7,135.3,223.5,130.4,226.6,126.4L226.6,126.4z M225.7,122.1l2.1,2.9c0.2-0.3,0.5-0.5,0.8-0.8
	c0.1-0.1,0.2-0.2,0.3-0.3l-1.9-2.7L225.7,122.1L225.7,122.1z M245.2,139.9c-0.1,0-0.2-0.1-0.2-0.2c-0.1,0-0.2-0.1-0.3-0.1
	c-0.1,0-0.3,0.1-0.4,0.2c-0.1,0.1-0.2,0.2-0.2,0.4s0.1,0.3,0.2,0.4c0.1,0.1,0.2,0.2,0.4,0.2s0.3-0.1,0.4-0.2
	c0.1-0.1,0.2-0.2,0.2-0.4C245.2,140,245.2,139.9,245.2,139.9L245.2,139.9z M242.7,141.4L241,142c-0.3,0.1-0.6,0-0.7-0.3
	c-0.1-0.3,0-0.6,0.3-0.7l1.7-0.6c0-0.1,0-0.1,0-0.2c0-0.6,0.3-1.2,0.7-1.6c0.4-0.4,1-0.7,1.6-0.7c0.6,0,1.2,0.3,1.6,0.7
	c0.1,0.1,0.1,0.1,0.2,0.2l13.3-4.4c0.2-0.1,0.5,0.1,0.6,0.3c0.1,0.2,0,0.5-0.3,0.6l-13.1,5v0c0,0.6-0.3,1.2-0.7,1.6
	c-0.4,0.4-1,0.7-1.6,0.7s-1.2-0.3-1.6-0.7C242.9,141.6,242.8,141.5,242.7,141.4L242.7,141.4z M220.2,163.2l-2.2-0.6l1.5,4.5l3.1-3.2
	L220.2,163.2L220.2,163.2z M216.9,160.4l7.6,2.2c0.5,0.1,0.8,0.6,0.6,1.1c0,0.2-0.1,0.3-0.2,0.4L223,166c2.9,2.5,6.2,4.5,9.8,6
	c3.8,1.5,7.9,2.3,12.3,2.3c3.4,0,6.6-0.5,9.7-1.4c3.2-1,6.1-2.4,8.8-4.1l1,1.5c-2.8,1.9-6,3.4-9.3,4.4c-3.2,1-6.6,1.5-10.2,1.5
	c-4.5,0-8.9-0.9-12.9-2.4c-3.9-1.5-7.4-3.7-10.4-6.4l-2,2.1c-0.3,0.4-0.9,0.4-1.3,0c-0.1-0.1-0.2-0.2-0.2-0.4l-2.5-7.5
	c-0.2-0.5,0.1-1,0.6-1.1C216.5,160.3,216.7,160.3,216.9,160.4L216.9,160.4z M300.2,93.4c0-0.5,0.4-0.9,0.9-0.9
	c0.5,0,0.9,0.4,0.9,0.9v14.6c0,0.5-0.4,0.9-0.9,0.9c-0.5,0-0.9-0.4-0.9-0.9V93.4z M285.4,101.1c-0.2-0.3-0.1-0.6,0.2-0.8
	c0.3-0.2,0.6-0.1,0.8,0.2l4.6,7.5c0.2,0.3,0.1,0.6-0.2,0.8c-0.3,0.2-0.6,0.1-0.8-0.2L285.4,101.1z M274.2,112.2
	c-0.4-0.3-0.4-0.9,0-1.3c0.3-0.4,0.9-0.4,1.3,0l6.4,6c0.4,0.3,0.4,0.9,0,1.3c-0.3,0.4-0.9,0.4-1.3,0L274.2,112.2z M275.4,101.3
	c-0.2-0.2-0.2-0.6,0-0.8c0.2-0.2,0.6-0.2,0.8,0l5.8,6.6c0.2,0.2,0.2,0.6,0,0.8c-0.2,0.2-0.6,0.2-0.8,0L275.4,101.3z M315.8,100.5
	c0.2-0.3,0.5-0.3,0.8-0.2c0.3,0.2,0.3,0.5,0.2,0.8l-4.6,7.5c-0.2,0.3-0.5,0.3-0.8,0.2c-0.3-0.2-0.3-0.5-0.2-0.8L315.8,100.5z
	 M326.7,110.9c0.4-0.3,0.9-0.3,1.3,0c0.3,0.4,0.3,0.9,0,1.3l-6.4,6c-0.4,0.3-0.9,0.3-1.3,0c-0.3-0.4-0.3-0.9,0-1.3L326.7,110.9z
	 M325.8,100.6c0.2-0.2,0.6-0.3,0.8,0c0.2,0.2,0.3,0.6,0,0.8l-5.8,6.6c-0.2,0.2-0.6,0.3-0.8,0c-0.2-0.2-0.3-0.6,0-0.8L325.8,100.6z
	 M290.2,130.6h-8.3c-1,0-1.7,0.3-2.1,0.9c-0.4,0.7-0.6,1.6-0.6,2.8v0.1c0.1,18.4,0.1,36.6,0,55h0c0,1.2,0.2,2.2,0.6,2.8
	c0.4,0.6,1.1,0.9,2.1,0.9h38.8c1,0,1.7-0.3,2.1-0.9c0.4-0.7,0.6-1.6,0.6-2.8v-0.1c-0.1-18.4-0.1-36.6,0-55h0c0-1.2-0.2-2.2-0.6-2.8
	c-0.4-0.6-1.1-0.9-2.1-0.9h-8.3v2.1c0,0.5-0.4,0.9-0.9,0.9h-20.3c-0.5,0-0.9-0.4-0.9-0.9L290.2,130.6z"/>
<path d="M62.6,162h-9.6l10.6,10.6V163C63.6,162.4,63.2,162,62.6,162L62.6,162z M92.6,151h-14v14h14V151z M108.6,151h-14v14h14V151z
	 M124.6,151h-14v14h14V151z M76.6,135h-14v14h14V135z M92.6,135h-14v14h14V135z M108.6,135h-14v14h14V135z M124.6,135h-14v14h14V135
	z M125.6,133c0.7,0,1,0.6,1,1v32c0,0.5-0.5,1-1,1h-48c-0.5,0-1-0.5-1-1v-15h-15c-0.5,0-1-0.5-1-1v-16c0-0.5,0.5-1,1-1H125.6z
	 M135.6,126h-84v34h11c1.6,0,3,1.4,3,3v11h69c0.6,0,1-0.4,1-1V126z M70.6,111c2.2,0,4,1.8,4,4s-1.8,4-4,4s-4-1.8-4-4
	S68.4,111,70.6,111z M116.6,111c2.2,0,4,1.8,4,4s-1.8,4-4,4s-4-1.8-4-4S114.4,111,116.6,111z M134.6,106h-82c-0.6,0-1,0.4-1,1v17h84
	v-17C135.6,106.4,135.2,106,134.6,106z M134.6,104c1.6,0,3,1.4,3,3v66c0,1.6-1.4,3-3,3h-70c-0.3,0-0.5-0.1-0.7-0.3l-14-14
	c-0.2-0.2-0.3-0.4-0.3-0.7v-54c0-1.6,1.4-3,3-3H134.6z"/>
<text transform="matrix(1 0 0 1 36.5407 248.1872)" font-family="'ArialMT'" font-size="13px">Release dates:</text>
<text transform="matrix(1 0 0 1 224.4094 252.6923)"><tspan x="0" y="0" font-family="'ArialMT'" font-size="13px">Don’t promise finished </tspan><tspan x="0" y="15.6" font-family="'ArialMT'" font-size="13px">docs for everyone</tspan><tspan x="0" y="31.2" font-family="'ArialMT'" font-size="13px">whenever they need it.</tspan></text>
<text transform="matrix(1 0 0 1 410.1715 252.6921)"><tspan x="0" y="0" font-family="'ArialMT'" font-size="13px">Sometimes be the writer, </tspan><tspan x="0" y="15.6" font-family="'ArialMT'" font-size="13px">other times be the project mgr</tspan><tspan x="0" y="31.2" font-family="'ArialMT'" font-size="13px">for others</tspan></text>
<line fill="none" stroke="#000000" stroke-width="0.25" stroke-miterlimit="10" x1="187.8" y1="82.2" x2="187.8" y2="325.7"/>
<line fill="none" stroke="#000000" stroke-width="0.25" stroke-miterlimit="10" x1="387.3" y1="82.2" x2="387.3" y2="325.7"/>
<text transform="matrix(1 0 0 1 47.2264 262.6815)"><tspan x="0" y="0" font-family="'ArialMT'" font-size="10px">engineering team 1</tspan><tspan x="0" y="12" font-family="'ArialMT'" font-size="10px">engineering team 2</tspan><tspan x="0" y="24" font-family="'ArialMT'" font-size="10px">engineering team 3</tspan><tspan x="0" y="36" font-family="'ArialMT'" font-size="10px">engineering team n</tspan></text>
</svg>
