<?xml version="1.0" encoding="utf-8"?>
<!-- Generator: Adobe Illustrator 23.0.1, SVG Export Plug-In . SVG Version: 6.00 Build 0)  -->
<svg version="1.1" id="Layer_1" xmlns="http://www.w3.org/2000/svg" xmlns:xlink="http://www.w3.org/1999/xlink" x="0px" y="0px"
	 viewBox="0 0 600 350" enable-background="new 0 0 600 350" xml:space="preserve">
<rect x="0" y="44" fill="none" width="596.1" height="45.6"/>
<text transform="matrix(1 0 0 1 50.9238 65.3487)" font-family="'ArialMT'" font-size="24.8373px">Less time for technology knowledge ramp-up</text>
<g>
	<path d="M166.7,249.6l15.6-38c0.9-2.3,0-4.9-2.2-5.9c-2.1-1-4.7,0-5.6,2.3l-15.6,38l-15.6,6.5l-35.4-16c-2.2-1-4.7,0.1-5.6,2.4
		c-0.9,2.3,0.1,4.9,2.2,5.9l35.4,16l1.8,5h30.9L166.7,249.6z"/>
	<path d="M156.8,229.8c2.4,6.5-0.6,13.9-6.7,16.5c-6.1,2.6-13.1-0.6-15.5-7.2c-2.4-6.5,0.6-13.9,6.7-16.5
		C147.4,220.1,154.3,223.3,156.8,229.8"/>
	<rect x="192.5" y="211.4" width="5.8" height="0.8"/>
	<rect x="207" y="211.5" width="3.8" height="0.8"/>
	<rect x="212" y="211.5" width="1.9" height="0.8"/>
	<rect x="202.7" y="214.2" width="2.7" height="0.8"/>
	<rect x="195.4" y="214.2" width="5.8" height="0.8"/>
	<rect x="124.7" y="211.4" width="5.8" height="0.8"/>
	<rect x="151.5" y="211.5" width="3.8" height="0.8"/>
	<rect x="162.4" y="211.5" width="1.9" height="0.8"/>
	<rect x="142.6" y="214.2" width="2.7" height="0.8"/>
	<rect x="127.5" y="214.2" width="11.6" height="0.8"/>
	<rect x="218.3" y="246.7" width="10.6" height="1.4"/>
	<rect x="139.1" y="269.9" width="10.6" height="1.7"/>
	<rect x="120.7" y="269.9" width="15.2" height="1.7"/>
	<rect x="152.2" y="269.9" width="4.4" height="1.7"/>
	<rect x="113.7" y="269.9" width="4.4" height="1.7"/>
	<rect x="174.4" y="269.9" width="4.4" height="1.7"/>
	<rect x="180.4" y="269.9" width="12.3" height="1.7"/>
	<rect x="180.1" y="261.3" width="4.3" height="1.7"/>
	<rect x="118.3" y="261.3" width="4.3" height="1.7"/>
	<rect x="131" y="261.3" width="4.3" height="1.7"/>
	<rect x="184.1" y="265.6" width="8.4" height="1.7"/>
	<rect x="196.4" y="269.9" width="6.4" height="1.7"/>
	<rect x="158.8" y="269.9" width="13.4" height="1.7"/>
	<rect x="204.9" y="246.7" width="6.7" height="1.4"/>
	<rect x="195.9" y="246.7" width="6.7" height="1.4"/>
	<rect x="192" y="240" width="27.4" height="1.4"/>
	<rect x="198.7" y="235.1" width="4.5" height="1.4"/>
	<rect x="184.4" y="240" width="5.1" height="1.4"/>
	<rect x="232.8" y="240" width="5.3" height="1.4"/>
	<path d="M174.3,175.3c-3.7-4.4-7.8,2.3-7.8,2.3s-6.7-3.8-7.9,2c2.7-2.5,7-0.4,8.5,0.5C168,178.6,170.8,174.5,174.3,175.3
		L174.3,175.3z"/>
	<path d="M174.5,187c2.7-2.5,7-0.4,8.5,0.5c0.9-1.7,3.8-5.7,7.2-4.9c-3.7-4.4-7.8,2.3-7.8,2.3S175.7,181.2,174.5,187L174.5,187z"/>
	<path d="M185.6,168c0.9-1.7,3.8-5.7,7.2-4.9c-3.7-4.4-7.8,2.3-7.8,2.3s-6.7-3.8-7.9,2C179.7,165,184.1,167,185.6,168L185.6,168z"/>
	<rect x="98.3" y="198" width="144.6" height="1.8"/>
	<path d="M284,140.8H224v-2.1c0-0.6,0.4-1,1-1h58c0.5,0,1,0.5,1,1V140.8z M284,176.3H224v-34.4H284V176.3z M284,179.9
		c0,0.6-0.4,1-1,1h-58c-0.5,0-1-0.5-1-1v-2.6H284V179.9z M256.4,186.6h-4.8V182h4.8V186.6z M283,136.7h-58c-1.1,0-1.9,0.9-1.9,2.1
		v41.1c0,1.1,0.9,2.1,1.9,2.1h25.6v4.6h-3.9c-0.3,0-0.5,0.2-0.5,0.5s0.2,0.5,0.5,0.5h14.5c0.3,0,0.5-0.2,0.5-0.5s-0.2-0.5-0.5-0.5
		h-3.9V182H283c1.1,0,1.9-0.9,1.9-2.1v-41.1C285,137.7,284.1,136.7,283,136.7z"/>
	<path d="M226.5,146h9.4c0.3,0,0.5-0.2,0.5-0.5c0-0.3-0.2-0.5-0.5-0.5h-9.4c-0.3,0-0.5,0.2-0.5,0.5C226,145.8,226.2,146,226.5,146z"
		/>
	<path d="M230.9,147.5c0,0.3,0.2,0.5,0.5,0.5h10.4c0.3,0,0.5-0.2,0.5-0.5s-0.2-0.5-0.5-0.5h-10.4C231.1,147,230.9,147.2,230.9,147.5
		z"/>
	<path d="M226.5,150.1h8.4c0.3,0,0.5-0.2,0.5-0.5s-0.2-0.5-0.5-0.5h-8.4c-0.3,0-0.5,0.2-0.5,0.5S226.2,150.1,226.5,150.1z"/>
	<path d="M226.5,152.2h9.9c0.3,0,0.5-0.2,0.5-0.5s-0.2-0.5-0.5-0.5h-9.9c-0.3,0-0.5,0.2-0.5,0.5S226.2,152.2,226.5,152.2z"/>
	<path d="M229.9,153.7c0,0.3,0.2,0.5,0.5,0.5h12.9c0.3,0,0.5-0.2,0.5-0.5s-0.2-0.5-0.5-0.5h-12.9
		C230.2,153.2,229.9,153.4,229.9,153.7z"/>
	<path d="M240.8,155.2h-11.9c-0.3,0-0.5,0.2-0.5,0.5s0.2,0.5,0.5,0.5h11.9c0.3,0,0.5-0.2,0.5-0.5S241.1,155.2,240.8,155.2z"/>
	<path d="M226.5,158.3h11.9c0.3,0,0.5-0.2,0.5-0.5s-0.2-0.5-0.5-0.5h-11.9c-0.3,0-0.5,0.2-0.5,0.5S226.2,158.3,226.5,158.3z"/>
	<path d="M232.4,159.9c0,0.3,0.2,0.5,0.5,0.5h8.4c0.3,0,0.5-0.2,0.5-0.5s-0.2-0.5-0.5-0.5h-8.4C232.6,159.3,232.4,159.6,232.4,159.9
		z"/>
	<path d="M233.4,162.4h4.9c0.3,0,0.5-0.2,0.5-0.5s-0.2-0.5-0.5-0.5h-4.9c-0.3,0-0.5,0.2-0.5,0.5S233.1,162.4,233.4,162.4z"/>
	<path d="M226.5,164.5h11.9c0.3,0,0.5-0.2,0.5-0.5s-0.2-0.5-0.5-0.5h-11.9c-0.3,0-0.5,0.2-0.5,0.5S226.2,164.5,226.5,164.5z"/>
	<path d="M226.5,166.5h11.4c0.3,0,0.5-0.2,0.5-0.5s-0.2-0.5-0.5-0.5h-11.4c-0.3,0-0.5,0.2-0.5,0.5S226.2,166.5,226.5,166.5z"/>
	<path d="M246.3,167.6h-10.4c-0.3,0-0.5,0.2-0.5,0.5s0.2,0.5,0.5,0.5h10.4c0.3,0,0.5-0.2,0.5-0.5S246.6,167.6,246.3,167.6z"/>
	<path d="M226.5,170.7h11.9c0.3,0,0.5-0.2,0.5-0.5s-0.2-0.5-0.5-0.5h-11.9c-0.3,0-0.5,0.2-0.5,0.5S226.2,170.7,226.5,170.7z"/>
	<path d="M244.8,171.7h-10.4c-0.3,0-0.5,0.2-0.5,0.5s0.2,0.5,0.5,0.5h10.4c0.3,0,0.5-0.2,0.5-0.5S245.1,171.7,244.8,171.7z"/>
	<path d="M270.7,146h10.9c0.3,0,0.5-0.2,0.5-0.5c0-0.3-0.2-0.5-0.5-0.5h-10.9c-0.3,0-0.5,0.2-0.5,0.5
		C270.2,145.8,270.4,146,270.7,146z"/>
	<path d="M266.2,148h10.4c0.3,0,0.5-0.2,0.5-0.5s-0.2-0.5-0.5-0.5h-10.4c-0.3,0-0.5,0.2-0.5,0.5S265.9,148,266.2,148z"/>
	<path d="M281.6,149.1h-8.4c-0.3,0-0.5,0.2-0.5,0.5c0,0.3,0.2,0.5,0.5,0.5h8.4c0.3,0,0.5-0.2,0.5-0.5
		C282.1,149.3,281.8,149.1,281.6,149.1z"/>
	<path d="M281.6,151.1h-11.4c-0.3,0-0.5,0.2-0.5,0.5s0.2,0.5,0.5,0.5h11.4c0.3,0,0.5-0.2,0.5-0.5S281.8,151.1,281.6,151.1z"/>
	<path d="M264.7,154.2h12.9c0.3,0,0.5-0.2,0.5-0.5s-0.2-0.5-0.5-0.5h-12.9c-0.3,0-0.5,0.2-0.5,0.5S264.5,154.2,264.7,154.2z"/>
	<path d="M279.1,156.3c0.3,0,0.5-0.2,0.5-0.5s-0.2-0.5-0.5-0.5h-11.9c-0.3,0-0.5,0.2-0.5,0.5s0.2,0.5,0.5,0.5H279.1z"/>
	<path d="M281.6,157.3h-11.9c-0.3,0-0.5,0.2-0.5,0.5s0.2,0.5,0.5,0.5h11.9c0.3,0,0.5-0.2,0.5-0.5S281.8,157.3,281.6,157.3z"/>
	<path d="M266.2,159.9c0,0.3,0.2,0.5,0.5,0.5h8.4c0.3,0,0.5-0.2,0.5-0.5s-0.2-0.5-0.5-0.5h-8.4C266.4,159.3,266.2,159.6,266.2,159.9
		z"/>
	<path d="M269.7,161.4c-0.3,0-0.5,0.2-0.5,0.5c0,0.3,0.2,0.5,0.5,0.5h4.9c0.3,0,0.5-0.2,0.5-0.5c0-0.3-0.2-0.5-0.5-0.5H269.7z"/>
	<path d="M281.6,163.5h-11.9c-0.3,0-0.5,0.2-0.5,0.5s0.2,0.5,0.5,0.5h11.9c0.3,0,0.5-0.2,0.5-0.5S281.8,163.5,281.6,163.5z"/>
	<path d="M281.6,165.5h-11.4c-0.3,0-0.5,0.2-0.5,0.5s0.2,0.5,0.5,0.5h11.4c0.3,0,0.5-0.2,0.5-0.5S281.8,165.5,281.6,165.5z"/>
	<path d="M272.7,168.1c0-0.3-0.2-0.5-0.5-0.5h-10.4c-0.3,0-0.5,0.2-0.5,0.5s0.2,0.5,0.5,0.5h10.4
		C272.4,168.6,272.7,168.4,272.7,168.1z"/>
	<path d="M281.6,169.6h-11.9c-0.3,0-0.5,0.2-0.5,0.5s0.2,0.5,0.5,0.5h11.9c0.3,0,0.5-0.2,0.5-0.5S281.8,169.6,281.6,169.6z"/>
	<path d="M273.7,171.7h-10.4c-0.3,0-0.5,0.2-0.5,0.5s0.2,0.5,0.5,0.5h10.4c0.3,0,0.5-0.2,0.5-0.5S273.9,171.7,273.7,171.7z"/>
	<path d="M238.5,139.5c0,0.7-1,0.7-1,0C237.5,138.8,238.5,138.8,238.5,139.5"/>
	<path d="M236.5,139.5c0,0.7-1,0.7-1,0C235.6,138.8,236.5,138.8,236.5,139.5"/>
	<path d="M234.6,139.5c0,0.7-1,0.7-1,0C233.6,138.8,234.6,138.8,234.6,139.5"/>
	<path d="M251.9,165c0,0,0.1,0,0.1,0c0.2,0,0.4-0.1,0.5-0.4l3-11.3c0.1-0.3-0.1-0.6-0.3-0.6c-0.3-0.1-0.5,0.1-0.6,0.4l-3,11.3
		C251.5,164.6,251.7,164.9,251.9,165z"/>
	<path d="M245.5,159.8l4.4,3.3c0.1,0.1,0.2,0.1,0.3,0.1c0.1,0,0.3-0.1,0.4-0.2c0.2-0.2,0.1-0.6-0.1-0.7l-3.8-2.9l3.8-2.9
		c0.2-0.2,0.3-0.5,0.1-0.7c-0.2-0.2-0.5-0.3-0.7-0.1l-4.4,3.3c-0.1,0.1-0.2,0.3-0.2,0.4C245.3,159.5,245.4,159.7,245.5,159.8
		L245.5,159.8z"/>
	<path d="M257.5,163c0.1,0.1,0.2,0.2,0.4,0.2c0.1,0,0.2,0,0.3-0.1l4.4-3.3c0.1-0.1,0.2-0.3,0.2-0.4s-0.1-0.3-0.2-0.4l-4.4-3.3
		c-0.2-0.2-0.5-0.1-0.7,0.1c-0.2,0.2-0.1,0.6,0.1,0.7l3.8,2.9l-3.8,2.9C257.4,162.4,257.3,162.7,257.5,163L257.5,163z"/>
	<path d="M56.8,210.9l-5.7,4.5c-0.1,0.1-0.2,0.3-0.2,0.4c0,0.2,0.1,0.3,0.2,0.4l5.6,4.4c0.2,0.2,0.5,0.1,0.7-0.1
		c0.2-0.2,0.1-0.6-0.1-0.8l-5-3.9l5.2-4.1c0.1-0.1,0.2-0.2,0.2-0.4c0-0.2,0-0.3-0.1-0.4c-0.1-0.1-0.2-0.2-0.4-0.2
		C57,210.8,56.9,210.8,56.8,210.9L56.8,210.9z"/>
	<path d="M75.1,215.3l-5.6-4.4c-0.2-0.2-0.5-0.1-0.7,0.1c-0.2,0.2-0.1,0.6,0.1,0.8l5,3.9l-5.2,4.1c-0.1,0.1-0.2,0.2-0.2,0.4
		c0,0.2,0,0.3,0.1,0.4c0.1,0.1,0.2,0.2,0.4,0.2c0.1,0,0.3,0,0.4-0.1l5.7-4.5c0.1-0.1,0.2-0.3,0.2-0.4
		C75.3,215.5,75.3,215.4,75.1,215.3L75.1,215.3z"/>
	<path d="M66.1,207.1c-0.1-0.1-0.3,0-0.4,0c-0.1,0.1-0.2,0.2-0.3,0.3l-5.8,16.2c-0.1,0.3,0,0.6,0.3,0.7c0.1,0,0.1,0,0.2,0
		c0.2,0,0.4-0.1,0.5-0.4l5.8-16.2v0c0.1-0.1,0.1-0.3,0-0.4C66.3,207.3,66.2,207.2,66.1,207.1L66.1,207.1z"/>
	<path d="M56.7,236.5l-5.7,4.5c-0.1,0.1-0.2,0.3-0.2,0.4c0,0.2,0.1,0.3,0.2,0.4l5.6,4.4c0.2,0.2,0.5,0.1,0.7-0.1
		c0.2-0.2,0.1-0.6-0.1-0.8l-5-3.9l5.2-4.1c0.1-0.1,0.2-0.2,0.2-0.4c0-0.2,0-0.3-0.1-0.4c-0.1-0.1-0.2-0.2-0.4-0.2
		C56.9,236.4,56.8,236.4,56.7,236.5L56.7,236.5z"/>
	<path d="M75,240.9l-5.6-4.4c-0.2-0.2-0.5-0.1-0.7,0.1c-0.2,0.2-0.1,0.6,0.1,0.8l5,3.9l-5.2,4.1c-0.1,0.1-0.2,0.2-0.2,0.4
		c0,0.2,0,0.3,0.1,0.4c0.1,0.1,0.2,0.2,0.4,0.2c0.1,0,0.3,0,0.4-0.1l5.7-4.5c0.1-0.1,0.2-0.3,0.2-0.4C75.3,241.1,75.2,241,75,240.9
		L75,240.9z"/>
	<path d="M66,232.8c-0.1-0.1-0.3,0-0.4,0c-0.1,0.1-0.2,0.2-0.3,0.3l-5.8,16.2c-0.1,0.3,0,0.6,0.3,0.7c0.1,0,0.1,0,0.2,0
		c0.2,0,0.4-0.1,0.5-0.4l5.8-16.2v0c0.1-0.1,0.1-0.3,0-0.4C66.2,232.9,66.1,232.8,66,232.8L66,232.8z"/>
	<path d="M83.6,215.8l-5.7,4.5c-0.1,0.1-0.2,0.3-0.2,0.4c0,0.2,0.1,0.3,0.2,0.4l5.6,4.4c0.2,0.2,0.5,0.1,0.7-0.1
		c0.2-0.2,0.1-0.6-0.1-0.8l-5-3.9l5.2-4.1c0.1-0.1,0.2-0.2,0.2-0.4c0-0.2,0-0.3-0.1-0.4c-0.1-0.1-0.2-0.2-0.4-0.2
		C83.9,215.6,83.7,215.7,83.6,215.8L83.6,215.8z"/>
	<path d="M102,220.1l-5.6-4.4c-0.2-0.2-0.5-0.1-0.7,0.1c-0.2,0.2-0.1,0.6,0.1,0.8l5,3.9l-5.2,4.1c-0.1,0.1-0.2,0.2-0.2,0.4
		c0,0.2,0,0.3,0.1,0.4c0.1,0.1,0.2,0.2,0.4,0.2c0.1,0,0.3,0,0.4-0.1l5.7-4.5c0.1-0.1,0.2-0.3,0.2-0.4
		C102.2,220.4,102.1,220.2,102,220.1L102,220.1z"/>
	<path d="M92.9,212c-0.1-0.1-0.3,0-0.4,0c-0.1,0.1-0.2,0.2-0.3,0.3l-5.8,16.2c-0.1,0.3,0,0.6,0.3,0.7c0.1,0,0.1,0,0.2,0
		c0.2,0,0.4-0.1,0.5-0.4l5.8-16.2v0c0.1-0.1,0.1-0.3,0-0.4C93.2,212.2,93.1,212,92.9,212L92.9,212z"/>
	<path d="M85.2,251l-5.7,4.5c-0.1,0.1-0.2,0.3-0.2,0.4c0,0.2,0.1,0.3,0.2,0.4l5.6,4.4c0.2,0.2,0.5,0.1,0.7-0.1
		c0.2-0.2,0.1-0.6-0.1-0.8l-5-3.9l5.2-4.1c0.1-0.1,0.2-0.2,0.2-0.4c0-0.2,0-0.3-0.1-0.4c-0.1-0.1-0.2-0.2-0.4-0.2
		C85.5,250.8,85.3,250.9,85.2,251L85.2,251z"/>
	<path d="M103.6,255.3L98,251c-0.2-0.2-0.5-0.1-0.7,0.1c-0.2,0.2-0.1,0.6,0.1,0.8l5,3.9l-5.2,4.1c-0.1,0.1-0.2,0.2-0.2,0.4
		c0,0.2,0,0.3,0.1,0.4c0.1,0.1,0.2,0.2,0.4,0.2c0.1,0,0.3,0,0.4-0.1l5.7-4.5c0.1-0.1,0.2-0.3,0.2-0.4
		C103.8,255.6,103.7,255.4,103.6,255.3L103.6,255.3z"/>
	<path d="M94.6,247.2c-0.1-0.1-0.3,0-0.4,0c-0.1,0.1-0.2,0.2-0.3,0.3L88,263.8c-0.1,0.3,0,0.6,0.3,0.7c0.1,0,0.1,0,0.2,0
		c0.2,0,0.4-0.1,0.5-0.4l5.8-16.2v0c0.1-0.1,0.1-0.3,0-0.4C94.8,247.4,94.7,247.3,94.6,247.2L94.6,247.2z"/>
	<path d="M101.4,269.8l-5.7,4.5c-0.1,0.1-0.2,0.3-0.2,0.4c0,0.2,0.1,0.3,0.2,0.4l5.6,4.4c0.2,0.2,0.5,0.1,0.7-0.1
		c0.2-0.2,0.1-0.6-0.1-0.8l-5-3.9l5.2-4.1c0.1-0.1,0.2-0.2,0.2-0.4c0-0.2,0-0.3-0.1-0.4c-0.1-0.1-0.2-0.2-0.4-0.2
		C101.7,269.7,101.5,269.7,101.4,269.8L101.4,269.8z"/>
	<path d="M119.8,274.2l-5.6-4.4c-0.2-0.2-0.5-0.1-0.7,0.1c-0.2,0.2-0.1,0.6,0.1,0.8l5,3.9l-5.2,4.1c-0.1,0.1-0.2,0.2-0.2,0.4
		c0,0.2,0,0.3,0.1,0.4c0.1,0.1,0.2,0.2,0.4,0.2c0.1,0,0.3,0,0.4-0.1l5.7-4.5c0.1-0.1,0.2-0.3,0.2-0.4
		C120,274.4,119.9,274.3,119.8,274.2L119.8,274.2z"/>
	<path d="M110.7,266.1c-0.1-0.1-0.3,0-0.4,0c-0.1,0.1-0.2,0.2-0.3,0.3l-5.8,16.2c-0.1,0.3,0,0.6,0.3,0.7c0.1,0,0.1,0,0.2,0
		c0.2,0,0.4-0.1,0.5-0.4l5.8-16.2v0c0.1-0.1,0.1-0.3,0-0.4C111,266.2,110.9,266.1,110.7,266.1L110.7,266.1z"/>
	<path d="M56.1,271.6l-5.2,5.2c-0.1,0.1-0.2,0.3-0.2,0.5c0,0.2,0.1,0.3,0.3,0.4l6,3.6c0.2,0.1,0.5,0,0.7-0.2
		c0.1-0.3,0.1-0.6-0.2-0.7l-5.4-3.3l4.7-4.7c0.1-0.1,0.2-0.2,0.2-0.4c0-0.2,0-0.3-0.1-0.4c-0.1-0.1-0.2-0.2-0.4-0.2
		C56.3,271.4,56.2,271.5,56.1,271.6L56.1,271.6z"/>
	<path d="M74.8,273.6l-6-3.6c-0.2-0.1-0.5,0-0.7,0.2c-0.1,0.3-0.1,0.6,0.2,0.7l5.4,3.3l-4.7,4.7c-0.1,0.1-0.2,0.2-0.2,0.4
		c0,0.2,0,0.3,0.1,0.4c0.1,0.1,0.2,0.2,0.4,0.2c0.1,0,0.3-0.1,0.4-0.2l5.2-5.2c0.1-0.1,0.2-0.3,0.2-0.5
		C75.1,273.8,75,273.7,74.8,273.6L74.8,273.6z"/>
	<path d="M64.9,266.7c-0.1,0-0.3,0-0.4,0.1c-0.1,0.1-0.2,0.2-0.2,0.3l-4,16.9c-0.1,0.3,0.1,0.6,0.4,0.7c0.1,0,0.1,0,0.2,0
		c0.2,0,0.4-0.2,0.4-0.4l4-16.9l0,0c0-0.1,0-0.3-0.1-0.4C65.2,266.8,65.1,266.7,64.9,266.7L64.9,266.7z"/>
	<path d="M220.1,283.9l-5.2,5.2c-0.1,0.1-0.2,0.3-0.2,0.5c0,0.2,0.1,0.3,0.3,0.4l6,3.6c0.2,0.1,0.5,0,0.7-0.2
		c0.1-0.3,0.1-0.6-0.2-0.7l-5.4-3.3l4.7-4.7c0.1-0.1,0.2-0.2,0.2-0.4c0-0.2,0-0.3-0.1-0.4c-0.1-0.1-0.2-0.2-0.4-0.2
		C220.3,283.7,220.2,283.8,220.1,283.9L220.1,283.9z"/>
	<path d="M238.8,285.9l-6-3.6c-0.2-0.1-0.5,0-0.7,0.2c-0.1,0.3-0.1,0.6,0.2,0.7l5.4,3.3l-4.7,4.7c-0.1,0.1-0.2,0.2-0.2,0.4
		c0,0.2,0,0.3,0.1,0.4c0.1,0.1,0.2,0.2,0.4,0.2c0.1,0,0.3-0.1,0.4-0.2l5.2-5.2c0.1-0.1,0.2-0.3,0.2-0.5S238.9,286,238.8,285.9
		L238.8,285.9z"/>
	<path d="M228.9,279c-0.1,0-0.3,0-0.4,0.1c-0.1,0.1-0.2,0.2-0.2,0.3l-4,16.9c-0.1,0.3,0.1,0.6,0.4,0.7c0.1,0,0.1,0,0.2,0
		c0.2,0,0.4-0.2,0.4-0.4l4-16.9l0,0c0-0.1,0-0.3-0.1-0.4C229.2,279.1,229.1,279,228.9,279L228.9,279z"/>
	<path d="M225.2,214.3l-5.2,5.2c-0.1,0.1-0.2,0.3-0.2,0.5c0,0.2,0.1,0.3,0.3,0.4l6,3.6c0.2,0.1,0.5,0,0.7-0.2
		c0.1-0.3,0.1-0.6-0.2-0.7l-5.4-3.3l4.7-4.7c0.1-0.1,0.2-0.2,0.2-0.4c0-0.2,0-0.3-0.1-0.4c-0.1-0.1-0.2-0.2-0.4-0.2
		C225.5,214.2,225.3,214.2,225.2,214.3L225.2,214.3z"/>
	<path d="M243.9,216.3l-6-3.6c-0.2-0.1-0.5,0-0.7,0.2c-0.1,0.3-0.1,0.6,0.2,0.7l5.4,3.3l-4.7,4.7c-0.1,0.1-0.2,0.2-0.2,0.4
		c0,0.2,0,0.3,0.1,0.4c0.1,0.1,0.2,0.2,0.4,0.2c0.1,0,0.3-0.1,0.4-0.2l5.2-5.2c0.1-0.1,0.2-0.3,0.2-0.5
		C244.2,216.6,244.1,216.4,243.9,216.3L243.9,216.3z"/>
	<path d="M234.1,209.4c-0.1,0-0.3,0-0.4,0.1c-0.1,0.1-0.2,0.2-0.2,0.3l-4,16.9c-0.1,0.3,0.1,0.6,0.4,0.7c0.1,0,0.1,0,0.2,0
		c0.2,0,0.4-0.2,0.4-0.4l4-16.9l0,0c0-0.1,0-0.3-0.1-0.4C234.3,209.6,234.2,209.5,234.1,209.4L234.1,209.4z"/>
	<path d="M222.6,262l-5.2,5.2c-0.1,0.1-0.2,0.3-0.2,0.5c0,0.2,0.1,0.3,0.3,0.4l6,3.6c0.2,0.1,0.5,0,0.7-0.2c0.1-0.3,0.1-0.6-0.2-0.7
		l-5.4-3.3l4.7-4.7c0.1-0.1,0.2-0.2,0.2-0.4c0-0.2,0-0.3-0.1-0.4c-0.1-0.1-0.2-0.2-0.4-0.2C222.9,261.8,222.7,261.9,222.6,262
		L222.6,262z"/>
	<path d="M241.4,264l-6-3.6c-0.2-0.1-0.5,0-0.7,0.2c-0.1,0.3-0.1,0.6,0.2,0.7l5.4,3.3l-4.7,4.7c-0.1,0.1-0.2,0.2-0.2,0.4
		c0,0.2,0,0.3,0.1,0.4c0.1,0.1,0.2,0.2,0.4,0.2c0.1,0,0.3-0.1,0.4-0.2l5.2-5.2c0.1-0.1,0.2-0.3,0.2-0.5
		C241.6,264.2,241.5,264.1,241.4,264L241.4,264z"/>
	<path d="M231.5,257.1c-0.1,0-0.3,0-0.4,0.1c-0.1,0.1-0.2,0.2-0.2,0.3l-4,16.9c-0.1,0.3,0.1,0.6,0.4,0.7c0.1,0,0.1,0,0.2,0
		c0.2,0,0.4-0.2,0.4-0.4l4-16.9l0,0c0-0.1,0-0.3-0.1-0.4C231.7,257.2,231.6,257.1,231.5,257.1L231.5,257.1z"/>
	<path d="M132.4,279.2l-5.9,5.3c-0.1,0.1-0.2,0.3-0.2,0.5c0,0.2,0.1,0.3,0.3,0.4l6.7,3.5c0.3,0.1,0.6,0,0.8-0.2
		c0.2-0.3,0.1-0.6-0.2-0.7l-6-3.2l5.3-4.8c0.1-0.1,0.2-0.2,0.2-0.4c0-0.2,0-0.3-0.2-0.4c-0.1-0.1-0.3-0.2-0.4-0.2
		C132.7,279,132.5,279.1,132.4,279.2L132.4,279.2z"/>
	<path d="M152.2,283l-6.7-3.5c-0.3-0.1-0.6,0-0.8,0.2c-0.2,0.3-0.1,0.6,0.2,0.7l6,3.2l-5.3,4.8c-0.1,0.1-0.2,0.2-0.2,0.4
		c0,0.2,0,0.3,0.2,0.4c0.1,0.1,0.3,0.2,0.4,0.2c0.2,0,0.3-0.1,0.4-0.2l5.9-5.3c0.1-0.1,0.2-0.3,0.2-0.5
		C152.4,283.2,152.3,283.1,152.2,283L152.2,283z"/>
	<path d="M142.4,274.1c-0.2,0-0.3,0-0.4,0.1c-0.1,0.1-0.2,0.2-0.3,0.3l-4.7,17c-0.1,0.3,0.1,0.6,0.4,0.7c0.1,0,0.1,0,0.2,0
		c0.2,0,0.4-0.2,0.5-0.4l4.7-17l0,0c0-0.1,0-0.3-0.1-0.4C142.7,274.2,142.6,274.1,142.4,274.1L142.4,274.1z"/>
	<path d="M251.9,237.4l-5.2,5.2c-0.1,0.1-0.2,0.3-0.2,0.5c0,0.2,0.1,0.3,0.3,0.4l6,3.6c0.2,0.1,0.5,0,0.7-0.2
		c0.1-0.3,0.1-0.6-0.2-0.7l-5.4-3.3l4.7-4.7c0.1-0.1,0.2-0.2,0.2-0.4c0-0.2,0-0.3-0.1-0.4c-0.1-0.1-0.2-0.2-0.4-0.2
		C252.1,237.2,252,237.3,251.9,237.4L251.9,237.4z"/>
	<path d="M270.6,239.4l-6-3.6c-0.2-0.1-0.5,0-0.7,0.2c-0.1,0.3-0.1,0.6,0.2,0.7l5.4,3.3l-4.7,4.7c-0.1,0.1-0.2,0.2-0.2,0.4
		c0,0.2,0,0.3,0.1,0.4c0.1,0.1,0.2,0.2,0.4,0.2c0.1,0,0.3-0.1,0.4-0.2l5.2-5.2c0.1-0.1,0.2-0.3,0.2-0.5
		C270.8,239.6,270.7,239.4,270.6,239.4L270.6,239.4z"/>
	<path d="M260.7,232.4c-0.1,0-0.3,0-0.4,0.1c-0.1,0.1-0.2,0.2-0.2,0.3l-4,16.9c-0.1,0.3,0.1,0.6,0.4,0.7c0.1,0,0.1,0,0.2,0
		c0.2,0,0.4-0.2,0.4-0.4l4-16.9l0,0c0-0.1,0-0.3-0.1-0.4C261,232.6,260.8,232.5,260.7,232.4L260.7,232.4z"/>
	<path d="M255.6,209.9l-5.1,5.9c-0.1,0.1-0.2,0.3-0.2,0.5c0,0.2,0.1,0.4,0.3,0.5l6.1,4.3c0.3,0.2,0.5,0,0.7-0.2
		c0.1-0.3,0.1-0.7-0.2-0.9l-5.5-3.8l4.6-5.3c0.1-0.1,0.2-0.3,0.2-0.4c0-0.2,0-0.3-0.1-0.5c-0.1-0.1-0.2-0.2-0.4-0.2
		C255.9,209.7,255.7,209.8,255.6,209.9L255.6,209.9z"/>
	<path d="M274.4,212.5l-6.1-4.3c-0.3-0.2-0.5,0-0.7,0.2c-0.1,0.3-0.1,0.7,0.2,0.9l5.5,3.8l-4.6,5.3c-0.1,0.1-0.2,0.3-0.2,0.4
		c0,0.2,0,0.3,0.1,0.5c0.1,0.1,0.2,0.2,0.4,0.2c0.1,0,0.3-0.1,0.4-0.2l5.1-5.9c0.1-0.1,0.2-0.3,0.2-0.5
		C274.7,212.8,274.6,212.6,274.4,212.5L274.4,212.5z"/>
	<path d="M264.4,204.4c-0.1,0-0.3,0-0.4,0.1c-0.1,0.1-0.2,0.2-0.2,0.4l-3.7,19.3c-0.1,0.3,0.1,0.7,0.4,0.8c0.1,0,0.1,0,0.2,0
		c0.2,0,0.4-0.2,0.4-0.5l3.7-19.2l0,0c0-0.2,0-0.3-0.1-0.5C264.7,204.6,264.6,204.5,264.4,204.4L264.4,204.4z"/>
	<path d="M258.3,263.3l-5.2,5.2c-0.1,0.1-0.2,0.3-0.2,0.5c0,0.2,0.1,0.3,0.3,0.4l6,3.6c0.2,0.1,0.5,0,0.7-0.2
		c0.1-0.3,0.1-0.6-0.2-0.7l-5.4-3.3l4.7-4.7c0.1-0.1,0.2-0.2,0.2-0.4c0-0.2,0-0.3-0.1-0.4c-0.1-0.1-0.2-0.2-0.4-0.2
		C258.5,263.1,258.4,263.2,258.3,263.3L258.3,263.3z"/>
	<path d="M277,265.3l-6-3.6c-0.2-0.1-0.5,0-0.7,0.2c-0.1,0.3-0.1,0.6,0.2,0.7l5.4,3.3l-4.7,4.7c-0.1,0.1-0.2,0.2-0.2,0.4
		c0,0.2,0,0.3,0.1,0.4c0.1,0.1,0.2,0.2,0.4,0.2c0.1,0,0.3-0.1,0.4-0.2l5.2-5.2c0.1-0.1,0.2-0.3,0.2-0.5
		C277.2,265.5,277.1,265.4,277,265.3L277,265.3z"/>
	<path d="M267.1,258.4c-0.1,0-0.3,0-0.4,0.1c-0.1,0.1-0.2,0.2-0.2,0.3l-4,16.9c-0.1,0.3,0.1,0.6,0.4,0.7c0.1,0,0.1,0,0.2,0
		c0.2,0,0.4-0.2,0.4-0.4l4-16.9l0,0c0-0.1,0-0.3-0.1-0.4C267.4,258.5,267.3,258.4,267.1,258.4L267.1,258.4z"/>
	<path d="M253.3,282.3l-5.2,5.2c-0.1,0.1-0.2,0.3-0.2,0.5s0.1,0.3,0.3,0.4l6,3.6c0.2,0.1,0.5,0,0.7-0.2c0.1-0.3,0.1-0.6-0.2-0.7
		l-5.4-3.3l4.7-4.7c0.1-0.1,0.2-0.2,0.2-0.4c0-0.2,0-0.3-0.1-0.4c-0.1-0.1-0.2-0.2-0.4-0.2C253.5,282.1,253.4,282.1,253.3,282.3
		L253.3,282.3z"/>
	<path d="M272,284.2l-6-3.6c-0.2-0.1-0.5,0-0.7,0.2c-0.1,0.3-0.1,0.6,0.2,0.7l5.4,3.3l-4.7,4.7c-0.1,0.1-0.2,0.2-0.2,0.4
		c0,0.2,0,0.3,0.1,0.4c0.1,0.1,0.2,0.2,0.4,0.2c0.1,0,0.3-0.1,0.4-0.2l5.2-5.2c0.1-0.1,0.2-0.3,0.2-0.5
		C272.2,284.5,272.1,284.3,272,284.2L272,284.2z"/>
	<path d="M262.1,277.3c-0.1,0-0.3,0-0.4,0.1c-0.1,0.1-0.2,0.2-0.2,0.3l-4,16.9c-0.1,0.3,0.1,0.6,0.4,0.7c0.1,0,0.1,0,0.2,0
		c0.2,0,0.4-0.2,0.4-0.4l4-16.9l0,0c0-0.1,0-0.3-0.1-0.4C262.4,277.5,262.2,277.4,262.1,277.3L262.1,277.3z"/>
	<path d="M79.1,284.6l-5.2,5.2c-0.1,0.1-0.2,0.3-0.2,0.5c0,0.2,0.1,0.3,0.3,0.4l6,3.6c0.2,0.1,0.5,0,0.7-0.2
		c0.1-0.3,0.1-0.6-0.2-0.7l-5.4-3.3l4.7-4.7c0.1-0.1,0.2-0.2,0.2-0.4c0-0.2,0-0.3-0.1-0.4c-0.1-0.1-0.2-0.2-0.4-0.2
		C79.4,284.4,79.2,284.5,79.1,284.6L79.1,284.6z"/>
	<path d="M97.9,286.6l-6-3.6c-0.2-0.1-0.5,0-0.7,0.2c-0.1,0.3-0.1,0.6,0.2,0.7l5.4,3.3l-4.7,4.7c-0.1,0.1-0.2,0.2-0.2,0.4
		c0,0.2,0,0.3,0.1,0.4c0.1,0.1,0.2,0.2,0.4,0.2c0.1,0,0.3-0.1,0.4-0.2l5.2-5.2c0.1-0.1,0.2-0.3,0.2-0.5
		C98.1,286.8,98,286.7,97.9,286.6L97.9,286.6z"/>
	<path d="M88,279.7c-0.1,0-0.3,0-0.4,0.1c-0.1,0.1-0.2,0.2-0.2,0.3l-4,16.9c-0.1,0.3,0.1,0.6,0.4,0.7c0.1,0,0.1,0,0.2,0
		c0.2,0,0.4-0.2,0.4-0.4l4-16.9l0,0c0-0.1,0-0.3-0.1-0.4C88.2,279.8,88.1,279.7,88,279.7L88,279.7z"/>
	<path d="M170.1,279.2l-5.9,5.3c-0.1,0.1-0.2,0.3-0.2,0.5c0,0.2,0.1,0.3,0.3,0.4l6.7,3.5c0.3,0.1,0.6,0,0.8-0.2
		c0.2-0.3,0.1-0.6-0.2-0.7l-6-3.2l5.3-4.8c0.1-0.1,0.2-0.2,0.2-0.4c0-0.2,0-0.3-0.2-0.4c-0.1-0.1-0.3-0.2-0.4-0.2
		C170.4,279,170.3,279.1,170.1,279.2L170.1,279.2z"/>
	<path d="M191.2,280.9l-6.7-3.5c-0.3-0.1-0.6,0-0.8,0.2c-0.2,0.3-0.1,0.6,0.2,0.7l6,3.2l-5.3,4.8c-0.1,0.1-0.2,0.2-0.2,0.4
		c0,0.2,0,0.3,0.2,0.4c0.1,0.1,0.3,0.2,0.4,0.2c0.2,0,0.3-0.1,0.4-0.2l5.9-5.3c0.1-0.1,0.2-0.3,0.2-0.5
		C191.4,281.1,191.3,281,191.2,280.9L191.2,280.9z"/>
	<path d="M180.1,274.1c-0.2,0-0.3,0-0.4,0.1c-0.1,0.1-0.2,0.2-0.3,0.3l-4.7,17c-0.1,0.3,0.1,0.6,0.4,0.7c0.1,0,0.1,0,0.2,0
		c0.2,0,0.4-0.2,0.5-0.4l4.7-17l0,0c0-0.1,0-0.3-0.1-0.4C180.4,274.2,180.3,274.1,180.1,274.1L180.1,274.1z"/>
</g>
<path opacity="0.66" fill="#C16060" d="M88.5,140.1c-0.2,0-0.5,0-0.7-0.1l-6.2-2.8c-0.5-0.2-0.9-0.7-0.9-1.3V126
	c0-0.8,0.7-1.4,1.5-1.4s1.5,0.6,1.5,1.4v9l5.3,2.4c0.8,0.3,1.1,1.2,0.7,1.9C89.6,139.8,89,140.1,88.5,140.1L88.5,140.1z M99.3,137.2
	c-0.4,0-0.8-0.2-1.1-0.4c-0.3-0.3-0.4-0.6-0.4-1c0-0.4,0.2-0.7,0.4-1c0.6-0.5,1.6-0.5,2.2,0c0.3,0.3,0.4,0.6,0.4,1
	c0,0.4-0.2,0.7-0.4,1C100.1,137.1,99.7,137.2,99.3,137.2L99.3,137.2z M88.2,122.8c-0.8-0.3-1.2-1.1-0.8-1.8c0.3-0.7,1.2-1.1,2-0.8
	c0.8,0.3,1.2,1.1,0.8,1.8c-0.2,0.5-0.8,0.9-1.4,0.9C88.6,122.9,88.4,122.9,88.2,122.8L88.2,122.8z M93.2,125.9c-0.6-0.5-0.6-1.5,0-2
	c0.6-0.5,1.6-0.5,2.2,0c0.6,0.5,0.6,1.5,0,2c-0.3,0.3-0.7,0.4-1.1,0.4C93.9,126.3,93.5,126.1,93.2,125.9z M96.6,130.4
	c-0.3-0.7,0-1.5,0.8-1.8c0.8-0.3,1.7,0,2,0.8s0,1.5-0.8,1.8c-0.2,0.1-0.4,0.1-0.6,0.1C97.4,131.3,96.8,131,96.6,130.4L96.6,130.4z
	 M82.3,121.8c-0.4,0-0.8-0.2-1.1-0.4c-0.3-0.3-0.4-0.6-0.4-1c0-0.4,0.2-0.7,0.4-1c0.6-0.5,1.6-0.5,2.2,0c0.3,0.3,0.4,0.6,0.4,1
	c0,0.4-0.2,0.7-0.4,1C83.1,121.6,82.7,121.8,82.3,121.8L82.3,121.8z M82.3,152.7c-10.2,0-18.6-7.6-18.6-16.9s8.3-16.9,18.6-16.9
	c0.9,0,1.5,0.6,1.5,1.4c0,0.8-0.7,1.4-1.5,1.4c-8.5,0-15.5,6.3-15.5,14.1c0,7.8,6.9,14.1,15.5,14.1s15.5-6.3,15.5-14.1
	c0-0.8,0.7-1.4,1.5-1.4c0.9,0,1.5,0.6,1.5,1.4C100.8,145.2,92.5,152.7,82.3,152.7L82.3,152.7z"/>
<text transform="matrix(1 0 0 1 314.4001 111.9286)"><tspan x="0" y="0" font-family="'ArialMT'" font-size="13px">“How much time do you actually devote to</tspan><tspan x="0" y="15.6" font-family="'ArialMT'" font-size="13px">learning technology each day?”</tspan></text>
<g>
	<g>
		<g>
			<g>
				<path fill="#9CB5A4" stroke="#000000" stroke-width="0.5" stroke-miterlimit="10" d="M410.4,209.1l-53.5,7.5
					c-4.2-29.6,16.4-56.9,46-61c2.5-0.3,5-0.5,7.5-0.5V209.1z"/>
			</g>
		</g>
		<g>
			<g>
				<path fill="#BFBFBF" stroke="#000000" stroke-width="0.5" stroke-miterlimit="10" d="M410.4,209.1l-52.2,14
					c-0.6-2.4-1-4-1.3-6.5L410.4,209.1z"/>
			</g>
		</g>
		<g>
			<g>
				<path fill="#202020" stroke="#000000" stroke-width="0.5" stroke-miterlimit="10" d="M410.4,209.1l-46.8,27
					c-2.5-4.3-4.1-8.2-5.4-13L410.4,209.1z"/>
			</g>
		</g>
		<g>
			<g>
				<path fill="#404040" stroke="#000000" stroke-width="0.5" stroke-miterlimit="10" d="M410.4,209.1l-42.6,33.3
					c-1.5-2-3-4.1-4.2-6.2L410.4,209.1z"/>
			</g>
		</g>
		<g>
			<g>
				<path fill="#7B7B7B" stroke="#000000" stroke-width="0.5" stroke-miterlimit="10" d="M410.4,209.1l-32.5,43.2c-4-3-7-6-10.1-9.9
					L410.4,209.1z"/>
			</g>
		</g>
		<g>
			<g>
				<path fill="#ECECEC" stroke="#000000" stroke-width="0.5" stroke-miterlimit="10" d="M410.4,209.1l7.5,53.5
					c-14.8,2.1-28.1-1.4-40-10.4L410.4,209.1z"/>
			</g>
		</g>
		<g>
			<g>
				<path fill="#C3E3CA" stroke="#000000" stroke-width="0.5" stroke-miterlimit="10" d="M410.4,209.1l52.2,14
					c-5.8,21.6-22.5,36.4-44.7,39.5L410.4,209.1z"/>
			</g>
		</g>
		<g>
			<g>
				<path fill="#B5DDBE" stroke="#000000" stroke-width="0.5" stroke-miterlimit="10" d="M410.4,209.1v-54c29.8,0,54,24.2,54,54
					c0,5-0.6,9.2-1.8,14L410.4,209.1z"/>
			</g>
		</g>
	</g>
	<g>
		<g>
		</g>
		<g>
		</g>
		<g>
		</g>
		<g>
		</g>
		<g>
		</g>
		<g>
		</g>
		<g>
		</g>
		<g>
		</g>
	</g>
</g>
<text transform="matrix(1 0 0 1 379.7694 277.188)" font-family="'ArialMT'" font-size="10px">60 min</text>
<text transform="matrix(1 0 0 1 309.6732 248.203)" font-family="'ArialMT'" font-size="10px">90-120 min</text>
<text transform="matrix(1 0 0 1 342.0578 164.9551)" font-family="'ArialMT'" font-size="10px">0 min</text>
<text transform="matrix(1 0 0 1 441.8892 266.2958)" font-family="'ArialMT'" font-size="10px">30 min</text>
<text transform="matrix(1 0 0 1 454.5041 168.9189)" font-family="'ArialMT'" font-size="10px">20 min</text>
<text transform="matrix(1 0 0 1 446.8891 277.8966)" font-family="'ArialMT'" font-size="10px">19%</text>
<text transform="matrix(1 0 0 1 384.7693 287.2463)" font-family="'ArialMT'" font-size="10px">13%</text>
<text transform="matrix(1 0 0 1 344.2769 175.4038)" font-family="'ArialMT'" font-size="10px">27%</text>
<text transform="matrix(1 0 0 1 328.4442 261.4157)" font-family="'ArialMT'" font-size="10px">12%</text>
<text transform="matrix(1 0 0 1 463.5041 180.8979)" font-family="'ArialMT'" font-size="10px">29%</text>
</svg>
