<?xml version="1.0" encoding="utf-8"?>
<!-- Generator: Adobe Illustrator 23.0.1, SVG Export Plug-In . SVG Version: 6.00 Build 0)  -->
<svg version="1.1" id="Layer_1" xmlns="http://www.w3.org/2000/svg" xmlns:xlink="http://www.w3.org/1999/xlink" x="0px" y="0px"
	 viewBox="0 0 600 350" enable-background="new 0 0 600 350" xml:space="preserve">
<g>
	<path fill="#E8E6E7" d="M569.6,245.5c0,4.5-3.6,8.1-8.1,8.1H398.8c-4.5,0-8.1-3.6-8.1-8.1V122.7c0-4.5,3.6-8.1,8.1-8.1h162.6
		c4.5,0,8.1,3.6,8.1,8.1V245.5z"/>
</g>
<rect x="0" y="44" fill="none" width="600" height="45.9"/>
<text transform="matrix(1 0 0 1 38.763 65.4889)" font-family="'ArialMT'" font-size="25px">Tech knowledge valued more than writing skills</text>
<path fill="#4A4B4D" d="M114.4,158.8l-1.4,12l2.2,2.5l2.2-2.5l-1.4-12c3-4.1-0.2-4.2-0.8-4.2C114.6,154.5,111.5,154.9,114.4,158.8
	L114.4,158.8z M61.3,245.3h-3.6v-15.8h12l-2.2-29.2l-2.6-3.1c-1.2-1.6-1.9-3.4-1.9-5.5V175c0-0.8,0.3-1.4,0.9-1.9
	c3.3-2.6,6.7-4.4,7.3-4.7c0.2,0,0.2-0.2,0.2-0.2v-1.9c-0.5-0.8-0.8-1.7-0.8-2.5c-0.3,0-0.6-0.5-1.1-1.9c-0.5-1.9,0-2.2,0.5-2.2h0.2
	c-0.3-1.1-0.3-2,0-3c0.3-1.1,0.8-2,1.6-2.6c0.5-0.5,0.9-0.8,1.4-1.1c0.5-0.3,0.9-0.5,1.4-0.6c0.3-0.2,0.8-0.2,1.2-0.2h0.5
	c1.1,0,1.9,0.3,2.5,0.6c1.1,0.6,1.6,1.4,1.6,1.4s2.8,0.2,1.6,5.9c0.3,0.2,0.6,0.6,0.2,2.2c-0.5,1.4-0.8,1.9-1.1,1.9h-0.2
	c-0.2,0.6-0.3,1.4-0.6,2v2.2c0,0.2,0,0.2,0.2,0.2c0.6,0.3,4.2,2.2,7.3,4.8c0.6,0.5,0.9,1.2,0.9,2v16.8c0,2-0.8,3.9-2,5.5l-2.6,3.1
	l-2.7,28.5h8v-8.7h19.6l-2.5-32.9l-3-3.4c-1.4-1.7-2.2-3.7-2.2-5.9V160c0-0.8,0.3-1.6,1.1-2.2c3.6-3,7.3-4.8,8.1-5.3
	c0.2,0,0.2-0.2,0.2-0.2v-2c-0.5-0.9-0.8-1.9-0.9-2.8c-0.3-0.2-0.8-0.6-1.2-2.2c-0.6-2.2,0-2.5,0.6-2.3c0,0-1.6-5.1,2.2-7.3
	c0,0-0.6-0.5-0.6-1.2c0,0,3.6,0.5,5.3,0c1.7-0.3,3.6,0.9,3.9,2.3c0,0,3.6-0.3,2,6.2v0.3h0.2c0.5,0.2,0.6,0.8,0.2,2.3
	c-0.6,2-1.1,2.2-1.4,2c-0.2,0.8-0.3,1.6-0.6,2.2v2.3c0,0.2,0,0.2,0.2,0.2c0.8,0.3,4.7,2.3,8.1,5.3c0.6,0.5,1.1,1.2,1.1,2.2v18.6
	c0,2.2-0.8,4.4-2.2,6.1l-3,3.4l-2.5,32.9h19.5v9h7.5l-2.2-29.5l-2.6-3.1c-1.2-1.6-1.9-3.4-1.9-5.5V175c0-0.8,0.3-1.4,0.9-1.9
	c3.3-2.6,6.7-4.4,7.3-4.7c0.2,0,0.2-0.2,0.2-0.2v-1.9c-0.5-0.8-0.8-1.7-0.8-2.5c-0.3,0-0.6-0.5-1.1-1.9c-0.5-1.9,0-2.2,0.5-2.2h0.2
	c-0.3-1.1-0.3-2-0.2-3c0.3-1.1,0.8-2,1.6-2.6c0.5-0.5,0.9-0.8,1.4-1.1c0.5-0.3,0.9-0.5,1.4-0.6c0.3-0.2,0.8-0.2,1.2-0.2h0.5
	c1.1,0,1.9,0.3,2.5,0.6c1.1,0.6,1.6,1.4,1.6,1.4s2.8,0.2,1.6,5.9c0.3,0.2,0.6,0.6,0.2,2.2c-0.5,1.4-0.8,1.9-1.1,1.9h-0.2
	c-0.2,0.6-0.3,1.4-0.6,2v2.2c0,0.2,0,0.2,0.2,0.2c0.6,0.3,4.2,2.2,7.3,4.8c0.6,0.5,0.9,1.2,0.9,2v16.8c0,2-0.8,3.9-2,5.5l-2.6,3.1
	l-2.5,29.5h12.5v15.3h-3.6L61.3,245.3z M93.9,273v-0.2c-1.4-1.2-2.2-3-2.2-4.7c0-1.9,0.8-3.6,2.2-4.7H94v-0.2
	c-0.2-0.3-0.3-0.8-0.3-1.1l-35.4,0c-0.5,0-0.8,0.6-0.5,1.1l3.9,4.7c0.2,0.2,0.2,0.3,0,0.5l-3.9,4.7c-0.3,0.5,0,1.1,0.5,1.1h35.2
	C93.6,273.8,93.7,273.4,93.9,273L93.9,273z M172.3,263.1c0.3-0.5,0-1.1-0.5-1.1h-35.2c-0.2,0.5-0.2,0.8-0.3,1.2v0.2h0.2
	c1.4,1.2,2.2,3,2.2,4.7c0,1.9-0.8,3.6-2.2,4.7h-0.2v0.2c0.2,0.3,0.3,0.8,0.3,1.1h35.2c0.5,0,0.8-0.6,0.5-1.1l-3.9-4.7
	c-0.2-0.2-0.2-0.3,0-0.5L172.3,263.1z M103.5,268.1c0,6.4,5.1,11.5,11.5,11.5c6.4,0,11.5-5.1,11.5-11.5c0-6.4-5.1-11.5-11.5-11.5
	C108.7,256.5,103.5,261.7,103.5,268.1z M97.1,265.6c0.8-0.8,1.1-1.9,0.6-3l-0.3-0.9c-0.6-1.4,0.2-3,1.7-3.4l0.9-0.3
	c1.1-0.3,1.9-1.2,1.9-2.3v-0.9c0-1.4,1.2-2.3,2.5-2.3h0.5l0.9,0.2h0.5c0.9,0,1.7-0.5,2.2-1.2l0.5-0.9c0.5-0.8,1.4-1.2,2.2-1.2
	c0.5,0,1.1,0.2,1.6,0.5l0.8,0.6c0.5,0.3,0.9,0.5,1.6,0.5c0.5,0,1.1-0.2,1.4-0.5l0.8-0.6c0.5-0.3,0.9-0.5,1.4-0.5
	c0.9,0,1.7,0.5,2.2,1.4l0.5,0.9c0.5,0.8,1.2,1.4,2.2,1.4h0.5l0.9-0.2h0.5c1.4,0,2.5,1.1,2.5,2.5v0.9c0,1.1,0.8,2,1.9,2.3l0.9,0.3
	c1.4,0.5,2.2,2,1.7,3.4l-0.5,0.9c-0.5,0.9-0.2,2.2,0.6,3l0.8,0.6c1.1,1.1,1.1,2.8,0,3.7l-0.8,0.6c-0.8,0.8-1.1,1.9-0.6,3l0.3,0.9
	c0.6,1.4-0.2,3-1.7,3.4l-0.9,0.3c-1.1,0.3-1.9,1.2-1.9,2.3v0.9c0,1.4-1.2,2.3-2.5,2.3h-0.5l-0.9-0.2h-0.5c-0.9,0-1.7,0.5-2.2,1.2
	l-0.5,0.9c-0.2,0.5-0.9,0.9-1.9,0.9c-0.5,0-1.1-0.2-1.6-0.5l-0.8-0.6c-0.5-0.3-0.9-0.5-1.6-0.5c-0.5,0-1.1,0.2-1.4,0.5l-0.8,0.6
	c-0.5,0.3-0.9,0.5-1.4,0.5c-0.9,0-1.7-0.5-2.2-1.4l-0.5-0.9c-0.5-0.8-1.2-1.4-2.2-1.4H106l-0.9,0.2h-0.5c-1.4,0-2.5-1.1-2.5-2.5
	v-0.9c0-1.1-0.8-2-1.9-2.3H99c-1.4-0.5-2.2-2-1.7-3.4l0.5-0.9c0.5-0.9,0.2-2.2-0.6-3l-0.8-0.6c-1.1-1.1-1.1-2.8,0-3.7L97.1,265.6z
	 M108.1,266.7c-0.6-0.5-0.3-1.4,0.5-1.6l4.1-0.3l1.6-3.7c0.2-0.3,0.5-0.5,0.8-0.5c0.3,0,0.6,0.2,0.8,0.5l1.6,3.7l4.1,0.3
	c0.8,0,1.1,0.9,0.5,1.6l-3.3,2.6l1.2,3.9c0.2,0.6-0.3,1.1-0.8,1.1c-0.2,0-0.3,0-0.5-0.2l-3.4-2.2l-3.4,2.2c-0.2,0.2-0.3,0.2-0.5,0.2
	c-0.5,0-0.9-0.5-0.8-1.1l0.9-3.9L108.1,266.7z"/>
<path d="M284.6,277.3l-4,5.8c1.6-0.6,3-1,4.1-1.5C287.9,280.4,288.3,277.9,284.6,277.3L284.6,277.3z M276,284
	c-0.2,0.5-0.8,1.1-1.1,1.6c1.2-0.7,2.8-1.5,4.5-2.1l13-19.4c-0.5,0-1-0.1-1.5-0.3c-0.4-0.1-0.8-0.3-1.1-0.5L276,284L276,284z
	 M279.7,277c-0.6,0.1-1.8,0.3-2.2,0.4c-0.1,0.1-0.3,1.1-0.5,2.4c-0.1,0.5-0.1,1.1-0.3,1.7L279.7,277L279.7,277z M276,279.8
	c0.2-1.4,0.4-2.6,1-2.8c0.8-0.4,2.2-0.4,3.2-0.7l3.3-4.9c-3.1,0.6-6.1,1.3-9.2,1.7c-1.6,0.3-2.5,0.6-3.1,1.7
	c-0.5,1.3-0.7,3.4-0.9,7.4c-0.1,1.6,0.4,3.3,1,4.9c0.1,0.6,0.4,1.1,0.5,1.7l0.1-0.2C274.6,284.5,275.3,284.3,276,279.8L276,279.8z
	 M290.5,287.5c0.4,0.4,0.6,1-0.1,1.4c-0.7,0.4-1.9,0.2-2.6-0.1c0.1,0.4,0,0.8-0.5,1.1c-1.1,0.7-3.6-0.2-4.6-0.6
	c-0.1,0.6-0.6,1-1.4,1.3c-1.6,0.5-4,0-5.3-0.7l-5.5,5.4c-0.4-0.2-0.7-0.3-1-0.4l1.8-4.6c0-0.9-0.5-2.2-0.8-3.1c-0.6-1.6-1.2-3.4-1-5
	c0.2-4.1,0.4-6.3,1-7.6c0.6-1.4,1.7-1.8,3.7-2.1c3.4-0.5,6.6-1.3,9.8-1.9l5.4-8c0.1-0.3,0.2-0.5,0.6-0.5c0.3-0.1,0.6-0.1,0.9-0.1
	l1.9-2.8c1-1.6,3.4-0.9,2.3,0.8l-1.9,2.8c0,0.1,0.5,0.5,0.5,0.5c0.1,0.3,0,0.5-0.2,0.7l-4,5.8c4.5-0.5,6.1-0.8,9.4,1.5
	c8.1,5.7,14.7,5.2,25.8,4.9c2.1-0.1,4.1-0.2,5.9-0.2v0.7c-1.8,0-3.8,0.1-5.9,0.1c-11.3,0.4-18,0.8-26.5-5c-3.1-2.2-4.9-1.8-9.2-1.3
	l-4.1,6.2c4.3,0.8,4,4,0.2,5.4c-3,1.1-9.4,3.2-11,5c-0.4,0.5-1.4,1.8-1.1,2.3c0.1,0.4,1,0.2,1.3,0.2c1.9-0.4,3.7-0.8,5.2-1.2
	c4.8-1.1,8.8-2.1,15.7-1c4,0.6,7.1-1.9,11.8-1.9c6.4,0,12.2,0.3,18.6,0.7l-0.1,0.6c-6.4-0.4-12.2-0.7-18.6-0.7
	c-4.8,0-7.3,2.6-11.9,1.9C293.3,287.7,291.8,287.5,290.5,287.5L290.5,287.5z M286.8,287.6c0.6,0.4,2.3,1.2,3.1,0.8
	c0.3-0.2-0.4-0.8-0.5-0.9C288.5,287.5,287.6,287.6,286.8,287.6L286.8,287.6z M282.2,288.4c0.7,0.4,3.8,1.7,4.5,1.1
	c0.4-0.3-0.2-1.4-0.4-1.8C284.9,287.9,283.6,288.2,282.2,288.4L282.2,288.4z M276.9,289.7c1,0.4,2.9,0.7,4,0.4
	c1.1-0.3,0.9-0.9,0.7-1.5c-0.6,0.1-1.2,0.3-1.8,0.4C278.9,289.2,277.9,289.5,276.9,289.7L276.9,289.7z M270.8,293.9l4-3.9l-0.2,0.1
	c-0.7,0.2-1.8,0.2-2.2-0.3L270.8,293.9L270.8,293.9z"/>
<line fill="none" stroke="#000000" stroke-width="1.3441" stroke-miterlimit="10" x1="126.6" y1="147.3" x2="187.6" y2="118.3"/>
<line fill="none" stroke="#000000" stroke-width="0.7435" stroke-miterlimit="10" x1="171.9" y1="189.2" x2="224.8" y2="178.9"/>
<text transform="matrix(1 0 0 1 195.847 109.3213)"><tspan x="0" y="0" font-family="'ArialMT'" font-size="18px">Strong tech,</tspan><tspan x="0" y="21.6" font-family="'ArialMT'" font-size="18px">mediocre writing</tspan></text>
<text transform="matrix(1 0 0 1 235.2511 174.9895)"><tspan x="0" y="0" font-family="'ArialMT'" font-size="18px">Strong writing,</tspan><tspan x="0" y="21.6" font-family="'ArialMT'" font-size="18px">mediocre tech</tspan></text>
<text transform="matrix(1 0 0 1 400.0053 144.724)" font-family="'ArialMT'" font-size="17px">Hybridization</text>
<g>
	<g>
		<path fill="none" stroke="#000000" stroke-miterlimit="10" d="M199,141.7c-0.1,0.5-0.2,1-0.3,1.5"/>
		<path fill="none" stroke="#000000" stroke-miterlimit="10" stroke-dasharray="2.996,2.996" d="M198.4,146.1
			c-0.2,6.5,2.7,13.1,7.8,17.2c5.5,4.4,13.2,5.7,19.8,3.6"/>
		<path fill="none" stroke="#000000" stroke-miterlimit="10" d="M227.4,166.4c0.5-0.2,0.9-0.4,1.4-0.6"/>
	</g>
</g>
<g>
	<g>
		<path fill="none" stroke="#000000" stroke-width="1.1794" stroke-miterlimit="10" d="M355.4,159.7c0.3-0.5,0.6-1,0.9-1.5"/>
		<path fill="none" stroke="#000000" stroke-width="1.1794" stroke-miterlimit="10" stroke-dasharray="3.5788,3.5788" d="
			M357.7,154.9c2-6.5,0.5-14.2-4.4-20.1c-5.4-6.6-14.7-10.9-23.6-11.1"/>
		<path fill="none" stroke="#000000" stroke-width="1.1794" stroke-miterlimit="10" d="M327.9,123.7c-0.6,0-1.2,0.1-1.8,0.1"/>
	</g>
</g>
<path fill="none" d="M235.3,289.7c0,0,18.5-37,51.7-40.8s63.6,21.7,65,31.3"/>
<text transform="matrix(0.559 -0.8292 0.8292 0.559 237.8082 285.0594)"><tspan x="0" y="0" font-family="'ArialMT'" font-size="11px">w</tspan><tspan x="7.9" y="0.1" font-family="'ArialMT'" font-size="11px" rotate="3.2">r</tspan><tspan x="11.5" y="0.3" font-family="'ArialMT'" font-size="11px" rotate="4.9">i</tspan><tspan x="13.8" y="0.5" font-family="'ArialMT'" font-size="11px" rotate="6.5">t</tspan><tspan x="16.8" y="0.8" font-family="'ArialMT'" font-size="11px" rotate="8.1">i</tspan><tspan x="19.2" y="1.1" font-family="'ArialMT'" font-size="11px" rotate="10.8">n</tspan><tspan x="25" y="2.2" font-family="'ArialMT'" font-size="11px" rotate="14.9">g</tspan><tspan x="30.9" y="3.8" font-family="'ArialMT'" font-size="11px" rotate="18.3"> </tspan><tspan x="33.7" y="4.7" font-family="'ArialMT'" font-size="11px" rotate="22.1">=</tspan><tspan x="39.5" y="7.1" font-family="'ArialMT'" font-size="11px" rotate="26.3"> </tspan><tspan x="42.1" y="8.3" font-family="'ArialMT'" font-size="11px" rotate="31.6">w</tspan><tspan x="48.7" y="12.3" font-family="'ArialMT'" font-size="11px" rotate="39">o</tspan><tspan x="53.3" y="16.1" font-family="'ArialMT'" font-size="11px" rotate="44.4">r</tspan><tspan x="55.8" y="18.5" font-family="'ArialMT'" font-size="11px" rotate="50.4">d</tspan><tspan x="59.6" y="23.1" font-family="'ArialMT'" font-size="11px" rotate="55.3">s</tspan><tspan x="62.8" y="27.4" font-family="'ArialMT'" font-size="11px" rotate="61.8">m</tspan><tspan x="66.9" y="35.4" font-family="'ArialMT'" font-size="11px" rotate="66.7">i</tspan><tspan x="67.8" y="37.6" font-family="'ArialMT'" font-size="11px" rotate="68.8">t</tspan><tspan x="68.9" y="40.3" font-family="'ArialMT'" font-size="11px" rotate="72.3">h</tspan><tspan x="70.7" y="46" font-family="'ArialMT'" font-size="11px" rotate="75.5">i</tspan><tspan x="71.4" y="48.3" font-family="'ArialMT'" font-size="11px" rotate="78.5">n</tspan><tspan x="72.6" y="54.2" font-family="'ArialMT'" font-size="11px" rotate="82.6">g</tspan><tspan x="73.3" y="60.1" font-family="'ArialMT'" font-size="11px" rotate="85.7"> </tspan><tspan x="73.6" y="63.1" font-family="'ArialMT'" font-size="11px" rotate="88.8">o</tspan><tspan x="73.7" y="69.1" font-family="'ArialMT'" font-size="11px" rotate="93.2">n</tspan><tspan x="73.3" y="75.1" font-family="'ArialMT'" font-size="11px" rotate="96.6">l</tspan><tspan x="73.1" y="77.4" font-family="'ArialMT'" font-size="11px" rotate="100.3">y</tspan></text>
<text transform="matrix(1 0 0 1 398.9078 170.077)"><tspan x="0" y="0" font-family="'ArialMT'" font-size="10px">“Technical writer/editor“ </tspan><tspan x="0" y="15" font-family="'ArialMT'" font-size="10px">“Technical writer/content strategist “</tspan><tspan x="0" y="30" font-family="'ArialMT'" font-size="10px">“Technical writer/information architect“</tspan><tspan x="0" y="44" font-family="'ArialMT'" font-size="10px">“Technical writer/project manager “ </tspan><tspan x="0" y="58.4" font-family="'ArialMT'" font-size="10px">“Technical writer/information designer“</tspan><tspan x="170.1" y="58.4" font-family="'ArialMT'" font-size="12px"> </tspan></text>
</svg>
