<?xml version="1.0" encoding="utf-8"?>
<!-- Generator: Adobe Illustrator 23.0.1, SVG Export Plug-In . SVG Version: 6.00 Build 0)  -->
<svg version="1.1" id="Layer_1" xmlns="http://www.w3.org/2000/svg" xmlns:xlink="http://www.w3.org/1999/xlink" x="0px" y="0px"
	 viewBox="0 0 600 350" enable-background="new 0 0 600 350" xml:space="preserve">
<rect x="460" y="-265.3" fill="none" width="86.5" height="280.4"/>
<text transform="matrix(1 0 0 1 460.0485 -255.0113)"><tspan x="0" y="0" font-family="'ArialMT'" font-size="12px">“... Job opportu</tspan><tspan x="80.7" y="0" font-family="'ArialMT'" font-size="12px">-</tspan><tspan x="0" y="14.4" font-family="'ArialMT'" font-size="12px">nities, especial</tspan><tspan x="78.7" y="14.4" font-family="'ArialMT'" font-size="12px">-</tspan><tspan x="0" y="28.8" font-family="'ArialMT'" font-size="12px">ly  for appli</tspan><tspan x="58" y="28.8" font-family="'ArialMT'" font-size="12px">-</tspan><tspan x="0" y="43.2" font-family="'ArialMT'" font-size="12px">cants with </tspan><tspan x="0" y="57.6" font-family="'ArialMT'" font-size="12px">technical skills, </tspan><tspan x="0" y="72" font-family="'ArialMT'" font-size="12px">are expected to </tspan><tspan x="0" y="86.4" font-family="'ArialMT'" font-size="12px">be good.” </tspan></text>
<path fill="none" stroke="#000000" stroke-width="0.7407" stroke-linecap="round" stroke-linejoin="round" stroke-miterlimit="3" d="
	M436.7,174.6c-0.5-0.4-1.8-1.9-1.3-3c0.7-1.4,2-0.8,3.2-1.1c2.6-0.5,2.7-2.4,2.6-3.8c-0.2-3.8-2.4-4.7-4.7-4.4"/>
<path fill="none" stroke="#000000" stroke-width="0.7407" stroke-linecap="round" stroke-linejoin="round" stroke-miterlimit="3" d="
	M442.9,174.8c-2.3-0.8-8.5-5-8.3-9.1c0.2-3.2,4.2-2.8,4.4,0.1c0.1,1.5-0.4,2.2-1.3,2.1c-0.9-0.1-0.9-1.9-0.1-1.8"/>
<path fill="none" stroke="#000000" stroke-width="0.7407" stroke-linecap="round" stroke-linejoin="round" stroke-miterlimit="3" d="
	M441,191.5c-1.9-1.8-1.5-4.1,0.4-5.7c6.3-5.6,17.8-13.1,16.5-17.6c-1-3.3-7.3-6.9-6.6-8.9c0.7-2,5.2-1.5,4.5,0.9
	c-0.2,0.5-0.9,1-1.5,0.9c-0.8-0.2-1.1-1.1-0.9-1.8"/>
<path fill="none" stroke="#000000" stroke-width="0.7407" stroke-linecap="round" stroke-linejoin="round" stroke-miterlimit="3" d="
	M421.2,176.5c14.9,4.4,36.8,43.2,45.9,44c2.5,0.2,1.7-3.4-0.7-2.4"/>
<path fill="none" stroke="#000000" stroke-width="0.7407" stroke-linecap="round" stroke-linejoin="round" stroke-miterlimit="3" d="
	M455.3,172.3c-8,7.8-39.1,1.5-43.6,3c-4.6,1.5-0.2,5.6,1.2,5.4c2.8-0.4,1.4-2.9-0.3-2.6"/>
<path fill="none" stroke="#000000" stroke-width="0.7407" stroke-linecap="round" stroke-linejoin="round" stroke-miterlimit="3" d="
	M454.7,176.7c-2.3,1.9-6.6,3.9-6.8,8.2c-0.3,5.3-0.6,14.4,11.4,28.2"/>
<path fill="none" stroke="#000000" stroke-width="0.7407" stroke-linecap="round" stroke-linejoin="round" stroke-miterlimit="3" d="
	M427.3,199.8c11-4.3,18.1,4.8,32.5,18.4"/>
<path fill="none" stroke="#000000" stroke-width="0.7407" stroke-linecap="round" stroke-linejoin="round" stroke-miterlimit="3" d="
	M435.1,188.5c3.1,4.5,7.5,12.1,6.4,15.5c-0.8,2.5-11.9-5.5-16-1.2c-2.4,2.4,10.2,10.2,6.4,13.9c-1.5,1.5-5.3,0.9-5.3-2
	c0-2,1.2-1.3,1.5-0.4"/>
<g>
	<g>
		<line fill="none" stroke="#000000" stroke-miterlimit="10" x1="430.5" y1="155.9" x2="426.1" y2="126"/>
		<g>
			<polygon points="431.2,126.8 425,119 421.3,128.2 			"/>
		</g>
	</g>
</g>
<g>
	<g>
		<line fill="none" stroke="#000000" stroke-miterlimit="10" x1="405.5" y1="169.4" x2="378.2" y2="156.6"/>
		<g>
			<polygon points="381.6,152.7 371.7,153.6 377.4,161.8 			"/>
		</g>
	</g>
</g>
<g>
	<g>
		<line fill="none" stroke="#000000" stroke-miterlimit="10" x1="407.3" y1="188.7" x2="375.3" y2="200.2"/>
		<g>
			<polygon points="374.9,195 368.5,202.7 378.3,204.4 			"/>
		</g>
	</g>
</g>
<g>
	<g>
		<line fill="none" stroke="#000000" stroke-miterlimit="10" x1="464.2" y1="205.4" x2="485.8" y2="231.6"/>
		<g>
			<polygon points="481,233.7 490.4,237.2 488.7,227.3 			"/>
		</g>
	</g>
</g>
<g>
	<g>
		<line fill="none" stroke="#000000" stroke-miterlimit="10" x1="462" y1="178.2" x2="495.4" y2="184.7"/>
		<g>
			<polygon points="493,189.3 502.4,186.1 494.9,179.5 			"/>
		</g>
	</g>
</g>
<path d="M359.8,130.5c0-2.3,1.9-4.1,4.3-4.1c2.4,0,4.3,1.8,4.3,4.1s-1.9,4.1-4.3,4.1C361.7,134.6,359.8,132.7,359.8,130.5z
	 M348.9,132.2c0-2.3,1.9-4.1,4.3-4.1c2.4,0,4.3,1.8,4.3,4.1s-1.9,4.1-4.3,4.1C350.9,136.3,348.9,134.4,348.9,132.2z M338.1,130.5
	c0-2.3,1.9-4.1,4.3-4.1s4.3,1.8,4.3,4.1s-1.9,4.1-4.3,4.1C340,134.6,338.1,132.7,338.1,130.5z M367.5,134.1c1-0.9,1.7-2.2,1.7-3.6
	c0-2.7-2.3-4.9-5.1-4.9c-2.8,0-5.1,2.2-5.1,4.9c0,1.4,0.7,2.7,1.7,3.6c-1.1,0.6-2.1,1.5-2.7,2.6c-0.4-0.3-0.8-0.6-1.3-0.9
	c1-0.9,1.7-2.2,1.7-3.6c0-2.7-2.3-4.9-5.1-4.9c-2.8,0-5.1,2.2-5.1,4.9c0,1.4,0.7,2.7,1.7,3.6c-0.5,0.3-0.9,0.6-1.3,0.9
	c-0.6-1.1-1.6-2-2.7-2.6c1-0.9,1.7-2.2,1.7-3.6c0-2.7-2.3-4.9-5.1-4.9c-2.8,0-5.1,2.2-5.1,4.9c0,1.4,0.7,2.7,1.7,3.6
	c-2.3,1.2-3.7,3.5-3.7,5.9c0,0.2,0.2,0.4,0.4,0.4c0.2,0,0.4-0.2,0.4-0.4c0-2.3,1.4-4.4,3.6-5.4c0.8,0.5,1.7,0.7,2.7,0.7
	s1.9-0.3,2.7-0.7c1.2,0.6,2.2,1.5,2.9,2.6c-1.1,1.2-1.8,2.8-1.8,4.5c0,0.2,0.2,0.4,0.4,0.4s0.4-0.2,0.4-0.4c0-2.3,1.4-4.4,3.6-5.4
	c0.8,0.5,1.7,0.7,2.7,0.7s1.9-0.3,2.7-0.7c2.2,1,3.6,3.1,3.6,5.4c0,0.2,0.2,0.4,0.4,0.4c0.2,0,0.4-0.2,0.4-0.4
	c0-1.7-0.7-3.3-1.8-4.5c0.6-1.2,1.6-2.1,2.9-2.6c0.8,0.5,1.7,0.7,2.7,0.7s1.9-0.3,2.7-0.7c2.2,1,3.6,3.1,3.6,5.4
	c0,0.2,0.2,0.4,0.4,0.4s0.4-0.2,0.4-0.4C371.1,137.6,369.7,135.3,367.5,134.1L367.5,134.1z"/>
<text transform="matrix(1.0449 0 0 1 336.162 149.3047)"><tspan x="0" y="0" font-family="'ArialMT'" font-size="6.5011px">engineering </tspan><tspan x="0" y="7.8" font-family="'ArialMT'" font-size="6.5011px">team 7</tspan></text>
<path d="M349.7,204.9c0-2.3,1.9-4.1,4.3-4.1c2.4,0,4.3,1.8,4.3,4.1s-1.9,4.1-4.3,4.1C351.6,209,349.7,207.1,349.7,204.9z
	 M338.8,206.6c0-2.3,1.9-4.1,4.3-4.1c2.4,0,4.3,1.8,4.3,4.1s-1.9,4.1-4.3,4.1C340.7,210.6,338.8,208.8,338.8,206.6z M328,204.9
	c0-2.3,1.9-4.1,4.3-4.1s4.3,1.8,4.3,4.1s-1.9,4.1-4.3,4.1C329.9,209,328,207.1,328,204.9z M357.3,208.5c1-0.9,1.7-2.2,1.7-3.6
	c0-2.7-2.3-4.9-5.1-4.9c-2.8,0-5.1,2.2-5.1,4.9c0,1.4,0.7,2.7,1.7,3.6c-1.1,0.6-2.1,1.5-2.7,2.6c-0.4-0.3-0.8-0.6-1.3-0.9
	c1-0.9,1.7-2.2,1.7-3.6c0-2.7-2.3-4.9-5.1-4.9c-2.8,0-5.1,2.2-5.1,4.9c0,1.4,0.7,2.7,1.7,3.6c-0.5,0.3-0.9,0.6-1.3,0.9
	c-0.6-1.1-1.6-2-2.7-2.6c1-0.9,1.7-2.2,1.7-3.6c0-2.7-2.3-4.9-5.1-4.9c-2.8,0-5.1,2.2-5.1,4.9c0,1.4,0.7,2.7,1.7,3.6
	c-2.3,1.2-3.7,3.5-3.7,5.9c0,0.2,0.2,0.4,0.4,0.4c0.2,0,0.4-0.2,0.4-0.4c0-2.3,1.4-4.4,3.6-5.4c0.8,0.5,1.7,0.7,2.7,0.7
	s1.9-0.3,2.7-0.7c1.2,0.6,2.2,1.5,2.9,2.6c-1.1,1.2-1.8,2.8-1.8,4.5c0,0.2,0.2,0.4,0.4,0.4s0.4-0.2,0.4-0.4c0-2.3,1.4-4.4,3.6-5.4
	c0.8,0.5,1.7,0.7,2.7,0.7c1,0,1.9-0.3,2.7-0.7c2.2,1,3.6,3.1,3.6,5.4c0,0.2,0.2,0.4,0.4,0.4s0.4-0.2,0.4-0.4c0-1.7-0.7-3.3-1.8-4.5
	c0.6-1.2,1.6-2.1,2.9-2.6c0.8,0.5,1.7,0.7,2.7,0.7s1.9-0.3,2.7-0.7c2.2,1,3.6,3.1,3.6,5.4c0,0.2,0.2,0.4,0.4,0.4s0.4-0.2,0.4-0.4
	C361,212,359.6,209.7,357.3,208.5L357.3,208.5z"/>
<text transform="matrix(1.0449 0 0 1 326.0488 223.7011)"><tspan x="0" y="0" font-family="'ArialMT'" font-size="6.5011px">engineering </tspan><tspan x="0" y="7.8" font-family="'ArialMT'" font-size="6.5011px">team 6</tspan></text>
<path d="M408.4,258.5c0-2.3,1.9-4.1,4.3-4.1s4.3,1.8,4.3,4.1s-1.9,4.1-4.3,4.1C410.3,262.6,408.4,260.8,408.4,258.5z M397.6,260.2
	c0-2.3,1.9-4.1,4.3-4.1c2.4,0,4.3,1.8,4.3,4.1c0,2.3-1.9,4.1-4.3,4.1C399.5,264.3,397.6,262.4,397.6,260.2z M386.7,258.5
	c0-2.3,1.9-4.1,4.3-4.1c2.4,0,4.3,1.8,4.3,4.1s-1.9,4.1-4.3,4.1C388.6,262.6,386.7,260.8,386.7,258.5z M416.1,262.1
	c1-0.9,1.7-2.2,1.7-3.6c0-2.7-2.3-4.9-5.1-4.9c-2.8,0-5.1,2.2-5.1,4.9c0,1.4,0.7,2.7,1.7,3.6c-1.1,0.6-2.1,1.5-2.7,2.6
	c-0.4-0.3-0.8-0.6-1.3-0.9c1-0.9,1.7-2.2,1.7-3.6c0-2.7-2.3-4.9-5.1-4.9c-2.8,0-5.1,2.2-5.1,4.9c0,1.4,0.7,2.7,1.7,3.6
	c-0.5,0.3-0.9,0.6-1.3,0.9c-0.6-1.1-1.6-2-2.7-2.6c1-0.9,1.7-2.2,1.7-3.6c0-2.7-2.3-4.9-5.1-4.9c-2.8,0-5.1,2.2-5.1,4.9
	c0,1.4,0.7,2.7,1.7,3.6c-2.3,1.2-3.7,3.5-3.7,5.9c0,0.2,0.2,0.4,0.4,0.4s0.4-0.2,0.4-0.4c0-2.3,1.4-4.4,3.6-5.4
	c0.8,0.5,1.7,0.7,2.7,0.7s1.9-0.3,2.7-0.7c1.2,0.6,2.2,1.5,2.9,2.6c-1.1,1.2-1.8,2.8-1.8,4.5c0,0.2,0.2,0.4,0.4,0.4s0.4-0.2,0.4-0.4
	c0-2.3,1.4-4.4,3.6-5.4c0.8,0.5,1.7,0.7,2.7,0.7c1,0,1.9-0.3,2.7-0.7c2.2,1,3.6,3.1,3.6,5.4c0,0.2,0.2,0.4,0.4,0.4s0.4-0.2,0.4-0.4
	c0-1.7-0.7-3.3-1.8-4.5c0.6-1.2,1.6-2.1,2.9-2.6c0.8,0.5,1.7,0.7,2.7,0.7s1.9-0.3,2.7-0.7c2.2,1,3.6,3.1,3.6,5.4
	c0,0.2,0.2,0.4,0.4,0.4c0.2,0,0.4-0.2,0.4-0.4C419.8,265.6,418.3,263.3,416.1,262.1L416.1,262.1z"/>
<text transform="matrix(1.0449 0 0 1 384.7988 277.3252)"><tspan x="0" y="0" font-family="'ArialMT'" font-size="6.5011px">engineering </tspan><tspan x="0" y="7.8" font-family="'ArialMT'" font-size="6.5011px">team 5</tspan></text>
<path d="M506.6,249.1c0-2.3,1.9-4.1,4.3-4.1s4.3,1.8,4.3,4.1s-1.9,4.1-4.3,4.1C508.5,253.2,506.6,251.4,506.6,249.1z M495.7,250.8
	c0-2.3,1.9-4.1,4.3-4.1c2.4,0,4.3,1.8,4.3,4.1s-1.9,4.1-4.3,4.1C497.6,254.9,495.7,253,495.7,250.8z M484.9,249.1
	c0-2.3,1.9-4.1,4.3-4.1c2.4,0,4.3,1.8,4.3,4.1s-1.9,4.1-4.3,4.1C486.8,253.2,484.9,251.4,484.9,249.1z M514.2,252.7
	c1-0.9,1.7-2.2,1.7-3.6c0-2.7-2.3-4.9-5.1-4.9s-5.1,2.2-5.1,4.9c0,1.4,0.7,2.7,1.7,3.6c-1.1,0.6-2.1,1.5-2.7,2.6
	c-0.4-0.3-0.8-0.6-1.3-0.9c1-0.9,1.7-2.2,1.7-3.6c0-2.7-2.3-4.9-5.1-4.9c-2.8,0-5.1,2.2-5.1,4.9c0,1.4,0.7,2.7,1.7,3.6
	c-0.5,0.3-0.9,0.6-1.3,0.9c-0.6-1.1-1.6-2-2.7-2.6c1-0.9,1.7-2.2,1.7-3.6c0-2.7-2.3-4.9-5.1-4.9c-2.8,0-5.1,2.2-5.1,4.9
	c0,1.4,0.7,2.7,1.7,3.6c-2.3,1.2-3.7,3.5-3.7,5.9c0,0.2,0.2,0.4,0.4,0.4s0.4-0.2,0.4-0.4c0-2.3,1.4-4.4,3.6-5.4
	c0.8,0.5,1.7,0.7,2.7,0.7c1,0,1.9-0.3,2.7-0.7c1.2,0.6,2.2,1.5,2.9,2.6c-1.1,1.2-1.8,2.8-1.8,4.5c0,0.2,0.2,0.4,0.4,0.4
	c0.2,0,0.4-0.2,0.4-0.4c0-2.3,1.4-4.4,3.6-5.4c0.8,0.5,1.7,0.7,2.7,0.7s1.9-0.3,2.7-0.7c2.2,1,3.6,3.1,3.6,5.4
	c0,0.2,0.2,0.4,0.4,0.4s0.4-0.2,0.4-0.4c0-1.7-0.7-3.3-1.8-4.5c0.6-1.2,1.6-2.1,2.9-2.6c0.8,0.5,1.7,0.7,2.7,0.7s1.9-0.3,2.7-0.7
	c2.2,1,3.6,3.1,3.6,5.4c0,0.2,0.2,0.4,0.4,0.4s0.4-0.2,0.4-0.4C517.9,256.2,516.5,253.9,514.2,252.7L514.2,252.7z"/>
<text transform="matrix(1.0449 0 0 1 482.9443 267.9336)"><tspan x="0" y="0" font-family="'ArialMT'" font-size="6.5011px">engineering </tspan><tspan x="0" y="7.8" font-family="'ArialMT'" font-size="6.5011px">team 4</tspan></text>
<path d="M428,91.8c0-2.3,1.9-4.1,4.3-4.1s4.3,1.8,4.3,4.1s-1.9,4.1-4.3,4.1C429.9,95.9,428,94.1,428,91.8z M417.1,93.5
	c0-2.3,1.9-4.1,4.3-4.1c2.4,0,4.3,1.8,4.3,4.1s-1.9,4.1-4.3,4.1C419,97.6,417.1,95.8,417.1,93.5z M406.3,91.8c0-2.3,1.9-4.1,4.3-4.1
	c2.4,0,4.3,1.8,4.3,4.1s-1.9,4.1-4.3,4.1C408.2,95.9,406.3,94.1,406.3,91.8z M435.6,95.5c1-0.9,1.7-2.2,1.7-3.6
	c0-2.7-2.3-4.9-5.1-4.9c-2.8,0-5.1,2.2-5.1,4.9c0,1.4,0.7,2.7,1.7,3.6c-1.1,0.6-2.1,1.5-2.7,2.6c-0.4-0.3-0.8-0.6-1.3-0.9
	c1-0.9,1.7-2.2,1.7-3.6c0-2.7-2.3-4.9-5.1-4.9c-2.8,0-5.1,2.2-5.1,4.9c0,1.4,0.7,2.7,1.7,3.6c-0.5,0.3-0.9,0.6-1.3,0.9
	c-0.6-1.1-1.6-2-2.7-2.6c1-0.9,1.7-2.2,1.7-3.6c0-2.7-2.3-4.9-5.1-4.9c-2.8,0-5.1,2.2-5.1,4.9c0,1.4,0.7,2.7,1.7,3.6
	c-2.3,1.2-3.7,3.5-3.7,5.9c0,0.2,0.2,0.4,0.4,0.4s0.4-0.2,0.4-0.4c0-2.3,1.4-4.4,3.6-5.4c0.8,0.5,1.7,0.7,2.7,0.7s1.9-0.3,2.7-0.7
	c1.2,0.6,2.2,1.5,2.9,2.6c-1.1,1.2-1.8,2.8-1.8,4.5c0,0.2,0.2,0.4,0.4,0.4s0.4-0.2,0.4-0.4c0-2.3,1.4-4.4,3.6-5.4
	c0.8,0.5,1.7,0.7,2.7,0.7s1.9-0.3,2.7-0.7c2.2,1,3.6,3.1,3.6,5.4c0,0.2,0.2,0.4,0.4,0.4s0.4-0.2,0.4-0.4c0-1.7-0.7-3.3-1.8-4.5
	c0.6-1.2,1.6-2.1,2.9-2.6c0.8,0.5,1.7,0.7,2.7,0.7s1.9-0.3,2.7-0.7c2.2,1,3.6,3.1,3.6,5.4c0,0.2,0.2,0.4,0.4,0.4
	c0.2,0,0.4-0.2,0.4-0.4C439.3,98.9,437.9,96.6,435.6,95.5L435.6,95.5z"/>
<text transform="matrix(1.0449 0 0 1 404.3398 110.6699)"><tspan x="0" y="0" font-family="'ArialMT'" font-size="6.5011px">engineering </tspan><tspan x="0" y="7.8" font-family="'ArialMT'" font-size="6.5011px">team 1</tspan></text>
<path d="M513.1,103.7c0-2.3,1.9-4.1,4.3-4.1s4.3,1.8,4.3,4.1s-1.9,4.1-4.3,4.1C515.1,107.8,513.1,106,513.1,103.7z M502.3,105.4
	c0-2.3,1.9-4.1,4.3-4.1c2.4,0,4.3,1.8,4.3,4.1s-1.9,4.1-4.3,4.1C504.2,109.5,502.3,107.7,502.3,105.4z M491.4,103.7
	c0-2.3,1.9-4.1,4.3-4.1c2.4,0,4.3,1.8,4.3,4.1s-1.9,4.1-4.3,4.1C493.4,107.8,491.4,106,491.4,103.7z M520.8,107.3
	c1-0.9,1.7-2.2,1.7-3.6c0-2.7-2.3-4.9-5.1-4.9c-2.8,0-5.1,2.2-5.1,4.9c0,1.4,0.7,2.7,1.7,3.6c-1.1,0.6-2.1,1.5-2.7,2.6
	c-0.4-0.3-0.8-0.6-1.3-0.9c1-0.9,1.7-2.2,1.7-3.6c0-2.7-2.3-4.9-5.1-4.9c-2.8,0-5.1,2.2-5.1,4.9c0,1.4,0.7,2.7,1.7,3.6
	c-0.5,0.3-0.9,0.6-1.3,0.9c-0.6-1.1-1.6-2-2.7-2.6c1-0.9,1.7-2.2,1.7-3.6c0-2.7-2.3-4.9-5.1-4.9c-2.8,0-5.1,2.2-5.1,4.9
	c0,1.4,0.7,2.7,1.7,3.6c-2.3,1.2-3.7,3.5-3.7,5.9c0,0.2,0.2,0.4,0.4,0.4c0.2,0,0.4-0.2,0.4-0.4c0-2.3,1.4-4.4,3.6-5.4
	c0.8,0.5,1.7,0.7,2.7,0.7s1.9-0.3,2.7-0.7c1.2,0.6,2.2,1.5,2.9,2.6c-1.1,1.2-1.8,2.8-1.8,4.5c0,0.2,0.2,0.4,0.4,0.4
	c0.2,0,0.4-0.2,0.4-0.4c0-2.3,1.4-4.4,3.6-5.4c0.8,0.5,1.7,0.7,2.7,0.7s1.9-0.3,2.7-0.7c2.2,1,3.6,3.1,3.6,5.4
	c0,0.2,0.2,0.4,0.4,0.4s0.4-0.2,0.4-0.4c0-1.7-0.7-3.3-1.8-4.5c0.6-1.2,1.6-2.1,2.9-2.6c0.8,0.5,1.7,0.7,2.7,0.7
	c1,0,1.9-0.3,2.7-0.7c2.2,1,3.6,3.1,3.6,5.4c0,0.2,0.2,0.4,0.4,0.4c0.2,0,0.4-0.2,0.4-0.4C524.5,110.8,523.1,108.5,520.8,107.3
	L520.8,107.3z"/>
<text transform="matrix(1.0449 0 0 1 489.5117 122.541)"><tspan x="0" y="0" font-family="'ArialMT'" font-size="6.5011px">engineering </tspan><tspan x="0" y="7.8" font-family="'ArialMT'" font-size="6.5011px">team 2</tspan></text>
<path d="M536.4,179.4c0-2.3,1.9-4.1,4.3-4.1c2.4,0,4.3,1.8,4.3,4.1s-1.9,4.1-4.3,4.1C538.3,183.5,536.4,181.7,536.4,179.4z
	 M525.6,181.1c0-2.3,1.9-4.1,4.3-4.1c2.4,0,4.3,1.8,4.3,4.1s-1.9,4.1-4.3,4.1C527.5,185.2,525.6,183.4,525.6,181.1z M514.7,179.4
	c0-2.3,1.9-4.1,4.3-4.1s4.3,1.8,4.3,4.1s-1.9,4.1-4.3,4.1C516.6,183.5,514.7,181.7,514.7,179.4z M544.1,183c1-0.9,1.7-2.2,1.7-3.6
	c0-2.7-2.3-4.9-5.1-4.9c-2.8,0-5.1,2.2-5.1,4.9c0,1.4,0.7,2.7,1.7,3.6c-1.1,0.6-2.1,1.5-2.7,2.6c-0.4-0.3-0.8-0.6-1.3-0.9
	c1-0.9,1.7-2.2,1.7-3.6c0-2.7-2.3-4.9-5.1-4.9c-2.8,0-5.1,2.2-5.1,4.9c0,1.4,0.7,2.7,1.7,3.6c-0.5,0.3-0.9,0.6-1.3,0.9
	c-0.6-1.1-1.6-2-2.7-2.6c1-0.9,1.7-2.2,1.7-3.6c0-2.7-2.3-4.9-5.1-4.9c-2.8,0-5.1,2.2-5.1,4.9c0,1.4,0.7,2.7,1.7,3.6
	c-2.3,1.2-3.7,3.5-3.7,5.9c0,0.2,0.2,0.4,0.4,0.4s0.4-0.2,0.4-0.4c0-2.3,1.4-4.4,3.6-5.4c0.8,0.5,1.7,0.7,2.7,0.7
	c1,0,1.9-0.3,2.7-0.7c1.2,0.6,2.2,1.5,2.9,2.6c-1.1,1.2-1.8,2.8-1.8,4.5c0,0.2,0.2,0.4,0.4,0.4s0.4-0.2,0.4-0.4
	c0-2.3,1.4-4.4,3.6-5.4c0.8,0.5,1.7,0.7,2.7,0.7c1,0,1.9-0.3,2.7-0.7c2.2,1,3.6,3.1,3.6,5.4c0,0.2,0.2,0.4,0.4,0.4s0.4-0.2,0.4-0.4
	c0-1.7-0.7-3.3-1.8-4.5c0.6-1.2,1.6-2.1,2.9-2.6c0.8,0.5,1.7,0.7,2.7,0.7c1,0,1.9-0.3,2.7-0.7c2.2,1,3.6,3.1,3.6,5.4
	c0,0.2,0.2,0.4,0.4,0.4c0.2,0,0.4-0.2,0.4-0.4C547.8,186.5,546.3,184.2,544.1,183L544.1,183z"/>
<text transform="matrix(1.0449 0 0 1 512.787 198.2475)"><tspan x="0" y="0" font-family="'ArialMT'" font-size="6.5011px">engineering </tspan><tspan x="0" y="7.8" font-family="'ArialMT'" font-size="6.5011px">team 3</tspan></text>
<rect x="60.4" y="86.5" fill="none" width="228" height="80.3"/>
<text transform="matrix(1 0 0 1 60.3993 96.7793)"><tspan x="0" y="0" font-family="'ArialMT'" font-size="12px">“The number of engineers I support seems </tspan><tspan x="0" y="14.4" font-family="'ArialMT'" font-size="12px">to be growing each year, making the ratio </tspan><tspan x="0" y="28.8" font-family="'ArialMT'" font-size="12px">of tech writers to engineers more lopsided </tspan><tspan x="0" y="43.2" font-family="'ArialMT'" font-size="12px">(with fewer tech writers and more engi</tspan><tspan x="202.7" y="43.2" font-family="'ArialMT'" font-size="12px">-</tspan><tspan x="0" y="57.6" font-family="'ArialMT'" font-size="12px">neers).”</tspan></text>
<text transform="matrix(1.0449 0 0 1 427.1513 228.7353)" font-family="'ArialMT'" font-size="9.1744px">Tech writer</text>
<rect x="3.3" y="44.7" fill="none" width="600" height="45.9"/>
<text transform="matrix(1 0 0 1 100.391 66.117)" font-family="'ArialMT'" font-size="25px">Effects of the growing disproportion?</text>
<text transform="matrix(1.2143 0 0 1 471.2827 154.4228)" font-family="'ArialMT'" font-size="20.1197px">?</text>
<text transform="matrix(1.1551 0 0 1 401.852 244.2226)" font-family="'ArialMT'" font-size="20.1197px">?</text>
<g>
	<g>
		<g>
			<g>
				<path fill="#A4A4A4" stroke="#000000" stroke-width="0.5" stroke-miterlimit="10" d="M163.2,239.9l-9.4-53.2
					c3.2-0.6,6.2-0.8,9.4-0.8V239.9z"/>
			</g>
		</g>
		<g>
			<g>
				<path fill="#A4A4A4" stroke="#000000" stroke-width="0.5" stroke-miterlimit="10" d="M163.2,239.9l-22.8-49
					c4.4-2,8.7-3.4,13.5-4.2L163.2,239.9z"/>
			</g>
		</g>
		<g>
			<g>
				<path fill="#DADADA" stroke="#000000" stroke-width="0.5" stroke-miterlimit="10" d="M163.2,239.9l-54-1.9
					c0.7-20.9,12.2-38.2,31.2-47.1L163.2,239.9z"/>
			</g>
		</g>
		<g>
			<g>
				<path fill="#9CB5A4" stroke="#000000" stroke-width="0.5" stroke-miterlimit="10" d="M163.2,239.9l43.7,31.8
					c-17.5,24.1-51.3,29.5-75.5,12c-15-10.9-22.9-27.1-22.2-45.6L163.2,239.9z"/>
			</g>
		</g>
		<g>
			<g>
				<path fill="#B5DDBE" stroke="#000000" stroke-width="0.5" stroke-miterlimit="10" d="M163.2,239.9v-54c29.8,0,54,24.2,54,54
					c0,12.1-3.2,22-10.3,31.8L163.2,239.9z"/>
			</g>
		</g>
	</g>
	<g>
		<g>
		</g>
		<g>
		</g>
		<g>
		</g>
		<g>
		</g>
		<g>
		</g>
	</g>
</g>
<text transform="matrix(1 0 0 1 86.6444 205.5493)"><tspan x="0" y="0" font-family="'ArialMT'" font-size="6px">Undecided </tspan><tspan x="9.2" y="7.2" font-family="'ArialMT'" font-size="6px">18%</tspan></text>
<text transform="matrix(1 0 0 1 106.8234 170.9758)"><tspan x="0" y="0" font-family="'ArialMT'" font-size="6px">Disagree </tspan><tspan x="8.5" y="7.2" font-family="'ArialMT'" font-size="6px">4%</tspan></text>
<text transform="matrix(1 0 0 1 138.6203 156.9903)"><tspan x="0" y="0" font-family="'ArialMT'" font-size="6px">Strongly </tspan><tspan x="-1" y="7.2" font-family="'ArialMT'" font-size="6px">Disagree </tspan><tspan x="7.5" y="14.4" font-family="'ArialMT'" font-size="6px">3%</tspan></text>
<text transform="matrix(1 0 0 1 207.3435 201.7947)"><tspan x="0" y="0" font-family="'ArialMT'" font-size="6px">Strongly Agree</tspan><tspan x="13.8" y="7.2" font-family="'ArialMT'" font-size="6px">35%</tspan></text>
<text transform="matrix(1 0 0 1 141.7686 305.8998)" font-family="'ArialMT'" font-size="6px">Agree 41%</text>
<line fill="none" stroke="#666666" stroke-width="0.25" stroke-miterlimit="10" x1="145.6" y1="189" x2="125.6" y2="173.7"/>
<line fill="none" stroke="#666666" stroke-width="0.25" stroke-miterlimit="10" x1="154.9" y1="173.6" x2="159.6" y2="185.5"/>
</svg>
