<?xml version="1.0" encoding="utf-8"?>
<!-- Generator: Adobe Illustrator 23.0.1, SVG Export Plug-In . SVG Version: 6.00 Build 0)  -->
<svg version="1.1" id="Layer_1" xmlns="http://www.w3.org/2000/svg" xmlns:xlink="http://www.w3.org/1999/xlink" x="0px" y="0px"
	 viewBox="0 0 600 350" enable-background="new 0 0 600 350" xml:space="preserve">
<g>
	<path fill="#E5E5E5" d="M220.7,298.9c0,5.5-4.5,10-10,10H52.4c-5.5,0-10-4.5-10-10V140.6c0-5.5,4.5-10,10-10h158.4
		c5.5,0,10,4.5,10,10V298.9z"/>
</g>
<rect x="0" y="44.1" fill="none" width="600" height="45.9"/>
<text transform="matrix(1 0 0 1 45.6916 65.5105)" font-family="'ArialMT'" font-size="25px">Strategy #2: Empower engineers to contribute</text>
<path fill="#FFFFFF" stroke="#010101" stroke-width="1.2655" stroke-miterlimit="10" d="M160.2,195.7c0,1.2-1,2.2-2.1,2.2l-63,0.3
	c-1.2,0-2.1-1-2.1-2.2l-0.2-44c0-1.2,0.9-2.2,2.1-2.2l63-0.3c1.2,0,2.1,1,2.2,2.2L160.2,195.7z"/>
<ellipse transform="matrix(1 -4.931934e-03 4.931934e-03 1 -1.1029 0.6335)" fill="#161616" cx="127.9" cy="223.9" rx="19.4" ry="7.9"/>
<path fill="#010101" stroke="#FFFFFF" stroke-width="0.1406" stroke-miterlimit="10" d="M123.9,197.8l13.1-0.1
	c0,0-6.3,10.1-4.7,18.8c1,5.9,9.8,9.6,9.8,9.6l-26.6,0.1c0,0,7.3-5.9,7.6-12.5s-7.7-16-7.7-16l7.9,0"/>
<g>
	<path fill="none" stroke="#4D54A4" stroke-width="0.4218" stroke-miterlimit="10" d="M152,187.4c-0.6,0.4-0.8,1-0.6,1.5"/>
	<path fill="none" stroke="#4D54A4" stroke-width="0.4218" stroke-miterlimit="10" d="M152.9,187.5c0.1,0,0.3,0,0.4,0.1
		c0.5,0.4,0.7,0.9,0.7,1.4"/>
	<path fill="none" stroke="#4D54A4" stroke-width="0.4218" stroke-miterlimit="10" d="M151.2,188.9c0.8,0,1.7,0,2.5,0"/>
	<path fill="none" stroke="#4D54A4" stroke-width="0.4218" stroke-miterlimit="10" d="M151.5,186.6c-1,0-2,0.1-3,0.3"/>
	<path fill="none" stroke="#4D54A4" stroke-width="0.4218" stroke-miterlimit="10" d="M146.1,187.9c-0.5,0-1.1,0.1-1.6,0.1
		c-0.1-0.7-0.3-1.5-0.4-2.2c1.1,0,2.3-0.1,3.4-0.1c0.2,0.6,0.3,1.3,0.4,1.9C147.5,187.8,146.4,187.8,146.1,187.9
		c-0.1,0.2,0,0.6-0.1,0.7c-0.1,0.2-0.3,0.4-0.5,0.5"/>
	<path fill="none" stroke="#4D54A4" stroke-width="0.4218" stroke-miterlimit="10" d="M147,187.8c-0.2,0.6,0.2,1.2,0.9,1.4"/>
	<path fill="none" stroke="#4D54A4" stroke-width="0.4218" stroke-miterlimit="10" d="M145.6,185.6c-0.1-2.2-0.2-4.3-0.3-6.5
		c-0.1-2.8-0.3-5.6-1.2-8.4"/>
	<path fill="none" stroke="#4D54A4" stroke-width="0.4218" stroke-miterlimit="10" d="M151.6,169.4c0,0.1,0,0.3-0.1,0.4
		c-0.1,0.1-0.2,0.1-0.4,0.2c-0.6,0.2-1.2,0.2-1.8,0.2c0.2,0.1,0.1,0.4-0.1,0.6c-0.2,0.1-0.5,0.2-0.8,0.2c-0.6,0.1-1.3,0.1-1.9,0.1
		c-0.6-0.1-1.3-0.3-1.7-0.6c-0.8,0.3-1.7,0.5-2.6,0.5s-1.8-0.3-2.3-0.9c-0.6,0.3-1.3,0.5-2,0.5c-0.5-0.6-0.3-1.4,0.3-1.9
		s1.4-0.8,2.3-1c-0.5-0.1-0.6-0.7-0.3-1.1c0.3-0.3,0.9-0.5,1.4-0.6c1-0.2,2.1-0.4,3,0c-0.2-0.2,0.2-0.5,0.5-0.6
		c0.6-0.2,1.2-0.2,1.8-0.2c0.2,0,0.4,0,0.5,0.1c0.1,0.1,0.2,0.2,0.2,0.2c0.7,0.7,2.5,0.1,3.2,0.8c0.3,0.3,0.3,0.6,0,0.9
		c-0.2,0.3-0.7,0.4-1.1,0.3C150.8,167.9,151.5,168.6,151.6,169.4z"/>
	<path fill="none" stroke="#4D54A4" stroke-width="0.4218" stroke-miterlimit="10" d="M142.3,168.3c0.1-0.6,0.3-1.2,0.6-1.7
		c0.2,0.1,0.4,0.3,0.6,0.5c0.2,0.3,0.2,0.7,0.5,0.9"/>
	<path fill="none" stroke="#4D54A4" stroke-width="0.4218" stroke-miterlimit="10" d="M142.4,167.6c0.3,0,0.7,0,1-0.1"/>
	<path fill="none" stroke="#4D54A4" stroke-miterlimit="10" d="M144.5,168.2v-1.4c0,0,0.4-0.2,0.6-0.2c0.2,0,0.4,0.1,0.4,0.3
		c0.1,0.2-0.1,0.4-0.3,0.5c-0.2,0.1-0.5,0.1-0.7,0"/>
	<path fill="none" stroke="#4D54A4" stroke-width="0.4218" stroke-miterlimit="10" d="M146.2,166.5c0,0.5,0,1,0.1,1.5"/>
	<path fill="none" stroke="#4D54A4" stroke-width="0.4218" stroke-miterlimit="10" d="M139.1,167.8c-2.7,0-5.5,0.1-8.2,0.3"/>
	<path fill="none" stroke="#4D54A4" stroke-width="0.4218" stroke-miterlimit="10" d="M130.2,168.6c-0.5,0.6-1,1.1-1.7,1.6
		c-0.3,0.2-0.6,0.3-0.9,0.3c-0.7,0.1-1.4-0.4-1.7-1c-0.5-0.8-0.3-1.9,0.4-2.7c0.7-0.8,1.8-1.2,3-1.3c0.2,0,0.3,0,0.5,0
		c0.3,0.1,0.4,0.3,0.5,0.6c0.1,0.5,0,1-0.2,1.4"/>
	<path fill="none" stroke="#4D54A4" stroke-width="0.4218" stroke-miterlimit="10" d="M129.2,166.6c0.1,0.4,0.5,0.6,0.7,0.9
		c0.4-0.1,1-0.3,1.4-0.5"/>
	<path fill="none" stroke="#4D54A4" stroke-width="0.4218" stroke-miterlimit="10" d="M146.1,186.3c-0.2,0.3-0.3,0.7-0.5,1"/>
	<path fill="none" stroke="#4D54A4" stroke-width="0.4218" stroke-miterlimit="10" d="M146.3,186.4c0.3,0,0.6,0.1,0.9,0.4
		c-0.3,0.3-0.6,0.5-1,0.7"/>
	<path fill="none" stroke="#4D54A4" stroke-width="0.4218" stroke-miterlimit="10" d="M145.5,186.4c-0.3,0-0.5,0.1-0.7,0.4
		c0.2,0.3,0.5,0.5,0.8,0.7"/>
	<path fill="none" stroke="#4D54A4" stroke-width="0.4218" stroke-miterlimit="10" d="M126.5,168.2c0.9,0,1.8,0,2.7,0"/>
	<path fill="none" stroke="#4D54A4" stroke-width="0.4218" stroke-miterlimit="10" d="M126.9,167.8c0.1-0.1,0.2,0.1,0.2,0.2
		c0,0-0.1,0-0.1,0C126.9,167.9,126.9,167.9,126.9,167.8"/>
	<path fill="none" stroke="#4D54A4" stroke-width="0.4125" stroke-miterlimit="10" d="M127.7,167.7c0,0,0.1,0,0.2,0
		c0,0.1,0,0.2,0,0.2c-0.2,0-0.5-0.1-0.4-0.3C127.5,167.7,127.6,167.7,127.7,167.7"/>
	<path fill="none" stroke="#4D54A4" stroke-width="0.4218" stroke-miterlimit="10" d="M128.6,167.8c-0.1,0-0.1,0-0.2,0
		c-0.1,0.1,0.1,0.2,0.3,0.2c0-0.1,0-0.2-0.1-0.3"/>
	<path fill="none" stroke="#4D54A4" stroke-width="0.4218" stroke-miterlimit="10" d="M144.1,170.9c-0.2,0.4-0.4,0.8-0.6,1.1"/>
	<path fill="none" stroke="#4D54A4" stroke-width="0.4218" stroke-miterlimit="10" d="M144.2,170.9c0.5,0.4,1,0.8,1.5,1.3"/>
	<path fill="none" stroke="#4D54A4" stroke-width="0.4218" stroke-miterlimit="10" d="M129.6,170c2.6,5.1,6.1,9.9,10.5,14.1
		c0.9,0.8,1.8,1.7,3.1,2"/>
	<path fill="none" stroke="#4D54A4" stroke-width="0.4218" stroke-miterlimit="10" d="M142.9,185c0.1,0.4,0.2,0.8,0.3,1.2
		c-0.5,0-1.2,0.1-1.7,0.1"/>
	<path fill="none" stroke="#4D54A4" stroke-width="0.4218" stroke-miterlimit="10" d="M147.1,185.2c1.6-1.9,3.3-3.8,4.9-5.8"/>
	<path fill="none" stroke="#4D54A4" stroke-width="0.4218" stroke-miterlimit="10" d="M152.4,178.6c0,0.2,0.1,0.3,0.3,0.4
		c0.3,0.1,0.6,0.1,0.9,0.1c0.3,0,0.7,0,1,0c0.3,0,0.7,0,0.9-0.2c0.3-0.3,0.1-0.7-0.3-0.9c-0.4-0.2-0.8-0.2-1.3-0.2
		c-0.3,0-0.5,0-0.8,0c-0.1,0-0.3,0-0.3,0.1c-1,0.8-0.5,2.7-0.5,3.7c0.9,0.2,2,0.2,3,0.2c0.1,0,0.4-0.1,0.3-0.2"/>
	<path fill="none" stroke="#4D54A4" stroke-width="0.4218" stroke-miterlimit="10" d="M155.4,178.9c-0.1,1,0,1.9,0.1,2.9"/>
	<path fill="none" stroke="#4D54A4" stroke-width="0.4218" stroke-miterlimit="10" d="M151.5,179.4c-1.4-1.3-3-2.5-4.7-3.6
		c-0.6-0.4-1.3-0.8-1.7-1.4"/>
	<path fill="none" stroke="#4D54A4" stroke-width="0.4218" stroke-miterlimit="10" d="M148.8,175.9c0.4,0,0.8,0,1.1,0
		c0,0.2,0.1,0.4,0.1,0.6c0,0,0,0,0,0c0,0,0,0,0,0c-0.1,0.2-0.3,0.3-0.4,0.5c-0.2-0.1-0.4-0.2-0.6-0.4c0,0,0,0,0,0c0,0,0,0,0-0.1
		C148.8,176.2,148.8,176,148.8,175.9z"/>
	<g>
		<path fill="none" stroke="#4D54A4" stroke-width="0.2812" stroke-miterlimit="10" d="M135.5,184.8c0.2,0,0.3,0,0.5,0
			c0.2,0,0.3,0,0.5-0.1"/>
		<path fill="none" stroke="#4D54A4" stroke-width="0.2812" stroke-miterlimit="10" d="M136,184.8c0,0.2,0.1,0.4,0.1,0.5
			c-0.1,0.1-0.2,0.1-0.3,0.1c-0.1,0-0.2-0.1-0.2-0.1"/>
		<path fill="none" stroke="#4D54A4" stroke-width="0.2812" stroke-miterlimit="10" d="M137,184.7c-0.1-0.1-0.2,0-0.3,0
			c-0.1,0.1,0,0.2,0,0.2c0.1,0,0.3,0.1,0.4,0.1c0.1,0.1,0.1,0.2,0,0.3c-0.1,0.1-0.2,0.1-0.3,0.1c-0.1,0-0.2,0-0.2-0.1"/>
		<path fill="none" stroke="#4D54A4" stroke-width="0.2812" stroke-miterlimit="10" d="M137.9,184.7c0,0-0.1,0-0.1,0
			c-0.1,0-0.2,0-0.3,0c0,0.2,0,0.3,0,0.5c0.1,0.2,0.3,0.3,0.5,0.3c0.1-0.2,0.1-0.4,0.1-0.5C138,184.8,138,184.8,137.9,184.7z"/>
		<line fill="none" stroke="#4D54A4" stroke-miterlimit="10" x1="138.4" y1="184.7" x2="138.4" y2="185.3"/>
		<path fill="none" stroke="#4D54A4" stroke-width="0.2812" stroke-miterlimit="10" d="M138.5,184.7c0.2,0.3,0.4,0.5,0.6,0.8"/>
		<path fill="none" stroke="#4D54A4" stroke-width="0.2812" stroke-miterlimit="10" d="M139.1,185.4c0-0.3,0-0.6,0-0.8"/>
	</g>
	<line fill="none" stroke="#4D54A4" stroke-miterlimit="10" x1="153.1" y1="179.8" x2="153.1" y2="181"/>
	<path fill="none" stroke="#4D54A4" stroke-width="0.2812" stroke-miterlimit="10" d="M153.6,180c0.2-0.1,0.6,0,0.7,0.2
		c0.1,0.2,0.1,0.4,0,0.6c-0.2,0-0.4,0-0.5,0"/>
	<path fill="none" stroke="#4D54A4" stroke-width="0.2812" stroke-miterlimit="10" d="M153.1,179.8c0,0.4,0,0.8,0.1,1.2"/>
	<path fill="none" stroke="#4D54A4" stroke-width="0.2812" stroke-miterlimit="10" d="M150.5,175.1c0,0.2,0,0.4,0,0.7"/>
	<path fill="none" stroke="#4D54A4" stroke-width="0.2812" stroke-miterlimit="10" d="M151,175.6C151,175.6,151,175.6,151,175.6
		c0,0.1,0.1,0.1,0.1,0.1c0.1,0,0.2,0.1,0.3,0c0.1,0,0.1-0.1,0.1-0.1c0,0,0-0.1,0-0.1c0-0.1,0-0.2,0-0.2c0-0.1-0.1-0.1-0.2-0.2
		c0,0,0,0-0.1,0c0,0,0,0,0,0c-0.1,0.1-0.1,0.2-0.1,0.3C151,175.4,151,175.5,151,175.6z"/>
	<path fill="none" stroke="#4D54A4" stroke-width="0.2812" stroke-miterlimit="10" d="M151.8,175c0,0.2,0,0.5,0,0.7"/>
	<path fill="none" stroke="#4D54A4" stroke-width="0.2812" stroke-miterlimit="10" d="M151.8,175.4c0.1-0.1,0.2-0.2,0.3-0.3"/>
	<path fill="none" stroke="#4D54A4" stroke-width="0.2812" stroke-miterlimit="10" d="M152.2,175.7c-0.1,0-0.1-0.1-0.1-0.1
		c0,0-0.1-0.1-0.2-0.1c0,0-0.1,0-0.1,0"/>
	<path fill="none" stroke="#4D54A4" stroke-width="0.2812" stroke-miterlimit="10" d="M152.7,175.1c-0.1,0-0.3,0-0.4,0"/>
	<path fill="none" stroke="#4D54A4" stroke-width="0.2812" stroke-miterlimit="10" d="M152.3,175.1c0,0.2,0,0.5,0,0.7"/>
	<path fill="none" stroke="#4D54A4" stroke-width="0.2812" stroke-miterlimit="10" d="M152.9,175.1c0,0.2,0,0.3,0,0.5
		c0,0.1,0,0.1,0,0.2"/>
	<path fill="none" stroke="#4D54A4" stroke-width="0.2812" stroke-miterlimit="10" d="M152.9,175.1c0,0,0.1,0.1,0.1,0.1
		c0.1,0.1,0.2,0.2,0.2,0.3c0,0.1,0.1,0.1,0.1,0.2"/>
	<path fill="none" stroke="#4D54A4" stroke-width="0.2812" stroke-miterlimit="10" d="M153.4,175.7c0-0.2,0-0.4,0-0.6"/>
	<path fill="none" stroke="#4D54A4" stroke-width="0.2812" stroke-miterlimit="10" d="M151,175.1c-0.2,0-0.4,0-0.6,0
		c0,0-0.1,0-0.1,0c-0.1,0-0.2,0-0.3,0"/>
	<path fill="none" stroke="#4D54A4" stroke-width="0.4218" stroke-miterlimit="10" d="M152.5,187.9c0,0,0.1,0,0.2,0
		c0.4,0,0.4-0.5,0.4-0.8c-0.1-0.4-0.3-0.8-0.9-0.8c-0.2,0-0.3,0.6-0.3,0.7c0,0.3,0.1,0.6,0.4,0.8
		C152.3,187.8,152.4,187.8,152.5,187.9z"/>
</g>
<path fill="#FFFFFF" stroke="#010101" stroke-width="0.4218" stroke-miterlimit="10" d="M106.1,228.2c0.3,0.3,1,0.4,1.4,0.4
	l50.8-5.7c0.4,0,0.5-0.3,0.2-0.6l-7.6-5.7c-0.3-0.3-1-0.4-1.4-0.4l-50.8,5.7c-0.4,0-0.5,0.3-0.2,0.5L106.1,228.2z"/>
<rect x="98.3" y="165.7" fill="#010101" width="23.3" height="15.3"/>
<text transform="matrix(0.9406 0 0 1 101.0375 177.6677)" fill="#F9F9FA" font-family="'ArialMT'" font-size="11.903px">&lt;/&gt;</text>
<line fill="none" stroke="#454545" stroke-miterlimit="10" x1="98.9" y1="159.3" x2="155.3" y2="159.3"/>
<line fill="none" stroke="#454545" stroke-miterlimit="10" x1="97.1" y1="192.3" x2="153.4" y2="192.3"/>
<line fill="none" stroke="#454545" stroke-miterlimit="10" x1="97.1" y1="194.2" x2="153.4" y2="194.2"/>
<line fill="none" stroke="#454545" stroke-miterlimit="10" x1="97.1" y1="188.7" x2="122.8" y2="188.7"/>
<line fill="none" stroke="#454545" stroke-miterlimit="10" x1="97.1" y1="186.2" x2="122.8" y2="186.2"/>
<line fill="none" stroke="#454545" stroke-miterlimit="10" x1="98.9" y1="161.1" x2="155.3" y2="161.1"/>
<path fill="none" stroke="#010101" stroke-width="0.703" stroke-miterlimit="10" d="M98.7,223.6c-2.7,0.1-5-3.2-3.9-5.7
	c1.4-3.2,6.4-3.8,7.5-7.2c4-1.1,8.1-2.2,12.1-3.3"/>
<line fill="none" stroke="#010101" stroke-width="0.1406" stroke-miterlimit="10" x1="101.9" y1="223.9" x2="152.2" y2="218.7"/>
<line fill="none" stroke="#010101" stroke-width="0.1406" stroke-miterlimit="10" x1="103.6" y1="226.2" x2="153.9" y2="220.9"/>
<path d="M198.3,207.4c0,4.6-3.7,8.3-8.3,8.3c-4.6,0-8.3-3.7-8.3-8.3c0-4.6,3.7-8.3,8.3-8.3C194.6,199.2,198.3,202.9,198.3,207.4"/>
<polygon points="119.6,273.6 127.8,273.6 127.8,245.2 154.3,245.2 154.3,273.6 162.5,273.6 162.5,236.7 119.6,236.7 "/>
<polygon points="202.2,230.7 198.5,230.7 198.5,254.5 176.6,254.5 176.6,260.8 204.8,260.8 204.8,230.7 "/>
<path d="M194.5,252h0.9c0.9,0,1.6-1.9,1.6-4.2l0-28.8h-10.5l-2.9,2l-7.1,4.3l-12,0l1.1,0l-3.3,0.3l-0.9,3.8l1.5-0.2l-1.5,0.2
	c0.5,1,1.5,1.7,2.7,1.7H177l1.7-0.1l5-3v15.6l-14.4,0v0.1c-1.9,0.3-3.3,2-3.3,4.1v22c0,2.3,1.8,4.2,3.9,4.2c2.2,0,3.9-1.9,3.9-4.2
	l0-17.7L194.5,252z"/>
<path d="M146.1,236.4h13.2c1.2,0,2.1-0.8,2.1-1.7c0-0.9-0.9-1.7-2.1-1.7h-13.2c-1.2,0-2.1,0.8-2.1,1.7
	C144,235.6,145,236.4,146.1,236.4z"/>
<path d="M165.3,228.7c0,1.5-1.2,2.8-2.8,2.8l0,0c-1.5,0-2.8-1.2-2.8-2.8v-0.4c0-1.5,1.2-2.8,2.8-2.8l0,0c1.5,0,2.8,1.2,2.8,2.8
	V228.7z"/>
<text transform="matrix(1 0 0 1 176.5854 283.114)" font-family="'ArialMT'" font-size="7.594px">Developer</text>
<text transform="matrix(1 0 0 1 99.4482 156.8982)" font-family="'ArialMT'" font-size="6.3283px">Documentation</text>
<path d="M71.6,219.3c0.6,5,5.3,8.5,10.3,7.8c5.1-0.6,8.7-5.2,8.1-10.1c-0.6-5-5.3-8.5-10.4-7.8C74.6,209.8,70.9,214.4,71.6,219.3"/>
<polygon points="71.2,241.9 75.7,241.5 77.8,265.2 103.9,262.9 104.5,269.2 70.8,272.2 68.1,242.1 "/>
<path d="M81.7,263.4l-1,0.1c-0.9,0.1-1.8-1.7-2-4l-2.7-28.7l10.7-1l3.1,1.7l7.6,3.6l12.3-1.1l-1.2,0.1l3.4,0l1.3,3.7l-1.6-0.1
	l1.6,0.1c-0.4,1-1.4,1.8-2.6,1.9l-13,1.2l-1.7,0.1l-5.4-2.5l1.4,15.6l14.8-1.4l0,0.1c2,0.1,3.6,1.7,3.8,3.8l2,21.9
	c0.2,2.3-1.4,4.3-3.6,4.5c-2.2,0.2-4.2-1.5-4.4-3.8l-1.6-17.6L81.7,263.4z"/>
<text transform="matrix(1 0 0 1 71.8217 292.2908)" font-family="'ArialMT'" font-size="7.594px">Tech writer</text>
<polygon points="83.1,272.4 72.8,272.4 72.8,282.8 75.2,282.8 75.2,274.8 91.4,274.8 91.4,282.8 93.8,282.8 93.8,272.4 "/>
<polygon points="196.9,263.1 186.7,263.1 186.7,273.5 189.1,273.5 189.1,265.5 205.3,265.5 205.3,273.5 207.7,273.5 207.7,263.1 "/>
<polygon points="196.7,263.1 186.5,263.1 186.5,273.5 188.9,273.5 188.9,265.5 205,265.5 205,273.5 207.4,273.5 207.4,263.1 "/>
<g>
	<path d="M269.5,142.4v1.2h1.2v-1.2H269.5z M267,142.4v1.2h1.2v-1.2H267z M264.6,142.4v1.2h1.2v-1.2H264.6z M249.8,142.4v1.2h13.5
		v-1.2H249.8z M236.3,139.9v1.2h1.2v-1.2H236.3z M236.3,137.5v1.2h1.2v-1.2H236.3z M269.5,136.3v1.2c0,1.4-1.1,2.4-2.5,2.4H247
		l1.5-1.5l-0.9-0.8l-2.5,2.5c-0.2,0.2-0.2,0.6,0,0.8l2.5,2.5l0.9-0.8l-1.5-1.5H267c2,0,3.7-1.6,3.7-3.6v-1.2L269.5,136.3z
		 M236.3,135.1v1.2h1.2v-1.2H236.3z M254.7,123c1.4,0,2.5,1.1,2.5,2.4s-1.1,2.4-2.5,2.4c-1.4,0-2.5-1.1-2.5-2.4S253.4,123,254.7,123
		z M254.7,121.8c-2,0-3.7,1.6-3.7,3.6c0,2,1.7,3.6,3.7,3.6s3.7-1.6,3.7-3.6C258.4,123.4,256.8,121.8,254.7,121.8z M236.3,120.6v13.3
		h1.2v-13.3H236.3z M271.9,116.9v13.3h1.2v-13.3H271.9z M239.4,115.7c-0.1,0-0.3,0.1-0.4,0.2l-2.6,2.4l0.8,0.9l1.5-1.4v19.8
		c0,2,1.7,3.6,3.7,3.6h1.2v-1.2h-1.2c-1.4,0-2.5-1.1-2.5-2.4v-19.8l1.5,1.4l0.8-0.9l-2.6-2.4C239.7,115.8,239.5,115.7,239.4,115.7z
		 M253.5,115.7h2.5v3.3c0,0.3,0.2,0.5,0.4,0.6c0.5,0.1,0.9,0.3,1.3,0.5c0.2,0.1,0.5,0.1,0.7-0.1l2.3-2.3l1.7,1.7l-2.3,2.3
		c-0.2,0.2-0.2,0.5-0.1,0.7c0.2,0.4,0.4,0.8,0.5,1.3c0.1,0.3,0.3,0.4,0.6,0.4h3.3v2.4h-3.3c-0.3,0-0.5,0.2-0.6,0.4
		c-0.1,0.5-0.3,0.9-0.6,1.3c-0.1,0.2-0.1,0.5,0.1,0.7l2.4,2.3l-1.7,1.7l-2.4-2.3c-0.2-0.2-0.5-0.2-0.7-0.1c-0.4,0.2-0.8,0.4-1.3,0.5
		c-0.3,0.1-0.4,0.3-0.4,0.6v3.3h-2.5v-3.3c0-0.3-0.2-0.5-0.4-0.6c-0.5-0.1-0.9-0.3-1.3-0.5c-0.2-0.1-0.5-0.1-0.7,0.1l-2.4,2.4
		l-1.7-1.7l2.4-2.4c0.2-0.2,0.2-0.5,0.1-0.7c-0.2-0.4-0.4-0.8-0.5-1.3c-0.1-0.3-0.3-0.4-0.6-0.4h-3.4v-2.4h3.4
		c0.3,0,0.5-0.2,0.6-0.4c0.1-0.4,0.3-0.9,0.5-1.3c0.1-0.2,0.1-0.5-0.1-0.7l-2.4-2.3l1.7-1.7l2.3,2.3c0.2,0.2,0.5,0.2,0.7,0.1
		c0.4-0.2,0.9-0.4,1.3-0.6c0.3-0.1,0.4-0.3,0.4-0.6V115.7z M271.9,114.5v1.2h1.2v-1.2H271.9z M252.9,114.5c-0.3,0-0.6,0.3-0.6,0.6
		v3.5c-0.2,0.1-0.5,0.2-0.7,0.3l-2.5-2.5c-0.2-0.2-0.6-0.2-0.9,0l-2.6,2.6c-0.2,0.2-0.2,0.6,0,0.9l2.5,2.5c-0.1,0.2-0.2,0.4-0.3,0.6
		h-3.6c-0.3,0-0.6,0.3-0.6,0.6v3.6c0,0.3,0.3,0.6,0.6,0.6h3.6c0.1,0.2,0.2,0.5,0.3,0.7l-2.5,2.5c-0.2,0.2-0.2,0.6,0,0.9l2.6,2.6
		c0.2,0.2,0.6,0.2,0.9,0l2.5-2.5c0.2,0.1,0.4,0.2,0.7,0.3v3.5c0,0.3,0.3,0.6,0.6,0.6h3.7c0.3,0,0.6-0.3,0.6-0.6v-3.5
		c0.2-0.1,0.4-0.2,0.6-0.3l2.5,2.5c0.2,0.2,0.6,0.2,0.9,0l2.6-2.6c0.2-0.2,0.2-0.6,0-0.9l-2.5-2.5c0.1-0.2,0.2-0.5,0.3-0.7h3.5
		c0.3,0,0.6-0.3,0.6-0.6v-3.6c0-0.3-0.3-0.6-0.6-0.6h-3.5c-0.1-0.2-0.2-0.5-0.3-0.7l2.5-2.4c0.2-0.2,0.2-0.6,0-0.9l-2.6-2.6
		c-0.2-0.2-0.6-0.2-0.9,0l-2.5,2.4c-0.2-0.1-0.5-0.2-0.7-0.3v-3.5c0-0.3-0.3-0.6-0.6-0.6L252.9,114.5z M271.9,112.1v1.2h1.2v-1.2
		H271.9z M271.9,109.7v1.2h1.2v-1.2H271.9z M265.8,109.7v1.2h1.2c1.4,0,2.5,1.1,2.5,2.4v19.8l-1.5-1.4l-0.8,0.9l2.6,2.4
		c0.2,0.2,0.6,0.2,0.8,0l2.6-2.4l-0.8-0.9l-1.5,1.4v-19.8c0-2-1.7-3.6-3.7-3.6H265.8z M261.9,107.3l-0.9,0.8l1.5,1.5h-20.1
		c-2,0-3.7,1.6-3.7,3.6v1.2h1.2v-1.2c0-1.4,1.1-2.4,2.5-2.4h20.1l-1.5,1.5l0.9,0.8l2.5-2.5c0.2-0.2,0.2-0.6,0-0.8L261.9,107.3z
		 M246.1,107.2v1.2h13.5v-1.2H246.1z M243.7,107.2v1.2h1.2v-1.2H243.7z M241.2,107.2v1.2h1.2v-1.2H241.2z M238.8,107.2v1.2h1.2v-1.2
		H238.8z"/>
	<text transform="matrix(0 0.9867 -1 0 276.9366 116.3929)" fill="#010101" font-family="'ArialMT'" font-size="6.2866px">Code</text>
	<text transform="matrix(0 -0.9867 1 0 232.2764 131.8958)" fill="#010101" font-family="'ArialMT'" font-size="6.2866px">Code</text>
	<text transform="matrix(1.0135 0 0 1 248.0034 150.0609)" fill="#010101" font-family="'ArialMT'" font-size="6.2027px">Docs</text>
</g>
<path d="M114.1,236.5c0,1.5-1.2,2.8-2.8,2.8l0,0c-1.5,0-2.8-1.2-2.8-2.8v-0.4c0-1.5,1.2-2.8,2.8-2.8l0,0c1.5,0,2.8,1.2,2.8,2.8
	V236.5z"/>
<rect x="295.4" y="103.5" fill="none" width="252.9" height="83.3"/>
<text transform="matrix(1 0 0 1 295.3775 113.8118)"><tspan x="0" y="0" font-family="'ArialMT'" font-size="12px">Engineer survey: “When I engage in documen</tspan><tspan x="244.1" y="0" font-family="'ArialMT'" font-size="12px">-</tspan><tspan x="0" y="14.4" font-family="'ArialMT'" font-size="12px">tation efforts, I prefer to treat documentation </tspan><tspan x="0" y="28.8" font-family="'ArialMT'" font-size="12px">like software (using Git, text editors, Markdown, </tspan><tspan x="0" y="43.2" font-family="'ArialMT'" font-size="12px">static site generators, building from the server, </tspan><tspan x="0" y="57.6" font-family="'ArialMT'" font-size="12px">etc.)” </tspan></text>
<g>
	<g>
		<g>
			<g>
				<path fill="#DADADA" d="M410.6,256.8l-31.8-43.7c9.7-7,19.8-10.3,31.8-10.3V256.8z"/>
			</g>
		</g>
		<g>
			<g>
				<path fill="#B5DDBE" d="M410.6,256.8l-16.7,51.4c-28.4-9.2-43.9-39.7-34.7-68.1c3.7-11.4,10-20,19.6-27L410.6,256.8z"/>
			</g>
		</g>
		<g>
			<g>
				<path fill="#9CB5A4" d="M410.6,256.8v-54c29.8,0,54,24.2,54,54s-24.2,54-54,54c-6,0-11-0.8-16.7-2.6L410.6,256.8z"/>
			</g>
		</g>
	</g>
	<g>
		<g>
		</g>
		<g>
		</g>
		<g>
		</g>
	</g>
</g>
<text transform="matrix(1 0 0 1 301.31 266.0593)" font-family="'ArialMT'" font-size="10px">Agree 35%</text>
<text transform="matrix(1 0 0 1 369.9299 181.5161)"><tspan x="0" y="0" font-family="'ArialMT'" font-size="10px">Disagree</tspan><tspan x="10" y="12" font-family="'ArialMT'" font-size="10px">10%</tspan></text>
<text transform="matrix(1 0 0 1 462.0648 230.5068)"><tspan x="0" y="0" font-family="'ArialMT'" font-size="10px">Strongly Agree</tspan><tspan x="23.1" y="12" font-family="'ArialMT'" font-size="10px">55%</tspan></text>
</svg>
