<?xml version="1.0" encoding="utf-8"?>
<!-- Generator: Adobe Illustrator 23.0.1, SVG Export Plug-In . SVG Version: 6.00 Build 0)  -->
<svg version="1.1" id="Layer_1" xmlns="http://www.w3.org/2000/svg" xmlns:xlink="http://www.w3.org/1999/xlink" x="0px" y="0px"
	 viewBox="0 0 600 350" enable-background="new 0 0 600 350" xml:space="preserve">
<ellipse fill="none" stroke="#010101" stroke-width="0.2237" stroke-linecap="round" stroke-miterlimit="10" cx="502.6" cy="221" rx="0.6" ry="0.5"/>
<rect x="0" y="44.1" fill="none" width="600" height="45.9"/>
<text transform="matrix(1 0 0 1 31.14 65.5092)" font-family="'ArialMT'" font-size="25px">Subject-matter familiarity a constant requirement</text>
<g>
	<path d="M81.5,269H67.9v-16.9h8.8v4.4c0,0.2,0.1,0.3,0.3,0.3l4.6,0L81.5,269z M77.2,252.5l3.9,3.7l-3.9,0V252.5z M82,256.4
		C82,256.4,82,256.3,82,256.4l-4.9-4.7c0,0-0.1-0.1-0.1-0.1H77h-9.3c-0.2,0-0.3,0.1-0.3,0.3v17.4c0,0.2,0.1,0.3,0.3,0.3h14.2
		c0.2,0,0.3-0.1,0.3-0.3v-1.1l0-11.7C82.1,256.5,82.1,256.4,82,256.4L82,256.4z"/>
	<path d="M79.6,260.5h-2.2v-2h2.2L79.6,260.5z M79.8,258.1h-2.6c-0.1,0-0.2,0.1-0.2,0.2v2.4c0,0.1,0.1,0.2,0.2,0.2h2.6
		c0.1,0,0.2-0.1,0.2-0.2l0-2.4C80,258.2,79.9,258.1,79.8,258.1L79.8,258.1z"/>
	<path d="M78,260.1c0,0,0.1,0.1,0.1,0.1h0c0,0,0.1,0,0.1-0.1l1.1-1c0.1-0.1,0.1-0.2,0-0.3c-0.1-0.1-0.2-0.1-0.3,0l-0.9,0.8l-0.3-0.4
		c-0.1-0.1-0.2-0.1-0.3-0.1c-0.1,0.1-0.1,0.2-0.1,0.3L78,260.1z"/>
	<path d="M79.6,263.7h-2.2v-2h2.2L79.6,263.7z M79.8,261.3h-2.6c-0.1,0-0.2,0.1-0.2,0.2v2.4c0,0.1,0.1,0.2,0.2,0.2h2.6
		c0.1,0,0.2-0.1,0.2-0.2l0-2.4C80,261.4,79.9,261.3,79.8,261.3L79.8,261.3z"/>
	<path d="M78,263.1c0,0,0.1,0.1,0.1,0.1h0c0,0,0.1,0,0.1-0.1l1.1-1c0.1-0.1,0.1-0.2,0-0.3c-0.1-0.1-0.2-0.1-0.3,0l-0.9,0.8l-0.3-0.4
		c-0.1-0.1-0.2-0.1-0.3-0.1c-0.1,0.1-0.1,0.2-0.1,0.3L78,263.1z"/>
	<path d="M79.6,267h-2.2v-2h2.2L79.6,267z M79.8,264.7h-2.6c-0.1,0-0.2,0.1-0.2,0.2v2.4c0,0.1,0.1,0.2,0.2,0.2h2.6
		c0.1,0,0.2-0.1,0.2-0.2l0-2.4C80,264.7,79.9,264.7,79.8,264.7L79.8,264.7z"/>
	<path d="M78,266.5c0,0,0.1,0.1,0.1,0.1h0c0,0,0.1,0,0.1-0.1l1.1-1c0.1-0.1,0.1-0.2,0-0.3c-0.1-0.1-0.2-0.1-0.3,0l-0.9,0.8l-0.3-0.4
		c-0.1-0.1-0.2-0.1-0.3-0.1s-0.1,0.2-0.1,0.3L78,266.5z"/>
	<path d="M69.6,257.7c0-0.8,0.6-1.4,1.4-1.4h1.9c0.8,0,1.4,0.6,1.4,1.4v0.6h-4.6L69.6,257.7z M71.9,253.2c0.6,0,1.1,0.5,1.1,1.1
		s-0.5,1.1-1.1,1.1c-0.6,0-1.1-0.5-1.1-1.1C70.8,253.7,71.3,253.2,71.9,253.2z M69.3,258.8h5.2c0.2,0,0.3-0.1,0.3-0.3v-0.8
		c0-1.1-0.9-1.9-1.9-1.9h0c0.5-0.3,0.8-0.8,0.8-1.4c0-0.9-0.8-1.7-1.7-1.7c-0.9,0-1.7,0.8-1.7,1.7c0,0.6,0.3,1.1,0.8,1.4H71
		c-1.1,0-1.9,0.9-1.9,1.9v0.8C69.1,258.7,69.2,258.8,69.3,258.8L69.3,258.8z"/>
	<path d="M69.4,259.9c-0.2,0-0.3,0.1-0.3,0.3c0,0.2,0.1,0.3,0.3,0.3l5.3,0c0.2,0,0.3-0.1,0.3-0.3c0-0.2-0.1-0.3-0.3-0.3L69.4,259.9z
		"/>
	<path d="M74.7,261.7h-5.3c-0.2,0-0.3,0.1-0.3,0.3c0,0.2,0.1,0.3,0.3,0.3l5.3,0c0.2,0,0.3-0.1,0.3-0.3
		C75,261.9,74.9,261.7,74.7,261.7L74.7,261.7z"/>
	<path d="M74.9,263.6h-5.6c-0.1,0-0.1,0.1-0.1,0.3c0,0.2,0.1,0.3,0.1,0.3l5.6,0c0.1,0,0.1-0.1,0.1-0.3C75,263.7,75,263.6,74.9,263.6
		L74.9,263.6z"/>
	<path d="M74.9,265.5h-5.6c-0.1,0-0.1,0.1-0.1,0.3c0,0.2,0.1,0.3,0.1,0.3l5.6,0c0.1,0,0.1-0.1,0.1-0.3C75,265.6,75,265.5,74.9,265.5
		L74.9,265.5z"/>
	<path d="M74.9,267.4h-5.6c-0.1,0-0.1,0.1-0.1,0.3c0,0.2,0.1,0.3,0.1,0.3l5.6,0c0.1,0,0.1-0.1,0.1-0.3C75,267.5,75,267.4,74.9,267.4
		z"/>
</g>
<g>
	<path d="M103.1,269H89.5v-16.9h8.8v4.4c0,0.2,0.1,0.3,0.3,0.3l4.6,0L103.1,269z M98.8,252.5l3.9,3.7l-3.9,0V252.5z M103.6,256.4
		C103.6,256.4,103.6,256.3,103.6,256.4l-4.9-4.7c0,0-0.1-0.1-0.1-0.1h-0.1h-9.3c-0.2,0-0.3,0.1-0.3,0.3v17.4c0,0.2,0.1,0.3,0.3,0.3
		h14.2c0.2,0,0.3-0.1,0.3-0.3v-1.1l0-11.7C103.6,256.5,103.6,256.4,103.6,256.4L103.6,256.4z"/>
	<path d="M101.2,260.5h-2.2v-2h2.2L101.2,260.5z M101.4,258.1h-2.6c-0.1,0-0.2,0.1-0.2,0.2v2.4c0,0.1,0.1,0.2,0.2,0.2h2.6
		c0.1,0,0.2-0.1,0.2-0.2l0-2.4C101.5,258.2,101.5,258.1,101.4,258.1L101.4,258.1z"/>
	<path d="M99.6,260.1c0,0,0.1,0.1,0.1,0.1h0c0,0,0.1,0,0.1-0.1l1.1-1c0.1-0.1,0.1-0.2,0-0.3c-0.1-0.1-0.2-0.1-0.3,0l-0.9,0.8
		l-0.3-0.4c-0.1-0.1-0.2-0.1-0.3-0.1c-0.1,0.1-0.1,0.2-0.1,0.3L99.6,260.1z"/>
	<path d="M101.2,263.7h-2.2v-2h2.2L101.2,263.7z M101.4,261.3h-2.6c-0.1,0-0.2,0.1-0.2,0.2v2.4c0,0.1,0.1,0.2,0.2,0.2h2.6
		c0.1,0,0.2-0.1,0.2-0.2l0-2.4C101.6,261.4,101.5,261.3,101.4,261.3L101.4,261.3z"/>
	<path d="M99.6,263.1c0,0,0.1,0.1,0.1,0.1h0c0,0,0.1,0,0.1-0.1l1.1-1c0.1-0.1,0.1-0.2,0-0.3c-0.1-0.1-0.2-0.1-0.3,0l-0.9,0.8
		l-0.3-0.4c-0.1-0.1-0.2-0.1-0.3-0.1c-0.1,0.1-0.1,0.2-0.1,0.3L99.6,263.1z"/>
	<path d="M101.2,267h-2.2v-2h2.2L101.2,267z M101.4,264.7h-2.6c-0.1,0-0.2,0.1-0.2,0.2v2.4c0,0.1,0.1,0.2,0.2,0.2h2.6
		c0.1,0,0.2-0.1,0.2-0.2l0-2.4C101.6,264.7,101.5,264.7,101.4,264.7L101.4,264.7z"/>
	<path d="M99.5,266.5c0,0,0.1,0.1,0.1,0.1h0c0,0,0.1,0,0.1-0.1l1.1-1c0.1-0.1,0.1-0.2,0-0.3c-0.1-0.1-0.2-0.1-0.3,0l-0.9,0.8
		l-0.3-0.4c-0.1-0.1-0.2-0.1-0.3-0.1s-0.1,0.2-0.1,0.3L99.5,266.5z"/>
	<path d="M91.2,257.7c0-0.8,0.6-1.4,1.4-1.4h1.9c0.8,0,1.4,0.6,1.4,1.4v0.6h-4.6L91.2,257.7z M93.5,253.2c0.6,0,1.1,0.5,1.1,1.1
		s-0.5,1.1-1.1,1.1c-0.6,0-1.1-0.5-1.1-1.1C92.4,253.7,92.9,253.2,93.5,253.2z M90.9,258.8h5.2c0.2,0,0.3-0.1,0.3-0.3v-0.8
		c0-1.1-0.9-1.9-1.9-1.9h0c0.5-0.3,0.8-0.8,0.8-1.4c0-0.9-0.8-1.7-1.7-1.7s-1.7,0.8-1.7,1.7c0,0.6,0.3,1.1,0.8,1.4h-0.1
		c-1.1,0-1.9,0.9-1.9,1.9v0.8C90.6,258.7,90.8,258.8,90.9,258.8L90.9,258.8z"/>
	<path d="M91,259.9c-0.2,0-0.3,0.1-0.3,0.3c0,0.2,0.1,0.3,0.3,0.3l5.3,0c0.2,0,0.3-0.1,0.3-0.3c0-0.2-0.1-0.3-0.3-0.3L91,259.9z"/>
	<path d="M96.3,261.7H91c-0.2,0-0.3,0.1-0.3,0.3c0,0.2,0.1,0.3,0.3,0.3l5.3,0c0.2,0,0.3-0.1,0.3-0.3
		C96.5,261.9,96.4,261.7,96.3,261.7L96.3,261.7z"/>
	<path d="M96.5,263.6h-5.6c-0.1,0-0.1,0.1-0.1,0.3c0,0.2,0.1,0.3,0.1,0.3l5.6,0c0.1,0,0.1-0.1,0.1-0.3
		C96.6,263.7,96.6,263.6,96.5,263.6L96.5,263.6z"/>
	<path d="M96.5,265.5h-5.6c-0.1,0-0.1,0.1-0.1,0.3c0,0.2,0.1,0.3,0.1,0.3l5.6,0c0.1,0,0.1-0.1,0.1-0.3
		C96.6,265.6,96.6,265.5,96.5,265.5L96.5,265.5z"/>
	<path d="M96.5,267.4h-5.6c-0.1,0-0.1,0.1-0.1,0.3c0,0.2,0.1,0.3,0.1,0.3l5.6,0c0.1,0,0.1-0.1,0.1-0.3
		C96.6,267.5,96.6,267.4,96.5,267.4z"/>
</g>
<path d="M124.7,269H111v-16.9h8.8v4.4c0,0.2,0.1,0.3,0.3,0.3l4.6,0L124.7,269z M120.4,252.5l3.9,3.7l-3.9,0V252.5z M125.2,256.4
	C125.2,256.4,125.2,256.3,125.2,256.4l-4.9-4.7c0,0-0.1-0.1-0.1-0.1h-0.1h-9.3c-0.2,0-0.3,0.1-0.3,0.3v17.4c0,0.2,0.1,0.3,0.3,0.3
	h14.2c0.2,0,0.3-0.1,0.3-0.3v-1.1l0-11.7C125.2,256.5,125.2,256.4,125.2,256.4L125.2,256.4z"/>
<path d="M122.7,260.5h-2.2v-2h2.2L122.7,260.5z M122.9,258.1h-2.6c-0.1,0-0.2,0.1-0.2,0.2v2.4c0,0.1,0.1,0.2,0.2,0.2h2.6
	c0.1,0,0.2-0.1,0.2-0.2l0-2.4C123.1,258.2,123,258.1,122.9,258.1L122.9,258.1z"/>
<path d="M121.2,260.1c0,0,0.1,0.1,0.1,0.1h0c0,0,0.1,0,0.1-0.1l1.1-1c0.1-0.1,0.1-0.2,0-0.3c-0.1-0.1-0.2-0.1-0.3,0l-0.9,0.8
	l-0.3-0.4c-0.1-0.1-0.2-0.1-0.3-0.1c-0.1,0.1-0.1,0.2-0.1,0.3L121.2,260.1z"/>
<path d="M122.8,263.7h-2.2v-2h2.2L122.8,263.7z M123,261.3h-2.6c-0.1,0-0.2,0.1-0.2,0.2v2.4c0,0.1,0.1,0.2,0.2,0.2h2.6
	c0.1,0,0.2-0.1,0.2-0.2l0-2.4C123.1,261.4,123.1,261.3,123,261.3L123,261.3z"/>
<path d="M121.2,263.1c0,0,0.1,0.1,0.1,0.1h0c0,0,0.1,0,0.1-0.1l1.1-1c0.1-0.1,0.1-0.2,0-0.3c-0.1-0.1-0.2-0.1-0.3,0l-0.9,0.8
	l-0.3-0.4c-0.1-0.1-0.2-0.1-0.3-0.1c-0.1,0.1-0.1,0.2-0.1,0.3L121.2,263.1z"/>
<path d="M122.8,267h-2.2v-2h2.2L122.8,267z M123,264.7h-2.6c-0.1,0-0.2,0.1-0.2,0.2v2.4c0,0.1,0.1,0.2,0.2,0.2h2.6
	c0.1,0,0.2-0.1,0.2-0.2l0-2.4C123.1,264.7,123.1,264.7,123,264.7L123,264.7z"/>
<path d="M121.1,266.5c0,0,0.1,0.1,0.1,0.1h0c0,0,0.1,0,0.1-0.1l1.1-1c0.1-0.1,0.1-0.2,0-0.3c-0.1-0.1-0.2-0.1-0.3,0l-0.9,0.8
	l-0.3-0.4c-0.1-0.1-0.2-0.1-0.3-0.1s-0.1,0.2-0.1,0.3L121.1,266.5z"/>
<path d="M112.8,257.7c0-0.8,0.6-1.4,1.4-1.4h1.9c0.8,0,1.4,0.6,1.4,1.4v0.6h-4.6L112.8,257.7z M115.1,253.2c0.6,0,1.1,0.5,1.1,1.1
	s-0.5,1.1-1.1,1.1c-0.6,0-1.1-0.5-1.1-1.1C114,253.7,114.5,253.2,115.1,253.2z M112.5,258.8h5.2c0.2,0,0.3-0.1,0.3-0.3v-0.8
	c0-1.1-0.9-1.9-1.9-1.9h0c0.5-0.3,0.8-0.8,0.8-1.4c0-0.9-0.8-1.7-1.7-1.7s-1.7,0.8-1.7,1.7c0,0.6,0.3,1.1,0.8,1.4h-0.1
	c-1.1,0-1.9,0.9-1.9,1.9v0.8C112.2,258.7,112.3,258.8,112.5,258.8L112.5,258.8z"/>
<path d="M112.6,259.9c-0.2,0-0.3,0.1-0.3,0.3c0,0.2,0.1,0.3,0.3,0.3l5.3,0c0.2,0,0.3-0.1,0.3-0.3c0-0.2-0.1-0.3-0.3-0.3L112.6,259.9
	z"/>
<path d="M117.8,261.7h-5.3c-0.2,0-0.3,0.1-0.3,0.3c0,0.2,0.1,0.3,0.3,0.3l5.3,0c0.2,0,0.3-0.1,0.3-0.3
	C118.1,261.9,118,261.7,117.8,261.7L117.8,261.7z"/>
<path d="M118.1,263.6h-5.6c-0.1,0-0.1,0.1-0.1,0.3c0,0.2,0.1,0.3,0.1,0.3l5.6,0c0.1,0,0.1-0.1,0.1-0.3
	C118.2,263.7,118.1,263.6,118.1,263.6L118.1,263.6z"/>
<path d="M118.1,265.5h-5.6c-0.1,0-0.1,0.1-0.1,0.3c0,0.2,0.1,0.3,0.1,0.3l5.6,0c0.1,0,0.1-0.1,0.1-0.3
	C118.2,265.6,118.1,265.5,118.1,265.5L118.1,265.5z"/>
<path d="M118.1,267.4h-5.6c-0.1,0-0.1,0.1-0.1,0.3c0,0.2,0.1,0.3,0.1,0.3l5.6,0c0.1,0,0.1-0.1,0.1-0.3
	C118.2,267.5,118.1,267.4,118.1,267.4z"/>
<g>
	<path d="M81.9,289.2H68.2v-16.9H77v4.4c0,0.2,0.1,0.3,0.3,0.3l4.6,0L81.9,289.2z M77.6,272.7l3.9,3.7l-3.9,0V272.7z M82.4,276.6
		C82.4,276.5,82.4,276.5,82.4,276.6l-4.9-4.7c0,0-0.1-0.1-0.1-0.1h-0.1H68c-0.2,0-0.3,0.1-0.3,0.3v17.4c0,0.2,0.1,0.3,0.3,0.3h14.2
		c0.2,0,0.3-0.1,0.3-0.3v-1.1l0-11.7C82.4,276.7,82.4,276.6,82.4,276.6L82.4,276.6z"/>
	<path d="M79.9,280.7h-2.2v-2h2.2L79.9,280.7z M80.1,278.3h-2.6c-0.1,0-0.2,0.1-0.2,0.2v2.4c0,0.1,0.1,0.2,0.2,0.2h2.6
		c0.1,0,0.2-0.1,0.2-0.2l0-2.4C80.3,278.4,80.2,278.3,80.1,278.3L80.1,278.3z"/>
	<path d="M78.4,280.2c0,0,0.1,0.1,0.1,0.1h0c0,0,0.1,0,0.1-0.1l1.1-1c0.1-0.1,0.1-0.2,0-0.3c-0.1-0.1-0.2-0.1-0.3,0l-0.9,0.8
		l-0.3-0.4c-0.1-0.1-0.2-0.1-0.3-0.1s-0.1,0.2-0.1,0.3L78.4,280.2z"/>
	<path d="M80,283.9h-2.2v-2H80L80,283.9z M80.2,281.5h-2.6c-0.1,0-0.2,0.1-0.2,0.2v2.4c0,0.1,0.1,0.2,0.2,0.2h2.6
		c0.1,0,0.2-0.1,0.2-0.2l0-2.4C80.3,281.6,80.3,281.5,80.2,281.5L80.2,281.5z"/>
	<path d="M78.4,283.3c0,0,0.1,0.1,0.1,0.1h0c0,0,0.1,0,0.1-0.1l1.1-1c0.1-0.1,0.1-0.2,0-0.3c-0.1-0.1-0.2-0.1-0.3,0l-0.9,0.8
		l-0.3-0.4c-0.1-0.1-0.2-0.1-0.3-0.1s-0.1,0.2-0.1,0.3L78.4,283.3z"/>
	<path d="M80,287.2h-2.2v-2H80L80,287.2z M80.2,284.8h-2.6c-0.1,0-0.2,0.1-0.2,0.2v2.4c0,0.1,0.1,0.2,0.2,0.2h2.6
		c0.1,0,0.2-0.1,0.2-0.2l0-2.4C80.3,284.9,80.3,284.8,80.2,284.8L80.2,284.8z"/>
	<path d="M78.3,286.7c0,0,0.1,0.1,0.1,0.1h0c0,0,0.1,0,0.1-0.1l1.1-1c0.1-0.1,0.1-0.2,0-0.3c-0.1-0.1-0.2-0.1-0.3,0l-0.9,0.8
		l-0.3-0.4c-0.1-0.1-0.2-0.1-0.3-0.1c-0.1,0.1-0.1,0.2-0.1,0.3L78.3,286.7z"/>
	<path d="M70,277.9c0-0.8,0.6-1.4,1.4-1.4h1.9c0.8,0,1.4,0.6,1.4,1.4v0.6H70L70,277.9z M72.3,273.4c0.6,0,1.1,0.5,1.1,1.1
		s-0.5,1.1-1.1,1.1c-0.6,0-1.1-0.5-1.1-1.1C71.2,273.9,71.7,273.4,72.3,273.4z M69.7,279h5.2c0.2,0,0.3-0.1,0.3-0.3v-0.8
		c0-1.1-0.9-1.9-1.9-1.9h0c0.5-0.3,0.8-0.8,0.8-1.4c0-0.9-0.8-1.7-1.7-1.7s-1.7,0.8-1.7,1.7c0,0.6,0.3,1.1,0.8,1.4h-0.1
		c-1.1,0-1.9,0.9-1.9,1.9v0.8C69.4,278.8,69.5,279,69.7,279L69.7,279z"/>
	<path d="M69.8,280.1c-0.2,0-0.3,0.1-0.3,0.3c0,0.2,0.1,0.3,0.3,0.3l5.3,0c0.2,0,0.3-0.1,0.3-0.3c0-0.2-0.1-0.3-0.3-0.3L69.8,280.1z
		"/>
	<path d="M75,281.9h-5.3c-0.2,0-0.3,0.1-0.3,0.3c0,0.2,0.1,0.3,0.3,0.3l5.3,0c0.2,0,0.3-0.1,0.3-0.3C75.3,282.1,75.2,281.9,75,281.9
		L75,281.9z"/>
	<path d="M75.3,283.8h-5.6c-0.1,0-0.1,0.1-0.1,0.3c0,0.2,0.1,0.3,0.1,0.3l5.6,0c0.1,0,0.1-0.1,0.1-0.3
		C75.4,283.9,75.3,283.8,75.3,283.8L75.3,283.8z"/>
	<path d="M75.3,285.7h-5.6c-0.1,0-0.1,0.1-0.1,0.3c0,0.2,0.1,0.3,0.1,0.3l5.6,0c0.1,0,0.1-0.1,0.1-0.3
		C75.4,285.8,75.3,285.7,75.3,285.7L75.3,285.7z"/>
	<path d="M75.3,287.5h-5.6c-0.1,0-0.1,0.1-0.1,0.3c0,0.2,0.1,0.3,0.1,0.3l5.6,0c0.1,0,0.1-0.1,0.1-0.3
		C75.4,287.6,75.3,287.5,75.3,287.5z"/>
</g>
<g>
	<path d="M103.4,289.2H89.8v-16.9h8.8v4.4c0,0.2,0.1,0.3,0.3,0.3l4.6,0L103.4,289.2z M99.2,272.7l3.9,3.7l-3.9,0V272.7z M104,276.6
		C103.9,276.5,103.9,276.5,104,276.6l-4.9-4.7c0,0-0.1-0.1-0.1-0.1h-0.1h-9.3c-0.2,0-0.3,0.1-0.3,0.3v17.4c0,0.2,0.1,0.3,0.3,0.3
		h14.2c0.2,0,0.3-0.1,0.3-0.3v-1.1l0-11.7C104,276.7,104,276.6,104,276.6L104,276.6z"/>
	<path d="M101.5,280.7h-2.2v-2h2.2L101.5,280.7z M101.7,278.3h-2.6c-0.1,0-0.2,0.1-0.2,0.2v2.4c0,0.1,0.1,0.2,0.2,0.2h2.6
		c0.1,0,0.2-0.1,0.2-0.2l0-2.4C101.9,278.4,101.8,278.3,101.7,278.3L101.7,278.3z"/>
	<path d="M99.9,280.2c0,0,0.1,0.1,0.1,0.1h0c0,0,0.1,0,0.1-0.1l1.1-1c0.1-0.1,0.1-0.2,0-0.3c-0.1-0.1-0.2-0.1-0.3,0l-0.9,0.8
		l-0.3-0.4c-0.1-0.1-0.2-0.1-0.3-0.1s-0.1,0.2-0.1,0.3L99.9,280.2z"/>
	<path d="M101.5,283.9h-2.2v-2h2.2L101.5,283.9z M101.7,281.5h-2.6c-0.1,0-0.2,0.1-0.2,0.2v2.4c0,0.1,0.1,0.2,0.2,0.2h2.6
		c0.1,0,0.2-0.1,0.2-0.2l0-2.4C101.9,281.6,101.8,281.5,101.7,281.5L101.7,281.5z"/>
	<path d="M99.9,283.3c0,0,0.1,0.1,0.1,0.1h0c0,0,0.1,0,0.1-0.1l1.1-1c0.1-0.1,0.1-0.2,0-0.3c-0.1-0.1-0.2-0.1-0.3,0l-0.9,0.8
		l-0.3-0.4c-0.1-0.1-0.2-0.1-0.3-0.1s-0.1,0.2-0.1,0.3L99.9,283.3z"/>
	<path d="M101.5,287.2h-2.2v-2h2.2L101.5,287.2z M101.7,284.8h-2.6c-0.1,0-0.2,0.1-0.2,0.2v2.4c0,0.1,0.1,0.2,0.2,0.2h2.6
		c0.1,0,0.2-0.1,0.2-0.2l0-2.4C101.9,284.9,101.8,284.8,101.7,284.8L101.7,284.8z"/>
	<path d="M99.9,286.7c0,0,0.1,0.1,0.1,0.1h0c0,0,0.1,0,0.1-0.1l1.1-1c0.1-0.1,0.1-0.2,0-0.3c-0.1-0.1-0.2-0.1-0.3,0l-0.9,0.8
		l-0.3-0.4c-0.1-0.1-0.2-0.1-0.3-0.1c-0.1,0.1-0.1,0.2-0.1,0.3L99.9,286.7z"/>
	<path d="M91.5,277.9c0-0.8,0.6-1.4,1.4-1.4h1.9c0.8,0,1.4,0.6,1.4,1.4v0.6h-4.6L91.5,277.9z M93.9,273.4c0.6,0,1.1,0.5,1.1,1.1
		s-0.5,1.1-1.1,1.1c-0.6,0-1.1-0.5-1.1-1.1C92.7,273.9,93.2,273.4,93.9,273.4z M91.3,279h5.2c0.2,0,0.3-0.1,0.3-0.3v-0.8
		c0-1.1-0.9-1.9-1.9-1.9h0c0.5-0.3,0.8-0.8,0.8-1.4c0-0.9-0.8-1.7-1.7-1.7c-0.9,0-1.7,0.8-1.7,1.7c0,0.6,0.3,1.1,0.8,1.4h-0.1
		c-1.1,0-1.9,0.9-1.9,1.9v0.8C91,278.8,91.1,279,91.3,279L91.3,279z"/>
	<path d="M91.3,280.1c-0.2,0-0.3,0.1-0.3,0.3c0,0.2,0.1,0.3,0.3,0.3l5.3,0c0.2,0,0.3-0.1,0.3-0.3c0-0.2-0.1-0.3-0.3-0.3L91.3,280.1z
		"/>
	<path d="M96.6,281.9h-5.3c-0.2,0-0.3,0.1-0.3,0.3c0,0.2,0.1,0.3,0.3,0.3l5.3,0c0.2,0,0.3-0.1,0.3-0.3
		C96.9,282.1,96.8,281.9,96.6,281.9L96.6,281.9z"/>
	<path d="M96.8,283.8h-5.6c-0.1,0-0.1,0.1-0.1,0.3c0,0.2,0.1,0.3,0.1,0.3l5.6,0c0.1,0,0.1-0.1,0.1-0.3
		C97,283.9,96.9,283.8,96.8,283.8L96.8,283.8z"/>
	<path d="M96.8,285.7h-5.6c-0.1,0-0.1,0.1-0.1,0.3c0,0.2,0.1,0.3,0.1,0.3l5.6,0c0.1,0,0.1-0.1,0.1-0.3
		C97,285.8,96.9,285.7,96.8,285.7L96.8,285.7z"/>
	<path d="M96.8,287.5h-5.6c-0.1,0-0.1,0.1-0.1,0.3c0,0.2,0.1,0.3,0.1,0.3l5.6,0c0.1,0,0.1-0.1,0.1-0.3
		C97,287.6,96.9,287.5,96.8,287.5z"/>
</g>
<g>
	<path d="M125,289.2h-13.6v-16.9h8.8v4.4c0,0.2,0.1,0.3,0.3,0.3l4.6,0L125,289.2z M120.7,272.7l3.9,3.7l-3.9,0V272.7z M125.5,276.6
		C125.5,276.5,125.5,276.5,125.5,276.6l-4.9-4.7c0,0-0.1-0.1-0.1-0.1h-0.1h-9.3c-0.2,0-0.3,0.1-0.3,0.3v17.4c0,0.2,0.1,0.3,0.3,0.3
		h14.2c0.2,0,0.3-0.1,0.3-0.3v-1.1l0-11.7C125.6,276.7,125.6,276.6,125.5,276.6L125.5,276.6z"/>
	<path d="M123.1,280.7h-2.2v-2h2.2L123.1,280.7z M123.3,278.3h-2.6c-0.1,0-0.2,0.1-0.2,0.2v2.4c0,0.1,0.1,0.2,0.2,0.2h2.6
		c0.1,0,0.2-0.1,0.2-0.2l0-2.4C123.5,278.4,123.4,278.3,123.3,278.3L123.3,278.3z"/>
	<path d="M121.5,280.2c0,0,0.1,0.1,0.1,0.1h0c0,0,0.1,0,0.1-0.1l1.1-1c0.1-0.1,0.1-0.2,0-0.3c-0.1-0.1-0.2-0.1-0.3,0l-0.9,0.8
		l-0.3-0.4c-0.1-0.1-0.2-0.1-0.3-0.1s-0.1,0.2-0.1,0.3L121.5,280.2z"/>
	<path d="M123.1,283.9h-2.2v-2h2.2L123.1,283.9z M123.3,281.5h-2.6c-0.1,0-0.2,0.1-0.2,0.2v2.4c0,0.1,0.1,0.2,0.2,0.2h2.6
		c0.1,0,0.2-0.1,0.2-0.2l0-2.4C123.5,281.6,123.4,281.5,123.3,281.5L123.3,281.5z"/>
	<path d="M121.5,283.3c0,0,0.1,0.1,0.1,0.1h0c0,0,0.1,0,0.1-0.1l1.1-1c0.1-0.1,0.1-0.2,0-0.3c-0.1-0.1-0.2-0.1-0.3,0l-0.9,0.8
		l-0.3-0.4c-0.1-0.1-0.2-0.1-0.3-0.1s-0.1,0.2-0.1,0.3L121.5,283.3z"/>
	<path d="M123.1,287.2h-2.2v-2h2.2L123.1,287.2z M123.3,284.8h-2.6c-0.1,0-0.2,0.1-0.2,0.2v2.4c0,0.1,0.1,0.2,0.2,0.2h2.6
		c0.1,0,0.2-0.1,0.2-0.2l0-2.4C123.5,284.9,123.4,284.8,123.3,284.8L123.3,284.8z"/>
	<path d="M121.5,286.7c0,0,0.1,0.1,0.1,0.1h0c0,0,0.1,0,0.1-0.1l1.1-1c0.1-0.1,0.1-0.2,0-0.3c-0.1-0.1-0.2-0.1-0.3,0l-0.9,0.8
		l-0.3-0.4c-0.1-0.1-0.2-0.1-0.3-0.1c-0.1,0.1-0.1,0.2-0.1,0.3L121.5,286.7z"/>
	<path d="M113.1,277.9c0-0.8,0.6-1.4,1.4-1.4h1.9c0.8,0,1.4,0.6,1.4,1.4v0.6h-4.6L113.1,277.9z M115.4,273.4c0.6,0,1.1,0.5,1.1,1.1
		s-0.5,1.1-1.1,1.1c-0.6,0-1.1-0.5-1.1-1.1C114.3,273.9,114.8,273.4,115.4,273.4z M112.8,279h5.2c0.2,0,0.3-0.1,0.3-0.3v-0.8
		c0-1.1-0.9-1.9-1.9-1.9h0c0.5-0.3,0.8-0.8,0.8-1.4c0-0.9-0.8-1.7-1.7-1.7c-0.9,0-1.7,0.8-1.7,1.7c0,0.6,0.3,1.1,0.8,1.4h-0.1
		c-1.1,0-1.9,0.9-1.9,1.9v0.8C112.6,278.8,112.7,279,112.8,279L112.8,279z"/>
	<path d="M112.9,280.1c-0.2,0-0.3,0.1-0.3,0.3c0,0.2,0.1,0.3,0.3,0.3l5.3,0c0.2,0,0.3-0.1,0.3-0.3c0-0.2-0.1-0.3-0.3-0.3
		L112.9,280.1z"/>
	<path d="M118.2,281.9h-5.3c-0.2,0-0.3,0.1-0.3,0.3c0,0.2,0.1,0.3,0.3,0.3l5.3,0c0.2,0,0.3-0.1,0.3-0.3
		C118.5,282.1,118.4,281.9,118.2,281.9L118.2,281.9z"/>
	<path d="M118.4,283.8h-5.6c-0.1,0-0.1,0.1-0.1,0.3c0,0.2,0.1,0.3,0.1,0.3l5.6,0c0.1,0,0.1-0.1,0.1-0.3
		C118.6,283.9,118.5,283.8,118.4,283.8L118.4,283.8z"/>
	<path d="M118.4,285.7h-5.6c-0.1,0-0.1,0.1-0.1,0.3c0,0.2,0.1,0.3,0.1,0.3l5.6,0c0.1,0,0.1-0.1,0.1-0.3
		C118.6,285.8,118.5,285.7,118.4,285.7L118.4,285.7z"/>
	<path d="M118.4,287.5h-5.6c-0.1,0-0.1,0.1-0.1,0.3c0,0.2,0.1,0.3,0.1,0.3l5.6,0c0.1,0,0.1-0.1,0.1-0.3
		C118.6,287.6,118.5,287.5,118.4,287.5z"/>
</g>
<g>
	<path d="M81.9,309.1H68.3v-16.9h8.8v4.4c0,0.2,0.1,0.3,0.3,0.3l4.6,0L81.9,309.1z M77.7,292.6l3.9,3.7l-3.9,0V292.6z M82.5,296.5
		C82.4,296.4,82.4,296.4,82.5,296.5l-4.9-4.7c0,0-0.1-0.1-0.1-0.1h-0.1H68c-0.2,0-0.3,0.1-0.3,0.3v17.4c0,0.2,0.1,0.3,0.3,0.3h14.2
		c0.2,0,0.3-0.1,0.3-0.3v-1.1l0-11.7C82.5,296.6,82.5,296.5,82.5,296.5L82.5,296.5z"/>
	<path d="M80,300.6h-2.2v-2H80L80,300.6z M80.2,298.2h-2.6c-0.1,0-0.2,0.1-0.2,0.2v2.4c0,0.1,0.1,0.2,0.2,0.2h2.6
		c0.1,0,0.2-0.1,0.2-0.2l0-2.4C80.4,298.3,80.3,298.2,80.2,298.2L80.2,298.2z"/>
	<path d="M78.4,300.2c0,0,0.1,0.1,0.1,0.1h0c0,0,0.1,0,0.1-0.1l1.1-1c0.1-0.1,0.1-0.2,0-0.3c-0.1-0.1-0.2-0.1-0.3,0l-0.9,0.8
		l-0.3-0.4c-0.1-0.1-0.2-0.1-0.3-0.1c-0.1,0.1-0.1,0.2-0.1,0.3L78.4,300.2z"/>
	<path d="M80.1,303.8h-2.2v-2h2.2L80.1,303.8z M80.2,301.4h-2.6c-0.1,0-0.2,0.1-0.2,0.2v2.4c0,0.1,0.1,0.2,0.2,0.2h2.6
		c0.1,0,0.2-0.1,0.2-0.2l0-2.4C80.4,301.5,80.3,301.4,80.2,301.4L80.2,301.4z"/>
	<path d="M78.4,303.2c0,0,0.1,0.1,0.1,0.1h0c0,0,0.1,0,0.1-0.1l1.1-1c0.1-0.1,0.1-0.2,0-0.3c-0.1-0.1-0.2-0.1-0.3,0l-0.9,0.8
		l-0.3-0.4c-0.1-0.1-0.2-0.1-0.3-0.1c-0.1,0.1-0.1,0.2-0.1,0.3L78.4,303.2z"/>
	<path d="M80.1,307.1h-2.2v-2h2.2L80.1,307.1z M80.2,304.7h-2.6c-0.1,0-0.2,0.1-0.2,0.2v2.4c0,0.1,0.1,0.2,0.2,0.2h2.6
		c0.1,0,0.2-0.1,0.2-0.2l0-2.4C80.4,304.8,80.3,304.7,80.2,304.7L80.2,304.7z"/>
	<path d="M78.4,306.6c0,0,0.1,0.1,0.1,0.1h0c0,0,0.1,0,0.1-0.1l1.1-1c0.1-0.1,0.1-0.2,0-0.3c-0.1-0.1-0.2-0.1-0.3,0l-0.9,0.8
		l-0.3-0.4c-0.1-0.1-0.2-0.1-0.3-0.1S78,305.9,78,306L78.4,306.6z"/>
	<path d="M70,297.8c0-0.8,0.6-1.4,1.4-1.4h1.9c0.8,0,1.4,0.6,1.4,1.4v0.6H70L70,297.8z M72.4,293.3c0.6,0,1.1,0.5,1.1,1.1
		c0,0.6-0.5,1.1-1.1,1.1c-0.6,0-1.1-0.5-1.1-1.1C71.2,293.8,71.8,293.3,72.4,293.3z M69.8,298.9h5.2c0.2,0,0.3-0.1,0.3-0.3v-0.8
		c0-1.1-0.9-1.9-1.9-1.9h0c0.5-0.3,0.8-0.8,0.8-1.4c0-0.9-0.8-1.7-1.7-1.7s-1.7,0.8-1.7,1.7c0,0.6,0.3,1.1,0.8,1.4h-0.1
		c-1.1,0-1.9,0.9-1.9,1.9v0.8C69.5,298.8,69.6,298.9,69.8,298.9L69.8,298.9z"/>
	<path d="M69.8,300c-0.2,0-0.3,0.1-0.3,0.3c0,0.2,0.1,0.3,0.3,0.3l5.3,0c0.2,0,0.3-0.1,0.3-0.3c0-0.2-0.1-0.3-0.3-0.3L69.8,300z"/>
	<path d="M75.1,301.8h-5.3c-0.2,0-0.3,0.1-0.3,0.3c0,0.2,0.1,0.3,0.3,0.3l5.3,0c0.2,0,0.3-0.1,0.3-0.3
		C75.4,302,75.3,301.8,75.1,301.8L75.1,301.8z"/>
	<path d="M75.3,303.7h-5.6c-0.1,0-0.1,0.1-0.1,0.3c0,0.2,0.1,0.3,0.1,0.3l5.6,0c0.1,0,0.1-0.1,0.1-0.3
		C75.5,303.8,75.4,303.7,75.3,303.7L75.3,303.7z"/>
	<path d="M75.3,305.6h-5.6c-0.1,0-0.1,0.1-0.1,0.3c0,0.2,0.1,0.3,0.1,0.3l5.6,0c0.1,0,0.1-0.1,0.1-0.3
		C75.5,305.7,75.4,305.6,75.3,305.6L75.3,305.6z"/>
	<path d="M75.3,307.5h-5.6c-0.1,0-0.1,0.1-0.1,0.3c0,0.2,0.1,0.3,0.1,0.3l5.6,0c0.1,0,0.1-0.1,0.1-0.3
		C75.5,307.6,75.4,307.5,75.3,307.5z"/>
</g>
<g>
	<path d="M103.5,309.1H89.9v-16.9h8.8v4.4c0,0.2,0.1,0.3,0.3,0.3l4.6,0L103.5,309.1z M99.2,292.6l3.9,3.7l-3.9,0V292.6z M104,296.5
		C104,296.4,104,296.4,104,296.5l-4.9-4.7c0,0-0.1-0.1-0.1-0.1H99h-9.3c-0.2,0-0.3,0.1-0.3,0.3v17.4c0,0.2,0.1,0.3,0.3,0.3h14.2
		c0.2,0,0.3-0.1,0.3-0.3v-1.1l0-11.7C104.1,296.6,104.1,296.5,104,296.5L104,296.5z"/>
	<path d="M101.6,300.6h-2.2v-2h2.2L101.6,300.6z M101.8,298.2h-2.6c-0.1,0-0.2,0.1-0.2,0.2v2.4c0,0.1,0.1,0.2,0.2,0.2h2.6
		c0.1,0,0.2-0.1,0.2-0.2l0-2.4C102,298.3,101.9,298.2,101.8,298.2L101.8,298.2z"/>
	<path d="M100,300.2c0,0,0.1,0.1,0.1,0.1h0c0,0,0.1,0,0.1-0.1l1.1-1c0.1-0.1,0.1-0.2,0-0.3c-0.1-0.1-0.2-0.1-0.3,0l-0.9,0.8
		l-0.3-0.4c-0.1-0.1-0.2-0.1-0.3-0.1c-0.1,0.1-0.1,0.2-0.1,0.3L100,300.2z"/>
	<path d="M101.6,303.8h-2.2v-2h2.2L101.6,303.8z M101.8,301.4h-2.6c-0.1,0-0.2,0.1-0.2,0.2v2.4c0,0.1,0.1,0.2,0.2,0.2h2.6
		c0.1,0,0.2-0.1,0.2-0.2l0-2.4C102,301.5,101.9,301.4,101.8,301.4L101.8,301.4z"/>
	<path d="M100,303.2c0,0,0.1,0.1,0.1,0.1h0c0,0,0.1,0,0.1-0.1l1.1-1c0.1-0.1,0.1-0.2,0-0.3c-0.1-0.1-0.2-0.1-0.3,0l-0.9,0.8
		l-0.3-0.4c-0.1-0.1-0.2-0.1-0.3-0.1c-0.1,0.1-0.1,0.2-0.1,0.3L100,303.2z"/>
	<path d="M101.6,307.1h-2.2v-2h2.2L101.6,307.1z M101.8,304.7h-2.6c-0.1,0-0.2,0.1-0.2,0.2v2.4c0,0.1,0.1,0.2,0.2,0.2h2.6
		c0.1,0,0.2-0.1,0.2-0.2l0-2.4C102,304.8,101.9,304.7,101.8,304.7L101.8,304.7z"/>
	<path d="M100,306.6c0,0,0.1,0.1,0.1,0.1h0c0,0,0.1,0,0.1-0.1l1.1-1c0.1-0.1,0.1-0.2,0-0.3c-0.1-0.1-0.2-0.1-0.3,0l-0.9,0.8
		l-0.3-0.4c-0.1-0.1-0.2-0.1-0.3-0.1s-0.1,0.2-0.1,0.3L100,306.6z"/>
	<path d="M91.6,297.8c0-0.8,0.6-1.4,1.4-1.4h1.9c0.8,0,1.4,0.6,1.4,1.4v0.6h-4.6L91.6,297.8z M94,293.3c0.6,0,1.1,0.5,1.1,1.1
		c0,0.6-0.5,1.1-1.1,1.1c-0.6,0-1.1-0.5-1.1-1.1C92.8,293.8,93.3,293.3,94,293.3z M91.3,298.9h5.2c0.2,0,0.3-0.1,0.3-0.3v-0.8
		c0-1.1-0.9-1.9-1.9-1.9h0c0.5-0.3,0.8-0.8,0.8-1.4c0-0.9-0.8-1.7-1.7-1.7c-0.9,0-1.7,0.8-1.7,1.7c0,0.6,0.3,1.1,0.8,1.4H93
		c-1.1,0-1.9,0.9-1.9,1.9v0.8C91.1,298.8,91.2,298.9,91.3,298.9L91.3,298.9z"/>
	<path d="M91.4,300c-0.2,0-0.3,0.1-0.3,0.3c0,0.2,0.1,0.3,0.3,0.3l5.3,0c0.2,0,0.3-0.1,0.3-0.3c0-0.2-0.1-0.3-0.3-0.3L91.4,300z"/>
	<path d="M96.7,301.8h-5.3c-0.2,0-0.3,0.1-0.3,0.3c0,0.2,0.1,0.3,0.3,0.3l5.3,0c0.2,0,0.3-0.1,0.3-0.3C97,302,96.9,301.8,96.7,301.8
		L96.7,301.8z"/>
	<path d="M96.9,303.7h-5.6c-0.1,0-0.1,0.1-0.1,0.3c0,0.2,0.1,0.3,0.1,0.3l5.6,0c0.1,0,0.1-0.1,0.1-0.3
		C97.1,303.8,97,303.7,96.9,303.7L96.9,303.7z"/>
	<path d="M96.9,305.6h-5.6c-0.1,0-0.1,0.1-0.1,0.3c0,0.2,0.1,0.3,0.1,0.3l5.6,0c0.1,0,0.1-0.1,0.1-0.3
		C97.1,305.7,97,305.6,96.9,305.6L96.9,305.6z"/>
	<path d="M96.9,307.5h-5.6c-0.1,0-0.1,0.1-0.1,0.3c0,0.2,0.1,0.3,0.1,0.3l5.6,0c0.1,0,0.1-0.1,0.1-0.3
		C97.1,307.6,97,307.5,96.9,307.5z"/>
</g>
<g>
	<path d="M125.1,309.1h-13.6v-16.9h8.8v4.4c0,0.2,0.1,0.3,0.3,0.3l4.6,0L125.1,309.1z M120.8,292.6l3.9,3.7l-3.9,0V292.6z
		 M125.6,296.5C125.6,296.4,125.6,296.4,125.6,296.5l-4.9-4.7c0,0-0.1-0.1-0.1-0.1h-0.1h-9.3c-0.2,0-0.3,0.1-0.3,0.3v17.4
		c0,0.2,0.1,0.3,0.3,0.3h14.2c0.2,0,0.3-0.1,0.3-0.3v-1.1l0-11.7C125.6,296.6,125.6,296.5,125.6,296.5L125.6,296.5z"/>
	<path d="M123.2,300.6h-2.2v-2h2.2L123.2,300.6z M123.4,298.2h-2.6c-0.1,0-0.2,0.1-0.2,0.2v2.4c0,0.1,0.1,0.2,0.2,0.2h2.6
		c0.1,0,0.2-0.1,0.2-0.2l0-2.4C123.5,298.3,123.5,298.2,123.4,298.2L123.4,298.2z"/>
	<path d="M121.6,300.2c0,0,0.1,0.1,0.1,0.1h0c0,0,0.1,0,0.1-0.1l1.1-1c0.1-0.1,0.1-0.2,0-0.3c-0.1-0.1-0.2-0.1-0.3,0l-0.9,0.8
		l-0.3-0.4c-0.1-0.1-0.2-0.1-0.3-0.1c-0.1,0.1-0.1,0.2-0.1,0.3L121.6,300.2z"/>
	<path d="M123.2,303.8H121v-2h2.2L123.2,303.8z M123.4,301.4h-2.6c-0.1,0-0.2,0.1-0.2,0.2v2.4c0,0.1,0.1,0.2,0.2,0.2h2.6
		c0.1,0,0.2-0.1,0.2-0.2l0-2.4C123.6,301.5,123.5,301.4,123.4,301.4L123.4,301.4z"/>
	<path d="M121.6,303.2c0,0,0.1,0.1,0.1,0.1h0c0,0,0.1,0,0.1-0.1l1.1-1c0.1-0.1,0.1-0.2,0-0.3c-0.1-0.1-0.2-0.1-0.3,0l-0.9,0.8
		l-0.3-0.4c-0.1-0.1-0.2-0.1-0.3-0.1c-0.1,0.1-0.1,0.2-0.1,0.3L121.6,303.2z"/>
	<path d="M123.2,307.1H121v-2h2.2L123.2,307.1z M123.4,304.7h-2.6c-0.1,0-0.2,0.1-0.2,0.2v2.4c0,0.1,0.1,0.2,0.2,0.2h2.6
		c0.1,0,0.2-0.1,0.2-0.2l0-2.4C123.6,304.8,123.5,304.7,123.4,304.7L123.4,304.7z"/>
	<path d="M121.5,306.6c0,0,0.1,0.1,0.1,0.1h0c0,0,0.1,0,0.1-0.1l1.1-1c0.1-0.1,0.1-0.2,0-0.3c-0.1-0.1-0.2-0.1-0.3,0l-0.9,0.8
		l-0.3-0.4c-0.1-0.1-0.2-0.1-0.3-0.1c-0.1,0.1-0.1,0.2-0.1,0.3L121.5,306.6z"/>
	<path d="M113.2,297.8c0-0.8,0.6-1.4,1.4-1.4h1.9c0.8,0,1.4,0.6,1.4,1.4v0.6h-4.6L113.2,297.8z M115.5,293.3c0.6,0,1.1,0.5,1.1,1.1
		c0,0.6-0.5,1.1-1.1,1.1c-0.6,0-1.1-0.5-1.1-1.1C114.4,293.8,114.9,293.3,115.5,293.3z M112.9,298.9h5.2c0.2,0,0.3-0.1,0.3-0.3v-0.8
		c0-1.1-0.9-1.9-1.9-1.9h0c0.5-0.3,0.8-0.8,0.8-1.4c0-0.9-0.8-1.7-1.7-1.7c-0.9,0-1.7,0.8-1.7,1.7c0,0.6,0.3,1.1,0.8,1.4h-0.1
		c-1.1,0-1.9,0.9-1.9,1.9v0.8C112.6,298.8,112.8,298.9,112.9,298.9L112.9,298.9z"/>
	<path d="M113,300c-0.2,0-0.3,0.1-0.3,0.3c0,0.2,0.1,0.3,0.3,0.3l5.3,0c0.2,0,0.3-0.1,0.3-0.3c0-0.2-0.1-0.3-0.3-0.3L113,300z"/>
	<path d="M118.3,301.8H113c-0.2,0-0.3,0.1-0.3,0.3c0,0.2,0.1,0.3,0.3,0.3l5.3,0c0.2,0,0.3-0.1,0.3-0.3
		C118.6,302,118.4,301.8,118.3,301.8L118.3,301.8z"/>
	<path d="M118.5,303.7h-5.6c-0.1,0-0.1,0.1-0.1,0.3c0,0.2,0.1,0.3,0.1,0.3l5.6,0c0.1,0,0.1-0.1,0.1-0.3
		C118.6,303.8,118.6,303.7,118.5,303.7L118.5,303.7z"/>
	<path d="M118.5,305.6h-5.6c-0.1,0-0.1,0.1-0.1,0.3c0,0.2,0.1,0.3,0.1,0.3l5.6,0c0.1,0,0.1-0.1,0.1-0.3
		C118.6,305.7,118.6,305.6,118.5,305.6L118.5,305.6z"/>
	<path d="M118.5,307.5h-5.6c-0.1,0-0.1,0.1-0.1,0.3c0,0.2,0.1,0.3,0.1,0.3l5.6,0c0.1,0,0.1-0.1,0.1-0.3
		C118.6,307.6,118.6,307.5,118.5,307.5z"/>
</g>
<g>
	<path d="M154.5,278.5L154.5,278.5c-1.8,0-3.6,0.7-4.9,2.1c-1.7,1.8-2.4,4.4-1.7,6.8c0.6,2.4,2.5,4.3,4.8,4.9c2.4,0.7,4.9,0,6.6-1.8
		c1.3-1.3,2-3.1,2-5c0-1.9-0.7-3.7-2-5C158.1,279.2,156.3,278.5,154.5,278.5L154.5,278.5z M154.5,293.6c-1.5,0-3-0.4-4.2-1.3
		c-2-1.3-3.4-3.5-3.6-5.9c-0.3-2.4,0.6-4.9,2.3-6.6c1.5-1.5,3.5-2.4,5.6-2.4c2.1,0,4.1,0.8,5.6,2.4c1.5,1.5,2.3,3.6,2.3,5.7
		c0,2.1-0.8,4.2-2.3,5.7C158.6,292.7,156.6,293.6,154.5,293.6L154.5,293.6z"/>
	<path d="M156.2,280.8c-0.7-0.2-1.4-0.3-2.1-0.2l-0.2-1c0.9-0.1,1.8-0.1,2.6,0.2L156.2,280.8z"/>
	<path d="M148.1,290.4l-7,7.1c-0.1,0.1-0.1,0.3,0,0.5l1.1,1.1c0.1,0.1,0.3,0.1,0.4,0l7-7.1C149.1,291.5,148.6,291,148.1,290.4
		L148.1,290.4z M142.5,300.2c-0.4,0-0.7-0.1-1-0.4l-1.1-1.1c-0.5-0.5-0.5-1.4,0-2l7.4-7.6c0.1-0.1,0.3-0.2,0.4-0.2
		c0.2,0,0.3,0.1,0.4,0.2c0.5,0.9,1.3,1.6,2.1,2.2c0.1,0.1,0.2,0.2,0.2,0.4c0,0.2,0,0.3-0.1,0.4l-7.4,7.6
		C143.2,300.1,142.8,300.2,142.5,300.2L142.5,300.2z"/>
	<path d="M164.7,275.7h4.8l-4.8-4.9V275.7z M170.8,276.7h-6.6c-0.1,0-0.3-0.1-0.4-0.2c-0.1-0.1-0.2-0.2-0.2-0.4v-6.7
		c0-0.2,0.1-0.4,0.3-0.5c0.2-0.1,0.4,0,0.6,0.1l6.6,6.7c0.1,0.2,0.2,0.4,0.1,0.6C171.2,276.6,171,276.7,170.8,276.7L170.8,276.7z"/>
	<path d="M170.8,300.5h-22.4c-0.1,0-0.3-0.1-0.4-0.2c-0.1-0.1-0.2-0.2-0.2-0.4v-3.1h1v2.6h21.3l0-23L164,270h-15v7.7h-1l0-8.3
		c0-0.3,0.2-0.5,0.5-0.5h15.8c0.1,0,0.3,0.1,0.4,0.2l6.6,6.7c0.1,0.1,0.2,0.2,0.2,0.4v23.7c0,0.1-0.1,0.3-0.2,0.4
		C171.1,300.4,171,300.5,170.8,300.5L170.8,300.5z"/>
	<rect x="151.4" y="283.9" width="1" height="4.3"/>
	<rect x="153.7" y="285.2" width="1" height="3.1"/>
	<rect x="156.3" y="282.7" width="1" height="5.5"/>
	<rect x="158.9" y="294.9" width="4.9" height="1.1"/>
	<rect x="158.9" y="298.2" width="4.9" height="1.1"/>
	<rect x="150" y="298" width="7.3" height="1.1"/>
	<rect x="150.3" y="294.9" width="7.3" height="1.1"/>
	<path d="M151.5,275.1c0-0.7,0.6-1.3,1.3-1.3h1.8c0.7,0,1.3,0.6,1.3,1.3v0.5h-4.4L151.5,275.1z M153.8,270.8c0.6,0,1.1,0.5,1.1,1.1
		c0,0.6-0.5,1.1-1.1,1.1s-1.1-0.5-1.1-1.1C152.7,271.3,153.2,270.8,153.8,270.8z M151.3,276.2h4.9c0.2,0,0.3-0.1,0.3-0.3v-0.8
		c0-1-0.8-1.8-1.8-1.8h0c0.4-0.3,0.7-0.8,0.7-1.4c0-0.9-0.7-1.6-1.6-1.6c-0.9,0-1.6,0.7-1.6,1.6c0,0.6,0.3,1.1,0.7,1.4h-0.1
		c-1,0-1.8,0.8-1.8,1.8v0.8C151,276,151.2,276.2,151.3,276.2L151.3,276.2z"/>
	<path d="M167.4,283.2h-3.2v-3h3.2L167.4,283.2z M167.7,279.7H164c-0.2,0-0.3,0.1-0.3,0.3v3.5c0,0.2,0.1,0.3,0.3,0.3h3.7
		c0.2,0,0.3-0.1,0.3-0.3l0-3.5C167.9,279.8,167.8,279.7,167.7,279.7L167.7,279.7z"/>
	<path d="M165.2,282.6c0.1,0.1,0.1,0.1,0.2,0.1h0c0.1,0,0.1,0,0.2-0.1l1.6-1.4c0.1-0.1,0.1-0.3,0-0.4c-0.1-0.1-0.3-0.1-0.4,0
		l-1.3,1.2l-0.4-0.6c-0.1-0.1-0.2-0.2-0.4-0.1c-0.1,0.1-0.2,0.2-0.1,0.4L165.2,282.6z"/>
	<path d="M167.5,287.9h-3.2v-3h3.2L167.5,287.9z M167.7,284.4H164c-0.2,0-0.3,0.1-0.3,0.3v3.5c0,0.2,0.1,0.3,0.3,0.3h3.7
		c0.2,0,0.3-0.1,0.3-0.3l0-3.5C168,284.5,167.9,284.4,167.7,284.4L167.7,284.4z"/>
	<path d="M165.2,287c0.1,0.1,0.1,0.1,0.2,0.1h0c0.1,0,0.1,0,0.2-0.1l1.6-1.4c0.1-0.1,0.1-0.3,0-0.4c-0.1-0.1-0.3-0.1-0.4,0l-1.3,1.2
		l-0.4-0.6c-0.1-0.1-0.2-0.2-0.4-0.1s-0.2,0.2-0.1,0.4L165.2,287z"/>
	<path d="M167.5,292.7h-3.2v-3h3.2L167.5,292.7z M167.7,289.2H164c-0.2,0-0.3,0.1-0.3,0.3v3.5c0,0.2,0.1,0.3,0.3,0.3h3.7
		c0.2,0,0.3-0.1,0.3-0.3l0-3.5C168,289.4,167.9,289.2,167.7,289.2L167.7,289.2z"/>
	<path d="M165.1,292c0.1,0.1,0.1,0.1,0.2,0.1h0c0.1,0,0.1,0,0.2-0.1l1.6-1.4c0.1-0.1,0.1-0.3,0-0.4c-0.1-0.1-0.3-0.1-0.4,0l-1.3,1.2
		l-0.4-0.6c-0.1-0.1-0.2-0.2-0.4-0.1c-0.1,0.1-0.2,0.2-0.1,0.4L165.1,292z"/>
</g>
<rect x="172.4" y="164.7" fill="none" width="196" height="56.4"/>
<text transform="matrix(1 0 0 1 172.4102 175.8589)"><tspan x="0" y="0" font-family="'Arial-BoldMT'" font-size="13px">34% Subject-matter familiarity</tspan><tspan x="0" y="15.6" font-family="'ArialMT'" font-size="13px">24% Specialized doc type skills</tspan><tspan x="0" y="31.2" font-family="'ArialMT'" font-size="13px">17% TW-specific skills</tspan></text>
<text transform="matrix(1 0 0 1 172.4102 144.9183)" font-family="'ArialMT'" font-size="18px">Highlights</text>
<text transform="matrix(1 0 0 1 66.2708 146.4265)"><tspan x="0" y="0" font-family="'ArialMT'" font-size="18px">Scope: </tspan><tspan x="0" y="14.4" font-family="'ArialMT'" font-size="12px"> </tspan><tspan x="0" y="28.8" font-family="'ArialMT'" font-size="12px">&lt; 2 yrs</tspan><tspan x="0" y="43.2" font-family="'ArialMT'" font-size="12px">“technical writer”</tspan><tspan x="0" y="57.6" font-family="'ArialMT'" font-size="12px">327 job ads</tspan></text>
<text transform="matrix(1 0 0 1 81.679 241.7415)" font-family="'ArialMT'" font-size="13px">2006</text>
<path d="M426.6,131.7c-0.1,0-0.1-0.1-0.1-0.2v-2.1c0.3-0.6,0.4-1.2,0.6-1.9c0.1,0,0.1,0.1,0.2,0.1c0.3,0,0.6-0.4,1-1.7
	c0.4-1.4,0.2-1.9-0.2-2.1c1.2-5.4-1.4-5.6-1.4-5.6s-0.4-0.7-1.4-1.2c-0.6-0.4-1.4-0.6-2.4-0.6h-0.5c-0.4,0-0.8,0.1-1.2,0.2
	c-0.4,0.2-0.9,0.4-1.2,0.6c-0.4,0.3-0.9,0.6-1.3,1.1c-0.6,0.6-1.2,1.4-1.4,2.5c-0.3,0.9-0.2,1.8,0.1,2.8h-0.1
	c-0.4,0-0.9,0.4-0.4,2.1c0.4,1.3,0.7,1.7,1,1.7c0.1,0.8,0.4,1.6,0.8,2.4v1.8c0,0.1,0,0.2-0.1,0.2c-0.6,0.4-3.9,2-7,4.5
	c-0.5,0.4-0.9,1.2-0.9,1.9l0,3.3v12.5c0,1.9,0.6,3.7,1.9,5.1l2.5,2.9l2.3,29.3c0.1,1,0.9,1.8,2,1.8h6.5c1.1,0,1.9-0.8,2-1.8
	l2.2-29.3l2.5-2.9c1.2-1.4,1.9-3.3,1.9-5.2l0-12.4V138c0-0.7-0.4-1.3-0.9-1.9C430.6,133.7,427.4,132.1,426.6,131.7L426.6,131.7z
	 M384,152.8l-1.9,1.9l1.6,1.6l1.9-1.9l1.9,1.9l1.6-1.6l-1.9-1.9l1.9-1.9l-1.6-1.6l-1.9,1.9l-1.9-1.9l-1.6,1.6L384,152.8z
	 M378.8,156.9v-8.3c0-1.4,1.2-2.7,2.7-2.7h8.3c1.4,0,2.7,1.2,2.7,2.7v8.3c0,1.4-1.2,2.7-2.7,2.7h-8.4
	C380,159.5,378.8,158.3,378.8,156.9L378.8,156.9z M384,133.1l-1.9,1.9l1.6,1.6l1.9-1.9l1.9,1.9l1.6-1.6l-1.9-1.9l1.9-1.9l-1.6-1.6
	l-1.9,1.9l-1.9-1.9l-1.6,1.6L384,133.1z M378.8,137.2v-8.3c0-1.4,1.2-2.7,2.7-2.7h8.3c1.4,0,2.7,1.2,2.7,2.7v8.3
	c0,1.4-1.2,2.7-2.7,2.7h-8.4C380,139.9,378.8,138.8,378.8,137.2L378.8,137.2z M381.3,172.7l3.1,3.1l1.6-1.6l3.7-3.7l-1.6-1.6
	l-3.7,3.7l-1.5-1.5L381.3,172.7z M378.8,176.5v-8.3c0-1.4,1.2-2.7,2.7-2.7h8.3c1.4,0,2.7,1.2,2.7,2.7v8.3c0,1.4-1.2,2.7-2.7,2.7
	h-8.4C380,179.2,378.8,177.9,378.8,176.5L378.8,176.5z M401.3,172.3v-18.1h4.6v-3h-4.6v-18c0-0.8-0.7-1.5-1.5-1.5h-4.9v3h3.4v16.6
	h-3.4v3h3.4l0,16.5h-3.4v3h4.9C400.6,173.8,401.3,173.2,401.3,172.3L401.3,172.3z M461.3,133.1l1.9-1.9l-1.6-1.6l-1.9,1.9l-1.9-1.9
	l-1.6,1.6l1.9,1.9l-1.9,1.9l1.6,1.6l1.9-1.9l1.9,1.9l1.6-1.6L461.3,133.1z M466.4,128.9v8.3c0,1.4-1.2,2.7-2.7,2.7h-8.3
	c-1.4,0-2.7-1.2-2.7-2.7v-8.3c0-1.4,1.2-2.7,2.7-2.7h8.3C465.3,126.3,466.4,127.5,466.4,128.9z M461.3,172.3l1.9-1.9l-1.6-1.6
	l-1.9,2l-1.9-1.9l-1.6,1.6l1.9,1.9l-1.9,1.9l1.6,1.6l1.9-1.9l1.9,1.9l1.6-1.6L461.3,172.3z M466.4,168.2v8.3c0,1.4-1.2,2.7-2.7,2.7
	h-8.3c-1.4,0-2.7-1.2-2.7-2.7v-8.3c0-1.4,1.2-2.7,2.7-2.7h8.3C465.3,165.5,466.4,166.7,466.4,168.2z M463.9,150.9l-1.6-1.6l-3.7,3.7
	l-1.5-1.5l-1.6,1.6l3.1,3.1l1.6-1.6L463.9,150.9z M466.4,148.6v8.3c0,1.4-1.2,2.7-2.7,2.7h-8.3c-1.4,0-2.7-1.2-2.7-2.7v-8.3
	c0-1.4,1.2-2.7,2.7-2.7h8.3C465.3,145.9,466.4,147.1,466.4,148.6z M443.9,154.2h-4.6v-3h4.6v-18c0-0.8,0.7-1.5,1.5-1.5h4.9v3H447
	v16.6h3.4v3H447l0,16.5h3.4v3h-4.9c-0.8,0-1.5-0.7-1.5-1.5L443.9,154.2z"/>
<path d="M500.4,214.6c3.4,0,6.2-5.9,6.2-9.3c0-3.4-2.8-6.2-6.2-6.2s-6.2,2.8-6.2,6.2C494.2,208.7,496.9,214.6,500.4,214.6z"/>
<path d="M530.7,227.3c-0.1-1-0.9-1.8-2-1.8l-9.8,0.1l-7.8-7.2l0,0c-0.4-0.4-0.8-0.7-1.3-0.9c-0.4-0.1-4.6-1.6-4.6-1.6l-3.2,5
	l-0.2-4.2h-2.9l-0.2,4.2l-3.2-5c0,0-4.2,1.5-4.6,1.6c-6.7,2.1-3.7,28.8-1,26.5v35.2c0,2.2,1.7,3.9,3.9,3.9h0.2
	c2.1,0,3.8-1.6,3.9-3.6l1.6-24.1h1.8l1.6,24.1c0.1,2,1.8,3.6,3.9,3.6h0.2c2.2,0,3.9-1.7,3.9-3.9v-52.9l5.7,3.6l0.3,0.2
	c0.4,0.2,0.9,0.4,1.4,0.3l10.8-1.2C530,229.2,530.7,228.3,530.7,227.3L530.7,227.3z"/>
<path d="M530.7,216.4c-4.1,0-7.5-3.3-7.5-7.5s3.3-7.5,7.5-7.5s7.5,3.3,7.5,7.5S534.8,216.4,530.7,216.4z M543.3,211
	c0.1-0.7,0.2-1.4,0.2-2.1c0-0.7-0.1-1.4-0.2-2.1h-2.6c-0.3-1.3-0.8-2.5-1.5-3.6l1.8-1.8c-0.8-1.1-1.8-2.1-2.9-2.9l-1.8,1.8
	c-1.1-0.7-2.3-1.2-3.6-1.5l0-2.6c-0.7-0.1-1.4-0.2-2.1-0.2c-0.7,0-1.4,0.1-2.1,0.2v2.6c-1.3,0.3-2.5,0.8-3.6,1.5l-1.8-1.8
	c-1.1,0.8-2.1,1.8-2.9,2.9l1.8,1.8c-0.7,1.1-1.2,2.3-1.5,3.6H518c-0.1,0.7-0.2,1.4-0.2,2.1c0,0.7,0.1,1.4,0.2,2.1h2.6
	c0.3,1.3,0.8,2.5,1.5,3.6l-1.8,1.8c0.8,1.1,1.8,2.1,2.9,2.9l1.8-1.8c1.1,0.7,2.3,1.2,3.6,1.5v2.6c0.7,0.1,1.4,0.2,2.1,0.2
	c0.7,0,1.4-0.1,2.1-0.2v-2.6c1.3-0.3,2.5-0.8,3.6-1.5l1.8,1.8c1.1-0.8,2.1-1.8,2.9-2.9l-1.8-1.8c0.7-1.1,1.2-2.3,1.5-3.6L543.3,211z
	"/>
<path d="M535.6,208.9c0,2.7-2.2,4.9-4.9,4.9c-2.7,0-4.9-2.2-4.9-4.9c0-2.7,2.2-4.9,4.9-4.9C533.4,204,535.6,206.2,535.6,208.9"/>
<text transform="matrix(1 0 0 1 396.7309 205.8127)"><tspan x="0" y="0" font-family="'ArialMT'" font-size="10.7086px">Generalist </tspan><tspan x="-4.8" y="12.9" font-family="'ArialMT'" font-size="10.7086px">opportunities</tspan></text>
<text transform="matrix(1 0 0 1 477.4379 297.7932)"><tspan x="0" y="0" font-family="'ArialMT'" font-size="10.7086px">Specialist</tspan><tspan x="-7.7" y="12.9" font-family="'ArialMT'" font-size="10.7086px">opportunities</tspan></text>
<line fill="none" stroke="#000000" stroke-width="2" stroke-miterlimit="10" x1="543.5" y1="103.4" x2="405.7" y2="300.3"/>
</svg>
